<?xml version="1.0" encoding="utf-8"?>
<!-- Generator: Adobe Illustrator 19.1.0, SVG Export Plug-In . SVG Version: 6.00 Build 0)  -->
<svg version="1.1" id="Layer_1" xmlns="http://www.w3.org/2000/svg" xmlns:xlink="http://www.w3.org/1999/xlink" x="0px" y="0px"
	 width="168.504px" height="58.569px" viewBox="0 0 168.504 58.569" style="enable-background:new 0 0 168.504 58.569;"
	 xml:space="preserve">
<style type="text/css">
	.st0{fill:url(#SVGID_1_);}
</style>
<linearGradient id="SVGID_1_" gradientUnits="userSpaceOnUse" x1="0" y1="29.2847" x2="168.504" y2="29.2847">
	<stop  offset="0" style="stop-color:#00E5D2"/>
	<stop  offset="0.5" style="stop-color:#00E8A8"/>
	<stop  offset="1" style="stop-color:#33FFC5"/>
</linearGradient>
<path class="st0" d="M34.853,0.85l2.55,0.255c-1.02,10.371-3.485,19.636-10.966,19.636c-10.286,0-7.651-17.171-15.471-17.171
	c-4.846,0-7.311,6.036-8.416,17.342L0,20.486C1.02,10.116,3.57,1.02,10.966,1.02c10.286,0,7.65,17.256,15.471,17.256
	C31.282,18.276,33.748,12.326,34.853,0.85z M88.232,29.242c0,13.091-5.271,29.327-20.147,29.327
	c-14.961,0-20.231-16.236-20.231-29.327C47.854,16.066,53.125,0,68.085,0C82.962,0,88.232,16.066,88.232,29.242z M85.257,29.242
	c0-12.071-4.08-26.692-17.171-26.692c-13.091,0-17.256,14.621-17.256,26.692c0,11.986,4.166,26.777,17.256,26.777
	C81.092,56.019,85.257,41.228,85.257,29.242z M101.745,52.789c-1.53,0-2.805,1.275-2.805,2.72c0,1.53,1.275,2.805,2.805,2.805
	c1.53,0,2.805-1.275,2.805-2.805C104.55,54.064,103.274,52.789,101.745,52.789z M146.541,0.85h-35.448V3.4h32.218l-24.907,54.149
	h3.061L146.541,2.72V0.85z M160.075,32.601L146.69,57.549h2.191l13.417-24.949H160.075z M146.881,44.117
	c-3.325,0-5.601-2.45-5.601-5.706c0-3.291,2.275-5.811,5.601-5.811c3.36,0,5.671,2.52,5.671,5.811
	C152.552,41.666,150.241,44.117,146.881,44.117z M146.881,42.366c2.101,0,3.57-1.75,3.57-3.955c0-2.311-1.47-4.025-3.57-4.025
	c-2.065,0-3.5,1.715-3.5,4.025C143.381,40.616,144.816,42.366,146.881,42.366z M168.504,51.844c0,3.255-2.31,5.706-5.635,5.706
	c-3.326,0-5.601-2.45-5.601-5.706c0-3.29,2.275-5.811,5.601-5.811C166.194,46.033,168.504,48.554,168.504,51.844z M166.439,51.844
	c0-2.31-1.47-4.025-3.57-4.025c-2.101,0-3.536,1.715-3.536,4.025c0,2.206,1.435,3.956,3.536,3.956
	C164.969,55.799,166.439,54.049,166.439,51.844z"/>
</svg>
