<?xml version="1.0" encoding="utf-8"?>
<!-- Generator: Adobe Illustrator 19.1.0, SVG Export Plug-In . SVG Version: 6.00 Build 0)  -->
<svg version="1.1" id="Layer_1" xmlns="http://www.w3.org/2000/svg" xmlns:xlink="http://www.w3.org/1999/xlink" x="0px" y="0px"
	 width="907px" height="162px" viewBox="0 0 907 162" style="enable-background:new 0 0 907 162;" xml:space="preserve">
<style type="text/css">
	.st0{fill:url(#SVGID_1_);}
</style>
<linearGradient id="SVGID_1_" gradientUnits="userSpaceOnUse" x1="907" y1="81" x2="6.733899e-09" y2="81">
	<stop  offset="0" style="stop-color:#7CF78A"/>
	<stop  offset="1" style="stop-color:#47ABED"/>
</linearGradient>
<path class="st0" d="M871,0h-50c-19.807,0.004-35.996,16.193-36,36v0c0.001,5.513,1.259,10.744,3.497,15.426l-77.152,21.858
	C710.353,71.336,708.335,70,706,70c-3.314,0-6,2.686-6,6c0,0.273,0.025,0.541,0.06,0.804L571.343,113.28
	c-0.992-1.945-3.01-3.28-5.343-3.28c-3.133,0-5.701,2.402-5.973,5.464l-128.213,9.077C431.161,121.934,428.809,120,426,120
	c-3.292,0-5.962,2.652-5.997,5.936l-128.268,18.3C290.982,141.783,288.7,140,286,140c-3.066,0-5.59,2.301-5.951,5.269
	l-128.176,4.502C151.306,147.047,148.892,145,146,145c-3.053,0-5.567,2.282-5.945,5.232l-128.191,4.504
	C11.283,152.03,8.88,150,6,150c-3.314,0-6,2.686-6,6s2.686,6,6,6c3.065,0,5.588-2.299,5.951-5.266l128.177-4.504
	c0.568,2.723,2.981,4.77,5.873,4.77c3.052,0,5.567-2.281,5.945-5.231l128.191-4.503c0.582,2.705,2.985,4.733,5.863,4.733
	c3.239,0,5.872-2.569,5.989-5.78l128.327-18.309c0.799,2.376,3.039,4.089,5.684,4.089c3.133,0,5.702-2.403,5.973-5.466
	l128.213-9.076C560.838,120.066,563.19,122,566,122c3.314,0,6-2.686,6-6c0-0.275-0.025-0.544-0.061-0.81l128.715-36.476
	C701.646,80.663,703.664,82,706,82c3.314,0,6-2.686,6-6c0-0.274-0.025-0.542-0.06-0.806l77.489-21.953
	C795.561,64.396,807.43,72,821,72h50c19.807,0,35.996-16.193,36-36l0,0C906.996,16.193,890.807,0.004,871,0z M6,160
	c-2.206,0-4-1.794-4-4s1.794-4,4-4s4,1.794,4,4S8.206,160,6,160z M146,155c-2.206,0-4-1.794-4-4s1.794-4,4-4s4,1.794,4,4
	S148.206,155,146,155z M286,150c-2.206,0-4-1.794-4-4s1.794-4,4-4c2.206,0,4,1.794,4,4S288.206,150,286,150z M426,130
	c-2.206,0-4-1.794-4-4s1.794-4,4-4c2.206,0,4,1.794,4,4S428.206,130,426,130z M566,120c-2.206,0-4-1.794-4-4s1.794-4,4-4
	s4,1.794,4,4S568.206,120,566,120z M706,80c-2.206,0-4-1.794-4-4c0-2.206,1.794-4,4-4s4,1.794,4,4C710,78.206,708.206,80,706,80z
	 M905,36c0,9.349-3.823,17.845-9.988,24.012C888.845,66.177,880.349,70,871,70h-50c-9.349,0-17.845-3.823-24.012-9.988
	C790.823,53.845,787,45.349,787,36l0,0c0-9.349,3.823-17.845,9.988-24.012C803.155,5.823,811.651,2,821,2h50
	c9.349,0,17.844,3.823,24.012,9.988C901.177,18.155,905,26.651,905,36L905,36z"/>
</svg>
