<?xml version="1.0" encoding="utf-8"?>
<!-- Generator: Adobe Illustrator 16.0.0, SVG Export Plug-In . SVG Version: 6.00 Build 0)  -->
<!DOCTYPE svg PUBLIC "-//W3C//DTD SVG 1.1//EN" "http://www.w3.org/Graphics/SVG/1.1/DTD/svg11.dtd">
<svg version="1.1" id="Layer_1" xmlns="http://www.w3.org/2000/svg" xmlns:xlink="http://www.w3.org/1999/xlink" x="0px" y="0px"
	 width="700px" height="703.078px" viewBox="0 0 700 703.078" enable-background="new 0 0 700 703.078" xml:space="preserve">
<linearGradient id="SVGID_1_" gradientUnits="userSpaceOnUse" x1="16.8804" y1="-105.354" x2="16.8804" y2="-176.9042" gradientTransform="matrix(15.3846 0 0 15.3846 90.2921 2443.1099)">
	<stop  offset="0" style="stop-color:#24C7FB"/>
	<stop  offset="1" style="stop-color:#36E6FF"/>
</linearGradient>
<path fill="url(#SVGID_1_)" d="M700,110.77C700,49.231,649.23,0,587.692,0c-50.771,0-92.309,32.308-106.154,78.461
	c-44.615-23.076-96.923-36.922-150.769-36.922C147.692,41.539,0,189.231,0,372.31c0,183.076,147.692,330.768,330.77,330.768
	c183.076,0,330.77-149.229,330.77-330.768c0-44.615-9.23-87.693-26.153-127.693C666.154,200,700,144.616,700,110.77z
	 M266.154,78.462c-35.385,38.462-67.692,81.539-89.231,136.923H75.385C116.923,147.693,186.154,96.924,266.154,78.462z
	 M66.154,232.308h106.154c-12.308,35.385-18.461,75.385-20,123.076h-120C33.846,310.769,46.154,269.231,66.154,232.308z
	 M30.769,372.31v-1.539h120c0,47.691,4.616,87.691,15.385,123.076H56.923C40,456.923,30.769,415.384,30.769,372.31z M64.615,509.232
	h106.154c21.539,66.152,58.462,112.307,101.539,156.922C181.539,647.693,106.154,589.232,64.615,509.232z M323.077,672.31
	c-9.231,0-18.462,0-26.154-1.539l1.539-1.539c-47.693-47.691-87.693-92.309-110.77-160h135.385V672.31L323.077,672.31z
	 M323.077,493.847H181.539c-9.231-33.846-15.385-73.846-15.385-123.076h156.923V493.847L323.077,493.847z M323.077,355.384H167.692
	c1.539-47.689,9.23-87.691,21.539-123.076h133.846V355.384z M323.077,216.923H193.846c23.077-58.461,60-103.076,96.923-141.538
	c10.769-1.539,20-1.539,30.769-3.077v144.615H323.077z M476.923,110.77L476.923,110.77c0,27.692,21.539,69.23,46.154,106.153
	h-38.462c-21.538-56.922-53.847-100-89.23-138.461C423.077,84.616,450.77,95.385,476.923,110.77z M532.308,232.308
	c27.692,41.539,56.923,75.385,56.923,75.385s10.771-13.848,26.154-33.848c9.23,26.154,13.846,52.309,15.385,80H507.692
	c-1.538-47.691-9.23-87.691-20-123.076h44.614L532.308,232.308L532.308,232.308z M338.462,72.308c10.77,0,20,1.539,29.23,1.539
	c38.462,38.461,73.846,83.077,98.462,141.539H338.462V72.308z M338.462,232.308h133.846c12.309,35.385,20,75.385,21.538,123.076
	H338.462V232.308z M338.462,370.769h155.384c0,49.23-6.152,89.23-15.384,123.076h-140V370.769z M338.462,672.31V509.232h135.384
	c-23.076,67.691-63.076,112.307-110.769,160l1.538,1.537C355.385,670.769,347.692,670.769,338.462,672.31z M387.692,666.154
	c44.614-46.152,81.538-90.77,101.538-158.461h107.691C555.385,589.232,478.462,649.232,387.692,666.154z M604.615,493.847H493.845
	c9.231-35.385,13.848-75.385,15.386-123.076H630.77v1.537C630.77,415.384,621.538,456.923,604.615,493.847z M592.308,170.77
	c-1.538,0-3.077,0-4.614,0c-33.848,0-60-26.154-60-60c0-1.539,0-3.077,0-3.077c1.538-30.769,27.691-55.385,60-55.385
	c33.846,0,60,26.154,60,60C647.692,143.078,623.077,167.693,592.308,170.77z"/>
</svg>
