<?xml version="1.0" encoding="utf-8"?>
<!-- Generator: Adobe Illustrator 19.1.0, SVG Export Plug-In . SVG Version: 6.00 Build 0)  -->
<svg version="1.1" id="Layer_1" xmlns="http://www.w3.org/2000/svg" xmlns:xlink="http://www.w3.org/1999/xlink" x="0px" y="0px"
	 width="511.103px" height="244.264px" viewBox="0 0 511.103 244.264" style="enable-background:new 0 0 511.103 244.264;"
	 xml:space="preserve">
<style type="text/css">
	.st0{fill-rule:evenodd;clip-rule:evenodd;fill:url(#SVGID_1_);}
	.st1{opacity:0.15;}
	.st2{fill:#0B94D9;}
	.st3{fill:#8D95A6;}
</style>
<g>
	<g>
		<linearGradient id="SVGID_1_" gradientUnits="userSpaceOnUse" x1="272.2935" y1="1.188277e-05" x2="272.2935" y2="217">
			<stop  offset="0" style="stop-color:#7CF78A"/>
			<stop  offset="1" style="stop-color:#47ABED"/>
		</linearGradient>
		<path class="st0" d="M37.043,217h24v-41h-24V217z M126.543,217h24v-55h-24V217z M216.543,217h24v-86h-24V217z M305.543,217h24V110
			h-24V217z M395.543,217h23V71h-23V217z M485.543,0v217h22V0H485.543z"/>
	</g>
</g>
<g>
	<g class="st1">
		<path class="st2" d="M507.543,217.5h-0.501v-1h0.501V217.5z M506.042,217.5h-1v-1h1V217.5z M504.042,217.5h-1v-1h1V217.5z
			 M502.042,217.5h-1v-1h1V217.5z M500.042,217.5h-1v-1h1V217.5z M498.042,217.5h-1v-1h1V217.5z M496.042,217.5h-1v-1h1V217.5z
			 M494.042,217.5h-1v-1h1V217.5z M492.042,217.5h-1v-1h1V217.5z M490.042,217.5h-1v-1h1V217.5z M488.042,217.5h-1v-1h1V217.5z
			 M486.042,217.5h-1v-1h1V217.5z M484.042,217.5h-1v-1h1V217.5z M482.042,217.5h-1v-1h1V217.5z M480.042,217.5h-1v-1h1V217.5z
			 M478.042,217.5h-1v-1h1V217.5z M476.042,217.5h-1v-1h1V217.5z M474.042,217.5h-1v-1h1V217.5z M472.042,217.5h-1v-1h1V217.5z
			 M470.042,217.5h-1v-1h1V217.5z M468.042,217.5h-1v-1h1V217.5z M466.042,217.5h-1v-1h1V217.5z M464.042,217.5h-1v-1h1V217.5z
			 M462.042,217.5h-1v-1h1V217.5z M460.042,217.5h-1v-1h1V217.5z M458.042,217.5h-1v-1h1V217.5z M456.042,217.5h-1v-1h1V217.5z
			 M454.042,217.5h-1v-1h1V217.5z M452.042,217.5h-1v-1h1V217.5z M450.042,217.5h-1v-1h1V217.5z M448.042,217.5h-1v-1h1V217.5z
			 M446.042,217.5h-1v-1h1V217.5z M444.042,217.5h-1v-1h1V217.5z M442.042,217.5h-1v-1h1V217.5z M440.042,217.5h-1v-1h1V217.5z
			 M438.042,217.5h-1v-1h1V217.5z M436.042,217.5h-1v-1h1V217.5z M434.042,217.5h-0.999v-1h0.999V217.5z M432.043,217.5h-1v-1h1
			V217.5z M430.043,217.5h-1v-1h1V217.5z M428.043,217.5h-1v-1h1V217.5z M426.043,217.5h-1v-1h1V217.5z M424.043,217.5h-1v-1h1
			V217.5z M422.043,217.5h-1v-1h1V217.5z M420.043,217.5h-1v-1h1V217.5z M418.043,217.5h-1v-1h1V217.5z M416.043,217.5h-1v-1h1
			V217.5z M414.043,217.5h-1v-1h1V217.5z M412.043,217.5h-1v-1h1V217.5z M410.043,217.5h-1v-1h1V217.5z M408.043,217.5h-1v-1h1
			V217.5z M406.043,217.5h-1v-1h1V217.5z M404.043,217.5h-1v-1h1V217.5z M402.043,217.5h-1v-1h1V217.5z M400.043,217.5h-1v-1h1
			V217.5z M398.043,217.5h-1v-1h1V217.5z M396.043,217.5h-1v-1h1V217.5z M394.043,217.5h-1v-1h1V217.5z M392.043,217.5h-1v-1h1
			V217.5z M390.043,217.5h-1v-1h1V217.5z M388.043,217.5h-1v-1h1V217.5z M386.043,217.5h-1v-1h1V217.5z M384.043,217.5h-1v-1h1
			V217.5z M382.043,217.5h-1v-1h1V217.5z M380.043,217.5h-1v-1h1V217.5z M378.043,217.5h-1v-1h1V217.5z M376.043,217.5h-1v-1h1
			V217.5z M374.043,217.5h-1v-1h1V217.5z M372.043,217.5h-1v-1h1V217.5z M370.043,217.5h-1v-1h1V217.5z M368.043,217.5h-1v-1h1
			V217.5z M366.043,217.5h-1v-1h1V217.5z M364.043,217.5h-1v-1h1V217.5z M362.043,217.5h-1v-1h1V217.5z M360.043,217.5h-1v-1h1
			V217.5z M358.043,217.5h-1v-1h1V217.5z M356.043,217.5h-1v-1h1V217.5z M354.043,217.5h-1v-1h1V217.5z M352.043,217.5h-1v-1h1
			V217.5z M350.043,217.5h-1v-1h1V217.5z M348.043,217.5h-1v-1h1V217.5z M346.043,217.5h-1v-1h1V217.5z M344.043,217.5h-1v-1h1
			V217.5z M342.043,217.5h-1v-1h1V217.5z M340.043,217.5h-1v-1h1V217.5z M338.043,217.5h-1v-1h1V217.5z M336.043,217.5h-1v-1h1
			V217.5z M334.043,217.5h-1v-1h1V217.5z M332.043,217.5h-1v-1h1V217.5z M330.043,217.5h-1v-1h1V217.5z M328.043,217.5h-1v-1h1
			V217.5z M326.043,217.5h-1v-1h1V217.5z M324.043,217.5h-1v-1h1V217.5z M322.043,217.5h-1v-1h1V217.5z M320.043,217.5h-1v-1h1
			V217.5z M318.043,217.5h-1v-1h1V217.5z M316.043,217.5h-1v-1h1V217.5z M314.043,217.5h-1v-1h1V217.5z M312.043,217.5h-1v-1h1
			V217.5z M310.043,217.5h-1v-1h1V217.5z M308.043,217.5h-1v-1h1V217.5z M306.043,217.5h-1v-1h1V217.5z M304.043,217.5h-1v-1h1
			V217.5z M302.043,217.5h-1v-1h1V217.5z M300.044,217.5h-1v-1h1V217.5z M298.044,217.5h-1v-1h1V217.5z M296.044,217.5h-1v-1h1
			V217.5z M294.044,217.5h-1v-1h1V217.5z M292.044,217.5h-1v-1h1V217.5z M290.044,217.5h-1v-1h1V217.5z M288.044,217.5h-1v-1h1
			V217.5z M286.044,217.5h-1v-1h1V217.5z M284.044,217.5h-1v-1h1V217.5z M282.044,217.5h-1v-1h1V217.5z M280.044,217.5h-1v-1h1
			V217.5z M278.044,217.5h-1v-1h1V217.5z M276.044,217.5h-1v-1h1V217.5z M274.044,217.5h-1v-1h1V217.5z M272.044,217.5h-1v-1h1
			V217.5z M270.044,217.5h-1v-1h1V217.5z M268.044,217.5h-1v-1h1V217.5z M266.044,217.5h-1v-1h1V217.5z M264.044,217.5h-1v-1h1
			V217.5z M262.044,217.5h-1v-1h1V217.5z M260.044,217.5h-1v-1h1V217.5z M258.044,217.5h-1v-1h1V217.5z M256.044,217.5h-1v-1h1
			V217.5z M254.044,217.5h-1v-1h1V217.5z M252.044,217.5h-1v-1h1V217.5z M250.044,217.5h-1v-1h1V217.5z M248.044,217.5h-1v-1h1
			V217.5z M246.044,217.5h-1v-1h1V217.5z M244.044,217.5h-1v-1h1V217.5z M242.044,217.5h-1v-1h1V217.5z M240.044,217.5h-1v-1h1
			V217.5z M238.044,217.5h-1v-1h1V217.5z M236.044,217.5h-1v-1h1V217.5z M234.044,217.5h-1v-1h1V217.5z M232.044,217.5h-1v-1h1
			V217.5z M230.044,217.5h-1v-1h1V217.5z M228.044,217.5h-1v-1h1V217.5z M226.044,217.5h-1v-1h1V217.5z M224.044,217.5h-1v-1h1
			V217.5z M222.044,217.5h-1v-1h1V217.5z M220.044,217.5h-1v-1h1V217.5z M218.044,217.5h-1v-1h1V217.5z M216.044,217.5h-1v-1h1
			V217.5z M214.044,217.5h-1v-1h1V217.5z M212.044,217.5h-1v-1h1V217.5z M210.044,217.5h-1v-1h1V217.5z M208.044,217.5h-1v-1h1
			V217.5z M206.044,217.5h-1v-1h1V217.5z M204.044,217.5h-1v-1h1V217.5z M202.043,217.5h-1v-1h1V217.5z M200.043,217.5h-1v-1h1
			V217.5z M198.043,217.5h-1v-1h1V217.5z M196.043,217.5h-1v-1h1V217.5z M194.043,217.5h-1v-1h1V217.5z M192.043,217.5h-1v-1h1
			V217.5z M190.043,217.5h-1v-1h1V217.5z M188.043,217.5h-1v-1h1V217.5z M186.043,217.5h-1v-1h1V217.5z M184.043,217.5h-1v-1h1
			V217.5z M182.043,217.5h-1v-1h1V217.5z M180.043,217.5h-1v-1h1V217.5z M178.043,217.5h-1v-1h1V217.5z M176.043,217.5h-1v-1h1
			V217.5z M174.043,217.5h-1v-1h1V217.5z M172.043,217.5h-1v-1h1V217.5z M170.043,217.5h-1v-1h1V217.5z M168.043,217.5h-1v-1h1
			V217.5z M166.043,217.5h-1v-1h1V217.5z M164.043,217.5h-1v-1h1V217.5z M162.043,217.5h-1v-1h1V217.5z M160.043,217.5h-1v-1h1
			V217.5z M158.043,217.5h-1v-1h1V217.5z M156.043,217.5h-1v-1h1V217.5z M154.043,217.5h-1v-1h1V217.5z M152.043,217.5h-1v-1h1
			V217.5z M150.043,217.5h-1v-1h1V217.5z M148.043,217.5h-1v-1h1V217.5z M146.043,217.5h-1v-1h1V217.5z M144.043,217.5h-1v-1h1
			V217.5z M142.043,217.5h-1v-1h1V217.5z M140.043,217.5h-1v-1h1V217.5z M138.043,217.5h-1v-1h1V217.5z M136.043,217.5h-1v-1h1
			V217.5z M134.043,217.5h-1v-1h1V217.5z M132.043,217.5h-1v-1h1V217.5z M130.043,217.5h-1v-1h1V217.5z M128.043,217.5h-1v-1h1
			V217.5z M126.043,217.5h-1v-1h1V217.5z M124.043,217.5h-1v-1h1V217.5z M122.043,217.5h-1v-1h1V217.5z M120.043,217.5h-1v-1h1
			V217.5z M118.043,217.5h-1v-1h1V217.5z M116.043,217.5h-1v-1h1V217.5z M114.043,217.5h-1v-1h1V217.5z M112.043,217.5h-1v-1h1
			V217.5z M110.043,217.5h-1v-1h1V217.5z M108.043,217.5h-1v-1h1V217.5z M106.043,217.5h-1v-1h1V217.5z M104.043,217.5h-1v-1h1
			V217.5z M102.043,217.5h-1v-1h1V217.5z M100.043,217.5h-1v-1h1V217.5z M98.043,217.5h-1v-1h1V217.5z M96.043,217.5h-1v-1h1V217.5z
			 M94.043,217.5h-1v-1h1V217.5z M92.043,217.5h-1v-1h1V217.5z M90.043,217.5h-1v-1h1V217.5z M88.043,217.5h-1v-1h1V217.5z
			 M86.043,217.5h-1v-1h1V217.5z M84.043,217.5h-1v-1h1V217.5z M82.043,217.5h-1v-1h1V217.5z M80.043,217.5h-1v-1h1V217.5z
			 M78.043,217.5h-1v-1h1V217.5z M76.043,217.5h-1v-1h1V217.5z M74.043,217.5h-1v-1h1V217.5z M72.043,217.5h-1v-1h1V217.5z
			 M70.043,217.5h-1v-1h1V217.5z M68.043,217.5h-1v-1h1V217.5z M66.043,217.5h-1v-1h1V217.5z M64.043,217.5h-1v-1h1V217.5z
			 M62.043,217.5h-1v-1h1V217.5z M60.043,217.5h-1v-1h1V217.5z M58.043,217.5h-1v-1h1V217.5z M56.043,217.5h-1v-1h1V217.5z
			 M54.043,217.5h-1v-1h1V217.5z M52.043,217.5h-1v-1h1V217.5z M50.043,217.5h-1v-1h1V217.5z M48.043,217.5h-1v-1h1V217.5z
			 M46.043,217.5h-1v-1h1V217.5z M44.043,217.5h-1v-1h1V217.5z M42.043,217.5h-1v-1h1V217.5z M40.043,217.5h-1v-1h1V217.5z
			 M38.043,217.5h-1v-1h1V217.5z"/>
	</g>
	<g class="st1">
		<path class="st2" d="M507.543,183.5h-0.501v-1h0.501V183.5z M506.042,183.5h-1v-1h1V183.5z M504.042,183.5h-1v-1h1V183.5z
			 M502.042,183.5h-1v-1h1V183.5z M500.042,183.5h-1v-1h1V183.5z M498.042,183.5h-1v-1h1V183.5z M496.042,183.5h-1v-1h1V183.5z
			 M494.042,183.5h-1v-1h1V183.5z M492.042,183.5h-1v-1h1V183.5z M490.042,183.5h-1v-1h1V183.5z M488.042,183.5h-1v-1h1V183.5z
			 M486.042,183.5h-1v-1h1V183.5z M484.042,183.5h-1v-1h1V183.5z M482.042,183.5h-1v-1h1V183.5z M480.042,183.5h-1v-1h1V183.5z
			 M478.042,183.5h-1v-1h1V183.5z M476.042,183.5h-1v-1h1V183.5z M474.042,183.5h-1v-1h1V183.5z M472.042,183.5h-1v-1h1V183.5z
			 M470.042,183.5h-1v-1h1V183.5z M468.042,183.5h-1v-1h1V183.5z M466.042,183.5h-1v-1h1V183.5z M464.042,183.5h-1v-1h1V183.5z
			 M462.042,183.5h-1v-1h1V183.5z M460.042,183.5h-1v-1h1V183.5z M458.042,183.5h-1v-1h1V183.5z M456.042,183.5h-1v-1h1V183.5z
			 M454.042,183.5h-1v-1h1V183.5z M452.042,183.5h-1v-1h1V183.5z M450.042,183.5h-1v-1h1V183.5z M448.042,183.5h-1v-1h1V183.5z
			 M446.042,183.5h-1v-1h1V183.5z M444.042,183.5h-1v-1h1V183.5z M442.042,183.5h-1v-1h1V183.5z M440.042,183.5h-1v-1h1V183.5z
			 M438.042,183.5h-1v-1h1V183.5z M436.042,183.5h-1v-1h1V183.5z M434.042,183.5h-0.999v-1h0.999V183.5z M432.043,183.5h-1v-1h1
			V183.5z M430.043,183.5h-1v-1h1V183.5z M428.043,183.5h-1v-1h1V183.5z M426.043,183.5h-1v-1h1V183.5z M424.043,183.5h-1v-1h1
			V183.5z M422.043,183.5h-1v-1h1V183.5z M420.043,183.5h-1v-1h1V183.5z M418.043,183.5h-1v-1h1V183.5z M416.043,183.5h-1v-1h1
			V183.5z M414.043,183.5h-1v-1h1V183.5z M412.043,183.5h-1v-1h1V183.5z M410.043,183.5h-1v-1h1V183.5z M408.043,183.5h-1v-1h1
			V183.5z M406.043,183.5h-1v-1h1V183.5z M404.043,183.5h-1v-1h1V183.5z M402.043,183.5h-1v-1h1V183.5z M400.043,183.5h-1v-1h1
			V183.5z M398.043,183.5h-1v-1h1V183.5z M396.043,183.5h-1v-1h1V183.5z M394.043,183.5h-1v-1h1V183.5z M392.043,183.5h-1v-1h1
			V183.5z M390.043,183.5h-1v-1h1V183.5z M388.043,183.5h-1v-1h1V183.5z M386.043,183.5h-1v-1h1V183.5z M384.043,183.5h-1v-1h1
			V183.5z M382.043,183.5h-1v-1h1V183.5z M380.043,183.5h-1v-1h1V183.5z M378.043,183.5h-1v-1h1V183.5z M376.043,183.5h-1v-1h1
			V183.5z M374.043,183.5h-1v-1h1V183.5z M372.043,183.5h-1v-1h1V183.5z M370.043,183.5h-1v-1h1V183.5z M368.043,183.5h-1v-1h1
			V183.5z M366.043,183.5h-1v-1h1V183.5z M364.043,183.5h-1v-1h1V183.5z M362.043,183.5h-1v-1h1V183.5z M360.043,183.5h-1v-1h1
			V183.5z M358.043,183.5h-1v-1h1V183.5z M356.043,183.5h-1v-1h1V183.5z M354.043,183.5h-1v-1h1V183.5z M352.043,183.5h-1v-1h1
			V183.5z M350.043,183.5h-1v-1h1V183.5z M348.043,183.5h-1v-1h1V183.5z M346.043,183.5h-1v-1h1V183.5z M344.043,183.5h-1v-1h1
			V183.5z M342.043,183.5h-1v-1h1V183.5z M340.043,183.5h-1v-1h1V183.5z M338.043,183.5h-1v-1h1V183.5z M336.043,183.5h-1v-1h1
			V183.5z M334.043,183.5h-1v-1h1V183.5z M332.043,183.5h-1v-1h1V183.5z M330.043,183.5h-1v-1h1V183.5z M328.043,183.5h-1v-1h1
			V183.5z M326.043,183.5h-1v-1h1V183.5z M324.043,183.5h-1v-1h1V183.5z M322.043,183.5h-1v-1h1V183.5z M320.043,183.5h-1v-1h1
			V183.5z M318.043,183.5h-1v-1h1V183.5z M316.043,183.5h-1v-1h1V183.5z M314.043,183.5h-1v-1h1V183.5z M312.043,183.5h-1v-1h1
			V183.5z M310.043,183.5h-1v-1h1V183.5z M308.043,183.5h-1v-1h1V183.5z M306.043,183.5h-1v-1h1V183.5z M304.043,183.5h-1v-1h1
			V183.5z M302.043,183.5h-1v-1h1V183.5z M300.044,183.5h-1v-1h1V183.5z M298.044,183.5h-1v-1h1V183.5z M296.044,183.5h-1v-1h1
			V183.5z M294.044,183.5h-1v-1h1V183.5z M292.044,183.5h-1v-1h1V183.5z M290.044,183.5h-1v-1h1V183.5z M288.044,183.5h-1v-1h1
			V183.5z M286.044,183.5h-1v-1h1V183.5z M284.044,183.5h-1v-1h1V183.5z M282.044,183.5h-1v-1h1V183.5z M280.044,183.5h-1v-1h1
			V183.5z M278.044,183.5h-1v-1h1V183.5z M276.044,183.5h-1v-1h1V183.5z M274.044,183.5h-1v-1h1V183.5z M272.044,183.5h-1v-1h1
			V183.5z M270.044,183.5h-1v-1h1V183.5z M268.044,183.5h-1v-1h1V183.5z M266.044,183.5h-1v-1h1V183.5z M264.044,183.5h-1v-1h1
			V183.5z M262.044,183.5h-1v-1h1V183.5z M260.044,183.5h-1v-1h1V183.5z M258.044,183.5h-1v-1h1V183.5z M256.044,183.5h-1v-1h1
			V183.5z M254.044,183.5h-1v-1h1V183.5z M252.044,183.5h-1v-1h1V183.5z M250.044,183.5h-1v-1h1V183.5z M248.044,183.5h-1v-1h1
			V183.5z M246.044,183.5h-1v-1h1V183.5z M244.044,183.5h-1v-1h1V183.5z M242.044,183.5h-1v-1h1V183.5z M240.044,183.5h-1v-1h1
			V183.5z M238.044,183.5h-1v-1h1V183.5z M236.044,183.5h-1v-1h1V183.5z M234.044,183.5h-1v-1h1V183.5z M232.044,183.5h-1v-1h1
			V183.5z M230.044,183.5h-1v-1h1V183.5z M228.044,183.5h-1v-1h1V183.5z M226.044,183.5h-1v-1h1V183.5z M224.044,183.5h-1v-1h1
			V183.5z M222.044,183.5h-1v-1h1V183.5z M220.044,183.5h-1v-1h1V183.5z M218.044,183.5h-1v-1h1V183.5z M216.044,183.5h-1v-1h1
			V183.5z M214.044,183.5h-1v-1h1V183.5z M212.044,183.5h-1v-1h1V183.5z M210.044,183.5h-1v-1h1V183.5z M208.044,183.5h-1v-1h1
			V183.5z M206.044,183.5h-1v-1h1V183.5z M204.044,183.5h-1v-1h1V183.5z M202.043,183.5h-1v-1h1V183.5z M200.043,183.5h-1v-1h1
			V183.5z M198.043,183.5h-1v-1h1V183.5z M196.043,183.5h-1v-1h1V183.5z M194.043,183.5h-1v-1h1V183.5z M192.043,183.5h-1v-1h1
			V183.5z M190.043,183.5h-1v-1h1V183.5z M188.043,183.5h-1v-1h1V183.5z M186.043,183.5h-1v-1h1V183.5z M184.043,183.5h-1v-1h1
			V183.5z M182.043,183.5h-1v-1h1V183.5z M180.043,183.5h-1v-1h1V183.5z M178.043,183.5h-1v-1h1V183.5z M176.043,183.5h-1v-1h1
			V183.5z M174.043,183.5h-1v-1h1V183.5z M172.043,183.5h-1v-1h1V183.5z M170.043,183.5h-1v-1h1V183.5z M168.043,183.5h-1v-1h1
			V183.5z M166.043,183.5h-1v-1h1V183.5z M164.043,183.5h-1v-1h1V183.5z M162.043,183.5h-1v-1h1V183.5z M160.043,183.5h-1v-1h1
			V183.5z M158.043,183.5h-1v-1h1V183.5z M156.043,183.5h-1v-1h1V183.5z M154.043,183.5h-1v-1h1V183.5z M152.043,183.5h-1v-1h1
			V183.5z M150.043,183.5h-1v-1h1V183.5z M148.043,183.5h-1v-1h1V183.5z M146.043,183.5h-1v-1h1V183.5z M144.043,183.5h-1v-1h1
			V183.5z M142.043,183.5h-1v-1h1V183.5z M140.043,183.5h-1v-1h1V183.5z M138.043,183.5h-1v-1h1V183.5z M136.043,183.5h-1v-1h1
			V183.5z M134.043,183.5h-1v-1h1V183.5z M132.043,183.5h-1v-1h1V183.5z M130.043,183.5h-1v-1h1V183.5z M128.043,183.5h-1v-1h1
			V183.5z M126.043,183.5h-1v-1h1V183.5z M124.043,183.5h-1v-1h1V183.5z M122.043,183.5h-1v-1h1V183.5z M120.043,183.5h-1v-1h1
			V183.5z M118.043,183.5h-1v-1h1V183.5z M116.043,183.5h-1v-1h1V183.5z M114.043,183.5h-1v-1h1V183.5z M112.043,183.5h-1v-1h1
			V183.5z M110.043,183.5h-1v-1h1V183.5z M108.043,183.5h-1v-1h1V183.5z M106.043,183.5h-1v-1h1V183.5z M104.043,183.5h-1v-1h1
			V183.5z M102.043,183.5h-1v-1h1V183.5z M100.043,183.5h-1v-1h1V183.5z M98.043,183.5h-1v-1h1V183.5z M96.043,183.5h-1v-1h1V183.5z
			 M94.043,183.5h-1v-1h1V183.5z M92.043,183.5h-1v-1h1V183.5z M90.043,183.5h-1v-1h1V183.5z M88.043,183.5h-1v-1h1V183.5z
			 M86.043,183.5h-1v-1h1V183.5z M84.043,183.5h-1v-1h1V183.5z M82.043,183.5h-1v-1h1V183.5z M80.043,183.5h-1v-1h1V183.5z
			 M78.043,183.5h-1v-1h1V183.5z M76.043,183.5h-1v-1h1V183.5z M74.043,183.5h-1v-1h1V183.5z M72.043,183.5h-1v-1h1V183.5z
			 M70.043,183.5h-1v-1h1V183.5z M68.043,183.5h-1v-1h1V183.5z M66.043,183.5h-1v-1h1V183.5z M64.043,183.5h-1v-1h1V183.5z
			 M62.043,183.5h-1v-1h1V183.5z M60.043,183.5h-1v-1h1V183.5z M58.043,183.5h-1v-1h1V183.5z M56.043,183.5h-1v-1h1V183.5z
			 M54.043,183.5h-1v-1h1V183.5z M52.043,183.5h-1v-1h1V183.5z M50.043,183.5h-1v-1h1V183.5z M48.043,183.5h-1v-1h1V183.5z
			 M46.043,183.5h-1v-1h1V183.5z M44.043,183.5h-1v-1h1V183.5z M42.043,183.5h-1v-1h1V183.5z M40.043,183.5h-1v-1h1V183.5z
			 M38.043,183.5h-1v-1h1V183.5z"/>
	</g>
	<g class="st1">
		<path class="st2" d="M507.543,149.5h-0.501v-1h0.501V149.5z M506.042,149.5h-1v-1h1V149.5z M504.042,149.5h-1v-1h1V149.5z
			 M502.042,149.5h-1v-1h1V149.5z M500.042,149.5h-1v-1h1V149.5z M498.042,149.5h-1v-1h1V149.5z M496.042,149.5h-1v-1h1V149.5z
			 M494.042,149.5h-1v-1h1V149.5z M492.042,149.5h-1v-1h1V149.5z M490.042,149.5h-1v-1h1V149.5z M488.042,149.5h-1v-1h1V149.5z
			 M486.042,149.5h-1v-1h1V149.5z M484.042,149.5h-1v-1h1V149.5z M482.042,149.5h-1v-1h1V149.5z M480.042,149.5h-1v-1h1V149.5z
			 M478.042,149.5h-1v-1h1V149.5z M476.042,149.5h-1v-1h1V149.5z M474.042,149.5h-1v-1h1V149.5z M472.042,149.5h-1v-1h1V149.5z
			 M470.042,149.5h-1v-1h1V149.5z M468.042,149.5h-1v-1h1V149.5z M466.042,149.5h-1v-1h1V149.5z M464.042,149.5h-1v-1h1V149.5z
			 M462.042,149.5h-1v-1h1V149.5z M460.042,149.5h-1v-1h1V149.5z M458.042,149.5h-1v-1h1V149.5z M456.042,149.5h-1v-1h1V149.5z
			 M454.042,149.5h-1v-1h1V149.5z M452.042,149.5h-1v-1h1V149.5z M450.042,149.5h-1v-1h1V149.5z M448.042,149.5h-1v-1h1V149.5z
			 M446.042,149.5h-1v-1h1V149.5z M444.042,149.5h-1v-1h1V149.5z M442.042,149.5h-1v-1h1V149.5z M440.042,149.5h-1v-1h1V149.5z
			 M438.042,149.5h-1v-1h1V149.5z M436.042,149.5h-1v-1h1V149.5z M434.042,149.5h-0.999v-1h0.999V149.5z M432.043,149.5h-1v-1h1
			V149.5z M430.043,149.5h-1v-1h1V149.5z M428.043,149.5h-1v-1h1V149.5z M426.043,149.5h-1v-1h1V149.5z M424.043,149.5h-1v-1h1
			V149.5z M422.043,149.5h-1v-1h1V149.5z M420.043,149.5h-1v-1h1V149.5z M418.043,149.5h-1v-1h1V149.5z M416.043,149.5h-1v-1h1
			V149.5z M414.043,149.5h-1v-1h1V149.5z M412.043,149.5h-1v-1h1V149.5z M410.043,149.5h-1v-1h1V149.5z M408.043,149.5h-1v-1h1
			V149.5z M406.043,149.5h-1v-1h1V149.5z M404.043,149.5h-1v-1h1V149.5z M402.043,149.5h-1v-1h1V149.5z M400.043,149.5h-1v-1h1
			V149.5z M398.043,149.5h-1v-1h1V149.5z M396.043,149.5h-1v-1h1V149.5z M394.043,149.5h-1v-1h1V149.5z M392.043,149.5h-1v-1h1
			V149.5z M390.043,149.5h-1v-1h1V149.5z M388.043,149.5h-1v-1h1V149.5z M386.043,149.5h-1v-1h1V149.5z M384.043,149.5h-1v-1h1
			V149.5z M382.043,149.5h-1v-1h1V149.5z M380.043,149.5h-1v-1h1V149.5z M378.043,149.5h-1v-1h1V149.5z M376.043,149.5h-1v-1h1
			V149.5z M374.043,149.5h-1v-1h1V149.5z M372.043,149.5h-1v-1h1V149.5z M370.043,149.5h-1v-1h1V149.5z M368.043,149.5h-1v-1h1
			V149.5z M366.043,149.5h-1v-1h1V149.5z M364.043,149.5h-1v-1h1V149.5z M362.043,149.5h-1v-1h1V149.5z M360.043,149.5h-1v-1h1
			V149.5z M358.043,149.5h-1v-1h1V149.5z M356.043,149.5h-1v-1h1V149.5z M354.043,149.5h-1v-1h1V149.5z M352.043,149.5h-1v-1h1
			V149.5z M350.043,149.5h-1v-1h1V149.5z M348.043,149.5h-1v-1h1V149.5z M346.043,149.5h-1v-1h1V149.5z M344.043,149.5h-1v-1h1
			V149.5z M342.043,149.5h-1v-1h1V149.5z M340.043,149.5h-1v-1h1V149.5z M338.043,149.5h-1v-1h1V149.5z M336.043,149.5h-1v-1h1
			V149.5z M334.043,149.5h-1v-1h1V149.5z M332.043,149.5h-1v-1h1V149.5z M330.043,149.5h-1v-1h1V149.5z M328.043,149.5h-1v-1h1
			V149.5z M326.043,149.5h-1v-1h1V149.5z M324.043,149.5h-1v-1h1V149.5z M322.043,149.5h-1v-1h1V149.5z M320.043,149.5h-1v-1h1
			V149.5z M318.043,149.5h-1v-1h1V149.5z M316.043,149.5h-1v-1h1V149.5z M314.043,149.5h-1v-1h1V149.5z M312.043,149.5h-1v-1h1
			V149.5z M310.043,149.5h-1v-1h1V149.5z M308.043,149.5h-1v-1h1V149.5z M306.043,149.5h-1v-1h1V149.5z M304.043,149.5h-1v-1h1
			V149.5z M302.043,149.5h-1v-1h1V149.5z M300.044,149.5h-1v-1h1V149.5z M298.044,149.5h-1v-1h1V149.5z M296.044,149.5h-1v-1h1
			V149.5z M294.044,149.5h-1v-1h1V149.5z M292.044,149.5h-1v-1h1V149.5z M290.044,149.5h-1v-1h1V149.5z M288.044,149.5h-1v-1h1
			V149.5z M286.044,149.5h-1v-1h1V149.5z M284.044,149.5h-1v-1h1V149.5z M282.044,149.5h-1v-1h1V149.5z M280.044,149.5h-1v-1h1
			V149.5z M278.044,149.5h-1v-1h1V149.5z M276.044,149.5h-1v-1h1V149.5z M274.044,149.5h-1v-1h1V149.5z M272.044,149.5h-1v-1h1
			V149.5z M270.044,149.5h-1v-1h1V149.5z M268.044,149.5h-1v-1h1V149.5z M266.044,149.5h-1v-1h1V149.5z M264.044,149.5h-1v-1h1
			V149.5z M262.044,149.5h-1v-1h1V149.5z M260.044,149.5h-1v-1h1V149.5z M258.044,149.5h-1v-1h1V149.5z M256.044,149.5h-1v-1h1
			V149.5z M254.044,149.5h-1v-1h1V149.5z M252.044,149.5h-1v-1h1V149.5z M250.044,149.5h-1v-1h1V149.5z M248.044,149.5h-1v-1h1
			V149.5z M246.044,149.5h-1v-1h1V149.5z M244.044,149.5h-1v-1h1V149.5z M242.044,149.5h-1v-1h1V149.5z M240.044,149.5h-1v-1h1
			V149.5z M238.044,149.5h-1v-1h1V149.5z M236.044,149.5h-1v-1h1V149.5z M234.044,149.5h-1v-1h1V149.5z M232.044,149.5h-1v-1h1
			V149.5z M230.044,149.5h-1v-1h1V149.5z M228.044,149.5h-1v-1h1V149.5z M226.044,149.5h-1v-1h1V149.5z M224.044,149.5h-1v-1h1
			V149.5z M222.044,149.5h-1v-1h1V149.5z M220.044,149.5h-1v-1h1V149.5z M218.044,149.5h-1v-1h1V149.5z M216.044,149.5h-1v-1h1
			V149.5z M214.044,149.5h-1v-1h1V149.5z M212.044,149.5h-1v-1h1V149.5z M210.044,149.5h-1v-1h1V149.5z M208.044,149.5h-1v-1h1
			V149.5z M206.044,149.5h-1v-1h1V149.5z M204.044,149.5h-1v-1h1V149.5z M202.043,149.5h-1v-1h1V149.5z M200.043,149.5h-1v-1h1
			V149.5z M198.043,149.5h-1v-1h1V149.5z M196.043,149.5h-1v-1h1V149.5z M194.043,149.5h-1v-1h1V149.5z M192.043,149.5h-1v-1h1
			V149.5z M190.043,149.5h-1v-1h1V149.5z M188.043,149.5h-1v-1h1V149.5z M186.043,149.5h-1v-1h1V149.5z M184.043,149.5h-1v-1h1
			V149.5z M182.043,149.5h-1v-1h1V149.5z M180.043,149.5h-1v-1h1V149.5z M178.043,149.5h-1v-1h1V149.5z M176.043,149.5h-1v-1h1
			V149.5z M174.043,149.5h-1v-1h1V149.5z M172.043,149.5h-1v-1h1V149.5z M170.043,149.5h-1v-1h1V149.5z M168.043,149.5h-1v-1h1
			V149.5z M166.043,149.5h-1v-1h1V149.5z M164.043,149.5h-1v-1h1V149.5z M162.043,149.5h-1v-1h1V149.5z M160.043,149.5h-1v-1h1
			V149.5z M158.043,149.5h-1v-1h1V149.5z M156.043,149.5h-1v-1h1V149.5z M154.043,149.5h-1v-1h1V149.5z M152.043,149.5h-1v-1h1
			V149.5z M150.043,149.5h-1v-1h1V149.5z M148.043,149.5h-1v-1h1V149.5z M146.043,149.5h-1v-1h1V149.5z M144.043,149.5h-1v-1h1
			V149.5z M142.043,149.5h-1v-1h1V149.5z M140.043,149.5h-1v-1h1V149.5z M138.043,149.5h-1v-1h1V149.5z M136.043,149.5h-1v-1h1
			V149.5z M134.043,149.5h-1v-1h1V149.5z M132.043,149.5h-1v-1h1V149.5z M130.043,149.5h-1v-1h1V149.5z M128.043,149.5h-1v-1h1
			V149.5z M126.043,149.5h-1v-1h1V149.5z M124.043,149.5h-1v-1h1V149.5z M122.043,149.5h-1v-1h1V149.5z M120.043,149.5h-1v-1h1
			V149.5z M118.043,149.5h-1v-1h1V149.5z M116.043,149.5h-1v-1h1V149.5z M114.043,149.5h-1v-1h1V149.5z M112.043,149.5h-1v-1h1
			V149.5z M110.043,149.5h-1v-1h1V149.5z M108.043,149.5h-1v-1h1V149.5z M106.043,149.5h-1v-1h1V149.5z M104.043,149.5h-1v-1h1
			V149.5z M102.043,149.5h-1v-1h1V149.5z M100.043,149.5h-1v-1h1V149.5z M98.043,149.5h-1v-1h1V149.5z M96.043,149.5h-1v-1h1V149.5z
			 M94.043,149.5h-1v-1h1V149.5z M92.043,149.5h-1v-1h1V149.5z M90.043,149.5h-1v-1h1V149.5z M88.043,149.5h-1v-1h1V149.5z
			 M86.043,149.5h-1v-1h1V149.5z M84.043,149.5h-1v-1h1V149.5z M82.043,149.5h-1v-1h1V149.5z M80.043,149.5h-1v-1h1V149.5z
			 M78.043,149.5h-1v-1h1V149.5z M76.043,149.5h-1v-1h1V149.5z M74.043,149.5h-1v-1h1V149.5z M72.043,149.5h-1v-1h1V149.5z
			 M70.043,149.5h-1v-1h1V149.5z M68.043,149.5h-1v-1h1V149.5z M66.043,149.5h-1v-1h1V149.5z M64.043,149.5h-1v-1h1V149.5z
			 M62.043,149.5h-1v-1h1V149.5z M60.043,149.5h-1v-1h1V149.5z M58.043,149.5h-1v-1h1V149.5z M56.043,149.5h-1v-1h1V149.5z
			 M54.043,149.5h-1v-1h1V149.5z M52.043,149.5h-1v-1h1V149.5z M50.043,149.5h-1v-1h1V149.5z M48.043,149.5h-1v-1h1V149.5z
			 M46.043,149.5h-1v-1h1V149.5z M44.043,149.5h-1v-1h1V149.5z M42.043,149.5h-1v-1h1V149.5z M40.043,149.5h-1v-1h1V149.5z
			 M38.043,149.5h-1v-1h1V149.5z"/>
	</g>
	<g class="st1">
		<path class="st2" d="M507.543,115.5h-0.501v-1h0.501V115.5z M506.042,115.5h-1v-1h1V115.5z M504.042,115.5h-1v-1h1V115.5z
			 M502.042,115.5h-1v-1h1V115.5z M500.042,115.5h-1v-1h1V115.5z M498.042,115.5h-1v-1h1V115.5z M496.042,115.5h-1v-1h1V115.5z
			 M494.042,115.5h-1v-1h1V115.5z M492.042,115.5h-1v-1h1V115.5z M490.042,115.5h-1v-1h1V115.5z M488.042,115.5h-1v-1h1V115.5z
			 M486.042,115.5h-1v-1h1V115.5z M484.042,115.5h-1v-1h1V115.5z M482.042,115.5h-1v-1h1V115.5z M480.042,115.5h-1v-1h1V115.5z
			 M478.042,115.5h-1v-1h1V115.5z M476.042,115.5h-1v-1h1V115.5z M474.042,115.5h-1v-1h1V115.5z M472.042,115.5h-1v-1h1V115.5z
			 M470.042,115.5h-1v-1h1V115.5z M468.042,115.5h-1v-1h1V115.5z M466.042,115.5h-1v-1h1V115.5z M464.042,115.5h-1v-1h1V115.5z
			 M462.042,115.5h-1v-1h1V115.5z M460.042,115.5h-1v-1h1V115.5z M458.042,115.5h-1v-1h1V115.5z M456.042,115.5h-1v-1h1V115.5z
			 M454.042,115.5h-1v-1h1V115.5z M452.042,115.5h-1v-1h1V115.5z M450.042,115.5h-1v-1h1V115.5z M448.042,115.5h-1v-1h1V115.5z
			 M446.042,115.5h-1v-1h1V115.5z M444.042,115.5h-1v-1h1V115.5z M442.042,115.5h-1v-1h1V115.5z M440.042,115.5h-1v-1h1V115.5z
			 M438.042,115.5h-1v-1h1V115.5z M436.042,115.5h-1v-1h1V115.5z M434.042,115.5h-0.999v-1h0.999V115.5z M432.043,115.5h-1v-1h1
			V115.5z M430.043,115.5h-1v-1h1V115.5z M428.043,115.5h-1v-1h1V115.5z M426.043,115.5h-1v-1h1V115.5z M424.043,115.5h-1v-1h1
			V115.5z M422.043,115.5h-1v-1h1V115.5z M420.043,115.5h-1v-1h1V115.5z M418.043,115.5h-1v-1h1V115.5z M416.043,115.5h-1v-1h1
			V115.5z M414.043,115.5h-1v-1h1V115.5z M412.043,115.5h-1v-1h1V115.5z M410.043,115.5h-1v-1h1V115.5z M408.043,115.5h-1v-1h1
			V115.5z M406.043,115.5h-1v-1h1V115.5z M404.043,115.5h-1v-1h1V115.5z M402.043,115.5h-1v-1h1V115.5z M400.043,115.5h-1v-1h1
			V115.5z M398.043,115.5h-1v-1h1V115.5z M396.043,115.5h-1v-1h1V115.5z M394.043,115.5h-1v-1h1V115.5z M392.043,115.5h-1v-1h1
			V115.5z M390.043,115.5h-1v-1h1V115.5z M388.043,115.5h-1v-1h1V115.5z M386.043,115.5h-1v-1h1V115.5z M384.043,115.5h-1v-1h1
			V115.5z M382.043,115.5h-1v-1h1V115.5z M380.043,115.5h-1v-1h1V115.5z M378.043,115.5h-1v-1h1V115.5z M376.043,115.5h-1v-1h1
			V115.5z M374.043,115.5h-1v-1h1V115.5z M372.043,115.5h-1v-1h1V115.5z M370.043,115.5h-1v-1h1V115.5z M368.043,115.5h-1v-1h1
			V115.5z M366.043,115.5h-1v-1h1V115.5z M364.043,115.5h-1v-1h1V115.5z M362.043,115.5h-1v-1h1V115.5z M360.043,115.5h-1v-1h1
			V115.5z M358.043,115.5h-1v-1h1V115.5z M356.043,115.5h-1v-1h1V115.5z M354.043,115.5h-1v-1h1V115.5z M352.043,115.5h-1v-1h1
			V115.5z M350.043,115.5h-1v-1h1V115.5z M348.043,115.5h-1v-1h1V115.5z M346.043,115.5h-1v-1h1V115.5z M344.043,115.5h-1v-1h1
			V115.5z M342.043,115.5h-1v-1h1V115.5z M340.043,115.5h-1v-1h1V115.5z M338.043,115.5h-1v-1h1V115.5z M336.043,115.5h-1v-1h1
			V115.5z M334.043,115.5h-1v-1h1V115.5z M332.043,115.5h-1v-1h1V115.5z M330.043,115.5h-1v-1h1V115.5z M328.043,115.5h-1v-1h1
			V115.5z M326.043,115.5h-1v-1h1V115.5z M324.043,115.5h-1v-1h1V115.5z M322.043,115.5h-1v-1h1V115.5z M320.043,115.5h-1v-1h1
			V115.5z M318.043,115.5h-1v-1h1V115.5z M316.043,115.5h-1v-1h1V115.5z M314.043,115.5h-1v-1h1V115.5z M312.043,115.5h-1v-1h1
			V115.5z M310.043,115.5h-1v-1h1V115.5z M308.043,115.5h-1v-1h1V115.5z M306.043,115.5h-1v-1h1V115.5z M304.043,115.5h-1v-1h1
			V115.5z M302.043,115.5h-1v-1h1V115.5z M300.044,115.5h-1v-1h1V115.5z M298.044,115.5h-1v-1h1V115.5z M296.044,115.5h-1v-1h1
			V115.5z M294.044,115.5h-1v-1h1V115.5z M292.044,115.5h-1v-1h1V115.5z M290.044,115.5h-1v-1h1V115.5z M288.044,115.5h-1v-1h1
			V115.5z M286.044,115.5h-1v-1h1V115.5z M284.044,115.5h-1v-1h1V115.5z M282.044,115.5h-1v-1h1V115.5z M280.044,115.5h-1v-1h1
			V115.5z M278.044,115.5h-1v-1h1V115.5z M276.044,115.5h-1v-1h1V115.5z M274.044,115.5h-1v-1h1V115.5z M272.044,115.5h-1v-1h1
			V115.5z M270.044,115.5h-1v-1h1V115.5z M268.044,115.5h-1v-1h1V115.5z M266.044,115.5h-1v-1h1V115.5z M264.044,115.5h-1v-1h1
			V115.5z M262.044,115.5h-1v-1h1V115.5z M260.044,115.5h-1v-1h1V115.5z M258.044,115.5h-1v-1h1V115.5z M256.044,115.5h-1v-1h1
			V115.5z M254.044,115.5h-1v-1h1V115.5z M252.044,115.5h-1v-1h1V115.5z M250.044,115.5h-1v-1h1V115.5z M248.044,115.5h-1v-1h1
			V115.5z M246.044,115.5h-1v-1h1V115.5z M244.044,115.5h-1v-1h1V115.5z M242.044,115.5h-1v-1h1V115.5z M240.044,115.5h-1v-1h1
			V115.5z M238.044,115.5h-1v-1h1V115.5z M236.044,115.5h-1v-1h1V115.5z M234.044,115.5h-1v-1h1V115.5z M232.044,115.5h-1v-1h1
			V115.5z M230.044,115.5h-1v-1h1V115.5z M228.044,115.5h-1v-1h1V115.5z M226.044,115.5h-1v-1h1V115.5z M224.044,115.5h-1v-1h1
			V115.5z M222.044,115.5h-1v-1h1V115.5z M220.044,115.5h-1v-1h1V115.5z M218.044,115.5h-1v-1h1V115.5z M216.044,115.5h-1v-1h1
			V115.5z M214.044,115.5h-1v-1h1V115.5z M212.044,115.5h-1v-1h1V115.5z M210.044,115.5h-1v-1h1V115.5z M208.044,115.5h-1v-1h1
			V115.5z M206.044,115.5h-1v-1h1V115.5z M204.044,115.5h-1v-1h1V115.5z M202.043,115.5h-1v-1h1V115.5z M200.043,115.5h-1v-1h1
			V115.5z M198.043,115.5h-1v-1h1V115.5z M196.043,115.5h-1v-1h1V115.5z M194.043,115.5h-1v-1h1V115.5z M192.043,115.5h-1v-1h1
			V115.5z M190.043,115.5h-1v-1h1V115.5z M188.043,115.5h-1v-1h1V115.5z M186.043,115.5h-1v-1h1V115.5z M184.043,115.5h-1v-1h1
			V115.5z M182.043,115.5h-1v-1h1V115.5z M180.043,115.5h-1v-1h1V115.5z M178.043,115.5h-1v-1h1V115.5z M176.043,115.5h-1v-1h1
			V115.5z M174.043,115.5h-1v-1h1V115.5z M172.043,115.5h-1v-1h1V115.5z M170.043,115.5h-1v-1h1V115.5z M168.043,115.5h-1v-1h1
			V115.5z M166.043,115.5h-1v-1h1V115.5z M164.043,115.5h-1v-1h1V115.5z M162.043,115.5h-1v-1h1V115.5z M160.043,115.5h-1v-1h1
			V115.5z M158.043,115.5h-1v-1h1V115.5z M156.043,115.5h-1v-1h1V115.5z M154.043,115.5h-1v-1h1V115.5z M152.043,115.5h-1v-1h1
			V115.5z M150.043,115.5h-1v-1h1V115.5z M148.043,115.5h-1v-1h1V115.5z M146.043,115.5h-1v-1h1V115.5z M144.043,115.5h-1v-1h1
			V115.5z M142.043,115.5h-1v-1h1V115.5z M140.043,115.5h-1v-1h1V115.5z M138.043,115.5h-1v-1h1V115.5z M136.043,115.5h-1v-1h1
			V115.5z M134.043,115.5h-1v-1h1V115.5z M132.043,115.5h-1v-1h1V115.5z M130.043,115.5h-1v-1h1V115.5z M128.043,115.5h-1v-1h1
			V115.5z M126.043,115.5h-1v-1h1V115.5z M124.043,115.5h-1v-1h1V115.5z M122.043,115.5h-1v-1h1V115.5z M120.043,115.5h-1v-1h1
			V115.5z M118.043,115.5h-1v-1h1V115.5z M116.043,115.5h-1v-1h1V115.5z M114.043,115.5h-1v-1h1V115.5z M112.043,115.5h-1v-1h1
			V115.5z M110.043,115.5h-1v-1h1V115.5z M108.043,115.5h-1v-1h1V115.5z M106.043,115.5h-1v-1h1V115.5z M104.043,115.5h-1v-1h1
			V115.5z M102.043,115.5h-1v-1h1V115.5z M100.043,115.5h-1v-1h1V115.5z M98.043,115.5h-1v-1h1V115.5z M96.043,115.5h-1v-1h1V115.5z
			 M94.043,115.5h-1v-1h1V115.5z M92.043,115.5h-1v-1h1V115.5z M90.043,115.5h-1v-1h1V115.5z M88.043,115.5h-1v-1h1V115.5z
			 M86.043,115.5h-1v-1h1V115.5z M84.043,115.5h-1v-1h1V115.5z M82.043,115.5h-1v-1h1V115.5z M80.043,115.5h-1v-1h1V115.5z
			 M78.043,115.5h-1v-1h1V115.5z M76.043,115.5h-1v-1h1V115.5z M74.043,115.5h-1v-1h1V115.5z M72.043,115.5h-1v-1h1V115.5z
			 M70.043,115.5h-1v-1h1V115.5z M68.043,115.5h-1v-1h1V115.5z M66.043,115.5h-1v-1h1V115.5z M64.043,115.5h-1v-1h1V115.5z
			 M62.043,115.5h-1v-1h1V115.5z M60.043,115.5h-1v-1h1V115.5z M58.043,115.5h-1v-1h1V115.5z M56.043,115.5h-1v-1h1V115.5z
			 M54.043,115.5h-1v-1h1V115.5z M52.043,115.5h-1v-1h1V115.5z M50.043,115.5h-1v-1h1V115.5z M48.043,115.5h-1v-1h1V115.5z
			 M46.043,115.5h-1v-1h1V115.5z M44.043,115.5h-1v-1h1V115.5z M42.043,115.5h-1v-1h1V115.5z M40.043,115.5h-1v-1h1V115.5z
			 M38.043,115.5h-1v-1h1V115.5z"/>
	</g>
	<g class="st1">
		<path class="st2" d="M507.543,81.5h-0.501v-1h0.501V81.5z M506.042,81.5h-1v-1h1V81.5z M504.042,81.5h-1v-1h1V81.5z M502.042,81.5
			h-1v-1h1V81.5z M500.042,81.5h-1v-1h1V81.5z M498.042,81.5h-1v-1h1V81.5z M496.042,81.5h-1v-1h1V81.5z M494.042,81.5h-1v-1h1V81.5
			z M492.042,81.5h-1v-1h1V81.5z M490.042,81.5h-1v-1h1V81.5z M488.042,81.5h-1v-1h1V81.5z M486.042,81.5h-1v-1h1V81.5z
			 M484.042,81.5h-1v-1h1V81.5z M482.042,81.5h-1v-1h1V81.5z M480.042,81.5h-1v-1h1V81.5z M478.042,81.5h-1v-1h1V81.5z
			 M476.042,81.5h-1v-1h1V81.5z M474.042,81.5h-1v-1h1V81.5z M472.042,81.5h-1v-1h1V81.5z M470.042,81.5h-1v-1h1V81.5z
			 M468.042,81.5h-1v-1h1V81.5z M466.042,81.5h-1v-1h1V81.5z M464.042,81.5h-1v-1h1V81.5z M462.042,81.5h-1v-1h1V81.5z
			 M460.042,81.5h-1v-1h1V81.5z M458.042,81.5h-1v-1h1V81.5z M456.042,81.5h-1v-1h1V81.5z M454.042,81.5h-1v-1h1V81.5z
			 M452.042,81.5h-1v-1h1V81.5z M450.042,81.5h-1v-1h1V81.5z M448.042,81.5h-1v-1h1V81.5z M446.042,81.5h-1v-1h1V81.5z
			 M444.042,81.5h-1v-1h1V81.5z M442.042,81.5h-1v-1h1V81.5z M440.042,81.5h-1v-1h1V81.5z M438.042,81.5h-1v-1h1V81.5z
			 M436.042,81.5h-1v-1h1V81.5z M434.042,81.5h-0.999v-1h0.999V81.5z M432.043,81.5h-1v-1h1V81.5z M430.043,81.5h-1v-1h1V81.5z
			 M428.043,81.5h-1v-1h1V81.5z M426.043,81.5h-1v-1h1V81.5z M424.043,81.5h-1v-1h1V81.5z M422.043,81.5h-1v-1h1V81.5z
			 M420.043,81.5h-1v-1h1V81.5z M418.043,81.5h-1v-1h1V81.5z M416.043,81.5h-1v-1h1V81.5z M414.043,81.5h-1v-1h1V81.5z
			 M412.043,81.5h-1v-1h1V81.5z M410.043,81.5h-1v-1h1V81.5z M408.043,81.5h-1v-1h1V81.5z M406.043,81.5h-1v-1h1V81.5z
			 M404.043,81.5h-1v-1h1V81.5z M402.043,81.5h-1v-1h1V81.5z M400.043,81.5h-1v-1h1V81.5z M398.043,81.5h-1v-1h1V81.5z
			 M396.043,81.5h-1v-1h1V81.5z M394.043,81.5h-1v-1h1V81.5z M392.043,81.5h-1v-1h1V81.5z M390.043,81.5h-1v-1h1V81.5z
			 M388.043,81.5h-1v-1h1V81.5z M386.043,81.5h-1v-1h1V81.5z M384.043,81.5h-1v-1h1V81.5z M382.043,81.5h-1v-1h1V81.5z
			 M380.043,81.5h-1v-1h1V81.5z M378.043,81.5h-1v-1h1V81.5z M376.043,81.5h-1v-1h1V81.5z M374.043,81.5h-1v-1h1V81.5z
			 M372.043,81.5h-1v-1h1V81.5z M370.043,81.5h-1v-1h1V81.5z M368.043,81.5h-1v-1h1V81.5z M366.043,81.5h-1v-1h1V81.5z
			 M364.043,81.5h-1v-1h1V81.5z M362.043,81.5h-1v-1h1V81.5z M360.043,81.5h-1v-1h1V81.5z M358.043,81.5h-1v-1h1V81.5z
			 M356.043,81.5h-1v-1h1V81.5z M354.043,81.5h-1v-1h1V81.5z M352.043,81.5h-1v-1h1V81.5z M350.043,81.5h-1v-1h1V81.5z
			 M348.043,81.5h-1v-1h1V81.5z M346.043,81.5h-1v-1h1V81.5z M344.043,81.5h-1v-1h1V81.5z M342.043,81.5h-1v-1h1V81.5z
			 M340.043,81.5h-1v-1h1V81.5z M338.043,81.5h-1v-1h1V81.5z M336.043,81.5h-1v-1h1V81.5z M334.043,81.5h-1v-1h1V81.5z
			 M332.043,81.5h-1v-1h1V81.5z M330.043,81.5h-1v-1h1V81.5z M328.043,81.5h-1v-1h1V81.5z M326.043,81.5h-1v-1h1V81.5z
			 M324.043,81.5h-1v-1h1V81.5z M322.043,81.5h-1v-1h1V81.5z M320.043,81.5h-1v-1h1V81.5z M318.043,81.5h-1v-1h1V81.5z
			 M316.043,81.5h-1v-1h1V81.5z M314.043,81.5h-1v-1h1V81.5z M312.043,81.5h-1v-1h1V81.5z M310.043,81.5h-1v-1h1V81.5z
			 M308.043,81.5h-1v-1h1V81.5z M306.043,81.5h-1v-1h1V81.5z M304.043,81.5h-1v-1h1V81.5z M302.043,81.5h-1v-1h1V81.5z
			 M300.044,81.5h-1v-1h1V81.5z M298.044,81.5h-1v-1h1V81.5z M296.044,81.5h-1v-1h1V81.5z M294.044,81.5h-1v-1h1V81.5z
			 M292.044,81.5h-1v-1h1V81.5z M290.044,81.5h-1v-1h1V81.5z M288.044,81.5h-1v-1h1V81.5z M286.044,81.5h-1v-1h1V81.5z
			 M284.044,81.5h-1v-1h1V81.5z M282.044,81.5h-1v-1h1V81.5z M280.044,81.5h-1v-1h1V81.5z M278.044,81.5h-1v-1h1V81.5z
			 M276.044,81.5h-1v-1h1V81.5z M274.044,81.5h-1v-1h1V81.5z M272.044,81.5h-1v-1h1V81.5z M270.044,81.5h-1v-1h1V81.5z
			 M268.044,81.5h-1v-1h1V81.5z M266.044,81.5h-1v-1h1V81.5z M264.044,81.5h-1v-1h1V81.5z M262.044,81.5h-1v-1h1V81.5z
			 M260.044,81.5h-1v-1h1V81.5z M258.044,81.5h-1v-1h1V81.5z M256.044,81.5h-1v-1h1V81.5z M254.044,81.5h-1v-1h1V81.5z
			 M252.044,81.5h-1v-1h1V81.5z M250.044,81.5h-1v-1h1V81.5z M248.044,81.5h-1v-1h1V81.5z M246.044,81.5h-1v-1h1V81.5z
			 M244.044,81.5h-1v-1h1V81.5z M242.044,81.5h-1v-1h1V81.5z M240.044,81.5h-1v-1h1V81.5z M238.044,81.5h-1v-1h1V81.5z
			 M236.044,81.5h-1v-1h1V81.5z M234.044,81.5h-1v-1h1V81.5z M232.044,81.5h-1v-1h1V81.5z M230.044,81.5h-1v-1h1V81.5z
			 M228.044,81.5h-1v-1h1V81.5z M226.044,81.5h-1v-1h1V81.5z M224.044,81.5h-1v-1h1V81.5z M222.044,81.5h-1v-1h1V81.5z
			 M220.044,81.5h-1v-1h1V81.5z M218.044,81.5h-1v-1h1V81.5z M216.044,81.5h-1v-1h1V81.5z M214.044,81.5h-1v-1h1V81.5z
			 M212.044,81.5h-1v-1h1V81.5z M210.044,81.5h-1v-1h1V81.5z M208.044,81.5h-1v-1h1V81.5z M206.044,81.5h-1v-1h1V81.5z
			 M204.044,81.5h-1v-1h1V81.5z M202.043,81.5h-1v-1h1V81.5z M200.043,81.5h-1v-1h1V81.5z M198.043,81.5h-1v-1h1V81.5z
			 M196.043,81.5h-1v-1h1V81.5z M194.043,81.5h-1v-1h1V81.5z M192.043,81.5h-1v-1h1V81.5z M190.043,81.5h-1v-1h1V81.5z
			 M188.043,81.5h-1v-1h1V81.5z M186.043,81.5h-1v-1h1V81.5z M184.043,81.5h-1v-1h1V81.5z M182.043,81.5h-1v-1h1V81.5z
			 M180.043,81.5h-1v-1h1V81.5z M178.043,81.5h-1v-1h1V81.5z M176.043,81.5h-1v-1h1V81.5z M174.043,81.5h-1v-1h1V81.5z
			 M172.043,81.5h-1v-1h1V81.5z M170.043,81.5h-1v-1h1V81.5z M168.043,81.5h-1v-1h1V81.5z M166.043,81.5h-1v-1h1V81.5z
			 M164.043,81.5h-1v-1h1V81.5z M162.043,81.5h-1v-1h1V81.5z M160.043,81.5h-1v-1h1V81.5z M158.043,81.5h-1v-1h1V81.5z
			 M156.043,81.5h-1v-1h1V81.5z M154.043,81.5h-1v-1h1V81.5z M152.043,81.5h-1v-1h1V81.5z M150.043,81.5h-1v-1h1V81.5z
			 M148.043,81.5h-1v-1h1V81.5z M146.043,81.5h-1v-1h1V81.5z M144.043,81.5h-1v-1h1V81.5z M142.043,81.5h-1v-1h1V81.5z
			 M140.043,81.5h-1v-1h1V81.5z M138.043,81.5h-1v-1h1V81.5z M136.043,81.5h-1v-1h1V81.5z M134.043,81.5h-1v-1h1V81.5z
			 M132.043,81.5h-1v-1h1V81.5z M130.043,81.5h-1v-1h1V81.5z M128.043,81.5h-1v-1h1V81.5z M126.043,81.5h-1v-1h1V81.5z
			 M124.043,81.5h-1v-1h1V81.5z M122.043,81.5h-1v-1h1V81.5z M120.043,81.5h-1v-1h1V81.5z M118.043,81.5h-1v-1h1V81.5z
			 M116.043,81.5h-1v-1h1V81.5z M114.043,81.5h-1v-1h1V81.5z M112.043,81.5h-1v-1h1V81.5z M110.043,81.5h-1v-1h1V81.5z
			 M108.043,81.5h-1v-1h1V81.5z M106.043,81.5h-1v-1h1V81.5z M104.043,81.5h-1v-1h1V81.5z M102.043,81.5h-1v-1h1V81.5z
			 M100.043,81.5h-1v-1h1V81.5z M98.043,81.5h-1v-1h1V81.5z M96.043,81.5h-1v-1h1V81.5z M94.043,81.5h-1v-1h1V81.5z M92.043,81.5h-1
			v-1h1V81.5z M90.043,81.5h-1v-1h1V81.5z M88.043,81.5h-1v-1h1V81.5z M86.043,81.5h-1v-1h1V81.5z M84.043,81.5h-1v-1h1V81.5z
			 M82.043,81.5h-1v-1h1V81.5z M80.043,81.5h-1v-1h1V81.5z M78.043,81.5h-1v-1h1V81.5z M76.043,81.5h-1v-1h1V81.5z M74.043,81.5h-1
			v-1h1V81.5z M72.043,81.5h-1v-1h1V81.5z M70.043,81.5h-1v-1h1V81.5z M68.043,81.5h-1v-1h1V81.5z M66.043,81.5h-1v-1h1V81.5z
			 M64.043,81.5h-1v-1h1V81.5z M62.043,81.5h-1v-1h1V81.5z M60.043,81.5h-1v-1h1V81.5z M58.043,81.5h-1v-1h1V81.5z M56.043,81.5h-1
			v-1h1V81.5z M54.043,81.5h-1v-1h1V81.5z M52.043,81.5h-1v-1h1V81.5z M50.043,81.5h-1v-1h1V81.5z M48.043,81.5h-1v-1h1V81.5z
			 M46.043,81.5h-1v-1h1V81.5z M44.043,81.5h-1v-1h1V81.5z M42.043,81.5h-1v-1h1V81.5z M40.043,81.5h-1v-1h1V81.5z M38.043,81.5h-1
			v-1h1V81.5z"/>
	</g>
	<g class="st1">
		<path class="st2" d="M507.543,47.5h-0.501v-1h0.501V47.5z M506.042,47.5h-1v-1h1V47.5z M504.042,47.5h-1v-1h1V47.5z M502.042,47.5
			h-1v-1h1V47.5z M500.042,47.5h-1v-1h1V47.5z M498.042,47.5h-1v-1h1V47.5z M496.042,47.5h-1v-1h1V47.5z M494.042,47.5h-1v-1h1V47.5
			z M492.042,47.5h-1v-1h1V47.5z M490.042,47.5h-1v-1h1V47.5z M488.042,47.5h-1v-1h1V47.5z M486.042,47.5h-1v-1h1V47.5z
			 M484.042,47.5h-1v-1h1V47.5z M482.042,47.5h-1v-1h1V47.5z M480.042,47.5h-1v-1h1V47.5z M478.042,47.5h-1v-1h1V47.5z
			 M476.042,47.5h-1v-1h1V47.5z M474.042,47.5h-1v-1h1V47.5z M472.042,47.5h-1v-1h1V47.5z M470.042,47.5h-1v-1h1V47.5z
			 M468.042,47.5h-1v-1h1V47.5z M466.042,47.5h-1v-1h1V47.5z M464.042,47.5h-1v-1h1V47.5z M462.042,47.5h-1v-1h1V47.5z
			 M460.042,47.5h-1v-1h1V47.5z M458.042,47.5h-1v-1h1V47.5z M456.042,47.5h-1v-1h1V47.5z M454.042,47.5h-1v-1h1V47.5z
			 M452.042,47.5h-1v-1h1V47.5z M450.042,47.5h-1v-1h1V47.5z M448.042,47.5h-1v-1h1V47.5z M446.042,47.5h-1v-1h1V47.5z
			 M444.042,47.5h-1v-1h1V47.5z M442.042,47.5h-1v-1h1V47.5z M440.042,47.5h-1v-1h1V47.5z M438.042,47.5h-1v-1h1V47.5z
			 M436.042,47.5h-1v-1h1V47.5z M434.042,47.5h-0.999v-1h0.999V47.5z M432.043,47.5h-1v-1h1V47.5z M430.043,47.5h-1v-1h1V47.5z
			 M428.043,47.5h-1v-1h1V47.5z M426.043,47.5h-1v-1h1V47.5z M424.043,47.5h-1v-1h1V47.5z M422.043,47.5h-1v-1h1V47.5z
			 M420.043,47.5h-1v-1h1V47.5z M418.043,47.5h-1v-1h1V47.5z M416.043,47.5h-1v-1h1V47.5z M414.043,47.5h-1v-1h1V47.5z
			 M412.043,47.5h-1v-1h1V47.5z M410.043,47.5h-1v-1h1V47.5z M408.043,47.5h-1v-1h1V47.5z M406.043,47.5h-1v-1h1V47.5z
			 M404.043,47.5h-1v-1h1V47.5z M402.043,47.5h-1v-1h1V47.5z M400.043,47.5h-1v-1h1V47.5z M398.043,47.5h-1v-1h1V47.5z
			 M396.043,47.5h-1v-1h1V47.5z M394.043,47.5h-1v-1h1V47.5z M392.043,47.5h-1v-1h1V47.5z M390.043,47.5h-1v-1h1V47.5z
			 M388.043,47.5h-1v-1h1V47.5z M386.043,47.5h-1v-1h1V47.5z M384.043,47.5h-1v-1h1V47.5z M382.043,47.5h-1v-1h1V47.5z
			 M380.043,47.5h-1v-1h1V47.5z M378.043,47.5h-1v-1h1V47.5z M376.043,47.5h-1v-1h1V47.5z M374.043,47.5h-1v-1h1V47.5z
			 M372.043,47.5h-1v-1h1V47.5z M370.043,47.5h-1v-1h1V47.5z M368.043,47.5h-1v-1h1V47.5z M366.043,47.5h-1v-1h1V47.5z
			 M364.043,47.5h-1v-1h1V47.5z M362.043,47.5h-1v-1h1V47.5z M360.043,47.5h-1v-1h1V47.5z M358.043,47.5h-1v-1h1V47.5z
			 M356.043,47.5h-1v-1h1V47.5z M354.043,47.5h-1v-1h1V47.5z M352.043,47.5h-1v-1h1V47.5z M350.043,47.5h-1v-1h1V47.5z
			 M348.043,47.5h-1v-1h1V47.5z M346.043,47.5h-1v-1h1V47.5z M344.043,47.5h-1v-1h1V47.5z M342.043,47.5h-1v-1h1V47.5z
			 M340.043,47.5h-1v-1h1V47.5z M338.043,47.5h-1v-1h1V47.5z M336.043,47.5h-1v-1h1V47.5z M334.043,47.5h-1v-1h1V47.5z
			 M332.043,47.5h-1v-1h1V47.5z M330.043,47.5h-1v-1h1V47.5z M328.043,47.5h-1v-1h1V47.5z M326.043,47.5h-1v-1h1V47.5z
			 M324.043,47.5h-1v-1h1V47.5z M322.043,47.5h-1v-1h1V47.5z M320.043,47.5h-1v-1h1V47.5z M318.043,47.5h-1v-1h1V47.5z
			 M316.043,47.5h-1v-1h1V47.5z M314.043,47.5h-1v-1h1V47.5z M312.043,47.5h-1v-1h1V47.5z M310.043,47.5h-1v-1h1V47.5z
			 M308.043,47.5h-1v-1h1V47.5z M306.043,47.5h-1v-1h1V47.5z M304.043,47.5h-1v-1h1V47.5z M302.043,47.5h-1v-1h1V47.5z
			 M300.044,47.5h-1v-1h1V47.5z M298.044,47.5h-1v-1h1V47.5z M296.044,47.5h-1v-1h1V47.5z M294.044,47.5h-1v-1h1V47.5z
			 M292.044,47.5h-1v-1h1V47.5z M290.044,47.5h-1v-1h1V47.5z M288.044,47.5h-1v-1h1V47.5z M286.044,47.5h-1v-1h1V47.5z
			 M284.044,47.5h-1v-1h1V47.5z M282.044,47.5h-1v-1h1V47.5z M280.044,47.5h-1v-1h1V47.5z M278.044,47.5h-1v-1h1V47.5z
			 M276.044,47.5h-1v-1h1V47.5z M274.044,47.5h-1v-1h1V47.5z M272.044,47.5h-1v-1h1V47.5z M270.044,47.5h-1v-1h1V47.5z
			 M268.044,47.5h-1v-1h1V47.5z M266.044,47.5h-1v-1h1V47.5z M264.044,47.5h-1v-1h1V47.5z M262.044,47.5h-1v-1h1V47.5z
			 M260.044,47.5h-1v-1h1V47.5z M258.044,47.5h-1v-1h1V47.5z M256.044,47.5h-1v-1h1V47.5z M254.044,47.5h-1v-1h1V47.5z
			 M252.044,47.5h-1v-1h1V47.5z M250.044,47.5h-1v-1h1V47.5z M248.044,47.5h-1v-1h1V47.5z M246.044,47.5h-1v-1h1V47.5z
			 M244.044,47.5h-1v-1h1V47.5z M242.044,47.5h-1v-1h1V47.5z M240.044,47.5h-1v-1h1V47.5z M238.044,47.5h-1v-1h1V47.5z
			 M236.044,47.5h-1v-1h1V47.5z M234.044,47.5h-1v-1h1V47.5z M232.044,47.5h-1v-1h1V47.5z M230.044,47.5h-1v-1h1V47.5z
			 M228.044,47.5h-1v-1h1V47.5z M226.044,47.5h-1v-1h1V47.5z M224.044,47.5h-1v-1h1V47.5z M222.044,47.5h-1v-1h1V47.5z
			 M220.044,47.5h-1v-1h1V47.5z M218.044,47.5h-1v-1h1V47.5z M216.044,47.5h-1v-1h1V47.5z M214.044,47.5h-1v-1h1V47.5z
			 M212.044,47.5h-1v-1h1V47.5z M210.044,47.5h-1v-1h1V47.5z M208.044,47.5h-1v-1h1V47.5z M206.044,47.5h-1v-1h1V47.5z
			 M204.044,47.5h-1v-1h1V47.5z M202.043,47.5h-1v-1h1V47.5z M200.043,47.5h-1v-1h1V47.5z M198.043,47.5h-1v-1h1V47.5z
			 M196.043,47.5h-1v-1h1V47.5z M194.043,47.5h-1v-1h1V47.5z M192.043,47.5h-1v-1h1V47.5z M190.043,47.5h-1v-1h1V47.5z
			 M188.043,47.5h-1v-1h1V47.5z M186.043,47.5h-1v-1h1V47.5z M184.043,47.5h-1v-1h1V47.5z M182.043,47.5h-1v-1h1V47.5z
			 M180.043,47.5h-1v-1h1V47.5z M178.043,47.5h-1v-1h1V47.5z M176.043,47.5h-1v-1h1V47.5z M174.043,47.5h-1v-1h1V47.5z
			 M172.043,47.5h-1v-1h1V47.5z M170.043,47.5h-1v-1h1V47.5z M168.043,47.5h-1v-1h1V47.5z M166.043,47.5h-1v-1h1V47.5z
			 M164.043,47.5h-1v-1h1V47.5z M162.043,47.5h-1v-1h1V47.5z M160.043,47.5h-1v-1h1V47.5z M158.043,47.5h-1v-1h1V47.5z
			 M156.043,47.5h-1v-1h1V47.5z M154.043,47.5h-1v-1h1V47.5z M152.043,47.5h-1v-1h1V47.5z M150.043,47.5h-1v-1h1V47.5z
			 M148.043,47.5h-1v-1h1V47.5z M146.043,47.5h-1v-1h1V47.5z M144.043,47.5h-1v-1h1V47.5z M142.043,47.5h-1v-1h1V47.5z
			 M140.043,47.5h-1v-1h1V47.5z M138.043,47.5h-1v-1h1V47.5z M136.043,47.5h-1v-1h1V47.5z M134.043,47.5h-1v-1h1V47.5z
			 M132.043,47.5h-1v-1h1V47.5z M130.043,47.5h-1v-1h1V47.5z M128.043,47.5h-1v-1h1V47.5z M126.043,47.5h-1v-1h1V47.5z
			 M124.043,47.5h-1v-1h1V47.5z M122.043,47.5h-1v-1h1V47.5z M120.043,47.5h-1v-1h1V47.5z M118.043,47.5h-1v-1h1V47.5z
			 M116.043,47.5h-1v-1h1V47.5z M114.043,47.5h-1v-1h1V47.5z M112.043,47.5h-1v-1h1V47.5z M110.043,47.5h-1v-1h1V47.5z
			 M108.043,47.5h-1v-1h1V47.5z M106.043,47.5h-1v-1h1V47.5z M104.043,47.5h-1v-1h1V47.5z M102.043,47.5h-1v-1h1V47.5z
			 M100.043,47.5h-1v-1h1V47.5z M98.043,47.5h-1v-1h1V47.5z M96.043,47.5h-1v-1h1V47.5z M94.043,47.5h-1v-1h1V47.5z M92.043,47.5h-1
			v-1h1V47.5z M90.043,47.5h-1v-1h1V47.5z M88.043,47.5h-1v-1h1V47.5z M86.043,47.5h-1v-1h1V47.5z M84.043,47.5h-1v-1h1V47.5z
			 M82.043,47.5h-1v-1h1V47.5z M80.043,47.5h-1v-1h1V47.5z M78.043,47.5h-1v-1h1V47.5z M76.043,47.5h-1v-1h1V47.5z M74.043,47.5h-1
			v-1h1V47.5z M72.043,47.5h-1v-1h1V47.5z M70.043,47.5h-1v-1h1V47.5z M68.043,47.5h-1v-1h1V47.5z M66.043,47.5h-1v-1h1V47.5z
			 M64.043,47.5h-1v-1h1V47.5z M62.043,47.5h-1v-1h1V47.5z M60.043,47.5h-1v-1h1V47.5z M58.043,47.5h-1v-1h1V47.5z M56.043,47.5h-1
			v-1h1V47.5z M54.043,47.5h-1v-1h1V47.5z M52.043,47.5h-1v-1h1V47.5z M50.043,47.5h-1v-1h1V47.5z M48.043,47.5h-1v-1h1V47.5z
			 M46.043,47.5h-1v-1h1V47.5z M44.043,47.5h-1v-1h1V47.5z M42.043,47.5h-1v-1h1V47.5z M40.043,47.5h-1v-1h1V47.5z M38.043,47.5h-1
			v-1h1V47.5z"/>
	</g>
	<g class="st1">
		<path class="st2" d="M507.543,14.5h-0.501v-1h0.501V14.5z M506.042,14.5h-1v-1h1V14.5z M504.042,14.5h-1v-1h1V14.5z M502.042,14.5
			h-1v-1h1V14.5z M500.042,14.5h-1v-1h1V14.5z M498.042,14.5h-1v-1h1V14.5z M496.042,14.5h-1v-1h1V14.5z M494.042,14.5h-1v-1h1V14.5
			z M492.042,14.5h-1v-1h1V14.5z M490.042,14.5h-1v-1h1V14.5z M488.042,14.5h-1v-1h1V14.5z M486.042,14.5h-1v-1h1V14.5z
			 M484.042,14.5h-1v-1h1V14.5z M482.042,14.5h-1v-1h1V14.5z M480.042,14.5h-1v-1h1V14.5z M478.042,14.5h-1v-1h1V14.5z
			 M476.042,14.5h-1v-1h1V14.5z M474.042,14.5h-1v-1h1V14.5z M472.042,14.5h-1v-1h1V14.5z M470.042,14.5h-1v-1h1V14.5z
			 M468.042,14.5h-1v-1h1V14.5z M466.042,14.5h-1v-1h1V14.5z M464.042,14.5h-1v-1h1V14.5z M462.042,14.5h-1v-1h1V14.5z
			 M460.042,14.5h-1v-1h1V14.5z M458.042,14.5h-1v-1h1V14.5z M456.042,14.5h-1v-1h1V14.5z M454.042,14.5h-1v-1h1V14.5z
			 M452.042,14.5h-1v-1h1V14.5z M450.042,14.5h-1v-1h1V14.5z M448.042,14.5h-1v-1h1V14.5z M446.042,14.5h-1v-1h1V14.5z
			 M444.042,14.5h-1v-1h1V14.5z M442.042,14.5h-1v-1h1V14.5z M440.042,14.5h-1v-1h1V14.5z M438.042,14.5h-1v-1h1V14.5z
			 M436.042,14.5h-1v-1h1V14.5z M434.042,14.5h-0.999v-1h0.999V14.5z M432.043,14.5h-1v-1h1V14.5z M430.043,14.5h-1v-1h1V14.5z
			 M428.043,14.5h-1v-1h1V14.5z M426.043,14.5h-1v-1h1V14.5z M424.043,14.5h-1v-1h1V14.5z M422.043,14.5h-1v-1h1V14.5z
			 M420.043,14.5h-1v-1h1V14.5z M418.043,14.5h-1v-1h1V14.5z M416.043,14.5h-1v-1h1V14.5z M414.043,14.5h-1v-1h1V14.5z
			 M412.043,14.5h-1v-1h1V14.5z M410.043,14.5h-1v-1h1V14.5z M408.043,14.5h-1v-1h1V14.5z M406.043,14.5h-1v-1h1V14.5z
			 M404.043,14.5h-1v-1h1V14.5z M402.043,14.5h-1v-1h1V14.5z M400.043,14.5h-1v-1h1V14.5z M398.043,14.5h-1v-1h1V14.5z
			 M396.043,14.5h-1v-1h1V14.5z M394.043,14.5h-1v-1h1V14.5z M392.043,14.5h-1v-1h1V14.5z M390.043,14.5h-1v-1h1V14.5z
			 M388.043,14.5h-1v-1h1V14.5z M386.043,14.5h-1v-1h1V14.5z M384.043,14.5h-1v-1h1V14.5z M382.043,14.5h-1v-1h1V14.5z
			 M380.043,14.5h-1v-1h1V14.5z M378.043,14.5h-1v-1h1V14.5z M376.043,14.5h-1v-1h1V14.5z M374.043,14.5h-1v-1h1V14.5z
			 M372.043,14.5h-1v-1h1V14.5z M370.043,14.5h-1v-1h1V14.5z M368.043,14.5h-1v-1h1V14.5z M366.043,14.5h-1v-1h1V14.5z
			 M364.043,14.5h-1v-1h1V14.5z M362.043,14.5h-1v-1h1V14.5z M360.043,14.5h-1v-1h1V14.5z M358.043,14.5h-1v-1h1V14.5z
			 M356.043,14.5h-1v-1h1V14.5z M354.043,14.5h-1v-1h1V14.5z M352.043,14.5h-1v-1h1V14.5z M350.043,14.5h-1v-1h1V14.5z
			 M348.043,14.5h-1v-1h1V14.5z M346.043,14.5h-1v-1h1V14.5z M344.043,14.5h-1v-1h1V14.5z M342.043,14.5h-1v-1h1V14.5z
			 M340.043,14.5h-1v-1h1V14.5z M338.043,14.5h-1v-1h1V14.5z M336.043,14.5h-1v-1h1V14.5z M334.043,14.5h-1v-1h1V14.5z
			 M332.043,14.5h-1v-1h1V14.5z M330.043,14.5h-1v-1h1V14.5z M328.043,14.5h-1v-1h1V14.5z M326.043,14.5h-1v-1h1V14.5z
			 M324.043,14.5h-1v-1h1V14.5z M322.043,14.5h-1v-1h1V14.5z M320.043,14.5h-1v-1h1V14.5z M318.043,14.5h-1v-1h1V14.5z
			 M316.043,14.5h-1v-1h1V14.5z M314.043,14.5h-1v-1h1V14.5z M312.043,14.5h-1v-1h1V14.5z M310.043,14.5h-1v-1h1V14.5z
			 M308.043,14.5h-1v-1h1V14.5z M306.043,14.5h-1v-1h1V14.5z M304.043,14.5h-1v-1h1V14.5z M302.043,14.5h-1v-1h1V14.5z
			 M300.044,14.5h-1v-1h1V14.5z M298.044,14.5h-1v-1h1V14.5z M296.044,14.5h-1v-1h1V14.5z M294.044,14.5h-1v-1h1V14.5z
			 M292.044,14.5h-1v-1h1V14.5z M290.044,14.5h-1v-1h1V14.5z M288.044,14.5h-1v-1h1V14.5z M286.044,14.5h-1v-1h1V14.5z
			 M284.044,14.5h-1v-1h1V14.5z M282.044,14.5h-1v-1h1V14.5z M280.044,14.5h-1v-1h1V14.5z M278.044,14.5h-1v-1h1V14.5z
			 M276.044,14.5h-1v-1h1V14.5z M274.044,14.5h-1v-1h1V14.5z M272.044,14.5h-1v-1h1V14.5z M270.044,14.5h-1v-1h1V14.5z
			 M268.044,14.5h-1v-1h1V14.5z M266.044,14.5h-1v-1h1V14.5z M264.044,14.5h-1v-1h1V14.5z M262.044,14.5h-1v-1h1V14.5z
			 M260.044,14.5h-1v-1h1V14.5z M258.044,14.5h-1v-1h1V14.5z M256.044,14.5h-1v-1h1V14.5z M254.044,14.5h-1v-1h1V14.5z
			 M252.044,14.5h-1v-1h1V14.5z M250.044,14.5h-1v-1h1V14.5z M248.044,14.5h-1v-1h1V14.5z M246.044,14.5h-1v-1h1V14.5z
			 M244.044,14.5h-1v-1h1V14.5z M242.044,14.5h-1v-1h1V14.5z M240.044,14.5h-1v-1h1V14.5z M238.044,14.5h-1v-1h1V14.5z
			 M236.044,14.5h-1v-1h1V14.5z M234.044,14.5h-1v-1h1V14.5z M232.044,14.5h-1v-1h1V14.5z M230.044,14.5h-1v-1h1V14.5z
			 M228.044,14.5h-1v-1h1V14.5z M226.044,14.5h-1v-1h1V14.5z M224.044,14.5h-1v-1h1V14.5z M222.044,14.5h-1v-1h1V14.5z
			 M220.044,14.5h-1v-1h1V14.5z M218.044,14.5h-1v-1h1V14.5z M216.044,14.5h-1v-1h1V14.5z M214.044,14.5h-1v-1h1V14.5z
			 M212.044,14.5h-1v-1h1V14.5z M210.044,14.5h-1v-1h1V14.5z M208.044,14.5h-1v-1h1V14.5z M206.044,14.5h-1v-1h1V14.5z
			 M204.044,14.5h-1v-1h1V14.5z M202.043,14.5h-1v-1h1V14.5z M200.043,14.5h-1v-1h1V14.5z M198.043,14.5h-1v-1h1V14.5z
			 M196.043,14.5h-1v-1h1V14.5z M194.043,14.5h-1v-1h1V14.5z M192.043,14.5h-1v-1h1V14.5z M190.043,14.5h-1v-1h1V14.5z
			 M188.043,14.5h-1v-1h1V14.5z M186.043,14.5h-1v-1h1V14.5z M184.043,14.5h-1v-1h1V14.5z M182.043,14.5h-1v-1h1V14.5z
			 M180.043,14.5h-1v-1h1V14.5z M178.043,14.5h-1v-1h1V14.5z M176.043,14.5h-1v-1h1V14.5z M174.043,14.5h-1v-1h1V14.5z
			 M172.043,14.5h-1v-1h1V14.5z M170.043,14.5h-1v-1h1V14.5z M168.043,14.5h-1v-1h1V14.5z M166.043,14.5h-1v-1h1V14.5z
			 M164.043,14.5h-1v-1h1V14.5z M162.043,14.5h-1v-1h1V14.5z M160.043,14.5h-1v-1h1V14.5z M158.043,14.5h-1v-1h1V14.5z
			 M156.043,14.5h-1v-1h1V14.5z M154.043,14.5h-1v-1h1V14.5z M152.043,14.5h-1v-1h1V14.5z M150.043,14.5h-1v-1h1V14.5z
			 M148.043,14.5h-1v-1h1V14.5z M146.043,14.5h-1v-1h1V14.5z M144.043,14.5h-1v-1h1V14.5z M142.043,14.5h-1v-1h1V14.5z
			 M140.043,14.5h-1v-1h1V14.5z M138.043,14.5h-1v-1h1V14.5z M136.043,14.5h-1v-1h1V14.5z M134.043,14.5h-1v-1h1V14.5z
			 M132.043,14.5h-1v-1h1V14.5z M130.043,14.5h-1v-1h1V14.5z M128.043,14.5h-1v-1h1V14.5z M126.043,14.5h-1v-1h1V14.5z
			 M124.043,14.5h-1v-1h1V14.5z M122.043,14.5h-1v-1h1V14.5z M120.043,14.5h-1v-1h1V14.5z M118.043,14.5h-1v-1h1V14.5z
			 M116.043,14.5h-1v-1h1V14.5z M114.043,14.5h-1v-1h1V14.5z M112.043,14.5h-1v-1h1V14.5z M110.043,14.5h-1v-1h1V14.5z
			 M108.043,14.5h-1v-1h1V14.5z M106.043,14.5h-1v-1h1V14.5z M104.043,14.5h-1v-1h1V14.5z M102.043,14.5h-1v-1h1V14.5z
			 M100.043,14.5h-1v-1h1V14.5z M98.043,14.5h-1v-1h1V14.5z M96.043,14.5h-1v-1h1V14.5z M94.043,14.5h-1v-1h1V14.5z M92.043,14.5h-1
			v-1h1V14.5z M90.043,14.5h-1v-1h1V14.5z M88.043,14.5h-1v-1h1V14.5z M86.043,14.5h-1v-1h1V14.5z M84.043,14.5h-1v-1h1V14.5z
			 M82.043,14.5h-1v-1h1V14.5z M80.043,14.5h-1v-1h1V14.5z M78.043,14.5h-1v-1h1V14.5z M76.043,14.5h-1v-1h1V14.5z M74.043,14.5h-1
			v-1h1V14.5z M72.043,14.5h-1v-1h1V14.5z M70.043,14.5h-1v-1h1V14.5z M68.043,14.5h-1v-1h1V14.5z M66.043,14.5h-1v-1h1V14.5z
			 M64.043,14.5h-1v-1h1V14.5z M62.043,14.5h-1v-1h1V14.5z M60.043,14.5h-1v-1h1V14.5z M58.043,14.5h-1v-1h1V14.5z M56.043,14.5h-1
			v-1h1V14.5z M54.043,14.5h-1v-1h1V14.5z M52.043,14.5h-1v-1h1V14.5z M50.043,14.5h-1v-1h1V14.5z M48.043,14.5h-1v-1h1V14.5z
			 M46.043,14.5h-1v-1h1V14.5z M44.043,14.5h-1v-1h1V14.5z M42.043,14.5h-1v-1h1V14.5z M40.043,14.5h-1v-1h1V14.5z M38.043,14.5h-1
			v-1h1V14.5z"/>
	</g>
</g>
<g>
	<g>
		<path class="st3" d="M0.612,9.018c0-2.171,1.007-4.138,3.25-4.138c1.031,0,1.727,0.396,2.219,0.959L5.577,6.583
			C5.169,6.104,4.702,5.768,3.862,5.768c-1.547,0-2.255,1.571-2.255,3.142c0,0.108,0,0.204,0.012,0.312
			C1.967,8.67,2.854,7.975,3.886,7.975c1.439,0,2.615,0.852,2.615,2.555c0,1.391-1.056,2.615-2.807,2.615
			C1.463,13.144,0.612,11.189,0.612,9.018z M5.493,10.565c0-1.175-0.816-1.727-1.847-1.727c-0.792,0-1.559,0.492-2.003,1.199
			c0.096,0.996,0.624,2.219,2.015,2.219C4.893,12.256,5.493,11.333,5.493,10.565z"/>
		<path class="st3" d="M7.704,9.006c0-1.955,0.863-4.126,3.058-4.126c2.183,0,3.059,2.171,3.059,4.126
			c0,1.943-0.875,4.138-3.059,4.138C8.567,13.144,7.704,10.949,7.704,9.006z M12.801,9.006c0-1.595-0.516-3.238-2.039-3.238
			c-1.523,0-2.039,1.643-2.039,3.238s0.516,3.25,2.039,3.25C12.285,12.256,12.801,10.602,12.801,9.006z"/>
		<path class="st3" d="M0.792,45.861l0.612-0.66c0.528,0.671,1.223,1.055,2.207,1.055c1.092,0,1.847-0.744,1.847-1.715
			c0-1.056-0.755-1.727-1.835-1.727c-0.708,0-1.307,0.228-1.847,0.755l-0.731-0.252V39h4.893v0.887H2.039v2.783
			c0.384-0.384,1.067-0.72,1.871-0.72c1.332,0,2.543,0.912,2.543,2.555c0,1.631-1.235,2.639-2.843,2.639
			C2.255,47.144,1.391,46.652,0.792,45.861z"/>
		<path class="st3" d="M7.692,43.006c0-1.955,0.863-4.126,3.058-4.126c2.183,0,3.059,2.171,3.059,4.126
			c0,1.943-0.875,4.138-3.059,4.138C8.555,47.144,7.692,44.949,7.692,43.006z M12.789,43.006c0-1.595-0.516-3.238-2.039-3.238
			c-1.523,0-2.039,1.643-2.039,3.238s0.516,3.25,2.039,3.25C12.273,46.256,12.789,44.602,12.789,43.006z"/>
		<path class="st3" d="M4.186,81v-2.027H0.384v-0.828L3.814,73h1.367v5.097h1.127v0.875H5.181V81H4.186z M4.186,73.924l-2.806,4.174
			h2.806V73.924z"/>
		<path class="st3" d="M7.308,77.006c0-1.955,0.863-4.126,3.058-4.126c2.183,0,3.059,2.171,3.059,4.126
			c0,1.943-0.876,4.138-3.059,4.138C8.171,81.144,7.308,78.949,7.308,77.006z M12.405,77.006c0-1.595-0.516-3.238-2.039-3.238
			c-1.523,0-2.039,1.643-2.039,3.238s0.516,3.25,2.039,3.25C11.889,80.256,12.405,78.602,12.405,77.006z"/>
		<path class="st3" d="M0.348,113.824l0.588-0.623c0.468,0.623,1.283,1.056,2.231,1.056c1.163,0,1.871-0.576,1.871-1.5
			c0-0.995-0.815-1.415-1.991-1.415c-0.336,0-0.708,0-0.828,0.013v-0.912c0.132,0.012,0.504,0.012,0.828,0.012
			c1.007,0,1.859-0.396,1.859-1.319c0-0.887-0.815-1.367-1.787-1.367c-0.875,0-1.523,0.336-2.111,0.972l-0.552-0.623
			c0.576-0.696,1.5-1.235,2.735-1.235c1.535,0,2.71,0.779,2.71,2.135c0,1.151-0.972,1.727-1.727,1.858
			c0.731,0.061,1.847,0.684,1.847,1.967c0,1.332-1.067,2.303-2.83,2.303C1.835,115.144,0.839,114.544,0.348,113.824z"/>
		<path class="st3" d="M7.296,111.006c0-1.954,0.863-4.125,3.058-4.125c2.183,0,3.059,2.171,3.059,4.125
			c0,1.943-0.876,4.138-3.059,4.138C8.159,115.144,7.296,112.949,7.296,111.006z M12.393,111.006c0-1.595-0.516-3.238-2.039-3.238
			c-1.523,0-2.039,1.644-2.039,3.238c0,1.596,0.516,3.251,2.039,3.251C11.877,114.257,12.393,112.602,12.393,111.006z"/>
		<path class="st3" d="M0.647,149v-0.792c2.878-2.267,4.438-3.598,4.438-4.977c0-1.02-0.84-1.464-1.667-1.464
			c-0.959,0-1.703,0.408-2.17,1.008l-0.612-0.636c0.612-0.804,1.655-1.259,2.782-1.259c1.332,0,2.687,0.755,2.687,2.351
			c0,1.631-1.655,3.118-3.886,4.881h3.922V149H0.647z"/>
		<path class="st3" d="M7.668,145.006c0-1.954,0.863-4.125,3.058-4.125c2.183,0,3.059,2.171,3.059,4.125
			c0,1.943-0.876,4.138-3.059,4.138C8.531,149.144,7.668,146.949,7.668,145.006z M12.765,145.006c0-1.595-0.516-3.238-2.039-3.238
			c-1.523,0-2.039,1.644-2.039,3.238c0,1.596,0.516,3.251,2.039,3.251C12.25,148.257,12.765,146.602,12.765,145.006z"/>
		<path class="st3" d="M2.135,183v-6.681l-1.283,1.355l-0.6-0.611L2.255,175H3.13v8H2.135z"/>
		<path class="st3" d="M4.68,179.006c0-1.954,0.863-4.125,3.058-4.125c2.183,0,3.059,2.171,3.059,4.125
			c0,1.943-0.876,4.138-3.059,4.138C5.543,183.144,4.68,180.949,4.68,179.006z M9.777,179.006c0-1.595-0.516-3.238-2.039-3.238
			c-1.523,0-2.039,1.644-2.039,3.238c0,1.596,0.516,3.251,2.039,3.251C9.261,182.257,9.777,180.602,9.777,179.006z"/>
	</g>
</g>
<g>
	<g>
		<g>
			<path class="st3" d="M37.691,241v-0.792c2.878-2.267,4.438-3.598,4.438-4.978c0-1.019-0.84-1.463-1.667-1.463
				c-0.959,0-1.703,0.408-2.17,1.008l-0.612-0.636c0.612-0.804,1.655-1.26,2.782-1.26c1.332,0,2.687,0.756,2.687,2.351
				c0,1.632-1.655,3.119-3.886,4.882h3.922V241H37.691z"/>
			<path class="st3" d="M44.711,237.006c0-1.955,0.863-4.126,3.058-4.126c2.183,0,3.059,2.171,3.059,4.126
				c0,1.943-0.876,4.138-3.059,4.138C45.575,241.144,44.711,238.949,44.711,237.006z M49.809,237.006
				c0-1.595-0.516-3.238-2.039-3.238c-1.523,0-2.039,1.644-2.039,3.238c0,1.596,0.516,3.25,2.039,3.25
				C49.293,240.256,49.809,238.602,49.809,237.006z"/>
			<path class="st3" d="M52.055,237.006c0-1.955,0.863-4.126,3.058-4.126c2.183,0,3.059,2.171,3.059,4.126
				c0,1.943-0.876,4.138-3.059,4.138C52.918,241.144,52.055,238.949,52.055,237.006z M57.152,237.006
				c0-1.595-0.516-3.238-2.039-3.238c-1.523,0-2.039,1.644-2.039,3.238c0,1.596,0.516,3.25,2.039,3.25
				C56.637,240.256,57.152,238.602,57.152,237.006z"/>
			<path class="st3" d="M59.399,237.018c0-2.171,1.007-4.138,3.25-4.138c1.032,0,1.727,0.396,2.219,0.96l-0.503,0.743
				c-0.408-0.479-0.876-0.815-1.715-0.815c-1.547,0-2.255,1.571-2.255,3.143c0,0.107,0,0.204,0.012,0.312
				c0.348-0.552,1.235-1.247,2.267-1.247c1.439,0,2.615,0.852,2.615,2.555c0,1.391-1.056,2.614-2.807,2.614
				C60.25,241.144,59.399,239.188,59.399,237.018z M64.28,238.565c0-1.176-0.816-1.728-1.847-1.728
				c-0.792,0-1.559,0.492-2.003,1.199c0.096,0.996,0.624,2.219,2.015,2.219C63.681,240.256,64.28,239.333,64.28,238.565z"/>
		</g>
	</g>
	<g>
		<g>
			<path class="st3" d="M127.191,241v-0.792c2.878-2.267,4.438-3.598,4.438-4.978c0-1.019-0.84-1.463-1.667-1.463
				c-0.959,0-1.703,0.408-2.17,1.008l-0.612-0.636c0.612-0.804,1.655-1.26,2.782-1.26c1.332,0,2.687,0.756,2.687,2.351
				c0,1.632-1.655,3.119-3.886,4.882h3.922V241H127.191z"/>
			<path class="st3" d="M134.211,237.006c0-1.955,0.863-4.126,3.058-4.126c2.183,0,3.059,2.171,3.059,4.126
				c0,1.943-0.876,4.138-3.059,4.138C135.075,241.144,134.211,238.949,134.211,237.006z M139.309,237.006
				c0-1.595-0.516-3.238-2.039-3.238c-1.523,0-2.039,1.644-2.039,3.238c0,1.596,0.516,3.25,2.039,3.25
				C138.793,240.256,139.309,238.602,139.309,237.006z"/>
			<path class="st3" d="M141.555,237.006c0-1.955,0.863-4.126,3.058-4.126c2.183,0,3.059,2.171,3.059,4.126
				c0,1.943-0.876,4.138-3.059,4.138C142.418,241.144,141.555,238.949,141.555,237.006z M146.652,237.006
				c0-1.595-0.516-3.238-2.039-3.238c-1.523,0-2.039,1.644-2.039,3.238c0,1.596,0.516,3.25,2.039,3.25
				C146.137,240.256,146.652,238.602,146.652,237.006z"/>
			<path class="st3" d="M149.294,240.172l0.504-0.743c0.408,0.479,0.887,0.815,1.715,0.815c1.619,0,2.255-1.619,2.255-3.13
				c0-0.108,0-0.216-0.012-0.324c-0.348,0.552-1.235,1.247-2.254,1.247c-1.439,0-2.626-0.852-2.626-2.555
				c0-1.379,1.055-2.614,2.794-2.614c2.243,0,3.094,1.955,3.094,4.138c0,2.159-1.008,4.126-3.25,4.126
				C150.494,241.132,149.798,240.748,149.294,240.172z M153.72,235.986c-0.084-0.995-0.612-2.23-2.003-2.23
				c-1.223,0-1.835,0.936-1.835,1.691c0,1.175,0.815,1.727,1.847,1.727C152.521,237.174,153.3,236.694,153.72,235.986z"/>
		</g>
	</g>
	<g>
		<g>
			<path class="st3" d="M217.191,241v-0.792c2.878-2.267,4.438-3.598,4.438-4.978c0-1.019-0.84-1.463-1.667-1.463
				c-0.959,0-1.703,0.408-2.17,1.008l-0.612-0.636c0.612-0.804,1.655-1.26,2.782-1.26c1.332,0,2.687,0.756,2.687,2.351
				c0,1.632-1.655,3.119-3.886,4.882h3.922V241H217.191z"/>
			<path class="st3" d="M224.211,237.006c0-1.955,0.863-4.126,3.058-4.126c2.183,0,3.059,2.171,3.059,4.126
				c0,1.943-0.876,4.138-3.059,4.138C225.075,241.144,224.211,238.949,224.211,237.006z M229.309,237.006
				c0-1.595-0.516-3.238-2.039-3.238c-1.523,0-2.039,1.644-2.039,3.238c0,1.596,0.516,3.25,2.039,3.25
				C228.793,240.256,229.309,238.602,229.309,237.006z"/>
			<path class="st3" d="M233.078,241v-6.681l-1.283,1.355l-0.6-0.611l2.003-2.063h0.875v8H233.078z"/>
			<path class="st3" d="M235.659,241v-0.792c2.878-2.267,4.438-3.598,4.438-4.978c0-1.019-0.84-1.463-1.667-1.463
				c-0.959,0-1.703,0.408-2.17,1.008l-0.612-0.636c0.612-0.804,1.655-1.26,2.782-1.26c1.332,0,2.687,0.756,2.687,2.351
				c0,1.632-1.655,3.119-3.886,4.882h3.922V241H235.659z"/>
		</g>
	</g>
	<g>
		<g>
			<path class="st3" d="M306.191,241v-0.792c2.879-2.267,4.438-3.598,4.438-4.978c0-1.019-0.84-1.463-1.668-1.463
				c-0.959,0-1.703,0.408-2.17,1.008l-0.612-0.636c0.612-0.804,1.655-1.26,2.782-1.26c1.332,0,2.687,0.756,2.687,2.351
				c0,1.632-1.654,3.119-3.886,4.882h3.922V241H306.191z"/>
			<path class="st3" d="M313.211,237.006c0-1.955,0.863-4.126,3.059-4.126c2.183,0,3.059,2.171,3.059,4.126
				c0,1.943-0.876,4.138-3.059,4.138C314.075,241.144,313.211,238.949,313.211,237.006z M318.309,237.006
				c0-1.595-0.516-3.238-2.039-3.238s-2.039,1.644-2.039,3.238c0,1.596,0.516,3.25,2.039,3.25S318.309,238.602,318.309,237.006z"/>
			<path class="st3" d="M322.079,241v-6.681l-1.283,1.355l-0.6-0.611l2.003-2.063h0.875v8H322.079z"/>
			<path class="st3" d="M328.197,241v-2.027h-3.802v-0.827l3.431-5.146h1.367v5.098h1.127v0.875h-1.127V241H328.197z
				 M328.197,233.924l-2.806,4.174h2.806V233.924z"/>
		</g>
	</g>
	<g>
		<g>
			<path class="st3" d="M396.191,241v-0.792c2.879-2.267,4.438-3.598,4.438-4.978c0-1.019-0.84-1.463-1.668-1.463
				c-0.959,0-1.703,0.408-2.17,1.008l-0.612-0.636c0.612-0.804,1.655-1.26,2.782-1.26c1.332,0,2.687,0.756,2.687,2.351
				c0,1.632-1.654,3.119-3.886,4.882h3.922V241H396.191z"/>
			<path class="st3" d="M403.211,237.006c0-1.955,0.863-4.126,3.059-4.126c2.183,0,3.059,2.171,3.059,4.126
				c0,1.943-0.876,4.138-3.059,4.138C404.075,241.144,403.211,238.949,403.211,237.006z M408.309,237.006
				c0-1.595-0.516-3.238-2.039-3.238s-2.039,1.644-2.039,3.238c0,1.596,0.516,3.25,2.039,3.25S408.309,238.602,408.309,237.006z"/>
			<path class="st3" d="M412.079,241v-6.681l-1.283,1.355l-0.6-0.611l2.003-2.063h0.875v8H412.079z"/>
			<path class="st3" d="M414.803,239.86l0.611-0.659c0.528,0.671,1.224,1.055,2.207,1.055c1.092,0,1.847-0.743,1.847-1.715
				c0-1.056-0.755-1.727-1.835-1.727c-0.707,0-1.307,0.228-1.847,0.755l-0.731-0.252V233h4.893v0.888h-3.897v2.782
				c0.384-0.384,1.067-0.72,1.871-0.72c1.331,0,2.543,0.912,2.543,2.555c0,1.632-1.235,2.639-2.843,2.639
				C416.266,241.144,415.403,240.652,414.803,239.86z"/>
		</g>
	</g>
	<g>
		<g>
			<path class="st3" d="M486.191,241v-0.792c2.879-2.267,4.438-3.598,4.438-4.978c0-1.019-0.84-1.463-1.668-1.463
				c-0.959,0-1.703,0.408-2.17,1.008l-0.612-0.636c0.612-0.804,1.655-1.26,2.782-1.26c1.332,0,2.687,0.756,2.687,2.351
				c0,1.632-1.654,3.119-3.886,4.882h3.922V241H486.191z"/>
			<path class="st3" d="M493.211,237.006c0-1.955,0.863-4.126,3.059-4.126c2.183,0,3.059,2.171,3.059,4.126
				c0,1.943-0.876,4.138-3.059,4.138C494.075,241.144,493.211,238.949,493.211,237.006z M498.309,237.006
				c0-1.595-0.516-3.238-2.039-3.238s-2.039,1.644-2.039,3.238c0,1.596,0.516,3.25,2.039,3.25S498.309,238.602,498.309,237.006z"/>
			<path class="st3" d="M502.079,241v-6.681l-1.283,1.355l-0.6-0.611l2.003-2.063h0.875v8H502.079z"/>
			<path class="st3" d="M504.624,237.018c0-2.171,1.007-4.138,3.25-4.138c1.031,0,1.727,0.396,2.219,0.96l-0.504,0.743
				c-0.408-0.479-0.875-0.815-1.715-0.815c-1.547,0-2.255,1.571-2.255,3.143c0,0.107,0,0.204,0.012,0.312
				c0.348-0.552,1.235-1.247,2.267-1.247c1.439,0,2.615,0.852,2.615,2.555c0,1.391-1.056,2.614-2.807,2.614
				C505.475,241.144,504.624,239.188,504.624,237.018z M509.504,238.565c0-1.176-0.815-1.728-1.847-1.728
				c-0.792,0-1.56,0.492-2.003,1.199c0.096,0.996,0.623,2.219,2.015,2.219C508.905,240.256,509.504,239.333,509.504,238.565z"/>
		</g>
	</g>
</g>
</svg>
