<?xml version="1.0" encoding="utf-8"?>
<!-- Generator: Adobe Illustrator 16.0.0, SVG Export Plug-In . SVG Version: 6.00 Build 0)  -->
<!DOCTYPE svg PUBLIC "-//W3C//DTD SVG 1.1//EN" "http://www.w3.org/Graphics/SVG/1.1/DTD/svg11.dtd">
<svg version="1.1" id="Layer_1" xmlns="http://www.w3.org/2000/svg" xmlns:xlink="http://www.w3.org/1999/xlink" x="0px" y="0px"
	 width="700px" height="1000px" viewBox="0 0 700 1000" enable-background="new 0 0 700 1000" xml:space="preserve">
<linearGradient id="SVGID_1_" gradientUnits="userSpaceOnUse" x1="-0.3257" y1="-831.8154" x2="-0.3257" y2="-894.4795" gradientTransform="matrix(15.9743 0 0 15.9743 355.2082 14288.7158)">
	<stop  offset="0" style="stop-color:#24C7FB"/>
	<stop  offset="1" style="stop-color:#36E6FF"/>
</linearGradient>
<path fill="url(#SVGID_1_)" d="M350,0C159.909,0,4.955,153.365,4.955,341.865c0,266.772,317.911,629.412,332.273,643.773L350,1000
	l12.771-14.361c12.771-15.951,332.273-377.001,332.273-643.773C693.455,153.365,540.09,0,350,0z M350,948.86
	c-60.679-70.27-311.5-380.18-311.5-606.995c0-170.906,138.95-308.32,309.91-308.32c170.959,0,311.499,138.951,311.499,308.32
	C659.909,567.091,409.088,878.591,350,948.86z M350,134.181c-116.588,0-210.864,94.224-210.864,209.274
	c0,115.051,94.276,209.274,210.864,209.274c116.587,0,210.863-94.224,210.863-209.274C560.863,228.405,464.997,134.181,350,134.181z
	 M350,531.955c-103.816,0-188.501-84.685-188.501-186.91c0-103.815,84.685-186.91,188.501-186.91
	c103.815,0,188.5,84.685,188.5,186.91S453.815,531.955,350,531.955z"/>
</svg>
