<?xml version="1.0" encoding="utf-8"?>
<!-- Generator: Adobe Illustrator 16.0.0, SVG Export Plug-In . SVG Version: 6.00 Build 0)  -->
<!DOCTYPE svg PUBLIC "-//W3C//DTD SVG 1.1//EN" "http://www.w3.org/Graphics/SVG/1.1/DTD/svg11.dtd">
<svg version="1.1" id="Layer_1" xmlns="http://www.w3.org/2000/svg" xmlns:xlink="http://www.w3.org/1999/xlink" x="0px" y="0px"
	 width="700px" height="700px" viewBox="0 150 700 700" enable-background="new 0 150 700 700" xml:space="preserve">
<linearGradient id="SVGID_1_" gradientUnits="userSpaceOnUse" x1="16.207" y1="967.7041" x2="16.207" y2="1004.7041" gradientTransform="matrix(18.9189 0 0 -18.9189 43.3843 19157.9258)">
	<stop  offset="0" style="stop-color:#24C7FB"/>
	<stop  offset="1" style="stop-color:#36E6FF"/>
</linearGradient>
<path fill="url(#SVGID_1_)" d="M350,150C157.027,150,0,307.027,0,500c0,192.973,157.027,350,350,350c192.973,0,350-157.027,350-350
	C700,307.027,542.973,150,350,150z M350,812.162c-172.162,0-312.162-140-312.162-312.162s140-312.162,312.162-312.162
	s312.162,140,312.162,312.162S522.162,812.162,350,812.162z M406.757,286.216l-81.352,266.756c-1.892,0-3.783,0-5.676,0
	c-28.378,0-52.973,18.919-60.54,45.405c-9.46,34.055,9.459,68.108,41.621,79.46c5.676,1.892,11.352,1.892,18.919,1.892
	c28.379,0,52.974-18.919,60.541-45.405c5.676-17.027,3.783-34.054-5.676-49.189c-5.676-11.351-15.135-18.919-24.595-24.595
	l81.352-266.756L406.757,286.216z M355.676,628.648c-5.676,18.919-26.486,30.271-45.405,24.595S280,626.757,285.676,607.838
	c3.784-15.135,18.919-26.486,34.054-26.486c3.784,0,7.567,0,11.352,1.892c9.46,1.892,17.027,9.46,20.811,17.027
	C355.676,607.838,359.459,619.189,355.676,628.648z"/>
</svg>
