<?xml version="1.0" encoding="utf-8"?>
<!-- Generator: Adobe Illustrator 16.0.0, SVG Export Plug-In . SVG Version: 6.00 Build 0)  -->
<!DOCTYPE svg PUBLIC "-//W3C//DTD SVG 1.1//EN" "http://www.w3.org/Graphics/SVG/1.1/DTD/svg11.dtd">
<svg version="1.1" id="Layer_1" xmlns="http://www.w3.org/2000/svg" xmlns:xlink="http://www.w3.org/1999/xlink" x="0px" y="0px"
	 width="700px" height="600.793px" viewBox="0 0 700 600.793" enable-background="new 0 0 700 600.793" xml:space="preserve">
<linearGradient id="SVGID_1_" gradientUnits="userSpaceOnUse" x1="6.4194" y1="-174.6777" x2="6.4194" y2="-208.5801" gradientTransform="matrix(17.7213 0 0 17.7213 236.2331 3696.3291)">
	<stop  offset="0" style="stop-color:#24C7FB"/>
	<stop  offset="1" style="stop-color:#36E6FF"/>
</linearGradient>
<path fill="url(#SVGID_1_)" d="M630.767,113.438H182.468c-38.956,0-69.132,31.893-69.132,69.132v349.092
	c0,38.956,31.892,69.133,69.132,69.133h448.399c38.957,0,69.133-31.893,69.133-69.133V182.569
	C699.898,143.513,669.723,113.438,630.767,113.438z M664.374,531.661c0,19.479-15.946,33.708-33.708,33.708H182.468
	c-19.478,0-33.708-15.945-33.708-33.708V182.569c0-19.478,15.945-33.708,33.708-33.708h448.399
	c19.479,0,33.709,15.946,33.709,33.708v349.092H664.374z M35.424,69.131v349.093c0,19.479,15.946,33.708,33.708,33.708v35.424
	C30.176,487.355,0,455.464,0,418.224V69.131C-0.101,31.892,31.791-0.001,69.031-0.001h448.298c38.956,0,69.133,31.893,69.133,69.132
	h-35.424c0-19.478-15.946-33.708-33.709-33.708H69.031C51.37,35.423,35.424,51.369,35.424,69.131z M228.489,230.406h361.505v24.827
	H228.489V230.406z M228.489,340.211h361.505v24.825H228.489V340.211z M228.489,448.399h361.505v24.827H228.489V448.399z"/>
</svg>
