<?xml version="1.0" encoding="utf-8"?>
<!-- Generator: Adobe Illustrator 18.1.0, SVG Export Plug-In . SVG Version: 6.00 Build 0)  -->
<svg version="1.1" id="Layer_1" xmlns="http://www.w3.org/2000/svg" xmlns:xlink="http://www.w3.org/1999/xlink" x="0px" y="0px"
	 viewBox="-396 574.9 40.4 34.4" enable-background="new -396 574.9 40.4 34.4" xml:space="preserve">
<path fill="#00E2C7" d="M-358,596.4v-19c0-1.4-1.1-2.5-2.5-2.5h-33c-1.4,0-2.5,1.1-2.5,2.5v23.1c0,1.4,1.1,2.5,2.5,2.5h23.2
	c0.6,3.6,3.6,6.3,7.3,6.3c4.1,0,7.4-3.3,7.4-7.4C-355.6,599.7-356.5,597.7-358,596.4z M-370.4,601.4h-23.1c-0.5,0-0.8-0.4-0.8-0.8
	v-23.1c0-0.5,0.4-0.8,0.8-0.8h33c0.5,0,0.8,0.4,0.8,0.8v17.8c-0.8-0.4-1.6-0.6-2.5-0.7v-15c0-0.7-0.6-1.2-1.2-1.2h-24.8
	c-0.7,0-1.2,0.6-1.2,1.2v19c0,0.7,0.6,1.2,1.2,1.2h18C-370.3,600.2-370.4,600.8-370.4,601.4z M-388.2,598.9c-0.2,0-0.4-0.2-0.4-0.4
	v-19c0-0.2,0.2-0.4,0.4-0.4h24.8c0.2,0,0.4,0.2,0.4,0.4v15c0,0,0,0,0,0c-3,0-5.6,1.8-6.8,4.4L-388.2,598.9L-388.2,598.9z
	 M-364.2,606.6c-0.1,0.1-0.2,0.1-0.3,0.1c0,0,0,0,0,0c-0.1,0-0.2,0-0.3-0.1c-1.1-1.1-1.8-2.4-2-3.8c-0.1-0.9,0-1.7,0.3-2.4
	c0.5-1.1,1.7-2,3-2.2c1.4-0.2,2.8,0.4,3.6,1.4c0.6,0.7,0.9,1.5,0.8,2.3c0,0.2-0.2,0.4-0.4,0.4c-0.1,0-0.5-0.1-0.5-0.9
	c0-0.3-0.2-0.7-0.4-1c-0.1-0.2-0.2-0.4-0.4-0.5c-0.3-0.3-0.7-0.6-1.2-0.7c-1-0.3-2-0.2-2.8,0.4c-0.7,0.5-1.1,1.1-1.2,1.7
	c-0.1,0.5-0.1,0.9,0,1.3c0,0.1,0.1,0.2,0.1,0.3c0.2,1.1,0.8,2.2,1.8,3.1c0.1,0.1,0.1,0.2,0.1,0.3
	C-364.1,606.4-364.2,606.5-364.2,606.6z M-358.9,605.4c-0.4,0-0.6,0.1-0.9,0.1c-0.4,0-0.8-0.1-1.1-0.2c-0.8-0.3-1.5-0.8-2-1.7
	c-0.2-0.4-0.5-1.1-0.5-1.8c0-0.2,0.1-0.3,0.3-0.4c0.2-0.1,0.4,0,0.5,0.1c0.1,0.1,0.1,0.2,0.1,0.4c0,0.2,0.1,0.4,0.2,0.8
	c0.1,0.2,0.2,0.4,0.3,0.6c0.4,0.6,0.8,1,1.6,1.2c0.5,0.1,1,0.1,1.6,0c0,0,0,0,0,0c0.2,0,0.4,0.2,0.4,0.4
	C-358.5,605.2-358.7,605.4-358.9,605.4z M-357.8,603.2c-0.5,0.6-1.5,0.9-2.3,0.6c-0.8-0.2-1.3-0.8-1.5-1.7c0-0.1,0-0.2,0-0.2
	c0-0.2,0-0.4-0.2-0.6c-0.1-0.2-0.3-0.4-0.6-0.5c-0.6-0.2-1.3-0.2-1.7,0.5c-0.4,0.8,0.1,2.3,0.3,2.6c0.3,0.5,0.6,0.9,1,1.2
	c0.5,0.4,1.1,0.7,1.9,1c0.1,0,0.2,0.1,0.2,0.2c0.1,0.1,0.1,0.2,0,0.3c0,0.1-0.1,0.2-0.2,0.2c-0.1,0-0.1,0.1-0.2,0.1c0,0-0.1,0-0.1,0
	c-0.3-0.1-0.8-0.3-1.1-0.5c-1.2-0.6-2-1.5-2.5-2.7c-0.3-0.8-0.7-2.2,0.2-3.3c0.5-0.6,1.4-0.8,2.2-0.6c0.8,0.2,1.4,0.8,1.5,1.5l0,0.1
	c0.1,0.6,0.1,1.1,0.7,1.4c0.3,0.2,0.7,0.2,1.1,0.1c0.4-0.1,1.2-0.7,0.7-2.5c0,0,0,0,0-0.1c-0.1-0.3-0.2-0.5-0.4-0.8
	c-0.2-0.3-0.4-0.6-0.6-0.8c-0.4-0.5-1-0.8-1.7-1.1c-0.8-0.3-1.7-0.4-2.5-0.4c-0.7,0.1-1.5,0.3-2.2,0.8c-0.2,0.2-0.5,0.3-0.7,0.6
	c-0.2,0.2-0.4,0.4-0.5,0.6c-0.3,0.4-0.5,0.8-0.6,1.3c0,0.2-0.2,1-0.1,2.2c0,0,0,0,0,0l0,0c0.1,0.5,0.2,1,0.3,1.4c0,0.1,0,0.2,0,0.3
	c-0.1,0.1-0.1,0.2-0.2,0.2c-0.2,0.1-0.4,0-0.5-0.3l0,0c0,0,0,0,0,0c-0.2-0.5-0.3-1.1-0.4-1.8c-0.1-1.1,0-2.1,0.4-3
	c0.5-1.1,1.4-2.1,2.7-2.6c1.6-0.8,3.6-0.7,5.3,0.2c0.6,0.3,1.2,0.8,1.6,1.4c0.4,0.5,0.8,1.1,0.9,1.7
	C-357.4,600.8-357,602.2-357.8,603.2z M-390.6,589c0,0.7-0.6,1.2-1.2,1.2s-1.2-0.6-1.2-1.2c0-0.7,0.6-1.2,1.2-1.2
	S-390.6,588.3-390.6,589z"/>
</svg>
