<?xml version="1.0" encoding="utf-8"?>
<!-- Generator: Adobe Illustrator 19.1.0, SVG Export Plug-In . SVG Version: 6.00 Build 0)  -->
<svg version="1.1" id="Layer_1" xmlns="http://www.w3.org/2000/svg" xmlns:xlink="http://www.w3.org/1999/xlink" x="0px" y="0px"
	 width="230px" height="40px" viewBox="0 0 230 40" style="enable-background:new 0 0 230 40;" xml:space="preserve">
<style type="text/css">
	.st0{fill:#1AD9FF;}
	.st1{fill:url(#SVGID_1_);}
	.st2{fill:url(#SVGID_2_);}
	.st3{fill:url(#SVGID_3_);}
	.st4{fill:#6741D9;}
</style>
<g>
	<path class="st0" d="M20,1c10.477,0,19,8.523,19,19s-8.523,19-19,19S1,30.477,1,20S9.523,1,20,1 M20,0C8.954,0,0,8.954,0,20
		s8.954,20,20,20s20-8.954,20-20S31.046,0,20,0z"/>
	
		<linearGradient id="SVGID_1_" gradientUnits="userSpaceOnUse" x1="-288.5221" y1="-316.0089" x2="-287.5221" y2="-316.0089" gradientTransform="matrix(6.285523e-10 -14 14 6.285523e-10 4444.124 -4012.062)">
		<stop  offset="0" style="stop-color:#24C7FB"/>
		<stop  offset="1" style="stop-color:#36E6FF"/>
	</linearGradient>
	<path class="st1" d="M27,13.248H13c-0.962,0-1.75,0.787-1.75,1.75v10.5c0,0.962,0.788,1.75,1.75,1.75h14
		c0.962,0,1.75-0.788,1.75-1.75v-10.5C28.75,14.035,27.962,13.248,27,13.248z M27,16.748l-7,4.375l-7-4.375v-1.75l7,4.375l7-4.375
		V16.748z"/>
</g>
<g>
	<path class="st0" d="M115,1c10.477,0,19,8.523,19,19s-8.523,19-19,19s-19-8.523-19-19S104.523,1,115,1 M115,0
		c-11.046,0-20,8.954-20,20s8.954,20,20,20s20-8.954,20-20S126.046,0,115,0z"/>
	
		<linearGradient id="SVGID_2_" gradientUnits="userSpaceOnUse" x1="-288.5221" y1="-316.0089" x2="-287.5221" y2="-316.0089" gradientTransform="matrix(8.081387e-10 -18 18 8.081387e-10 5803.1592 -5164.1504)">
		<stop  offset="0" style="stop-color:#24C7FB"/>
		<stop  offset="1" style="stop-color:#36E6FF"/>
	</linearGradient>
	<path class="st2" d="M107.612,12.248c-1.5,1.6-1.6,3.6-1.6,3.6c0.4,1.9,2.6,5.5,5.2,8.2c2.7,2.7,6.2,4.8,8.2,5.2c0,0,2-0.1,3.6-1.6
		l0.9-0.9c0.1-0.1,0.1-0.3,0-0.5l-4-4c-0.1-0.1-0.3-0.1-0.5,0l-0.9,0.9l-0.8,1.1c0,0-1.7-0.4-4-2.7c-2.4-2.3-2.7-4-2.7-4l1.1-0.9
		l0.9-0.9c0.1-0.1,0.1-0.3,0-0.5l-4-4c-0.1,0-0.3,0-0.4,0.1L107.612,12.248z"/>
</g>
<g>
	<path class="st0" d="M210.478,0.991L210.478,0.991h-0.348c10.476,0,18.941,8.653,18.87,19.129
		c-0.071,10.405-8.593,18.871-18.997,18.871h-0.132c-5.075,0-9.833-2.039-13.397-5.652c-3.564-3.613-5.268-8.398-5.233-13.473
		c0.071-10.405,8.237-18.871,19.237-18.871 M209.997-0.009c-10.982,0-19.922,8.865-19.997,19.864
		c-0.075,11.045,8.818,20.136,19.863,20.136h0.139c10.982,0,19.922-8.865,19.997-19.864c0.075-11.045-8.818-20.136-19.863-20.136
		H209.997z"/>
	
		<linearGradient id="SVGID_3_" gradientUnits="userSpaceOnUse" x1="-288.5221" y1="-316.0089" x2="-287.5221" y2="-316.0089" gradientTransform="matrix(16.9634 0.1155 -0.1155 16.9634 5059.3037 5414.6021)">
		<stop  offset="0" style="stop-color:#24C7FB"/>
		<stop  offset="1" style="stop-color:#36E6FF"/>
	</linearGradient>
	<path class="st3" d="M218.483,19.796c-0.023,3.338-1.98,6.217-4.8,7.58l-0.671,0.288c-0.954,0.364-1.987,0.562-3.07,0.554
		c-0.719-0.005-1.44-0.101-2.14-0.29c-1.958,1.493-4.434,2.233-4.54,2.265l-0.104,0.014c-0.126-0.001-0.247-0.07-0.312-0.186
		c-0.08-0.149-0.046-0.333,0.081-0.444c0.604-0.518,1.13-1.743,1.482-3.462c-1.856-1.628-2.908-3.961-2.891-6.436
		c0.032-4.678,3.863-8.457,8.538-8.425c2.874,0.02,5.405,1.475,6.924,3.676l0.387,0.613
		C218.085,16.798,218.494,18.251,218.483,19.796z"/>
</g>
<path class="st4" d="M47.478,18.991L47.478,18.991c-0.552,0-1,0.448-1,1c0,0.552,0.448,1,1,1c0.552,0,1-0.448,1-1
	C48.478,19.439,48.03,18.991,47.478,18.991z M55.478,18.991L55.478,18.991c-0.552,0-1,0.448-1,1c0,0.552,0.448,1,1,1
	c0.552,0,1-0.448,1-1C56.478,19.439,56.03,18.991,55.478,18.991z M63.478,18.991L63.478,18.991c-0.552,0-1,0.448-1,1
	c0,0.552,0.448,1,1,1c0.552,0,1-0.448,1-1C64.478,19.439,64.03,18.991,63.478,18.991z M71.478,18.991L71.478,18.991
	c-0.552,0-1,0.448-1,1c0,0.552,0.448,1,1,1c0.552,0,1-0.448,1-1C72.478,19.439,72.03,18.991,71.478,18.991z M79.478,18.991
	L79.478,18.991c-0.552,0-1,0.448-1,1c0,0.552,0.448,1,1,1c0.552,0,1-0.448,1-1C80.478,19.439,80.03,18.991,79.478,18.991z
	 M87.478,18.991L87.478,18.991c-0.552,0-1,0.448-1,1c0,0.552,0.448,1,1,1c0.552,0,1-0.448,1-1
	C88.478,19.439,88.03,18.991,87.478,18.991z"/>
<path class="st4" d="M142.478,18.991L142.478,18.991c-0.552,0-1,0.448-1,1c0,0.552,0.448,1,1,1c0.552,0,1-0.448,1-1
	C143.478,19.439,143.03,18.991,142.478,18.991z M150.478,18.991L150.478,18.991c-0.552,0-1,0.448-1,1c0,0.552,0.448,1,1,1
	c0.552,0,1-0.448,1-1C151.478,19.439,151.03,18.991,150.478,18.991z M158.478,18.991L158.478,18.991c-0.552,0-1,0.448-1,1
	c0,0.552,0.448,1,1,1c0.552,0,1-0.448,1-1C159.478,19.439,159.03,18.991,158.478,18.991z M166.478,18.991L166.478,18.991
	c-0.552,0-1,0.448-1,1c0,0.552,0.448,1,1,1c0.552,0,1-0.448,1-1C167.478,19.439,167.03,18.991,166.478,18.991z M174.478,18.991
	L174.478,18.991c-0.552,0-1,0.448-1,1c0,0.552,0.448,1,1,1c0.552,0,1-0.448,1-1C175.478,19.439,175.03,18.991,174.478,18.991z
	 M182.478,18.991L182.478,18.991c-0.552,0-1,0.448-1,1c0,0.552,0.448,1,1,1c0.552,0,1-0.448,1-1
	C183.478,19.439,183.03,18.991,182.478,18.991z"/>
</svg>
