<?xml version="1.0" encoding="utf-8"?>
<!-- Generator: Adobe Illustrator 19.2.1, SVG Export Plug-In . SVG Version: 6.00 Build 0)  -->
<svg version="1.1" id="Layer_1" xmlns="http://www.w3.org/2000/svg" xmlns:xlink="http://www.w3.org/1999/xlink" x="0px" y="0px"
	 width="254.1px" height="506px" viewBox="0 0 254.1 506" style="enable-background:new 0 0 254.1 506;" xml:space="preserve">
<style type="text/css">
	.st0{opacity:0.1;fill:url(#SVGID_1_);}
	.st1{fill:#FFFFFF;}
	.st2{opacity:0.1;fill:url(#SVGID_2_);}
	.st3{opacity:0.1;fill:url(#SVGID_3_);}
	.st4{opacity:0.1;fill:url(#SVGID_4_);}
</style>
<linearGradient id="SVGID_1_" gradientUnits="userSpaceOnUse" x1="-476.9141" y1="431" x2="-476.9141" y2="506" gradientTransform="matrix(-1 0 0 1 -355.9135 0)">
	<stop  offset="0" style="stop-color:#FF4CFF"/>
	<stop  offset="1" style="stop-color:#640AA6"/>
</linearGradient>
<path class="st0" d="M12.1,486.6v-16.4v-3.4c0-19.8,15.7-35.8,35-35.8H207c19.3,0,35,16,35,35.8v3.4c0,19.8-15.7,35.8-35,35.8H47.1
	c-8.2,0-15.7-2.9-21.6-7.7C18,503,9.3,505.8,0,506C7.1,502.5,12.1,495.2,12.1,486.6z"/>
<path class="st1" d="M42.7,460.9l-0.9-2.4h-5.3l-0.9,2.4H34l4.3-10.7h1.6l4.3,10.7H42.7z M39.1,451.6l-2.3,5.7h4.5L39.1,451.6z
	 M50.8,460.9v-5.1c0-1.4-0.7-1.8-1.7-1.8c-0.9,0-1.8,0.6-2.3,1.2v5.7h-1.2v-7.7h1.2v1.1c0.5-0.6,1.6-1.3,2.8-1.3
	c1.6,0,2.5,0.8,2.5,2.5v5.4H50.8z M54.1,462.9c0.2,0.1,0.5,0.1,0.7,0.1c0.5,0,0.9-0.2,1.2-0.8l0.5-1.2l-3.2-7.8h1.3l2.6,6.3l2.6-6.3
	H61l-3.9,9.3c-0.5,1.1-1.2,1.6-2.3,1.6c-0.3,0-0.7,0-0.9-0.1L54.1,462.9z M62.5,459.3v-5.1h-1.3v-1.1h1.3v-2.1h1.2v2.1h1.6v1.1h-1.6
	v4.8c0,0.6,0.3,1,0.8,1c0.3,0,0.7-0.1,0.8-0.3l0.4,0.9c-0.3,0.3-0.7,0.5-1.4,0.5C63,461.1,62.5,460.5,62.5,459.3z M66.7,451.3
	c0-0.4,0.4-0.8,0.8-0.8c0.4,0,0.8,0.4,0.8,0.8s-0.4,0.8-0.8,0.8C67.1,452.1,66.7,451.8,66.7,451.3z M66.9,460.9v-7.7h1.2v7.7H66.9z
	 M79.9,460.9v-5.2c0-1-0.4-1.6-1.4-1.6c-0.8,0-1.6,0.6-2,1.2v5.7h-1.2v-5.2c0-1-0.4-1.6-1.4-1.6c-0.8,0-1.6,0.6-2,1.2v5.7h-1.2v-7.7
	h1.2v1.1c0.3-0.5,1.4-1.3,2.5-1.3c1.2,0,1.9,0.6,2.1,1.4c0.4-0.7,1.5-1.4,2.6-1.4c1.4,0,2.2,0.8,2.2,2.3v5.6H79.9z M83,457.1
	c0-2.2,1.6-4,3.8-4c2.3,0,3.7,1.8,3.7,4.1v0.3h-6.3c0.1,1.5,1.1,2.7,2.8,2.7c0.9,0,1.8-0.4,2.4-1L90,460c-0.8,0.8-1.8,1.2-3.1,1.2
	C84.7,461.1,83,459.5,83,457.1z M86.8,454c-1.6,0-2.5,1.4-2.5,2.6h5.1C89.3,455.4,88.6,454,86.8,454z M92.7,463l-0.6-0.5
	c0.5-0.3,1-1,1-1.5c0,0-0.1,0-0.2,0c-0.4,0-0.8-0.3-0.8-0.8c0-0.5,0.4-0.9,0.8-0.9c0.5,0,1,0.4,1,1.2C94,461.5,93.4,462.4,92.7,463z
	 M105.4,460.9v-5.1c0-1.4-0.7-1.8-1.7-1.8c-0.9,0-1.8,0.6-2.3,1.2v5.7h-1.2v-10.7h1.2v4.1c0.5-0.6,1.6-1.3,2.8-1.3
	c1.6,0,2.5,0.8,2.5,2.5v5.5H105.4z M113.8,460.9v-0.9c-0.6,0.7-1.5,1.1-2.6,1.1c-1.3,0-2.7-0.9-2.7-2.6c0-1.7,1.4-2.5,2.7-2.5
	c1.1,0,1.9,0.3,2.6,1.1v-1.4c0-1-0.8-1.6-2-1.6c-0.9,0-1.7,0.3-2.4,1.1l-0.6-0.8c0.8-0.9,1.8-1.3,3.1-1.3c1.6,0,3,0.7,3,2.6v5.3
	H113.8z M113.8,459.3v-1.5c-0.5-0.6-1.3-1-2.1-1c-1.1,0-1.9,0.7-1.9,1.7c0,1,0.8,1.7,1.9,1.7C112.5,460.3,113.4,460,113.8,459.3z
	 M119.5,460.9l-3.2-7.7h1.3l2.6,6.3l2.6-6.3h1.3l-3.2,7.7H119.5z M124.8,457.1c0-2.2,1.6-4,3.8-4c2.3,0,3.7,1.8,3.7,4.1v0.3h-6.3
	c0.1,1.5,1.1,2.7,2.8,2.7c0.9,0,1.8-0.4,2.4-1l0.6,0.8c-0.8,0.8-1.8,1.2-3.1,1.2C126.5,461.1,124.8,459.5,124.8,457.1z M128.6,454
	c-1.6,0-2.5,1.4-2.5,2.6h5.1C131.1,455.4,130.4,454,128.6,454z M143.2,460.9v-0.9c-0.6,0.7-1.5,1.1-2.6,1.1c-1.3,0-2.7-0.9-2.7-2.6
	c0-1.7,1.4-2.5,2.7-2.5c1.1,0,1.9,0.3,2.6,1.1v-1.4c0-1-0.8-1.6-2-1.6c-0.9,0-1.7,0.3-2.4,1.1l-0.6-0.8c0.8-0.9,1.8-1.3,3.1-1.3
	c1.6,0,3,0.7,3,2.6v5.3H143.2z M143.2,459.3v-1.5c-0.5-0.6-1.3-1-2.1-1c-1.1,0-1.9,0.7-1.9,1.7c0,1,0.8,1.7,1.9,1.7
	C142,460.3,142.8,460,143.2,459.3z M150.9,462.9l0.6-0.9c0.6,0.8,1.4,1.1,2.5,1.1c1.3,0,2.5-0.6,2.5-2.3v-1.1
	c-0.6,0.8-1.5,1.4-2.6,1.4c-2,0-3.4-1.5-3.4-4c0-2.5,1.4-4,3.4-4c1,0,2,0.5,2.6,1.4v-1.2h1.2v7.5c0,2.6-1.8,3.4-3.7,3.4
	C152.8,464.1,151.9,463.8,150.9,462.9z M156.5,458.7v-3.4c-0.4-0.7-1.3-1.2-2.3-1.2c-1.6,0-2.5,1.2-2.5,2.9c0,1.7,0.9,2.9,2.5,2.9
	C155.2,460,156.1,459.4,156.5,458.7z M160.1,460.9v-7.7h1.2v1.2c0.6-0.8,1.5-1.4,2.6-1.4v1.2c-0.1,0-0.3,0-0.5,0
	c-0.7,0-1.7,0.6-2.1,1.2v5.5H160.1z M165,457.1c0-2.2,1.6-4,3.8-4c2.3,0,3.7,1.8,3.7,4.1v0.3h-6.3c0.1,1.5,1.1,2.7,2.8,2.7
	c0.9,0,1.8-0.4,2.4-1l0.6,0.8c-0.8,0.8-1.8,1.2-3.1,1.2C166.6,461.1,165,459.5,165,457.1z M168.8,454c-1.6,0-2.5,1.4-2.5,2.6h5.1
	C171.3,455.4,170.5,454,168.8,454z M179.3,460.9v-0.9c-0.6,0.7-1.5,1.1-2.6,1.1c-1.3,0-2.7-0.9-2.7-2.6c0-1.7,1.4-2.5,2.7-2.5
	c1.1,0,1.9,0.3,2.6,1.1v-1.4c0-1-0.8-1.6-2-1.6c-0.9,0-1.7,0.3-2.4,1.1l-0.6-0.8c0.8-0.9,1.8-1.3,3.1-1.3c1.6,0,3,0.7,3,2.6v5.3
	H179.3z M179.3,459.3v-1.5c-0.5-0.6-1.3-1-2.1-1c-1.1,0-1.9,0.7-1.9,1.7c0,1,0.8,1.7,1.9,1.7C178,460.3,178.8,460,179.3,459.3z
	 M183.1,459.3v-5.1h-1.3v-1.1h1.3v-2.1h1.2v2.1h1.6v1.1h-1.6v4.8c0,0.6,0.3,1,0.8,1c0.3,0,0.7-0.1,0.8-0.3l0.4,0.9
	c-0.3,0.3-0.7,0.5-1.4,0.5C183.7,461.1,183.1,460.5,183.1,459.3z M40.3,482.9v-5.1c0-1.4-0.7-1.8-1.7-1.8c-0.9,0-1.8,0.6-2.3,1.2
	v5.7H35v-7.7h1.2v1.1c0.5-0.6,1.6-1.3,2.8-1.3c1.6,0,2.5,0.8,2.5,2.5v5.4H40.3z M43.6,473.3c0-0.4,0.4-0.8,0.8-0.8
	c0.4,0,0.8,0.4,0.8,0.8s-0.4,0.8-0.8,0.8C44,474.1,43.6,473.8,43.6,473.3z M43.9,482.9v-7.7h1.2v7.7H43.9z M47.4,484.9L48,484
	c0.6,0.8,1.4,1.1,2.5,1.1c1.3,0,2.5-0.6,2.5-2.3v-1.1c-0.6,0.8-1.5,1.4-2.6,1.4c-2,0-3.4-1.5-3.4-4c0-2.5,1.4-4,3.4-4
	c1,0,2,0.5,2.6,1.4v-1.2h1.2v7.5c0,2.6-1.8,3.4-3.7,3.4C49.2,486.1,48.4,485.8,47.4,484.9z M53,480.7v-3.4c-0.4-0.7-1.3-1.2-2.3-1.2
	c-1.6,0-2.5,1.2-2.5,2.9c0,1.7,0.9,2.9,2.5,2.9C51.7,482,52.6,481.4,53,480.7z M61.9,482.9v-5.1c0-1.4-0.7-1.8-1.7-1.8
	c-0.9,0-1.8,0.6-2.3,1.2v5.7h-1.2v-10.7h1.2v4.1c0.5-0.6,1.6-1.3,2.8-1.3c1.6,0,2.5,0.8,2.5,2.5v5.5H61.9z M65.7,481.3v-5.1h-1.3
	v-1.1h1.3v-2.1h1.2v2.1h1.6v1.1h-1.6v4.8c0,0.6,0.3,1,0.8,1c0.3,0,0.7-0.1,0.8-0.3l0.4,0.9c-0.3,0.3-0.7,0.5-1.4,0.5
	C66.3,483.1,65.7,482.5,65.7,481.3z M69.9,482.2c0-0.5,0.4-0.9,0.9-0.9s0.9,0.4,0.9,0.9c0,0.5-0.4,0.9-0.9,0.9
	S69.9,482.7,69.9,482.2z M70.3,480l-0.3-7.7h1.5l-0.3,7.7H70.3z"/>
<linearGradient id="SVGID_2_" gradientUnits="userSpaceOnUse" x1="133.099" y1="346" x2="133.099" y2="421">
	<stop  offset="0" style="stop-color:#22C5E6"/>
	<stop  offset="1" style="stop-color:#3C1FCC"/>
</linearGradient>
<path class="st2" d="M242,401.6v-16.4v-3.4c0-19.8-15.7-35.8-35-35.8H47.1c-19.3,0-35,16-35,35.8v3.4c0,19.8,15.7,35.8,35,35.8H207
	c8.2,0,15.7-2.9,21.6-7.7c7.4,4.7,16.1,7.5,25.4,7.7C247,417.5,242,410.2,242,401.6z"/>
<path class="st1" d="M34.7,370.7c0-3.3,2.4-5.5,5.5-5.5c1.9,0,3.2,0.8,4.1,2l-1.1,0.7c-0.7-0.9-1.8-1.5-3.1-1.5
	c-2.3,0-4.1,1.8-4.1,4.3c0,2.5,1.8,4.4,4.1,4.4c1.3,0,2.3-0.6,2.9-1.2v-2.2h-3.7v-1.2h5v3.9c-1,1.1-2.4,1.8-4.2,1.8
	C37.1,376.3,34.7,374,34.7,370.7z M46.4,376v-7.7h1.2v1.2c0.6-0.8,1.5-1.4,2.6-1.4v1.2c-0.1,0-0.3,0-0.5,0c-0.7,0-1.7,0.6-2.1,1.2
	v5.5H46.4z M51.3,372.2c0-2.2,1.6-4,3.8-4c2.3,0,3.7,1.8,3.7,4.1v0.3h-6.3c0.1,1.5,1.1,2.7,2.8,2.7c0.9,0,1.8-0.4,2.4-1l0.6,0.8
	c-0.8,0.8-1.8,1.2-3.1,1.2C52.9,376.2,51.3,374.6,51.3,372.2z M55.1,369.1c-1.6,0-2.5,1.4-2.5,2.6h5.1
	C57.6,370.5,56.8,369.1,55.1,369.1z M65.6,376v-0.9c-0.6,0.7-1.5,1.1-2.6,1.1c-1.3,0-2.7-0.9-2.7-2.6c0-1.7,1.4-2.5,2.7-2.5
	c1.1,0,1.9,0.3,2.6,1.1v-1.4c0-1-0.8-1.6-2-1.6c-0.9,0-1.7,0.3-2.4,1.1l-0.6-0.8c0.8-0.9,1.8-1.3,3.1-1.3c1.6,0,3,0.7,3,2.6v5.3
	H65.6z M65.6,374.4V373c-0.5-0.6-1.3-1-2.1-1c-1.1,0-1.9,0.7-1.9,1.7c0,1,0.8,1.7,1.9,1.7C64.3,375.4,65.1,375.1,65.6,374.4z
	 M69.4,374.4v-5.1h-1.3v-1.1h1.3v-2.1h1.2v2.1h1.6v1.1h-1.6v4.8c0,0.6,0.3,1,0.8,1c0.3,0,0.7-0.1,0.8-0.3l0.4,0.9
	c-0.3,0.3-0.7,0.5-1.4,0.5C70,376.2,69.4,375.6,69.4,374.4z M73.6,375.3c0-0.5,0.4-0.9,0.9-0.9s0.9,0.4,0.9,0.9
	c0,0.5-0.4,0.9-0.9,0.9S73.6,375.8,73.6,375.3z M74,373.1l-0.3-7.7h1.5l-0.3,7.7H74z M44.2,398v-8.8l-3.6,8.8H40l-3.6-8.8v8.8h-1.3
	v-10.7H37l3.3,8l3.3-8h1.9V398H44.2z M53.2,398V397c-0.6,0.7-1.6,1.3-2.8,1.3c-1.6,0-2.5-0.8-2.5-2.5v-5.5h1.2v5.1
	c0,1.4,0.7,1.8,1.7,1.8c0.9,0,1.8-0.5,2.3-1.2v-5.7h1.2v7.7H53.2z M56.4,394.2c0-2.3,1.6-4,3.9-4c1.4,0,2.2,0.6,2.8,1.3l-0.8,0.7
	c-0.5-0.7-1.2-1-2-1c-1.6,0-2.7,1.3-2.7,3c0,1.7,1,3,2.7,3c0.8,0,1.5-0.3,2-1l0.8,0.7c-0.6,0.8-1.4,1.3-2.8,1.3
	C57.9,398.2,56.4,396.5,56.4,394.2z M70,398V393c0-1.4-0.7-1.8-1.7-1.8c-0.9,0-1.8,0.6-2.3,1.2v5.7h-1.2v-10.7h1.2v4.1
	c0.5-0.6,1.6-1.3,2.8-1.3c1.6,0,2.5,0.8,2.5,2.5v5.5H70z M82.5,398v-0.9c-0.6,0.7-1.5,1.1-2.6,1.1c-1.3,0-2.7-0.9-2.7-2.6
	c0-1.7,1.4-2.5,2.7-2.5c1.1,0,1.9,0.3,2.6,1.1v-1.4c0-1-0.8-1.6-2-1.6c-0.9,0-1.7,0.3-2.4,1.1l-0.6-0.8c0.8-0.9,1.8-1.3,3.1-1.3
	c1.6,0,3,0.7,3,2.6v5.3H82.5z M82.5,396.4V395c-0.5-0.6-1.3-1-2.1-1c-1.1,0-1.9,0.7-1.9,1.7c0,1,0.8,1.7,1.9,1.7
	C81.2,397.4,82.1,397.1,82.5,396.4z M87.3,396.9v4.1h-1.2v-10.7h1.2v1.2c0.6-0.8,1.5-1.3,2.6-1.3c2,0,3.4,1.5,3.4,4
	c0,2.5-1.4,4.1-3.4,4.1C88.9,398.2,87.9,397.7,87.3,396.9z M92.1,394.2c0-1.7-0.9-3-2.5-3c-0.9,0-1.9,0.6-2.3,1.2v3.5
	c0.4,0.7,1.4,1.2,2.3,1.2C91.2,397.2,92.1,395.9,92.1,394.2z M96.5,396.9v4.1h-1.2v-10.7h1.2v1.2c0.6-0.8,1.5-1.3,2.6-1.3
	c2,0,3.4,1.5,3.4,4c0,2.5-1.4,4.1-3.4,4.1C98,398.2,97.1,397.7,96.5,396.9z M101.3,394.2c0-1.7-0.9-3-2.5-3c-0.9,0-1.9,0.6-2.3,1.2
	v3.5c0.4,0.7,1.4,1.2,2.3,1.2C100.3,397.2,101.3,395.9,101.3,394.2z M104.4,398v-7.7h1.2v1.2c0.6-0.8,1.5-1.4,2.6-1.4v1.2
	c-0.1,0-0.3,0-0.5,0c-0.7,0-1.7,0.6-2.1,1.2v5.5H104.4z M109.2,394.2c0-2.2,1.6-4,3.8-4c2.3,0,3.7,1.8,3.7,4.1v0.3h-6.3
	c0.1,1.5,1.1,2.7,2.8,2.7c0.9,0,1.8-0.4,2.4-1l0.6,0.8c-0.8,0.8-1.8,1.2-3.1,1.2C110.9,398.2,109.2,396.6,109.2,394.2z M113,391.1
	c-1.6,0-2.5,1.4-2.5,2.6h5.1C115.6,392.5,114.8,391.1,113,391.1z M118.3,394.2c0-2.3,1.6-4,3.9-4c1.4,0,2.2,0.6,2.8,1.3l-0.8,0.7
	c-0.5-0.7-1.2-1-2-1c-1.6,0-2.7,1.3-2.7,3c0,1.7,1,3,2.7,3c0.8,0,1.5-0.3,2-1l0.8,0.7c-0.6,0.8-1.4,1.3-2.8,1.3
	C119.8,398.2,118.3,396.5,118.3,394.2z M126.4,388.4c0-0.4,0.4-0.8,0.8-0.8c0.4,0,0.8,0.4,0.8,0.8s-0.4,0.8-0.8,0.8
	C126.8,389.2,126.4,388.9,126.4,388.4z M126.6,398v-7.7h1.2v7.7H126.6z M135.1,398v-0.9c-0.6,0.7-1.5,1.1-2.6,1.1
	c-1.3,0-2.7-0.9-2.7-2.6c0-1.7,1.4-2.5,2.7-2.5c1.1,0,1.9,0.3,2.6,1.1v-1.4c0-1-0.8-1.6-2-1.6c-0.9,0-1.7,0.3-2.4,1.1l-0.6-0.8
	c0.8-0.9,1.8-1.3,3.1-1.3c1.6,0,3,0.7,3,2.6v5.3H135.1z M135.1,396.4V395c-0.5-0.6-1.3-1-2.1-1c-1.1,0-1.9,0.7-1.9,1.7
	c0,1,0.8,1.7,1.9,1.7C133.8,397.4,134.6,397.1,135.1,396.4z M138.9,396.4v-5.1h-1.3v-1.1h1.3v-2.1h1.2v2.1h1.6v1.1h-1.6v4.8
	c0,0.6,0.3,1,0.8,1c0.3,0,0.7-0.1,0.8-0.3l0.4,0.9c-0.3,0.3-0.7,0.5-1.4,0.5C139.5,398.2,138.9,397.6,138.9,396.4z M142.9,394.2
	c0-2.2,1.6-4,3.8-4c2.3,0,3.7,1.8,3.7,4.1v0.3h-6.3c0.1,1.5,1.1,2.7,2.8,2.7c0.9,0,1.8-0.4,2.4-1l0.6,0.8c-0.8,0.8-1.8,1.2-3.1,1.2
	C144.6,398.2,142.9,396.6,142.9,394.2z M146.7,391.1c-1.6,0-2.5,1.4-2.5,2.6h5.1C149.2,392.5,148.5,391.1,146.7,391.1z M158,398
	v-1.2c-0.6,0.8-1.5,1.3-2.6,1.3c-2,0-3.4-1.5-3.4-4c0-2.5,1.4-4.1,3.4-4.1c1,0,2,0.5,2.6,1.4v-4.1h1.2V398H158z M158,396v-3.5
	c-0.4-0.7-1.4-1.2-2.3-1.2c-1.6,0-2.5,1.3-2.5,3s0.9,3,2.5,3C156.6,397.2,157.5,396.6,158,396z M161.3,397.3c0-0.5,0.4-0.9,0.9-0.9
	s0.9,0.4,0.9,0.9c0,0.5-0.4,0.9-0.9,0.9S161.3,397.8,161.3,397.3z"/>
<linearGradient id="SVGID_3_" gradientUnits="userSpaceOnUse" x1="-476.9141" y1="151" x2="-476.9141" y2="336" gradientTransform="matrix(-1 0 0 1 -355.9135 0)">
	<stop  offset="0" style="stop-color:#FF4CFF"/>
	<stop  offset="1" style="stop-color:#640AA6"/>
</linearGradient>
<path class="st3" d="M12.1,316.6v-16.4V186.8c0-19.8,15.7-35.8,35-35.8H207c19.3,0,35,16,35,35.8v113.4c0,19.8-15.7,35.8-35,35.8
	H47.1c-8.2,0-15.7-2.9-21.6-7.7C18,333,9.3,335.8,0,336C7.1,332.5,12.1,325.2,12.1,316.6z"/>
<path class="st1" d="M42.7,180.9V176h-6.2v4.9h-1.3v-10.7h1.3v4.6h6.2v-4.6H44v10.7H42.7z M46.2,171.3c0-0.4,0.4-0.8,0.8-0.8
	c0.4,0,0.8,0.4,0.8,0.8s-0.4,0.8-0.8,0.8C46.6,172.1,46.2,171.8,46.2,171.3z M46.4,180.9v-7.7h1.2v7.7H46.4z M50.3,183l-0.6-0.5
	c0.5-0.3,1-1,1-1.5c0,0-0.1,0-0.2,0c-0.4,0-0.8-0.3-0.8-0.8c0-0.5,0.4-0.9,0.8-0.9c0.5,0,1,0.4,1,1.2
	C51.6,181.5,51.1,182.4,50.3,183z M60.5,180.9v-9.5h-3.4v-1.2h8.1v1.2h-3.4v9.5H60.5z M64.7,177.1c0-2.2,1.5-4,3.8-4
	c2.4,0,3.8,1.8,3.8,4c0,2.2-1.5,4.1-3.8,4.1C66.1,181.1,64.7,179.3,64.7,177.1z M71.1,177.1c0-1.6-0.9-3-2.6-3c-1.6,0-2.6,1.4-2.6,3
	c0,1.6,0.9,3,2.6,3C70.1,180.1,71.1,178.7,71.1,177.1z M79.9,180.9v-1.2c-0.6,0.8-1.5,1.3-2.6,1.3c-2,0-3.4-1.5-3.4-4
	c0-2.5,1.4-4.1,3.4-4.1c1,0,2,0.5,2.6,1.4v-4.1h1.2v10.7H79.9z M79.9,178.8v-3.5c-0.4-0.7-1.4-1.2-2.3-1.2c-1.6,0-2.5,1.3-2.5,3
	s0.9,3,2.5,3C78.5,180.1,79.4,179.5,79.9,178.8z M89.1,180.9v-1.2c-0.6,0.8-1.5,1.3-2.6,1.3c-2,0-3.4-1.5-3.4-4
	c0-2.5,1.4-4.1,3.4-4.1c1,0,2,0.5,2.6,1.4v-4.1h1.2v10.7H89.1z M89.1,178.8v-3.5c-0.4-0.7-1.4-1.2-2.3-1.2c-1.6,0-2.5,1.3-2.5,3
	s0.9,3,2.5,3C87.7,180.1,88.6,179.5,89.1,178.8z M92.4,180.2c0-0.5,0.4-0.9,0.9-0.9s0.9,0.4,0.9,0.9c0,0.5-0.4,0.9-0.9,0.9
	S92.4,180.7,92.4,180.2z M92.8,178l-0.3-7.7h1.5l-0.3,7.7H92.8z M38.2,202.9v-4.5l-4.2-6.2h1.6l3.3,5l3.3-5h1.6l-4.2,6.2v4.5H38.2z
	 M42.6,199.1c0-2.2,1.6-4,3.8-4c2.3,0,3.7,1.8,3.7,4.1v0.3h-6.3c0.1,1.5,1.1,2.7,2.8,2.7c0.9,0,1.8-0.4,2.4-1l0.6,0.8
	c-0.8,0.8-1.8,1.2-3.1,1.2C44.2,203.1,42.6,201.5,42.6,199.1z M46.4,196c-1.6,0-2.5,1.4-2.5,2.6h5.1C48.9,197.4,48.1,196,46.4,196z
	 M51.4,201.9l0.6-0.9c0.5,0.6,1.5,1.1,2.5,1.1c1.2,0,1.8-0.6,1.8-1.3c0-1.9-4.8-0.7-4.8-3.6c0-1.2,1-2.2,2.9-2.2
	c1.3,0,2.2,0.5,2.9,1.1l-0.6,0.8c-0.5-0.6-1.3-1-2.3-1c-1.1,0-1.7,0.5-1.7,1.2c0,1.7,4.8,0.6,4.8,3.6c0,1.3-1,2.3-3,2.3
	C53.2,203.1,52.1,202.8,51.4,201.9z M59.8,205l-0.6-0.5c0.5-0.3,1-1,1-1.5c0,0-0.1,0-0.2,0c-0.4,0-0.8-0.3-0.8-0.8
	c0-0.5,0.4-0.9,0.8-0.9c0.5,0,1,0.4,1,1.2C61.1,203.5,60.5,204.4,59.8,205z M66.8,199.1c0-2.2,1.5-4,3.8-4c2.4,0,3.8,1.8,3.8,4
	c0,2.2-1.5,4.1-3.8,4.1C68.3,203.1,66.8,201.3,66.8,199.1z M73.2,199.1c0-1.6-0.9-3-2.6-3c-1.6,0-2.6,1.4-2.6,3c0,1.6,0.9,3,2.6,3
	C72.3,202.1,73.2,200.7,73.2,199.1z M76.8,202.9v-6.7h-1.3v-1.1h1.3v-0.6c0-1.6,0.9-2.5,2.2-2.5c0.6,0,1.2,0.1,1.6,0.6l-0.5,0.8
	c-0.3-0.2-0.6-0.4-1-0.4c-0.8,0-1.2,0.5-1.2,1.5v0.6h1.6v1.1H78v6.7H76.8z M84.6,199.1c0-2.3,1.6-4,3.9-4c1.4,0,2.2,0.6,2.8,1.3
	l-0.8,0.7c-0.5-0.7-1.2-1-2-1c-1.6,0-2.7,1.3-2.7,3c0,1.7,1,3,2.7,3c0.8,0,1.5-0.3,2-1l0.8,0.7c-0.6,0.8-1.4,1.3-2.8,1.3
	C86.2,203.1,84.6,201.4,84.6,199.1z M92.6,199.1c0-2.2,1.5-4,3.8-4c2.4,0,3.8,1.8,3.8,4c0,2.2-1.5,4.1-3.8,4.1
	C94,203.1,92.6,201.3,92.6,199.1z M98.9,199.1c0-1.6-0.9-3-2.6-3c-1.6,0-2.6,1.4-2.6,3c0,1.6,0.9,3,2.6,3
	C98,202.1,98.9,200.7,98.9,199.1z M107.4,202.9v-1.1c-0.6,0.7-1.6,1.3-2.8,1.3c-1.6,0-2.5-0.8-2.5-2.5v-5.5h1.2v5.1
	c0,1.4,0.7,1.8,1.7,1.8c0.9,0,1.8-0.5,2.3-1.2v-5.7h1.2v7.7H107.4z M111,202.9v-7.7h1.2v1.2c0.6-0.8,1.5-1.4,2.6-1.4v1.2
	c-0.1,0-0.3,0-0.5,0c-0.7,0-1.7,0.6-2.1,1.2v5.5H111z M115.6,201.9l0.6-0.9c0.5,0.6,1.5,1.1,2.5,1.1c1.2,0,1.8-0.6,1.8-1.3
	c0-1.9-4.8-0.7-4.8-3.6c0-1.2,1-2.2,2.9-2.2c1.3,0,2.2,0.5,2.9,1.1L121,197c-0.5-0.6-1.3-1-2.3-1c-1.1,0-1.7,0.5-1.7,1.2
	c0,1.7,4.8,0.6,4.8,3.6c0,1.3-1,2.3-3,2.3C117.4,203.1,116.4,202.8,115.6,201.9z M123.2,199.1c0-2.2,1.6-4,3.8-4
	c2.3,0,3.7,1.8,3.7,4.1v0.3h-6.3c0.1,1.5,1.1,2.7,2.8,2.7c0.9,0,1.8-0.4,2.4-1l0.6,0.8c-0.8,0.8-1.8,1.2-3.1,1.2
	C124.9,203.1,123.2,201.5,123.2,199.1z M127,196c-1.6,0-2.5,1.4-2.5,2.6h5.1C129.6,197.4,128.8,196,127,196z M137.1,201.3v-5.1h-1.3
	v-1.1h1.3v-2.1h1.2v2.1h1.6v1.1h-1.6v4.8c0,0.6,0.3,1,0.8,1c0.3,0,0.7-0.1,0.8-0.3l0.4,0.9c-0.3,0.3-0.7,0.5-1.4,0.5
	C137.6,203.1,137.1,202.5,137.1,201.3z M146.8,202.9v-5.1c0-1.4-0.7-1.8-1.7-1.8c-0.9,0-1.8,0.6-2.3,1.2v5.7h-1.2v-10.7h1.2v4.1
	c0.5-0.6,1.6-1.3,2.8-1.3c1.6,0,2.5,0.8,2.5,2.5v5.5H146.8z M149.9,199.1c0-2.2,1.6-4,3.8-4c2.3,0,3.7,1.8,3.7,4.1v0.3h-6.3
	c0.1,1.5,1.1,2.7,2.8,2.7c0.9,0,1.8-0.4,2.4-1l0.6,0.8c-0.8,0.8-1.8,1.2-3.1,1.2C151.6,203.1,149.9,201.5,149.9,199.1z M153.7,196
	c-1.6,0-2.5,1.4-2.5,2.6h5.1C156.2,197.4,155.5,196,153.7,196z M163.1,197.6c0-3.3,2.4-5.5,5.5-5.5c1.9,0,3.2,0.9,4,2.1l-1.1,0.6
	c-0.6-0.9-1.7-1.6-2.9-1.6c-2.3,0-4.1,1.8-4.1,4.3c0,2.5,1.8,4.3,4.1,4.3c1.2,0,2.3-0.6,2.9-1.6l1.1,0.6c-0.9,1.2-2.2,2.1-4.1,2.1
	C165.5,203.1,163.1,200.9,163.1,197.6z M173.9,197.6c0-3.3,2.4-5.5,5.5-5.5c1.9,0,3.2,0.8,4.1,2l-1.1,0.7c-0.7-0.9-1.8-1.5-3.1-1.5
	c-2.3,0-4.1,1.8-4.1,4.3c0,2.5,1.8,4.4,4.1,4.4c1.3,0,2.3-0.6,2.9-1.2v-2.2h-3.7v-1.2h5v3.9c-1,1.1-2.4,1.8-4.2,1.8
	C176.4,203.2,173.9,200.9,173.9,197.6z M185,201.4l0.8-0.8c0.6,0.8,1.7,1.4,3,1.4c1.6,0,2.5-0.8,2.5-2c0-1.3-1.1-1.9-2.7-1.9
	c-0.4,0-0.9,0-1.1,0v-1.2c0.2,0,0.7,0,1.1,0c1.3,0,2.5-0.5,2.5-1.8c0-1.2-1.1-1.8-2.4-1.8c-1.2,0-2,0.4-2.8,1.3l-0.7-0.8
	c0.8-0.9,2-1.6,3.6-1.6c2,0,3.6,1,3.6,2.8c0,1.5-1.3,2.3-2.3,2.5c1,0.1,2.5,0.9,2.5,2.6c0,1.8-1.4,3.1-3.8,3.1
	C187,203.1,185.6,202.3,185,201.4z M36.2,223.8v4.1H35v-10.7h1.2v1.2c0.6-0.8,1.5-1.3,2.6-1.3c2,0,3.4,1.5,3.4,4
	c0,2.5-1.4,4.1-3.4,4.1C37.8,225.1,36.9,224.6,36.2,223.8z M41,221.1c0-1.7-0.9-3-2.5-3c-0.9,0-1.9,0.6-2.3,1.2v3.5
	c0.4,0.7,1.4,1.2,2.3,1.2C40.1,224.1,41,222.8,41,221.1z M44.2,224.9v-10.7h1.2v10.7H44.2z M52.6,224.9v-0.9
	c-0.6,0.7-1.5,1.1-2.6,1.1c-1.3,0-2.7-0.9-2.7-2.6c0-1.7,1.4-2.5,2.7-2.5c1.1,0,1.9,0.3,2.6,1.1v-1.4c0-1-0.8-1.6-2-1.6
	c-0.9,0-1.7,0.3-2.4,1.1l-0.6-0.8c0.8-0.9,1.8-1.3,3.1-1.3c1.6,0,3,0.7,3,2.6v5.3H52.6z M52.6,223.3v-1.5c-0.5-0.6-1.3-1-2.1-1
	c-1.1,0-1.9,0.7-1.9,1.7c0,1,0.8,1.7,1.9,1.7C51.3,224.3,52.2,224,52.6,223.3z M56.5,223.3v-5.1h-1.3v-1.1h1.3v-2.1h1.2v2.1h1.6v1.1
	h-1.6v4.8c0,0.6,0.3,1,0.8,1c0.3,0,0.7-0.1,0.8-0.3l0.4,0.9c-0.3,0.3-0.7,0.5-1.4,0.5C57,225.1,56.5,224.5,56.5,223.3z M61.3,224.9
	v-6.7H60v-1.1h1.3v-0.6c0-1.6,0.9-2.5,2.2-2.5c0.6,0,1.2,0.1,1.6,0.6l-0.5,0.8c-0.3-0.2-0.6-0.4-1-0.4c-0.8,0-1.2,0.5-1.2,1.5v0.6
	H64v1.1h-1.6v6.7H61.3z M65,221.1c0-2.2,1.5-4,3.8-4c2.4,0,3.8,1.8,3.8,4c0,2.2-1.5,4.1-3.8,4.1C66.5,225.1,65,223.3,65,221.1z
	 M71.4,221.1c0-1.6-0.9-3-2.6-3c-1.6,0-2.6,1.4-2.6,3c0,1.6,0.9,3,2.6,3C70.5,224.1,71.4,222.7,71.4,221.1z M74.6,224.9v-7.7h1.2
	v1.2c0.6-0.8,1.5-1.4,2.6-1.4v1.2c-0.1,0-0.3,0-0.5,0c-0.7,0-1.7,0.6-2.1,1.2v5.5H74.6z M89.2,224.9v-5.2c0-1-0.4-1.6-1.4-1.6
	c-0.8,0-1.6,0.6-2,1.2v5.7h-1.2v-5.2c0-1-0.4-1.6-1.4-1.6c-0.8,0-1.6,0.6-2,1.2v5.7h-1.2v-7.7h1.2v1.1c0.3-0.5,1.4-1.3,2.5-1.3
	c1.2,0,1.9,0.6,2.1,1.4c0.4-0.7,1.5-1.4,2.6-1.4c1.4,0,2.2,0.8,2.2,2.3v5.6H89.2z M102.2,224.9v-5.1c0-1.4-0.7-1.8-1.7-1.8
	c-0.9,0-1.8,0.6-2.3,1.2v5.7h-1.2v-10.7h1.2v4.1c0.5-0.6,1.6-1.3,2.8-1.3c1.6,0,2.5,0.8,2.5,2.5v5.5H102.2z M110.6,224.9v-0.9
	c-0.6,0.7-1.5,1.1-2.6,1.1c-1.3,0-2.7-0.9-2.7-2.6c0-1.7,1.4-2.5,2.7-2.5c1.1,0,1.9,0.3,2.6,1.1v-1.4c0-1-0.8-1.6-2-1.6
	c-0.9,0-1.7,0.3-2.4,1.1l-0.6-0.8c0.8-0.9,1.8-1.3,3.1-1.3c1.6,0,3,0.7,3,2.6v5.3H110.6z M110.6,223.3v-1.5c-0.5-0.6-1.3-1-2.1-1
	c-1.1,0-1.9,0.7-1.9,1.7c0,1,0.8,1.7,1.9,1.7C109.3,224.3,110.1,224,110.6,223.3z M113.5,223.9l0.6-0.9c0.5,0.6,1.5,1.1,2.5,1.1
	c1.2,0,1.8-0.6,1.8-1.3c0-1.9-4.8-0.7-4.8-3.6c0-1.2,1-2.2,2.9-2.2c1.3,0,2.2,0.5,2.9,1.1l-0.6,0.8c-0.5-0.6-1.3-1-2.3-1
	c-1.1,0-1.7,0.5-1.7,1.2c0,1.7,4.8,0.6,4.8,3.6c0,1.3-1,2.3-3,2.3C115.4,225.1,114.3,224.8,113.5,223.9z M126,223.3v-5.1h-1.3v-1.1
	h1.3v-2.1h1.2v2.1h1.6v1.1h-1.6v4.8c0,0.6,0.3,1,0.8,1c0.3,0,0.7-0.1,0.8-0.3l0.4,0.9c-0.3,0.3-0.7,0.5-1.4,0.5
	C126.6,225.1,126,224.5,126,223.3z M135.7,224.9v-5.1c0-1.4-0.7-1.8-1.7-1.8c-0.9,0-1.8,0.6-2.3,1.2v5.7h-1.2v-10.7h1.2v4.1
	c0.5-0.6,1.6-1.3,2.8-1.3c1.6,0,2.5,0.8,2.5,2.5v5.5H135.7z M144.1,224.9v-0.9c-0.6,0.7-1.5,1.1-2.6,1.1c-1.3,0-2.7-0.9-2.7-2.6
	c0-1.7,1.4-2.5,2.7-2.5c1.1,0,1.9,0.3,2.6,1.1v-1.4c0-1-0.8-1.6-2-1.6c-0.9,0-1.7,0.3-2.4,1.1l-0.6-0.8c0.8-0.9,1.8-1.3,3.1-1.3
	c1.6,0,3,0.7,3,2.6v5.3H144.1z M144.1,223.3v-1.5c-0.5-0.6-1.3-1-2.1-1c-1.1,0-1.9,0.7-1.9,1.7c0,1,0.8,1.7,1.9,1.7
	C142.9,224.3,143.7,224,144.1,223.3z M148,223.3v-5.1h-1.3v-1.1h1.3v-2.1h1.2v2.1h1.6v1.1h-1.6v4.8c0,0.6,0.3,1,0.8,1
	c0.3,0,0.7-0.1,0.8-0.3l0.4,0.9c-0.3,0.3-0.7,0.5-1.4,0.5C148.6,225.1,148,224.5,148,223.3z M35.4,246.9v-6.7h-1.3v-1.1h1.3v-0.6
	c0-1.6,0.9-2.5,2.2-2.5c0.6,0,1.2,0.1,1.6,0.6l-0.5,0.8c-0.3-0.2-0.6-0.4-1-0.4c-0.8,0-1.2,0.5-1.2,1.5v0.6h1.6v1.1h-1.6v6.7H35.4z
	 M44.8,246.9v-1.1c-0.6,0.7-1.6,1.3-2.8,1.3c-1.6,0-2.5-0.8-2.5-2.5v-5.5h1.2v5.1c0,1.4,0.7,1.8,1.7,1.8c0.9,0,1.8-0.5,2.3-1.2v-5.7
	H46v7.7H44.8z M53.6,246.9v-5.1c0-1.4-0.7-1.8-1.7-1.8c-0.9,0-1.8,0.6-2.3,1.2v5.7h-1.2v-7.7h1.2v1.1c0.5-0.6,1.6-1.3,2.8-1.3
	c1.6,0,2.5,0.8,2.5,2.5v5.4H53.6z M56.8,243.1c0-2.3,1.6-4,3.9-4c1.4,0,2.2,0.6,2.8,1.3l-0.8,0.7c-0.5-0.7-1.2-1-2-1
	c-1.6,0-2.7,1.3-2.7,3c0,1.7,1,3,2.7,3c0.8,0,1.5-0.3,2-1l0.8,0.7c-0.6,0.8-1.4,1.3-2.8,1.3C58.3,247.1,56.8,245.4,56.8,243.1z
	 M65.4,245.3v-5.1h-1.3v-1.1h1.3v-2.1h1.2v2.1h1.6v1.1h-1.6v4.8c0,0.6,0.3,1,0.8,1c0.3,0,0.7-0.1,0.8-0.3l0.4,0.9
	c-0.3,0.3-0.7,0.5-1.4,0.5C65.9,247.1,65.4,246.5,65.4,245.3z M69.6,237.3c0-0.4,0.4-0.8,0.8-0.8c0.4,0,0.8,0.4,0.8,0.8
	s-0.4,0.8-0.8,0.8C70,238.1,69.6,237.8,69.6,237.3z M69.8,246.9v-7.7H71v7.7H69.8z M73,243.1c0-2.2,1.5-4,3.8-4c2.4,0,3.8,1.8,3.8,4
	c0,2.2-1.5,4.1-3.8,4.1C74.5,247.1,73,245.3,73,243.1z M79.4,243.1c0-1.6-0.9-3-2.6-3c-1.6,0-2.6,1.4-2.6,3c0,1.6,0.9,3,2.6,3
	C78.5,246.1,79.4,244.7,79.4,243.1z M87.8,246.9v-5.1c0-1.4-0.7-1.8-1.7-1.8c-0.9,0-1.8,0.6-2.3,1.2v5.7h-1.2v-7.7h1.2v1.1
	c0.5-0.6,1.6-1.3,2.8-1.3c1.6,0,2.5,0.8,2.5,2.5v5.4H87.8z M96.2,246.9v-0.9c-0.6,0.7-1.5,1.1-2.6,1.1c-1.3,0-2.7-0.9-2.7-2.6
	c0-1.7,1.4-2.5,2.7-2.5c1.1,0,1.9,0.3,2.6,1.1v-1.4c0-1-0.8-1.6-2-1.6c-0.9,0-1.7,0.3-2.4,1.1l-0.6-0.8c0.8-0.9,1.8-1.3,3.1-1.3
	c1.6,0,3,0.7,3,2.6v5.3H96.2z M96.2,245.3v-1.5c-0.5-0.6-1.3-1-2.1-1c-1.1,0-1.9,0.7-1.9,1.7c0,1,0.8,1.7,1.9,1.7
	C94.9,246.3,95.8,246,96.2,245.3z M99.8,246.9v-10.7h1.2v10.7H99.8z M103.2,237.3c0-0.4,0.4-0.8,0.8-0.8c0.4,0,0.8,0.4,0.8,0.8
	s-0.4,0.8-0.8,0.8C103.6,238.1,103.2,237.8,103.2,237.3z M103.4,246.9v-7.7h1.2v7.7H103.4z M107.3,245.3v-5.1H106v-1.1h1.3v-2.1h1.2
	v2.1h1.6v1.1h-1.6v4.8c0,0.6,0.3,1,0.8,1c0.3,0,0.7-0.1,0.8-0.3l0.4,0.9c-0.3,0.3-0.7,0.5-1.4,0.5
	C107.8,247.1,107.3,246.5,107.3,245.3z M111.5,248.9c0.2,0.1,0.5,0.1,0.7,0.1c0.5,0,0.9-0.2,1.2-0.8l0.5-1.2l-3.2-7.8h1.3l2.6,6.3
	l2.6-6.3h1.3l-3.9,9.3c-0.5,1.1-1.2,1.6-2.3,1.6c-0.3,0-0.7,0-0.9-0.1L111.5,248.9z M118.4,246.2c0-0.5,0.4-0.9,0.9-0.9
	s0.9,0.4,0.9,0.9c0,0.5-0.4,0.9-0.9,0.9S118.4,246.7,118.4,246.2z M129.2,246.9v-9.5h-3.4v-1.2h8.1v1.2h-3.4v9.5H129.2z
	 M133.3,243.1c0-2.2,1.5-4,3.8-4c2.4,0,3.8,1.8,3.8,4c0,2.2-1.5,4.1-3.8,4.1C134.8,247.1,133.3,245.3,133.3,243.1z M139.7,243.1
	c0-1.6-0.9-3-2.6-3c-1.6,0-2.6,1.4-2.6,3c0,1.6,0.9,3,2.6,3C138.8,246.1,139.7,244.7,139.7,243.1z M152.3,246.9v-5.1
	c0-1.4-0.7-1.8-1.7-1.8c-0.9,0-1.8,0.6-2.3,1.2v5.7H147v-10.7h1.2v4.1c0.5-0.6,1.6-1.3,2.8-1.3c1.6,0,2.5,0.8,2.5,2.5v5.5H152.3z
	 M155.4,243.1c0-2.2,1.6-4,3.8-4c2.3,0,3.7,1.8,3.7,4.1v0.3h-6.3c0.1,1.5,1.1,2.7,2.8,2.7c0.9,0,1.8-0.4,2.4-1l0.6,0.8
	c-0.8,0.8-1.8,1.2-3.1,1.2C157.1,247.1,155.4,245.5,155.4,243.1z M159.2,240c-1.6,0-2.5,1.4-2.5,2.6h5.1
	C161.7,241.4,161,240,159.2,240z M164.9,246.9v-10.7h1.2v10.7H164.9z M169.7,245.8v4.1h-1.2v-10.7h1.2v1.2c0.6-0.8,1.5-1.3,2.6-1.3
	c2,0,3.4,1.5,3.4,4c0,2.5-1.4,4.1-3.4,4.1C171.2,247.1,170.3,246.6,169.7,245.8z M174.4,243.1c0-1.7-0.9-3-2.5-3
	c-0.9,0-1.9,0.6-2.3,1.2v3.5c0.4,0.7,1.4,1.2,2.3,1.2C173.5,246.1,174.4,244.8,174.4,243.1z M181.5,248.9c0.2,0.1,0.5,0.1,0.7,0.1
	c0.5,0,0.9-0.2,1.2-0.8l0.5-1.2l-3.2-7.8h1.3l2.6,6.3l2.6-6.3h1.3l-3.9,9.3c-0.5,1.1-1.2,1.6-2.3,1.6c-0.3,0-0.7,0-0.9-0.1
	L181.5,248.9z M189.1,243.1c0-2.2,1.5-4,3.8-4c2.4,0,3.8,1.8,3.8,4c0,2.2-1.5,4.1-3.8,4.1C190.6,247.1,189.1,245.3,189.1,243.1z
	 M195.5,243.1c0-1.6-0.9-3-2.6-3c-1.6,0-2.6,1.4-2.6,3c0,1.6,0.9,3,2.6,3C194.6,246.1,195.5,244.7,195.5,243.1z M204,246.9v-1.1
	c-0.6,0.7-1.6,1.3-2.8,1.3c-1.6,0-2.5-0.8-2.5-2.5v-5.5h1.2v5.1c0,1.4,0.7,1.8,1.7,1.8c0.9,0,1.8-0.5,2.3-1.2v-5.7h1.2v7.7H204z
	 M35,270.9l0.6-0.9c0.6,0.8,1.4,1.1,2.5,1.1c1.3,0,2.5-0.6,2.5-2.3v-1.1c-0.6,0.8-1.5,1.4-2.6,1.4c-2,0-3.4-1.5-3.4-4
	c0-2.5,1.4-4,3.4-4c1,0,2,0.5,2.6,1.4v-1.2h1.2v7.5c0,2.6-1.8,3.4-3.7,3.4C36.8,272.1,35.9,271.8,35,270.9z M40.6,266.7v-3.4
	c-0.4-0.7-1.3-1.2-2.3-1.2c-1.6,0-2.5,1.2-2.5,2.9c0,1.7,0.9,2.9,2.5,2.9C39.3,268,40.2,267.4,40.6,266.7z M43.8,265.1
	c0-2.2,1.6-4,3.8-4c2.3,0,3.7,1.8,3.7,4.1v0.3H45c0.1,1.5,1.1,2.7,2.8,2.7c0.9,0,1.8-0.4,2.4-1l0.6,0.8c-0.8,0.8-1.8,1.2-3.1,1.2
	C45.4,269.1,43.8,267.5,43.8,265.1z M47.6,262c-1.6,0-2.5,1.4-2.5,2.6h5.1C50.1,263.4,49.3,262,47.6,262z M53.5,267.3v-5.1h-1.3
	v-1.1h1.3v-2.1h1.2v2.1h1.6v1.1h-1.6v4.8c0,0.6,0.3,1,0.8,1c0.3,0,0.7-0.1,0.8-0.3l0.4,0.9c-0.3,0.3-0.7,0.5-1.4,0.5
	C54,269.1,53.5,268.5,53.5,267.3z M61.9,259.3c0-0.4,0.4-0.8,0.8-0.8c0.4,0,0.8,0.4,0.8,0.8s-0.4,0.8-0.8,0.8
	C62.2,260.1,61.9,259.8,61.9,259.3z M62.1,268.9v-7.7h1.2v7.7H62.1z M65.9,267.3v-5.1h-1.3v-1.1h1.3v-2.1h1.2v2.1h1.6v1.1h-1.6v4.8
	c0,0.6,0.3,1,0.8,1c0.3,0,0.7-0.1,0.8-0.3l0.4,0.9c-0.3,0.3-0.7,0.5-1.4,0.5C66.5,269.1,65.9,268.5,65.9,267.3z M73.8,267.9l0.6-0.9
	c0.5,0.6,1.5,1.1,2.5,1.1c1.2,0,1.8-0.6,1.8-1.3c0-1.9-4.8-0.7-4.8-3.6c0-1.2,1-2.2,2.9-2.2c1.3,0,2.2,0.5,2.9,1.1l-0.6,0.8
	c-0.5-0.6-1.3-1-2.3-1c-1.1,0-1.7,0.5-1.7,1.2c0,1.7,4.8,0.6,4.8,3.6c0,1.3-1,2.3-3,2.3C75.7,269.1,74.6,268.8,73.8,267.9z
	 M81.5,265.1c0-2.2,1.6-4,3.8-4c2.3,0,3.7,1.8,3.7,4.1v0.3h-6.3c0.1,1.5,1.1,2.7,2.8,2.7c0.9,0,1.8-0.4,2.4-1l0.6,0.8
	c-0.8,0.8-1.8,1.2-3.1,1.2C83.1,269.1,81.5,267.5,81.5,265.1z M85.3,262c-1.6,0-2.5,1.4-2.5,2.6h5.1C87.8,263.4,87,262,85.3,262z
	 M91.2,267.3v-5.1h-1.3v-1.1h1.3v-2.1h1.2v2.1H94v1.1h-1.6v4.8c0,0.6,0.3,1,0.8,1c0.3,0,0.7-0.1,0.8-0.3l0.4,0.9
	c-0.3,0.3-0.7,0.5-1.4,0.5C91.8,269.1,91.2,268.5,91.2,267.3z M100.9,268.9v-1.1c-0.6,0.7-1.6,1.3-2.8,1.3c-1.6,0-2.5-0.8-2.5-2.5
	v-5.5h1.2v5.1c0,1.4,0.7,1.8,1.7,1.8c0.9,0,1.8-0.5,2.3-1.2v-5.7h1.2v7.7H100.9z M105.7,267.8v4.1h-1.2v-10.7h1.2v1.2
	c0.6-0.8,1.5-1.3,2.6-1.3c2,0,3.4,1.5,3.4,4c0,2.5-1.4,4.1-3.4,4.1C107.2,269.1,106.3,268.6,105.7,267.8z M110.5,265.1
	c0-1.7-0.9-3-2.5-3c-0.9,0-1.9,0.6-2.3,1.2v3.5c0.4,0.7,1.4,1.2,2.3,1.2C109.5,268.1,110.5,266.8,110.5,265.1z M117.3,265.1
	c0-2.2,1.6-4,3.8-4c2.3,0,3.7,1.8,3.7,4.1v0.3h-6.3c0.1,1.5,1.1,2.7,2.8,2.7c0.9,0,1.8-0.4,2.4-1l0.6,0.8c-0.8,0.8-1.8,1.2-3.1,1.2
	C118.9,269.1,117.3,267.5,117.3,265.1z M121.1,262c-1.6,0-2.5,1.4-2.5,2.6h5.1C123.6,263.4,122.9,262,121.1,262z M131.6,268.9v-0.9
	c-0.6,0.7-1.5,1.1-2.6,1.1c-1.3,0-2.7-0.9-2.7-2.6c0-1.7,1.4-2.5,2.7-2.5c1.1,0,1.9,0.3,2.6,1.1v-1.4c0-1-0.8-1.6-2-1.6
	c-0.9,0-1.7,0.3-2.4,1.1l-0.6-0.8c0.8-0.9,1.8-1.3,3.1-1.3c1.6,0,3,0.7,3,2.6v5.3H131.6z M131.6,267.3v-1.5c-0.5-0.6-1.3-1-2.1-1
	c-1.1,0-1.9,0.7-1.9,1.7c0,1,0.8,1.7,1.9,1.7C130.3,268.3,131.1,268,131.6,267.3z M134.5,267.9l0.6-0.9c0.5,0.6,1.5,1.1,2.5,1.1
	c1.2,0,1.8-0.6,1.8-1.3c0-1.9-4.8-0.7-4.8-3.6c0-1.2,1-2.2,2.9-2.2c1.3,0,2.2,0.5,2.9,1.1l-0.6,0.8c-0.5-0.6-1.3-1-2.3-1
	c-1.1,0-1.7,0.5-1.7,1.2c0,1.7,4.8,0.6,4.8,3.6c0,1.3-1,2.3-3,2.3C136.4,269.1,135.3,268.8,134.5,267.9z M142.4,259.3
	c0-0.4,0.4-0.8,0.8-0.8c0.4,0,0.8,0.4,0.8,0.8s-0.4,0.8-0.8,0.8C142.8,260.1,142.4,259.8,142.4,259.3z M142.6,268.9v-7.7h1.2v7.7
	H142.6z M146.2,268.9v-10.7h1.2v10.7H146.2z M149.6,270.9c0.2,0.1,0.5,0.1,0.7,0.1c0.5,0,0.9-0.2,1.2-0.8l0.5-1.2l-3.2-7.8h1.3
	l2.6,6.3l2.6-6.3h1.3l-3.9,9.3c-0.5,1.1-1.2,1.6-2.3,1.6c-0.3,0-0.7,0-0.9-0.1L149.6,270.9z M157.1,271l-0.6-0.5c0.5-0.3,1-1,1-1.5
	c0,0-0.1,0-0.2,0c-0.4,0-0.8-0.3-0.8-0.8c0-0.5,0.4-0.9,0.8-0.9c0.5,0,1,0.4,1,1.2C158.4,269.5,157.8,270.4,157.1,271z M164.6,268.9
	v-10.7h1.3v10.7H164.6z M168.5,262.3c0,0-0.4-3.3-0.4-3.5c0-0.4,0.3-0.7,0.7-0.7c0.4,0,0.7,0.3,0.7,0.7c0,0.2-0.4,3.5-0.4,3.5H168.5
	z M171.6,268.9v-10.7h1.2v10.7H171.6z M175.2,268.9v-10.7h1.2v10.7H175.2z M182.2,267.9l0.6-0.9c0.5,0.6,1.5,1.1,2.5,1.1
	c1.2,0,1.8-0.6,1.8-1.3c0-1.9-4.8-0.7-4.8-3.6c0-1.2,1-2.2,2.9-2.2c1.3,0,2.2,0.5,2.9,1.1l-0.6,0.8c-0.5-0.6-1.3-1-2.3-1
	c-1.1,0-1.7,0.5-1.7,1.2c0,1.7,4.8,0.6,4.8,3.6c0,1.3-1,2.3-3,2.3C184.1,269.1,183,268.8,182.2,267.9z M189.9,265.1
	c0-2.2,1.6-4,3.8-4c2.3,0,3.7,1.8,3.7,4.1v0.3h-6.3c0.1,1.5,1.1,2.7,2.8,2.7c0.9,0,1.8-0.4,2.4-1l0.6,0.8c-0.8,0.8-1.8,1.2-3.1,1.2
	C191.5,269.1,189.9,267.5,189.9,265.1z M193.7,262c-1.6,0-2.5,1.4-2.5,2.6h5.1C196.2,263.4,195.4,262,193.7,262z M204.6,268.9v-5.1
	c0-1.4-0.7-1.8-1.7-1.8c-0.9,0-1.8,0.6-2.3,1.2v5.7h-1.2v-7.7h1.2v1.1c0.5-0.6,1.6-1.3,2.8-1.3c1.6,0,2.5,0.8,2.5,2.5v5.4H204.6z
	 M213.8,268.9v-1.2c-0.6,0.8-1.5,1.3-2.6,1.3c-2,0-3.4-1.5-3.4-4c0-2.5,1.4-4.1,3.4-4.1c1,0,2,0.5,2.6,1.4v-4.1h1.2v10.7H213.8z
	 M213.8,266.8v-3.5c-0.4-0.7-1.4-1.2-2.3-1.2c-1.6,0-2.5,1.3-2.5,3s0.9,3,2.5,3C212.4,268.1,213.3,267.5,213.8,266.8z M34.8,292.9
	c0.2,0.1,0.5,0.1,0.7,0.1c0.5,0,0.9-0.2,1.2-0.8l0.5-1.2l-3.2-7.8h1.3l2.6,6.3l2.6-6.3h1.3l-3.9,9.3c-0.5,1.1-1.2,1.6-2.3,1.6
	c-0.3,0-0.7,0-0.9-0.1L34.8,292.9z M42.4,287.1c0-2.2,1.5-4,3.8-4c2.4,0,3.8,1.8,3.8,4c0,2.2-1.5,4.1-3.8,4.1
	C43.9,291.1,42.4,289.3,42.4,287.1z M48.8,287.1c0-1.6-0.9-3-2.6-3c-1.6,0-2.6,1.4-2.6,3c0,1.6,0.9,3,2.6,3
	C47.9,290.1,48.8,288.7,48.8,287.1z M57.3,290.9v-1.1c-0.6,0.7-1.6,1.3-2.8,1.3c-1.6,0-2.5-0.8-2.5-2.5v-5.5h1.2v5.1
	c0,1.4,0.7,1.8,1.7,1.8c0.9,0,1.8-0.5,2.3-1.2v-5.7h1.2v7.7H57.3z M65.2,289.3v-5.1h-1.3v-1.1h1.3v-2.1h1.2v2.1H68v1.1h-1.6v4.8
	c0,0.6,0.3,1,0.8,1c0.3,0,0.7-0.1,0.8-0.3l0.4,0.9c-0.3,0.3-0.7,0.5-1.4,0.5C65.8,291.1,65.2,290.5,65.2,289.3z M74.9,290.9v-5.1
	c0-1.4-0.7-1.8-1.7-1.8c-0.9,0-1.8,0.6-2.3,1.2v5.7h-1.2v-10.7h1.2v4.1c0.5-0.6,1.6-1.3,2.8-1.3c1.6,0,2.5,0.8,2.5,2.5v5.5H74.9z
	 M78.1,287.1c0-2.2,1.6-4,3.8-4c2.3,0,3.7,1.8,3.7,4.1v0.3h-6.3c0.1,1.5,1.1,2.7,2.8,2.7c0.9,0,1.8-0.4,2.4-1l0.6,0.8
	c-0.8,0.8-1.8,1.2-3.1,1.2C79.7,291.1,78.1,289.5,78.1,287.1z M81.9,284c-1.6,0-2.5,1.4-2.5,2.6h5.1C84.4,285.4,83.6,284,81.9,284z
	 M97.3,290.9v-1.2c-0.6,0.8-1.5,1.3-2.6,1.3c-2,0-3.4-1.5-3.4-4c0-2.5,1.4-4.1,3.4-4.1c1,0,2,0.5,2.6,1.4v-4.1h1.2v10.7H97.3z
	 M97.3,288.8v-3.5c-0.4-0.7-1.4-1.2-2.3-1.2c-1.6,0-2.5,1.3-2.5,3s0.9,3,2.5,3C95.9,290.1,96.8,289.5,97.3,288.8z M100.4,287.1
	c0-2.2,1.5-4,3.8-4c2.4,0,3.8,1.8,3.8,4c0,2.2-1.5,4.1-3.8,4.1C101.9,291.1,100.4,289.3,100.4,287.1z M106.8,287.1
	c0-1.6-0.9-3-2.6-3c-1.6,0-2.6,1.4-2.6,3c0,1.6,0.9,3,2.6,3C105.9,290.1,106.8,288.7,106.8,287.1z M109.6,287.1c0-2.3,1.6-4,3.9-4
	c1.4,0,2.2,0.6,2.8,1.3l-0.8,0.7c-0.5-0.7-1.2-1-2-1c-1.6,0-2.7,1.3-2.7,3c0,1.7,1,3,2.7,3c0.8,0,1.5-0.3,2-1l0.8,0.7
	c-0.6,0.8-1.4,1.3-2.8,1.3C111.1,291.1,109.6,289.4,109.6,287.1z M123.1,290.9v-1.1c-0.6,0.7-1.6,1.3-2.8,1.3
	c-1.6,0-2.5-0.8-2.5-2.5v-5.5h1.2v5.1c0,1.4,0.7,1.8,1.7,1.8c0.9,0,1.8-0.5,2.3-1.2v-5.7h1.2v7.7H123.1z M136.1,290.9v-5.2
	c0-1-0.4-1.6-1.4-1.6c-0.8,0-1.6,0.6-2,1.2v5.7h-1.2v-5.2c0-1-0.4-1.6-1.4-1.6c-0.8,0-1.6,0.6-2,1.2v5.7h-1.2v-7.7h1.2v1.1
	c0.3-0.5,1.4-1.3,2.5-1.3c1.2,0,1.9,0.6,2.1,1.4c0.4-0.7,1.5-1.4,2.6-1.4c1.4,0,2.2,0.8,2.2,2.3v5.6H136.1z M139.2,287.1
	c0-2.2,1.6-4,3.8-4c2.3,0,3.7,1.8,3.7,4.1v0.3h-6.3c0.1,1.5,1.1,2.7,2.8,2.7c0.9,0,1.8-0.4,2.4-1l0.6,0.8c-0.8,0.8-1.8,1.2-3.1,1.2
	C140.9,291.1,139.2,289.5,139.2,287.1z M143,284c-1.6,0-2.5,1.4-2.5,2.6h5.1C145.5,285.4,144.8,284,143,284z M153.9,290.9v-5.1
	c0-1.4-0.7-1.8-1.7-1.8c-0.9,0-1.8,0.6-2.3,1.2v5.7h-1.2v-7.7h1.2v1.1c0.5-0.6,1.6-1.3,2.8-1.3c1.6,0,2.5,0.8,2.5,2.5v5.4H153.9z
	 M157.7,289.3v-5.1h-1.3v-1.1h1.3v-2.1h1.2v2.1h1.6v1.1h-1.6v4.8c0,0.6,0.3,1,0.8,1c0.3,0,0.7-0.1,0.8-0.3l0.4,0.9
	c-0.3,0.3-0.7,0.5-1.4,0.5C158.3,291.1,157.7,290.5,157.7,289.3z M167,290.9v-0.9c-0.6,0.7-1.5,1.1-2.6,1.1c-1.3,0-2.7-0.9-2.7-2.6
	c0-1.7,1.4-2.5,2.7-2.5c1.1,0,1.9,0.3,2.6,1.1v-1.4c0-1-0.8-1.6-2-1.6c-0.9,0-1.7,0.3-2.4,1.1l-0.6-0.8c0.8-0.9,1.8-1.3,3.1-1.3
	c1.6,0,3,0.7,3,2.6v5.3H167z M167,289.3v-1.5c-0.5-0.6-1.3-1-2.1-1c-1.1,0-1.9,0.7-1.9,1.7c0,1,0.8,1.7,1.9,1.7
	C165.7,290.3,166.6,290,167,289.3z M170.9,289.3v-5.1h-1.3v-1.1h1.3v-2.1h1.2v2.1h1.6v1.1h-1.6v4.8c0,0.6,0.3,1,0.8,1
	c0.3,0,0.7-0.1,0.8-0.3l0.4,0.9c-0.3,0.3-0.7,0.5-1.4,0.5C171.4,291.1,170.9,290.5,170.9,289.3z M175.1,281.3c0-0.4,0.4-0.8,0.8-0.8
	c0.4,0,0.8,0.4,0.8,0.8s-0.4,0.8-0.8,0.8C175.5,282.1,175.1,281.8,175.1,281.3z M175.3,290.9v-7.7h1.2v7.7H175.3z M178.5,287.1
	c0-2.2,1.5-4,3.8-4c2.4,0,3.8,1.8,3.8,4c0,2.2-1.5,4.1-3.8,4.1C180,291.1,178.5,289.3,178.5,287.1z M184.9,287.1c0-1.6-0.9-3-2.6-3
	c-1.6,0-2.6,1.4-2.6,3c0,1.6,0.9,3,2.6,3C184,290.1,184.9,288.7,184.9,287.1z M193.3,290.9v-5.1c0-1.4-0.7-1.8-1.7-1.8
	c-0.9,0-1.8,0.6-2.3,1.2v5.7h-1.2v-7.7h1.2v1.1c0.5-0.6,1.6-1.3,2.8-1.3c1.6,0,2.5,0.8,2.5,2.5v5.4H193.3z M37.1,312.9l-3.2-7.7h1.3
	l2.6,6.3l2.6-6.3h1.3l-3.2,7.7H37.1z M42.7,303.3c0-0.4,0.4-0.8,0.8-0.8c0.4,0,0.8,0.4,0.8,0.8s-0.4,0.8-0.8,0.8
	C43,304.1,42.7,303.8,42.7,303.3z M42.9,312.9v-7.7h1.2v7.7H42.9z M51.3,312.9v-0.9c-0.6,0.7-1.5,1.1-2.6,1.1
	c-1.3,0-2.7-0.9-2.7-2.6c0-1.7,1.4-2.5,2.7-2.5c1.1,0,1.9,0.3,2.6,1.1v-1.4c0-1-0.8-1.6-2-1.6c-0.9,0-1.7,0.3-2.4,1.1l-0.6-0.8
	c0.8-0.9,1.8-1.3,3.1-1.3c1.6,0,3,0.7,3,2.6v5.3H51.3z M51.3,311.3v-1.5c-0.5-0.6-1.3-1-2.1-1c-1.1,0-1.9,0.7-1.9,1.7
	c0,1,0.8,1.7,1.9,1.7C50,312.3,50.9,312,51.3,311.3z M58.6,309.1c0-2.2,1.6-4,3.8-4c2.3,0,3.7,1.8,3.7,4.1v0.3h-6.3
	c0.1,1.5,1.1,2.7,2.8,2.7c0.9,0,1.8-0.4,2.4-1l0.6,0.8c-0.8,0.8-1.8,1.2-3.1,1.2C60.2,313.1,58.6,311.5,58.6,309.1z M62.4,306
	c-1.6,0-2.5,1.4-2.5,2.6h5.1C64.9,307.4,64.1,306,62.4,306z M77.4,312.9v-5.2c0-1-0.4-1.6-1.4-1.6c-0.8,0-1.6,0.6-2,1.2v5.7h-1.2
	v-5.2c0-1-0.4-1.6-1.4-1.6c-0.8,0-1.6,0.6-2,1.2v5.7H68v-7.7h1.2v1.1c0.3-0.5,1.4-1.3,2.5-1.3c1.2,0,1.9,0.6,2.1,1.4
	c0.4-0.7,1.5-1.4,2.6-1.4c1.4,0,2.2,0.8,2.2,2.3v5.6H77.4z M85.8,312.9v-0.9c-0.6,0.7-1.5,1.1-2.6,1.1c-1.3,0-2.7-0.9-2.7-2.6
	c0-1.7,1.4-2.5,2.7-2.5c1.1,0,1.9,0.3,2.6,1.1v-1.4c0-1-0.8-1.6-2-1.6c-0.9,0-1.7,0.3-2.4,1.1l-0.6-0.8c0.8-0.9,1.8-1.3,3.1-1.3
	c1.6,0,3,0.7,3,2.6v5.3H85.8z M85.8,311.3v-1.5c-0.5-0.6-1.3-1-2.1-1c-1.1,0-1.9,0.7-1.9,1.7c0,1,0.8,1.7,1.9,1.7
	C84.5,312.3,85.3,312,85.8,311.3z M89.2,303.3c0-0.4,0.4-0.8,0.8-0.8c0.4,0,0.8,0.4,0.8,0.8s-0.4,0.8-0.8,0.8
	C89.6,304.1,89.2,303.8,89.2,303.3z M89.4,312.9v-7.7h1.2v7.7H89.4z M93,312.9v-10.7h1.2v10.7H93z M96.4,312.2
	c0-0.5,0.4-0.9,0.9-0.9s0.9,0.4,0.9,0.9c0,0.5-0.4,0.9-0.9,0.9S96.4,312.7,96.4,312.2z"/>
<linearGradient id="SVGID_4_" gradientUnits="userSpaceOnUse" x1="133.099" y1="-3.860805e-09" x2="133.099" y2="141">
	<stop  offset="0" style="stop-color:#22C5E6"/>
	<stop  offset="1" style="stop-color:#3C1FCC"/>
</linearGradient>
<path class="st4" d="M242,121.6v-16.4V35.8C242,16,226.4,0,207,0H47.1c-19.3,0-35,16-35,35.8v69.4c0,19.8,15.7,35.8,35,35.8H207
	c8.2,0,15.7-2.9,21.6-7.7c7.4,4.7,16.1,7.5,25.4,7.7C247,137.5,242,130.2,242,121.6z"/>
<path class="st1" d="M42.7,30v-4.9h-6.2V30h-1.3V19.4h1.3V24h6.2v-4.6H44V30H42.7z M46.2,20.4c0-0.4,0.4-0.8,0.8-0.8
	c0.4,0,0.8,0.4,0.8,0.8s-0.4,0.8-0.8,0.8C46.6,21.2,46.2,20.9,46.2,20.4z M46.4,30v-7.7h1.2V30H46.4z M50.3,32.1l-0.6-0.5
	c0.5-0.3,1-1,1-1.5c0,0-0.1,0-0.2,0c-0.4,0-0.8-0.3-0.8-0.8c0-0.5,0.4-0.9,0.8-0.9c0.5,0,1,0.4,1,1.2C51.6,30.6,51.1,31.6,50.3,32.1
	z M64.3,30l-4-4.8l-1.1,1.2V30h-1.3V19.4h1.3v5.5l4.7-5.5h1.7l-4.5,5.1L66,30H64.3z M72,30v-0.9c-0.6,0.7-1.5,1.1-2.6,1.1
	c-1.3,0-2.7-0.9-2.7-2.6c0-1.7,1.4-2.5,2.7-2.5c1.1,0,1.9,0.3,2.6,1.1v-1.4c0-1-0.8-1.6-2-1.6c-0.9,0-1.7,0.3-2.4,1.1l-0.6-0.8
	c0.8-0.9,1.8-1.3,3.1-1.3c1.6,0,3,0.7,3,2.6V30H72z M72,28.4V27c-0.5-0.6-1.3-1-2.1-1c-1.1,0-1.9,0.7-1.9,1.7c0,1,0.8,1.7,1.9,1.7
	C70.7,29.4,71.6,29.1,72,28.4z M75.9,28.4v-5.1h-1.3v-1.1h1.3v-2.1h1.2v2.1h1.6v1.1h-1.6v4.8c0,0.6,0.3,1,0.8,1
	c0.3,0,0.7-0.1,0.8-0.3l0.4,0.9c-0.3,0.3-0.7,0.5-1.4,0.5C76.4,30.2,75.9,29.6,75.9,28.4z M80.1,32c0.2,0.1,0.5,0.1,0.7,0.1
	c0.5,0,0.9-0.2,1.2-0.8l0.5-1.2l-3.2-7.8h1.3l2.6,6.3l2.6-6.3h1.3L83,31.6c-0.5,1.1-1.2,1.6-2.3,1.6c-0.3,0-0.7,0-0.9-0.1L80.1,32z
	 M87.9,29.3c0-0.5,0.4-0.9,0.9-0.9s0.9,0.4,0.9,0.9c0,0.5-0.4,0.9-0.9,0.9S87.9,29.8,87.9,29.3z M88.3,27.1L88,19.4h1.5l-0.3,7.7
	H88.3z M34.7,46.7c0-3.3,2.4-5.5,5.5-5.5c1.9,0,3.2,0.9,4,2.1l-1.1,0.6c-0.6-0.9-1.7-1.6-2.9-1.6c-2.3,0-4.1,1.8-4.1,4.3
	c0,2.5,1.8,4.3,4.1,4.3c1.2,0,2.3-0.6,2.9-1.6l1.1,0.6c-0.9,1.2-2.2,2.1-4.1,2.1C37.1,52.2,34.7,50,34.7,46.7z M50.7,52v-0.9
	c-0.6,0.7-1.5,1.1-2.6,1.1c-1.3,0-2.7-0.9-2.7-2.6c0-1.7,1.4-2.5,2.7-2.5c1.1,0,1.9,0.3,2.6,1.1v-1.4c0-1-0.8-1.6-2-1.6
	c-0.9,0-1.7,0.3-2.4,1.1l-0.6-0.8c0.8-0.9,1.8-1.3,3.1-1.3c1.6,0,3,0.7,3,2.6V52H50.7z M50.7,50.4V49c-0.5-0.6-1.3-1-2.1-1
	c-1.1,0-1.9,0.7-1.9,1.7c0,1,0.8,1.7,1.9,1.7C49.4,51.4,50.2,51.1,50.7,50.4z M59.5,52V47c0-1.4-0.7-1.8-1.7-1.8
	c-0.9,0-1.8,0.6-2.3,1.2V52h-1.2v-7.7h1.2v1.1c0.5-0.6,1.6-1.3,2.8-1.3c1.6,0,2.5,0.8,2.5,2.5V52H59.5z M67.3,52V41.4h1.3V52H67.3z
	 M74.5,51l0.6-0.9c0.5,0.6,1.5,1.1,2.5,1.1c1.2,0,1.8-0.6,1.8-1.3c0-1.9-4.8-0.7-4.8-3.6c0-1.2,1-2.2,2.9-2.2c1.3,0,2.2,0.5,2.9,1.1
	l-0.6,0.8c-0.5-0.6-1.3-1-2.3-1c-1.1,0-1.7,0.5-1.7,1.2c0,1.7,4.8,0.6,4.8,3.6c0,1.3-1,2.3-3,2.3C76.4,52.2,75.3,51.9,74.5,51z
	 M82.2,48.2c0-2.2,1.6-4,3.8-4c2.3,0,3.7,1.8,3.7,4.1v0.3h-6.3c0.1,1.5,1.1,2.7,2.8,2.7c0.9,0,1.8-0.4,2.4-1l0.6,0.8
	c-0.8,0.8-1.8,1.2-3.1,1.2C83.8,52.2,82.2,50.6,82.2,48.2z M86,45.1c-1.6,0-2.5,1.4-2.5,2.6h5.1C88.5,46.5,87.7,45.1,86,45.1z
	 M91.9,50.4v-5.1h-1.3v-1.1h1.3v-2.1h1.2v2.1h1.6v1.1h-1.6v4.8c0,0.6,0.3,1,0.8,1c0.3,0,0.7-0.1,0.8-0.3l0.4,0.9
	c-0.3,0.3-0.7,0.5-1.4,0.5C92.4,52.2,91.9,51.6,91.9,50.4z M101.6,52V51c-0.6,0.7-1.6,1.3-2.8,1.3c-1.6,0-2.5-0.8-2.5-2.5v-5.5h1.2
	v5.1c0,1.4,0.7,1.8,1.7,1.8c0.9,0,1.8-0.5,2.3-1.2v-5.7h1.2V52H101.6z M106.4,50.9V55h-1.2V44.3h1.2v1.2c0.6-0.8,1.5-1.3,2.6-1.3
	c2,0,3.4,1.5,3.4,4c0,2.5-1.4,4.1-3.4,4.1C107.9,52.2,107,51.7,106.4,50.9z M111.1,48.2c0-1.7-0.9-3-2.5-3c-0.9,0-1.9,0.6-2.3,1.2
	v3.5c0.4,0.7,1.4,1.2,2.3,1.2C110.2,51.2,111.1,49.9,111.1,48.2z M118.4,52v-7.7h1.2v1.2c0.6-0.8,1.5-1.4,2.6-1.4v1.2
	c-0.1,0-0.3,0-0.5,0c-0.7,0-1.7,0.6-2.1,1.2V52H118.4z M123.3,48.2c0-2.2,1.6-4,3.8-4c2.3,0,3.7,1.8,3.7,4.1v0.3h-6.3
	c0.1,1.5,1.1,2.7,2.8,2.7c0.9,0,1.8-0.4,2.4-1l0.6,0.8c-0.8,0.8-1.8,1.2-3.1,1.2C124.9,52.2,123.3,50.6,123.3,48.2z M127.1,45.1
	c-1.6,0-2.5,1.4-2.5,2.6h5.1C129.6,46.5,128.8,45.1,127.1,45.1z M132.3,48.2c0-2.3,1.6-4,3.9-4c1.4,0,2.2,0.6,2.8,1.3l-0.8,0.7
	c-0.5-0.7-1.2-1-2-1c-1.6,0-2.7,1.3-2.7,3c0,1.7,1,3,2.7,3c0.8,0,1.5-0.3,2-1l0.8,0.7c-0.6,0.8-1.4,1.3-2.8,1.3
	C133.8,52.2,132.3,50.5,132.3,48.2z M145.9,52V51c-0.6,0.7-1.6,1.3-2.8,1.3c-1.6,0-2.5-0.8-2.5-2.5v-5.5h1.2v5.1
	c0,1.4,0.7,1.8,1.7,1.8c0.9,0,1.8-0.5,2.3-1.2v-5.7h1.2V52H145.9z M149.5,52v-7.7h1.2v1.2c0.6-0.8,1.5-1.4,2.6-1.4v1.2
	c-0.1,0-0.3,0-0.5,0c-0.7,0-1.7,0.6-2.1,1.2V52H149.5z M154.7,52v-7.7h1.2v1.2c0.6-0.8,1.5-1.4,2.6-1.4v1.2c-0.1,0-0.3,0-0.5,0
	c-0.7,0-1.7,0.6-2.1,1.2V52H154.7z M159.8,42.4c0-0.4,0.4-0.8,0.8-0.8c0.4,0,0.8,0.4,0.8,0.8s-0.4,0.8-0.8,0.8
	C160.2,43.2,159.8,42.9,159.8,42.4z M160,52v-7.7h1.2V52H160z M168.8,52V47c0-1.4-0.7-1.8-1.7-1.8c-0.9,0-1.8,0.6-2.3,1.2V52h-1.2
	v-7.7h1.2v1.1c0.5-0.6,1.6-1.3,2.8-1.3c1.6,0,2.5,0.8,2.5,2.5V52H168.8z M172.4,54l0.6-0.9c0.6,0.8,1.4,1.1,2.5,1.1
	c1.3,0,2.5-0.6,2.5-2.3v-1.1c-0.6,0.8-1.5,1.4-2.6,1.4c-2,0-3.4-1.5-3.4-4c0-2.5,1.4-4,3.4-4c1,0,2,0.5,2.6,1.4v-1.2h1.2v7.5
	c0,2.6-1.8,3.4-3.7,3.4C174.2,55.2,173.3,54.9,172.4,54z M178,49.8v-3.4c-0.4-0.7-1.3-1.2-2.3-1.2c-1.6,0-2.5,1.2-2.5,2.9
	c0,1.7,0.9,2.9,2.5,2.9C176.7,51.1,177.6,50.5,178,49.8z M35,74V63.4h1.2v4.1c0.6-0.8,1.6-1.4,2.6-1.4c2,0,3.4,1.6,3.4,4.1
	c0,2.5-1.4,4-3.4,4c-1.1,0-2-0.6-2.6-1.3V74H35z M38.5,73.2c1.6,0,2.5-1.3,2.5-3s-0.9-3-2.5-3c-0.9,0-1.9,0.6-2.3,1.2V72
	C36.7,72.6,37.6,73.2,38.5,73.2z M44,64.4c0-0.4,0.4-0.8,0.8-0.8c0.4,0,0.8,0.4,0.8,0.8c0,0.4-0.4,0.8-0.8,0.8
	C44.4,65.2,44,64.9,44,64.4z M44.2,74v-7.7h1.2V74H44.2z M47.8,74V63.4H49V74H47.8z M51.4,74V63.4h1.2V74H51.4z M54.8,64.4
	c0-0.4,0.4-0.8,0.8-0.8c0.4,0,0.8,0.4,0.8,0.8c0,0.4-0.4,0.8-0.8,0.8C55.2,65.2,54.8,64.9,54.8,64.4z M55,74v-7.7h1.2V74H55z
	 M63.9,74V69c0-1.4-0.7-1.8-1.7-1.8c-0.9,0-1.8,0.6-2.3,1.2V74h-1.2v-7.7h1.2v1.1c0.5-0.6,1.6-1.3,2.8-1.3c1.6,0,2.5,0.8,2.5,2.5V74
	H63.9z M67.4,76l0.6-0.9c0.6,0.8,1.4,1.1,2.5,1.1c1.3,0,2.5-0.6,2.5-2.3v-1.1c-0.6,0.8-1.5,1.4-2.6,1.4c-2,0-3.4-1.5-3.4-4
	c0-2.5,1.4-4,3.4-4c1,0,2,0.5,2.6,1.4v-1.2h1.2v7.5c0,2.6-1.8,3.4-3.7,3.4C69.2,77.2,68.4,76.9,67.4,76z M73,71.8v-3.4
	c-0.4-0.7-1.3-1.2-2.3-1.2c-1.6,0-2.5,1.2-2.5,2.9c0,1.7,0.9,2.9,2.5,2.9C71.7,73.1,72.6,72.5,73,71.8z M81,72.4v-5.1h-1.3v-1.1H81
	v-2.1h1.2v2.1h1.6v1.1h-1.6v4.8c0,0.6,0.3,1,0.8,1c0.3,0,0.7-0.1,0.8-0.3l0.4,0.9c-0.3,0.3-0.7,0.5-1.4,0.5
	C81.6,74.2,81,73.6,81,72.4z M85,70.2c0-2.2,1.5-4,3.8-4c2.4,0,3.8,1.8,3.8,4c0,2.2-1.5,4.1-3.8,4.1C86.5,74.2,85,72.4,85,70.2z
	 M91.4,70.2c0-1.6-0.9-3-2.6-3c-1.6,0-2.6,1.4-2.6,3c0,1.6,0.9,3,2.6,3C90.5,73.2,91.4,71.8,91.4,70.2z M98.3,70.2
	c0-2.3,1.6-4,3.9-4c1.4,0,2.2,0.6,2.8,1.3l-0.8,0.7c-0.5-0.7-1.2-1-2-1c-1.6,0-2.7,1.3-2.7,3c0,1.7,1,3,2.7,3c0.8,0,1.5-0.3,2-1
	l0.8,0.7c-0.6,0.8-1.4,1.3-2.8,1.3C99.9,74.2,98.3,72.5,98.3,70.2z M111.9,74V69c0-1.4-0.7-1.8-1.7-1.8c-0.9,0-1.8,0.6-2.3,1.2V74
	h-1.2V63.4h1.2v4.1c0.5-0.6,1.6-1.3,2.8-1.3c1.6,0,2.5,0.8,2.5,2.5V74H111.9z M120.3,74v-0.9c-0.6,0.7-1.5,1.1-2.6,1.1
	c-1.3,0-2.7-0.9-2.7-2.6c0-1.7,1.4-2.5,2.7-2.5c1.1,0,1.9,0.3,2.6,1.1v-1.4c0-1-0.8-1.6-2-1.6c-0.9,0-1.7,0.3-2.4,1.1l-0.6-0.8
	c0.8-0.9,1.8-1.3,3.1-1.3c1.6,0,3,0.7,3,2.6V74H120.3z M120.3,72.4V71c-0.5-0.6-1.3-1-2.1-1c-1.1,0-1.9,0.7-1.9,1.7
	c0,1,0.8,1.7,1.9,1.7C119.1,73.4,119.9,73.1,120.3,72.4z M123.9,74v-7.7h1.2v1.2c0.6-0.8,1.5-1.4,2.6-1.4v1.2c-0.1,0-0.3,0-0.5,0
	c-0.7,0-1.7,0.6-2.1,1.2V74H123.9z M129.2,76l0.6-0.9c0.6,0.8,1.4,1.1,2.5,1.1c1.3,0,2.5-0.6,2.5-2.3v-1.1c-0.6,0.8-1.5,1.4-2.6,1.4
	c-2,0-3.4-1.5-3.4-4c0-2.5,1.4-4,3.4-4c1,0,2,0.5,2.6,1.4v-1.2h1.2v7.5c0,2.6-1.8,3.4-3.7,3.4C131,77.2,130.1,76.9,129.2,76z
	 M134.8,71.8v-3.4c-0.4-0.7-1.3-1.2-2.3-1.2c-1.6,0-2.5,1.2-2.5,2.9c0,1.7,0.9,2.9,2.5,2.9C133.5,73.1,134.4,72.5,134.8,71.8z
	 M138,70.2c0-2.2,1.6-4,3.8-4c2.3,0,3.7,1.8,3.7,4.1v0.3h-6.3c0.1,1.5,1.1,2.7,2.8,2.7c0.9,0,1.8-0.4,2.4-1l0.6,0.8
	c-0.8,0.8-1.8,1.2-3.1,1.2C139.6,74.2,138,72.6,138,70.2z M141.7,67.1c-1.6,0-2.5,1.4-2.5,2.6h5.1C144.3,68.5,143.5,67.1,141.7,67.1
	z M160.9,74v-5.2c0-1-0.4-1.6-1.4-1.6c-0.8,0-1.6,0.6-2,1.2V74h-1.2v-5.2c0-1-0.4-1.6-1.4-1.6c-0.8,0-1.6,0.6-2,1.2V74h-1.2v-7.7
	h1.2v1.1c0.3-0.5,1.4-1.3,2.5-1.3c1.2,0,1.9,0.6,2.1,1.4c0.4-0.7,1.5-1.4,2.6-1.4c1.4,0,2.2,0.8,2.2,2.3V74H160.9z M164.2,76
	c0.2,0.1,0.5,0.1,0.7,0.1c0.5,0,0.9-0.2,1.2-0.8l0.5-1.2l-3.2-7.8h1.3l2.6,6.3l2.6-6.3h1.3l-3.9,9.3c-0.5,1.1-1.2,1.6-2.3,1.6
	c-0.3,0-0.7,0-0.9-0.1L164.2,76z M34.6,92.2c0-2.3,1.6-4,3.9-4c1.4,0,2.2,0.6,2.8,1.3l-0.8,0.7c-0.5-0.7-1.2-1-2-1
	c-1.6,0-2.7,1.3-2.7,3c0,1.7,1,3,2.7,3c0.8,0,1.5-0.3,2-1l0.8,0.7c-0.6,0.8-1.4,1.3-2.8,1.3C36.1,96.2,34.6,94.5,34.6,92.2z
	 M48.2,96V95c-0.6,0.7-1.6,1.3-2.8,1.3c-1.6,0-2.5-0.8-2.5-2.5v-5.5h1.2v5.1c0,1.4,0.7,1.8,1.7,1.8c0.9,0,1.8-0.5,2.3-1.2v-5.7h1.2
	V96H48.2z M51.1,95l0.6-0.9c0.5,0.6,1.5,1.1,2.5,1.1c1.2,0,1.8-0.6,1.8-1.3c0-1.9-4.8-0.7-4.8-3.6c0-1.2,1-2.2,2.9-2.2
	c1.3,0,2.2,0.5,2.9,1.1l-0.6,0.8c-0.5-0.6-1.3-1-2.3-1c-1.1,0-1.7,0.5-1.7,1.2c0,1.7,4.8,0.6,4.8,3.6c0,1.3-1,2.3-3,2.3
	C53,96.2,51.9,95.9,51.1,95z M59.5,94.4v-5.1h-1.3v-1.1h1.3v-2.1h1.2v2.1h1.6v1.1h-1.6v4.8c0,0.6,0.3,1,0.8,1c0.3,0,0.7-0.1,0.8-0.3
	l0.4,0.9c-0.3,0.3-0.7,0.5-1.4,0.5C60,96.2,59.5,95.6,59.5,94.4z M63.5,92.2c0-2.2,1.5-4,3.8-4c2.4,0,3.8,1.8,3.8,4
	c0,2.2-1.5,4.1-3.8,4.1C64.9,96.2,63.5,94.4,63.5,92.2z M69.9,92.2c0-1.6-0.9-3-2.6-3c-1.6,0-2.6,1.4-2.6,3c0,1.6,0.9,3,2.6,3
	C68.9,95.2,69.9,93.8,69.9,92.2z M82.4,96v-5.2c0-1-0.4-1.6-1.4-1.6c-0.8,0-1.6,0.6-2,1.2V96h-1.2v-5.2c0-1-0.4-1.6-1.4-1.6
	c-0.8,0-1.6,0.6-2,1.2V96h-1.2v-7.7h1.2v1.1c0.3-0.5,1.4-1.3,2.5-1.3c1.2,0,1.9,0.6,2.1,1.4c0.4-0.7,1.5-1.4,2.6-1.4
	c1.4,0,2.2,0.8,2.2,2.3V96H82.4z M85.6,92.2c0-2.2,1.6-4,3.8-4c2.3,0,3.7,1.8,3.7,4.1v0.3h-6.3c0.1,1.5,1.1,2.7,2.8,2.7
	c0.9,0,1.8-0.4,2.4-1l0.6,0.8c-0.8,0.8-1.8,1.2-3.1,1.2C87.2,96.2,85.6,94.6,85.6,92.2z M89.3,89.1c-1.6,0-2.5,1.4-2.5,2.6h5.1
	C91.9,90.5,91.1,89.1,89.3,89.1z M95,96v-7.7h1.2v1.2c0.6-0.8,1.5-1.4,2.6-1.4v1.2c-0.1,0-0.3,0-0.5,0c-0.7,0-1.7,0.6-2.1,1.2V96H95
	z M99.6,95l0.6-0.9c0.5,0.6,1.5,1.1,2.5,1.1c1.2,0,1.8-0.6,1.8-1.3c0-1.9-4.8-0.7-4.8-3.6c0-1.2,1-2.2,2.9-2.2
	c1.3,0,2.2,0.5,2.9,1.1l-0.6,0.8c-0.5-0.6-1.3-1-2.3-1c-1.1,0-1.7,0.5-1.7,1.2c0,1.7,4.8,0.6,4.8,3.6c0,1.3-1,2.3-3,2.3
	C101.5,96.2,100.4,95.9,99.6,95z M116.7,96v-0.9c-0.6,0.7-1.5,1.1-2.6,1.1c-1.3,0-2.7-0.9-2.7-2.6c0-1.7,1.4-2.5,2.7-2.5
	c1.1,0,1.9,0.3,2.6,1.1v-1.4c0-1-0.8-1.6-2-1.6c-0.9,0-1.7,0.3-2.4,1.1l-0.6-0.8c0.8-0.9,1.8-1.3,3.1-1.3c1.6,0,3,0.7,3,2.6V96
	H116.7z M116.7,94.4V93c-0.5-0.6-1.3-1-2.1-1c-1.1,0-1.9,0.7-1.9,1.7c0,1,0.8,1.7,1.9,1.7C115.4,95.4,116.2,95.1,116.7,94.4z
	 M125.5,96V95c-0.6,0.7-1.6,1.3-2.8,1.3c-1.6,0-2.5-0.8-2.5-2.5v-5.5h1.2v5.1c0,1.4,0.7,1.8,1.7,1.8c0.9,0,1.8-0.5,2.3-1.2v-5.7h1.2
	V96H125.5z M129.3,94.4v-5.1h-1.3v-1.1h1.3v-2.1h1.2v2.1h1.6v1.1h-1.6v4.8c0,0.6,0.3,1,0.8,1c0.3,0,0.7-0.1,0.8-0.3l0.4,0.9
	c-0.3,0.3-0.7,0.5-1.4,0.5C129.9,96.2,129.3,95.6,129.3,94.4z M133.4,92.2c0-2.2,1.5-4,3.8-4c2.4,0,3.8,1.8,3.8,4
	c0,2.2-1.5,4.1-3.8,4.1C134.8,96.2,133.4,94.4,133.4,92.2z M139.7,92.2c0-1.6-0.9-3-2.6-3c-1.6,0-2.6,1.4-2.6,3c0,1.6,0.9,3,2.6,3
	C138.8,95.2,139.7,93.8,139.7,92.2z M152.3,96v-5.2c0-1-0.4-1.6-1.4-1.6c-0.8,0-1.6,0.6-2,1.2V96h-1.2v-5.2c0-1-0.4-1.6-1.4-1.6
	c-0.8,0-1.6,0.6-2,1.2V96H143v-7.7h1.2v1.1c0.3-0.5,1.4-1.3,2.5-1.3c1.2,0,1.9,0.6,2.1,1.4c0.4-0.7,1.5-1.4,2.6-1.4
	c1.4,0,2.2,0.8,2.2,2.3V96H152.3z M160.7,96v-0.9c-0.6,0.7-1.5,1.1-2.6,1.1c-1.3,0-2.7-0.9-2.7-2.6c0-1.7,1.4-2.5,2.7-2.5
	c1.1,0,1.9,0.3,2.6,1.1v-1.4c0-1-0.8-1.6-2-1.6c-0.9,0-1.7,0.3-2.4,1.1l-0.6-0.8c0.8-0.9,1.8-1.3,3.1-1.3c1.6,0,3,0.7,3,2.6V96
	H160.7z M160.7,94.4V93c-0.5-0.6-1.3-1-2.1-1c-1.1,0-1.9,0.7-1.9,1.7c0,1,0.8,1.7,1.9,1.7C159.4,95.4,160.3,95.1,160.7,94.4z
	 M164.6,94.4v-5.1h-1.3v-1.1h1.3v-2.1h1.2v2.1h1.6v1.1h-1.6v4.8c0,0.6,0.3,1,0.8,1c0.3,0,0.7-0.1,0.8-0.3l0.4,0.9
	c-0.3,0.3-0.7,0.5-1.4,0.5C165.1,96.2,164.6,95.6,164.6,94.4z M168.8,86.4c0-0.4,0.4-0.8,0.8-0.8c0.4,0,0.8,0.4,0.8,0.8
	s-0.4,0.8-0.8,0.8C169.2,87.2,168.8,86.9,168.8,86.4z M169,96v-7.7h1.2V96H169z M172.2,92.2c0-2.3,1.6-4,3.9-4
	c1.4,0,2.2,0.6,2.8,1.3l-0.8,0.7c-0.5-0.7-1.2-1-2-1c-1.6,0-2.7,1.3-2.7,3c0,1.7,1,3,2.7,3c0.8,0,1.5-0.3,2-1l0.8,0.7
	c-0.6,0.8-1.4,1.3-2.8,1.3C173.7,96.2,172.2,94.5,172.2,92.2z M185.4,96v-0.9c-0.6,0.7-1.5,1.1-2.6,1.1c-1.3,0-2.7-0.9-2.7-2.6
	c0-1.7,1.4-2.5,2.7-2.5c1.1,0,1.9,0.3,2.6,1.1v-1.4c0-1-0.8-1.6-2-1.6c-0.9,0-1.7,0.3-2.4,1.1l-0.6-0.8c0.8-0.9,1.8-1.3,3.1-1.3
	c1.6,0,3,0.7,3,2.6V96H185.4z M185.4,94.4V93c-0.5-0.6-1.3-1-2.1-1c-1.1,0-1.9,0.7-1.9,1.7c0,1,0.8,1.7,1.9,1.7
	C184.1,95.4,184.9,95.1,185.4,94.4z M189,96V85.4h1.2V96H189z M192.6,96V85.4h1.2V96H192.6z M195.9,98c0.2,0.1,0.5,0.1,0.7,0.1
	c0.5,0,0.9-0.2,1.2-0.8l0.5-1.2l-3.2-7.8h1.3l2.6,6.3l2.6-6.3h1.3l-3.9,9.3c-0.5,1.1-1.2,1.6-2.3,1.6c-0.3,0-0.7,0-0.9-0.1L195.9,98
	z M34.8,108.4c0-0.4,0.4-0.8,0.8-0.8c0.4,0,0.8,0.4,0.8,0.8s-0.4,0.8-0.8,0.8C35.2,109.2,34.8,108.9,34.8,108.4z M35,118v-7.7h1.2
	v7.7H35z M43.9,118V113c0-1.4-0.7-1.8-1.7-1.8c-0.9,0-1.8,0.6-2.3,1.2v5.7h-1.2v-7.7h1.2v1.1c0.5-0.6,1.6-1.3,2.8-1.3
	c1.6,0,2.5,0.8,2.5,2.5v5.4H43.9z M60.9,118v-5.2c0-1-0.4-1.6-1.4-1.6c-0.8,0-1.6,0.6-2,1.2v5.7h-1.2v-5.2c0-1-0.4-1.6-1.4-1.6
	c-0.8,0-1.6,0.6-2,1.2v5.7h-1.2v-7.7h1.2v1.1c0.3-0.5,1.4-1.3,2.5-1.3c1.2,0,1.9,0.6,2.1,1.4c0.4-0.7,1.5-1.4,2.6-1.4
	c1.4,0,2.2,0.8,2.2,2.3v5.6H60.9z M64.1,114.2c0-2.2,1.5-4,3.8-4c2.4,0,3.8,1.8,3.8,4c0,2.2-1.5,4.1-3.8,4.1
	C65.5,118.2,64.1,116.4,64.1,114.2z M70.5,114.2c0-1.6-0.9-3-2.6-3c-1.6,0-2.6,1.4-2.6,3c0,1.6,0.9,3,2.6,3
	C69.5,117.2,70.5,115.8,70.5,114.2z M78.9,118V113c0-1.4-0.7-1.8-1.7-1.8c-0.9,0-1.8,0.6-2.3,1.2v5.7h-1.2v-7.7h1.2v1.1
	c0.5-0.6,1.6-1.3,2.8-1.3c1.6,0,2.5,0.8,2.5,2.5v5.4H78.9z M82.7,116.4v-5.1h-1.3v-1.1h1.3v-2.1h1.2v2.1h1.6v1.1h-1.6v4.8
	c0,0.6,0.3,1,0.8,1c0.3,0,0.7-0.1,0.8-0.3l0.4,0.9c-0.3,0.3-0.7,0.5-1.4,0.5C83.3,118.2,82.7,117.6,82.7,116.4z M92.4,118V113
	c0-1.4-0.7-1.8-1.7-1.8c-0.9,0-1.8,0.6-2.3,1.2v5.7h-1.2v-10.7h1.2v4.1c0.5-0.6,1.6-1.3,2.8-1.3c1.6,0,2.5,0.8,2.5,2.5v5.5H92.4z
	 M96,118v-10.7h1.2V118H96z M99.4,120c0.2,0.1,0.5,0.1,0.7,0.1c0.5,0,0.9-0.2,1.2-0.8l0.5-1.2l-3.2-7.8h1.3l2.6,6.3l2.6-6.3h1.3
	l-3.9,9.3c-0.5,1.1-1.2,1.6-2.3,1.6c-0.3,0-0.7,0-0.9-0.1L99.4,120z M111.4,108.4c0-0.4,0.4-0.8,0.8-0.8c0.4,0,0.8,0.4,0.8,0.8
	s-0.4,0.8-0.8,0.8C111.7,109.2,111.4,108.9,111.4,108.4z M111.6,118v-7.7h1.2v7.7H111.6z M120.4,118V113c0-1.4-0.7-1.8-1.7-1.8
	c-0.9,0-1.8,0.6-2.3,1.2v5.7h-1.2v-7.7h1.2v1.1c0.5-0.6,1.6-1.3,2.8-1.3c1.6,0,2.5,0.8,2.5,2.5v5.4H120.4z M123.6,114.2
	c0-2.3,1.6-4,3.9-4c1.4,0,2.2,0.6,2.8,1.3l-0.8,0.7c-0.5-0.7-1.2-1-2-1c-1.6,0-2.7,1.3-2.7,3c0,1.7,1,3,2.7,3c0.8,0,1.5-0.3,2-1
	l0.8,0.7c-0.6,0.8-1.4,1.3-2.8,1.3C125.1,118.2,123.6,116.5,123.6,114.2z M131.9,118v-7.7h1.2v1.2c0.6-0.8,1.5-1.4,2.6-1.4v1.2
	c-0.1,0-0.3,0-0.5,0c-0.7,0-1.7,0.6-2.1,1.2v5.5H131.9z M136.8,114.2c0-2.2,1.6-4,3.8-4c2.3,0,3.7,1.8,3.7,4.1v0.3H138
	c0.1,1.5,1.1,2.7,2.8,2.7c0.9,0,1.8-0.4,2.4-1l0.6,0.8c-0.8,0.8-1.8,1.2-3.1,1.2C138.4,118.2,136.8,116.6,136.8,114.2z M140.5,111.1
	c-1.6,0-2.5,1.4-2.5,2.6h5.1C143.1,112.5,142.3,111.1,140.5,111.1z M155.5,118v-5.2c0-1-0.4-1.6-1.4-1.6c-0.8,0-1.6,0.6-2,1.2v5.7
	h-1.2v-5.2c0-1-0.4-1.6-1.4-1.6c-0.8,0-1.6,0.6-2,1.2v5.7h-1.2v-7.7h1.2v1.1c0.3-0.5,1.4-1.3,2.5-1.3c1.2,0,1.9,0.6,2.1,1.4
	c0.4-0.7,1.5-1.4,2.6-1.4c1.4,0,2.2,0.8,2.2,2.3v5.6H155.5z M158.7,114.2c0-2.2,1.6-4,3.8-4c2.3,0,3.7,1.8,3.7,4.1v0.3H160
	c0.1,1.5,1.1,2.7,2.8,2.7c0.9,0,1.8-0.4,2.4-1l0.6,0.8c-0.8,0.8-1.8,1.2-3.1,1.2C160.3,118.2,158.7,116.6,158.7,114.2z M162.5,111.1
	c-1.6,0-2.5,1.4-2.5,2.6h5.1C165,112.5,164.2,111.1,162.5,111.1z M173.4,118V113c0-1.4-0.7-1.8-1.7-1.8c-0.9,0-1.8,0.6-2.3,1.2v5.7
	h-1.2v-7.7h1.2v1.1c0.5-0.6,1.6-1.3,2.8-1.3c1.6,0,2.5,0.8,2.5,2.5v5.4H173.4z M177.2,116.4v-5.1h-1.3v-1.1h1.3v-2.1h1.2v2.1h1.6
	v1.1h-1.6v4.8c0,0.6,0.3,1,0.8,1c0.3,0,0.7-0.1,0.8-0.3l0.4,0.9c-0.3,0.3-0.7,0.5-1.4,0.5C177.8,118.2,177.2,117.6,177.2,116.4z
	 M181,117l0.6-0.9c0.5,0.6,1.5,1.1,2.5,1.1c1.2,0,1.8-0.6,1.8-1.3c0-1.9-4.8-0.7-4.8-3.6c0-1.2,1-2.2,2.9-2.2c1.3,0,2.2,0.5,2.9,1.1
	l-0.6,0.8c-0.5-0.6-1.3-1-2.3-1c-1.1,0-1.7,0.5-1.7,1.2c0,1.7,4.8,0.6,4.8,3.6c0,1.3-1,2.3-3,2.3C182.8,118.2,181.8,117.9,181,117z
	 M189.8,113.8c0-2,2.9-2.2,2.9-3.9c0-0.8-0.6-1.5-1.9-1.5c-1.2,0-2,0.5-2.5,1.3l-0.8-0.9c0.8-1,2-1.6,3.5-1.6c2,0,3.1,1.1,3.1,2.5
	c0,2.4-3.1,2.6-3.1,4.2c0,0.3,0.2,0.6,0.4,0.8l-1,0.4C190,114.7,189.8,114.3,189.8,113.8z M189.9,117.3c0-0.5,0.4-0.9,0.9-0.9
	c0.5,0,0.9,0.4,0.9,0.9c0,0.5-0.4,0.9-0.9,0.9C190.3,118.2,189.9,117.8,189.9,117.3z"/>
</svg>
