<?xml version="1.0" encoding="utf-8"?>
<!-- Generator: Adobe Illustrator 19.1.0, SVG Export Plug-In . SVG Version: 6.00 Build 0)  -->
<svg version="1.1" id="Layer_1" xmlns="http://www.w3.org/2000/svg" xmlns:xlink="http://www.w3.org/1999/xlink" x="0px" y="0px"
	 width="231px" height="171.5px" viewBox="-364 195.5 231 171.5" style="enable-background:new -364 195.5 231 171.5;"
	 xml:space="preserve">
<style type="text/css">
	.st0{fill:#22C5E6;}
	.st1{fill:#6741D9;}
	.st2{fill:#FFFFFF;}
</style>
<g>
	<g>
		<circle class="st0" cx="-346" cy="213" r="17.5"/>
	</g>
	<g>
		<path class="st1" d="M-151,299c-9.925,0-18-8.075-18-18s8.075-18,18-18s18,8.075,18,18S-141.075,299-151,299z M-151,264
			c-9.374,0-17,7.626-17,17s7.626,17,17,17s17-7.626,17-17S-141.626,264-151,264z"/>
	</g>
	<g>
		<path class="st1" d="M-346,367c-9.925,0-18-8.075-18-18s8.075-18,18-18s18,8.075,18,18S-336.075,367-346,367z M-346,332
			c-9.374,0-17,7.626-17,17s7.626,17,17,17s17-7.626,17-17S-336.626,332-346,332z"/>
	</g>
	<g>
		<path class="st1" d="M-152.899,259.279c0-0.56,0.45-1,1-1l0,0c0.55,0,1,0.44,1,1l0,0c0,0.55-0.45,1-1,1l0,0
			C-152.45,260.279-152.899,259.829-152.899,259.279z M-152.899,251.319c-0.03-0.55,0.4-1.02,0.95-1.04l0,0
			c0.55-0.03,1.02,0.4,1.04,0.95l0,0c0.03,0.55-0.4,1.02-0.95,1.04l0,0c-0.02,0.01-0.03,0.01-0.04,0.01l0,0
			C-152.439,252.279-152.879,251.849-152.899,251.319z M-158.26,246.489c0-0.55,0.45-1,1-1l0,0c0.55,0,1,0.45,1,1l0,0
			c0,0.55-0.45,1-1,1l0,0C-157.81,247.489-158.26,247.039-158.26,246.489z M-166.26,246.489c0-0.55,0.45-1,1-1l0,0
			c0.55,0,1,0.45,1,1l0,0c0,0.55-0.45,1-1,1l0,0C-165.81,247.489-166.26,247.039-166.26,246.489z M-174.26,246.489
			c0-0.55,0.45-1,1-1l0,0c0.56,0,1,0.45,1,1l0,0c0,0.55-0.44,1-1,1l0,0C-173.81,247.489-174.26,247.039-174.26,246.489z
			 M-182.26,246.489c0-0.55,0.45-1,1-1l0,0c0.55,0,1,0.45,1,1l0,0c0,0.55-0.45,1-1,1l0,0
			C-181.81,247.489-182.26,247.039-182.26,246.489z M-190.26,246.489c0-0.55,0.45-1,1-1l0,0c0.55,0,1,0.45,1,1l0,0
			c0,0.55-0.45,1-1,1l0,0C-189.81,247.489-190.26,247.039-190.26,246.489z M-198.26,246.489c0-0.55,0.45-1,1-1l0,0
			c0.56,0,1,0.45,1,1l0,0c0,0.55-0.44,1-1,1l0,0C-197.81,247.489-198.26,247.039-198.26,246.489z M-206.26,246.489
			c0-0.55,0.45-1,1-1l0,0c0.56,0,1,0.45,1,1l0,0c0,0.55-0.44,1-1,1l0,0C-205.81,247.489-206.26,247.039-206.26,246.489z
			 M-214.26,246.489c0-0.55,0.45-1,1-1l0,0c0.55,0,1,0.45,1,1l0,0c0,0.55-0.45,1-1,1l0,0
			C-213.81,247.489-214.26,247.039-214.26,246.489z M-222.26,246.489c0-0.55,0.45-1,1-1l0,0c0.55,0,1,0.45,1,1l0,0
			c0,0.55-0.45,1-1,1l0,0C-221.81,247.489-222.26,247.039-222.26,246.489z M-230.26,246.489c0-0.55,0.45-1,1-1l0,0
			c0.56,0,1,0.45,1,1l0,0c0,0.55-0.44,1-1,1l0,0C-229.81,247.489-230.26,247.039-230.26,246.489z M-238.26,246.489
			c0-0.55,0.45-1,1-1l0,0c0.55,0,1,0.45,1,1l0,0c0,0.55-0.45,1-1,1l0,0C-237.81,247.489-238.26,247.039-238.26,246.489z
			 M-246.26,246.489c0-0.55,0.45-1,1-1l0,0c0.55,0,1,0.45,1,1l0,0c0,0.55-0.45,1-1,1l0,0
			C-245.81,247.489-246.26,247.039-246.26,246.489z M-254.26,246.489c0-0.55,0.45-1,1-1l0,0c0.56,0,1,0.45,1,1l0,0
			c0,0.55-0.44,1-1,1l0,0C-253.81,247.489-254.26,247.039-254.26,246.489z M-262.26,246.489c0-0.55,0.45-1,1-1l0,0
			c0.56,0,1,0.45,1,1l0,0c0,0.55-0.44,1-1,1l0,0C-261.81,247.489-262.26,247.039-262.26,246.489z M-270.26,246.489
			c0-0.55,0.45-1,1-1l0,0c0.55,0,1,0.45,1,1l0,0c0,0.55-0.45,1-1,1l0,0C-269.81,247.489-270.26,247.039-270.26,246.489z
			 M-278.26,246.489c0-0.55,0.45-1,1-1l0,0c0.55,0,1,0.45,1,1l0,0c0,0.55-0.45,1-1,1l0,0
			C-277.81,247.489-278.26,247.039-278.26,246.489z M-286.26,246.489c0-0.55,0.45-1,1-1l0,0c0.56,0,1,0.45,1,1l0,0
			c0,0.55-0.44,1-1,1l0,0C-285.81,247.489-286.26,247.039-286.26,246.489z M-294.26,246.489c0-0.55,0.45-1,1-1l0,0
			c0.55,0,1,0.45,1,1l0,0c0,0.55-0.45,1-1,1l0,0C-293.81,247.489-294.26,247.039-294.26,246.489z M-302.26,246.489
			c0-0.55,0.45-1,1-1l0,0c0.55,0,1,0.45,1,1l0,0c0,0.55-0.45,1-1,1l0,0C-301.81,247.489-302.26,247.039-302.26,246.489z
			 M-310.26,246.489c0-0.55,0.45-1,1-1l0,0c0.56,0,1,0.45,1,1l0,0c0,0.55-0.44,1-1,1l0,0
			C-309.81,247.489-310.26,247.039-310.26,246.489z M-318.26,246.489c0-0.55,0.45-1,1-1l0,0c0.56,0,1,0.45,1,1l0,0
			c0,0.55-0.44,1-1,1l0,0C-317.81,247.489-318.26,247.039-318.26,246.489z M-326.26,246.489c0-0.55,0.45-1,1-1l0,0
			c0.55,0,1,0.45,1,1l0,0c0,0.55-0.45,1-1,1l0,0C-325.81,247.489-326.26,247.039-326.26,246.489z M-334.26,246.489
			c0-0.55,0.45-1,1-1l0,0c0.55,0,1,0.45,1,1l0,0c0,0.55-0.45,1-1,1l0,0C-333.81,247.489-334.26,247.039-334.26,246.489z
			 M-342.26,246.489c0-0.55,0.45-1,1-1l0,0c0.56,0,1,0.45,1,1l0,0c0,0.55-0.44,1-1,1l0,0
			C-341.81,247.489-342.26,247.039-342.26,246.489z M-347.87,242.089c-0.05-0.55,0.35-1.04,0.9-1.1l0,0
			c0.55-0.05,1.03,0.35,1.09,0.9l0,0c0.05,0.55-0.35,1.04-0.9,1.09l0,0c-0.03,0.01-0.06,0.01-0.1,0.01l0,0
			C-347.39,242.989-347.82,242.599-347.87,242.089z M-347.899,233.989c0-0.55,0.45-1,1-1l0,0c0.55,0,1,0.45,1,1l0,0
			c0,0.55-0.45,1-1,1l0,0C-347.45,234.989-347.899,234.539-347.899,233.989z"/>
	</g>
	<g>
		<path class="st1" d="M-347.899,327.639c0-0.55,0.45-1,1-1l0,0c0.55,0,1,0.45,1,1l0,0c0,0.55-0.45,1-1,1l0,0
			C-347.45,328.639-347.899,328.189-347.899,327.639z M-346.939,320.639c-0.55-0.02-0.98-0.49-0.95-1.04l0,0
			c0.02-0.55,0.49-0.98,1.04-0.96l0,0c0.55,0.02,0.98,0.49,0.95,1.04l0,0c-0.02,0.54-0.46,0.96-1,0.96l0,0
			C-346.91,320.639-346.919,320.639-346.939,320.639z M-158.54,314.849c0-0.55,0.44-0.99,1-0.99l0,0c0.55,0,1,0.44,1,0.99l0,0
			c0,0.56-0.45,1-1,1l0,0C-158.1,315.849-158.54,315.409-158.54,314.849z M-166.54,314.849c0-0.55,0.44-0.99,1-0.99l0,0
			c0.55,0,1,0.44,1,0.99l0,0c0,0.56-0.45,1-1,1l0,0C-166.1,315.849-166.54,315.409-166.54,314.849z M-174.54,314.849
			c0-0.55,0.44-0.99,1-0.99l0,0c0.55,0,1,0.44,1,0.99l0,0c0,0.56-0.45,1-1,1l0,0C-174.1,315.849-174.54,315.409-174.54,314.849z
			 M-182.54,314.849c0-0.55,0.45-0.99,1-0.99l0,0c0.55,0,1,0.44,1,0.99l0,0c0,0.56-0.45,1-1,1l0,0
			C-182.089,315.849-182.54,315.409-182.54,314.849z M-190.54,314.849c0-0.55,0.44-0.99,1-0.99l0,0c0.55,0,1,0.44,1,0.99l0,0
			c0,0.56-0.45,1-1,1l0,0C-190.1,315.849-190.54,315.409-190.54,314.849z M-198.54,314.849c0-0.55,0.44-0.99,1-0.99l0,0
			c0.55,0,1,0.44,1,0.99l0,0c0,0.56-0.45,1-1,1l0,0C-198.1,315.849-198.54,315.409-198.54,314.849z M-206.54,314.849
			c0-0.55,0.44-0.99,1-0.99l0,0c0.55,0,1,0.44,1,0.99l0,0c0,0.56-0.45,1-1,1l0,0C-206.1,315.849-206.54,315.409-206.54,314.849z
			 M-214.54,314.849c0-0.55,0.45-0.99,1-0.99l0,0c0.55,0,1,0.44,1,0.99l0,0c0,0.56-0.45,1-1,1l0,0
			C-214.089,315.849-214.54,315.409-214.54,314.849z M-222.54,314.849c0-0.55,0.44-0.99,1-0.99l0,0c0.55,0,1,0.44,1,0.99l0,0
			c0,0.56-0.45,1-1,1l0,0C-222.1,315.849-222.54,315.409-222.54,314.849z M-230.54,314.849c0-0.55,0.44-0.99,1-0.99l0,0
			c0.55,0,1,0.44,1,0.99l0,0c0,0.56-0.45,1-1,1l0,0C-230.1,315.849-230.54,315.409-230.54,314.849z M-238.54,314.849
			c0-0.55,0.44-0.99,1-0.99l0,0c0.55,0,1,0.44,1,0.99l0,0c0,0.56-0.45,1-1,1l0,0C-238.1,315.849-238.54,315.409-238.54,314.849z
			 M-246.54,314.849c0-0.55,0.45-0.99,1-0.99l0,0c0.55,0,1,0.44,1,0.99l0,0c0,0.56-0.45,1-1,1l0,0
			C-246.089,315.849-246.54,315.409-246.54,314.849z M-254.54,314.849c0-0.55,0.44-0.99,1-0.99l0,0c0.55,0,1,0.44,1,0.99l0,0
			c0,0.56-0.45,1-1,1l0,0C-254.1,315.849-254.54,315.409-254.54,314.849z M-262.54,314.849c0-0.55,0.44-0.99,1-0.99l0,0
			c0.55,0,1,0.44,1,0.99l0,0c0,0.56-0.45,1-1,1l0,0C-262.1,315.849-262.54,315.409-262.54,314.849z M-270.54,314.849
			c0-0.55,0.44-0.99,1-0.99l0,0c0.55,0,1,0.44,1,0.99l0,0c0,0.56-0.45,1-1,1l0,0C-270.1,315.849-270.54,315.409-270.54,314.849z
			 M-278.54,314.849c0-0.55,0.45-0.99,1-0.99l0,0c0.55,0,1,0.44,1,0.99l0,0c0,0.56-0.45,1-1,1l0,0
			C-278.089,315.849-278.54,315.409-278.54,314.849z M-286.54,314.849c0-0.55,0.44-0.99,1-0.99l0,0c0.55,0,1,0.44,1,0.99l0,0
			c0,0.56-0.45,1-1,1l0,0C-286.1,315.849-286.54,315.409-286.54,314.849z M-294.54,314.849c0-0.55,0.44-0.99,1-0.99l0,0
			c0.55,0,1,0.44,1,0.99l0,0c0,0.56-0.45,1-1,1l0,0C-294.1,315.849-294.54,315.409-294.54,314.849z M-302.54,314.849
			c0-0.55,0.44-0.99,1-0.99l0,0c0.55,0,1,0.44,1,0.99l0,0c0,0.56-0.45,1-1,1l0,0C-302.1,315.849-302.54,315.409-302.54,314.849z
			 M-310.54,314.849c0-0.55,0.45-0.99,1-0.99l0,0c0.55,0,1,0.44,1,0.99l0,0c0,0.56-0.45,1-1,1l0,0
			C-310.089,315.849-310.54,315.409-310.54,314.849z M-318.54,314.849c0-0.55,0.44-0.99,1-0.99l0,0c0.55,0,1,0.44,1,0.99l0,0
			c0,0.56-0.45,1-1,1l0,0C-318.1,315.849-318.54,315.409-318.54,314.849z M-326.54,314.849c0-0.55,0.44-0.99,1-0.99l0,0
			c0.55,0,1,0.44,1,0.99l0,0c0,0.56-0.45,1-1,1l0,0C-326.1,315.849-326.54,315.409-326.54,314.849z M-334.54,314.849
			c0-0.55,0.44-0.99,1-0.99l0,0c0.55,0,1,0.44,1,0.99l0,0c0,0.56-0.45,1-1,1l0,0C-334.1,315.849-334.54,315.409-334.54,314.849z
			 M-342.54,314.849c0-0.55,0.45-0.99,1-0.99l0,0c0.55,0,1,0.44,1,0.99l0,0c0,0.56-0.45,1-1,1l0,0
			C-342.089,315.849-342.54,315.409-342.54,314.849z M-152.02,311.349c-0.55-0.06-0.95-0.55-0.9-1.1l0,0
			c0.05-0.55,0.54-0.95,1.09-0.89l0,0c0.55,0.05,0.95,0.54,0.9,1.09l0,0c-0.05,0.52-0.49,0.9-0.99,0.9l0,0
			C-151.959,311.349-151.99,311.349-152.02,311.349z M-152.899,302.349c0-0.55,0.45-1,1-1l0,0c0.55,0,1,0.45,1,1l0,0
			c0,0.56-0.45,1-1,1l0,0C-152.45,303.349-152.899,302.909-152.899,302.349z"/>
	</g>
	<g>
		<path class="st2" d="M-347.269,217.379v-8.916l-1.713,1.809l-0.8-0.816l2.673-2.753h1.168v10.676
			C-345.941,217.379-347.269,217.379-347.269,217.379z"/>
	</g>
	<g>
		<path class="st2" d="M-318.637,212.049c0-3.153,2.129-5.522,5.298-5.522c3.153,0,5.298,2.369,5.298,5.522
			c0,1.584-0.544,2.961-1.473,3.938l1.024,1.088l-0.928,0.8l-1.041-1.104c-0.8,0.512-1.777,0.8-2.881,0.8
			C-316.508,217.571-318.637,215.202-318.637,212.049z M-311.306,215.842l-1.521-1.648l0.929-0.785l1.504,1.633
			c0.625-0.769,0.977-1.809,0.977-2.993c0-2.497-1.537-4.338-3.922-4.338c-2.401,0-3.921,1.841-3.921,4.338
			c0,2.481,1.521,4.338,3.921,4.338C-312.571,216.386-311.882,216.194-311.306,215.842z"/>
		<path class="st2" d="M-300.795,217.379v-1.089c-0.592,0.672-1.601,1.28-2.753,1.28c-1.617,0-2.465-0.784-2.465-2.465v-5.458h1.2
			v5.09c0,1.361,0.688,1.761,1.729,1.761c0.944,0,1.84-0.544,2.289-1.168v-5.682h1.201v7.731
			C-299.594,217.379-300.795,217.379-300.795,217.379z"/>
		<path class="st2" d="M-297.646,213.505c0-2.241,1.601-4.05,3.81-4.05c2.337,0,3.713,1.825,3.713,4.146v0.304h-6.259
			c0.096,1.457,1.121,2.673,2.785,2.673c0.88,0,1.777-0.352,2.385-0.977l0.576,0.785c-0.769,0.768-1.809,1.184-3.073,1.184
			C-295.997,217.571-297.646,215.922-297.646,213.505z M-293.852,210.448c-1.649,0-2.465,1.393-2.529,2.577h5.074
			C-291.323,211.872-292.091,210.448-293.852,210.448z"/>
		<path class="st2" d="M-288.862,216.354l0.624-0.864c0.512,0.592,1.489,1.104,2.545,1.104c1.185,0,1.825-0.561,1.825-1.329
			c0-1.873-4.786-0.72-4.786-3.585c0-1.201,1.041-2.225,2.881-2.225c1.312,0,2.241,0.497,2.865,1.121l-0.56,0.833
			c-0.464-0.561-1.312-0.977-2.305-0.977c-1.057,0-1.713,0.528-1.713,1.216c0,1.697,4.786,0.576,4.786,3.585
			c0,1.297-1.041,2.337-3.042,2.337C-287.005,217.571-288.078,217.187-288.862,216.354z"/>
		<path class="st2" d="M-280.51,215.762v-5.058h-1.28v-1.056h1.28v-2.113h1.201v2.113h1.568v1.056h-1.568v4.802
			c0,0.576,0.256,0.992,0.784,0.992c0.336,0,0.656-0.144,0.816-0.32l0.352,0.896c-0.304,0.288-0.736,0.496-1.44,0.496
			C-279.934,217.571-280.51,216.914-280.51,215.762z"/>
		<path class="st2" d="M-276.254,207.743c0-0.448,0.368-0.816,0.801-0.816c0.448,0,0.816,0.368,0.816,0.816s-0.368,0.8-0.816,0.8
			C-275.886,208.543-276.254,208.191-276.254,207.743z M-276.045,217.379v-7.731h1.2v7.731H-276.045z"/>
		<path class="st2" d="M-272.894,213.505c0-2.241,1.473-4.05,3.825-4.05c2.353,0,3.826,1.809,3.826,4.05
			c0,2.241-1.473,4.065-3.826,4.065C-271.421,217.571-272.894,215.746-272.894,213.505z M-266.508,213.505
			c0-1.569-0.912-2.977-2.561-2.977c-1.648,0-2.577,1.408-2.577,2.977c0,1.584,0.928,2.993,2.577,2.993
			S-266.508,215.09-266.508,213.505z"/>
		<path class="st2" d="M-258.076,217.379v-5.058c0-1.36-0.688-1.792-1.729-1.792c-0.944,0-1.841,0.576-2.289,1.2v5.65h-1.2v-7.731
			h1.2v1.12c0.544-0.64,1.601-1.312,2.753-1.312c1.616,0,2.465,0.816,2.465,2.497v5.426H-258.076z"/>
		<path class="st2" d="M-249.26,217.379v-5.058c0-1.36-0.688-1.792-1.729-1.792c-0.944,0-1.841,0.576-2.289,1.2v5.65h-1.2v-7.731
			h1.2v1.12c0.544-0.64,1.601-1.312,2.753-1.312c1.616,0,2.465,0.816,2.465,2.497v5.426H-249.26z"/>
		<path class="st2" d="M-240.828,217.379v-0.88c-0.641,0.704-1.521,1.072-2.561,1.072c-1.313,0-2.706-0.88-2.706-2.561
			c0-1.729,1.393-2.545,2.706-2.545c1.056,0,1.937,0.336,2.561,1.057v-1.393c0-1.041-0.833-1.633-1.953-1.633
			c-0.928,0-1.681,0.336-2.369,1.072l-0.561-0.832c0.833-0.864,1.825-1.281,3.089-1.281c1.633,0,2.993,0.736,2.993,2.609v5.314
			h-1.199V217.379z M-240.828,215.746v-1.457c-0.464-0.64-1.281-0.96-2.129-0.96c-1.121,0-1.905,0.705-1.905,1.697
			c0,0.977,0.784,1.681,1.905,1.681C-242.109,216.706-241.292,216.386-240.828,215.746z"/>
		<path class="st2" d="M-237.438,207.743c0-0.448,0.368-0.816,0.801-0.816c0.448,0,0.816,0.368,0.816,0.816s-0.368,0.8-0.816,0.8
			C-237.07,208.543-237.438,208.191-237.438,207.743z M-237.23,217.379v-7.731h1.2v7.731H-237.23z"/>
		<path class="st2" d="M-233.63,217.379v-7.731h1.2v1.249c0.625-0.816,1.521-1.409,2.577-1.409v1.232
			c-0.144-0.032-0.288-0.048-0.48-0.048c-0.736,0-1.745,0.608-2.097,1.232v5.474h-1.2V217.379z"/>
		<path class="st2" d="M-228.799,213.505c0-2.241,1.601-4.05,3.81-4.05c2.337,0,3.713,1.825,3.713,4.146v0.304h-6.259
			c0.096,1.457,1.121,2.673,2.785,2.673c0.88,0,1.777-0.352,2.385-0.977l0.576,0.785c-0.769,0.768-1.809,1.184-3.073,1.184
			C-227.15,217.571-228.799,215.922-228.799,213.505z M-225.005,210.448c-1.649,0-2.465,1.393-2.529,2.577h5.074
			C-222.477,211.872-223.245,210.448-225.005,210.448z"/>
	</g>
	<g>
		<g>
			<path class="st1" d="M-154.907,285.379v-1.057c3.842-3.025,5.922-4.802,5.922-6.643c0-1.36-1.12-1.953-2.225-1.953
				c-1.281,0-2.273,0.544-2.897,1.345l-0.816-0.849c0.816-1.072,2.209-1.681,3.714-1.681c1.776,0,3.585,1.008,3.585,3.137
				c0,2.177-2.209,4.162-5.186,6.515h5.234v1.185h-7.331V285.379z"/>
		</g>
		<g>
			<path class="st1" d="M-288.797,285.379v-10.677h4.754c1.857,0,2.993,1.121,2.993,2.721c0,1.344-0.896,2.241-1.873,2.449
				c1.136,0.176,2.081,1.345,2.081,2.625c0,1.713-1.136,2.881-3.089,2.881h-4.866V285.379z M-282.427,277.615
				c0-0.96-0.64-1.729-1.841-1.729h-3.201v3.441h3.201C-283.067,279.328-282.427,278.592-282.427,277.615z M-282.219,282.353
				c0-0.976-0.672-1.841-1.985-1.841h-3.265v3.682h3.265C-282.955,284.194-282.219,283.49-282.219,282.353z"/>
			<path class="st1" d="M-273.563,285.379v-1.089c-0.592,0.672-1.601,1.28-2.753,1.28c-1.617,0-2.465-0.784-2.465-2.465v-5.458h1.2
				v5.09c0,1.361,0.688,1.761,1.729,1.761c0.944,0,1.84-0.544,2.289-1.168v-5.682h1.201v7.731
				C-272.362,285.379-273.563,285.379-273.563,285.379z"/>
			<path class="st1" d="M-270.638,284.354l0.624-0.864c0.512,0.592,1.489,1.104,2.545,1.104c1.185,0,1.825-0.561,1.825-1.329
				c0-1.873-4.786-0.72-4.786-3.585c0-1.201,1.041-2.225,2.881-2.225c1.312,0,2.241,0.497,2.865,1.121l-0.56,0.833
				c-0.464-0.561-1.312-0.977-2.305-0.977c-1.057,0-1.713,0.528-1.713,1.216c0,1.697,4.786,0.576,4.786,3.585
				c0,1.297-1.041,2.337-3.042,2.337C-268.781,285.571-269.854,285.187-270.638,284.354z"/>
			<path class="st1" d="M-262.734,275.743c0-0.448,0.368-0.816,0.801-0.816c0.448,0,0.816,0.368,0.816,0.816
				c0,0.448-0.368,0.8-0.816,0.8C-262.366,276.543-262.734,276.191-262.734,275.743z M-262.525,285.379v-7.731h1.2v7.731H-262.525z"
				/>
			<path class="st1" d="M-253.708,285.379v-5.058c0-1.36-0.688-1.792-1.729-1.792c-0.944,0-1.841,0.576-2.289,1.2v5.65h-1.2v-7.731
				h1.2v1.12c0.544-0.64,1.601-1.312,2.753-1.312c1.616,0,2.465,0.816,2.465,2.497v5.426
				C-252.508,285.379-253.708,285.379-253.708,285.379z"/>
			<path class="st1" d="M-250.558,281.505c0-2.241,1.601-4.05,3.81-4.05c2.337,0,3.713,1.825,3.713,4.146v0.304h-6.259
				c0.096,1.457,1.121,2.673,2.785,2.673c0.88,0,1.777-0.352,2.385-0.977l0.576,0.785c-0.769,0.768-1.809,1.184-3.073,1.184
				C-248.91,285.571-250.558,283.922-250.558,281.505z M-246.765,278.448c-1.649,0-2.465,1.393-2.529,2.577h5.074
				C-244.236,279.872-245.004,278.448-246.765,278.448z"/>
			<path class="st1" d="M-241.774,284.354l0.624-0.864c0.512,0.592,1.489,1.104,2.545,1.104c1.185,0,1.825-0.561,1.825-1.329
				c0-1.873-4.786-0.72-4.786-3.585c0-1.201,1.041-2.225,2.881-2.225c1.312,0,2.241,0.497,2.865,1.121l-0.56,0.833
				c-0.464-0.561-1.312-0.977-2.305-0.977c-1.057,0-1.713,0.528-1.713,1.216c0,1.697,4.786,0.576,4.786,3.585
				c0,1.297-1.041,2.337-3.041,2.337C-239.918,285.571-240.99,285.187-241.774,284.354z"/>
			<path class="st1" d="M-234.334,284.354l0.624-0.864c0.512,0.592,1.489,1.104,2.545,1.104c1.185,0,1.825-0.561,1.825-1.329
				c0-1.873-4.786-0.72-4.786-3.585c0-1.201,1.041-2.225,2.881-2.225c1.312,0,2.241,0.497,2.865,1.121l-0.56,0.833
				c-0.464-0.561-1.312-0.977-2.305-0.977c-1.057,0-1.713,0.528-1.713,1.216c0,1.697,4.786,0.576,4.786,3.585
				c0,1.297-1.041,2.337-3.042,2.337C-232.478,285.571-233.55,285.187-234.334,284.354z"/>
			<path class="st1" d="M-222.046,285.379v-10.677h4.29c2.145,0,3.346,1.473,3.346,3.217s-1.233,3.217-3.346,3.217h-2.961v4.242
				h-1.329V285.379z M-215.788,277.92c0-1.201-0.864-2.033-2.128-2.033h-2.801v4.065h2.801
				C-216.652,279.952-215.788,279.12-215.788,277.92z"/>
			<path class="st1" d="M-212.702,285.379v-7.731h1.2v1.249c0.625-0.816,1.521-1.409,2.577-1.409v1.232
				c-0.144-0.032-0.288-0.048-0.48-0.048c-0.736,0-1.745,0.608-2.097,1.232v5.474h-1.2V285.379z"/>
			<path class="st1" d="M-207.871,281.505c0-2.241,1.473-4.05,3.825-4.05c2.353,0,3.826,1.809,3.826,4.05
				c0,2.241-1.473,4.065-3.826,4.065C-206.398,285.571-207.871,283.746-207.871,281.505z M-201.484,281.505
				c0-1.569-0.912-2.977-2.561-2.977c-1.648,0-2.577,1.408-2.577,2.977c0,1.584,0.928,2.993,2.577,2.993
				S-201.484,283.09-201.484,281.505z"/>
			<path class="st1" d="M-197.935,285.379v-6.675h-1.281v-1.056h1.281v-0.592c0-1.601,0.896-2.513,2.241-2.513
				c0.448,0,0.865,0.08,1.168,0.272l-0.304,0.913c-0.176-0.112-0.384-0.192-0.688-0.192c-0.784,0-1.216,0.544-1.216,1.521v0.592
				h1.568v1.056h-1.568v6.675h-1.201V285.379z M-193.949,275.743c0-0.448,0.368-0.816,0.8-0.816c0.448,0,0.816,0.368,0.816,0.816
				c0,0.448-0.368,0.8-0.816,0.8C-193.581,276.543-193.949,276.191-193.949,275.743z M-193.741,285.379v-7.731h1.2v7.731H-193.741z"
				/>
			<path class="st1" d="M-190.127,285.379v-10.677h1.2v10.676h-1.2V285.379z"/>
			<path class="st1" d="M-186.976,281.505c0-2.241,1.601-4.05,3.81-4.05c2.337,0,3.713,1.825,3.713,4.146v0.304h-6.259
				c0.096,1.457,1.121,2.673,2.785,2.673c0.88,0,1.777-0.352,2.385-0.977l0.576,0.785c-0.769,0.768-1.809,1.184-3.073,1.184
				C-185.327,285.571-186.976,283.922-186.976,281.505z M-183.182,278.448c-1.649,0-2.465,1.393-2.529,2.577h5.074
				C-180.653,279.872-181.421,278.448-183.182,278.448z"/>
		</g>
	</g>
	<g>
		<g>
			<path class="st1" d="M-318.034,353.379v-10.676h4.29c2.145,0,3.346,1.473,3.346,3.217c0,1.744-1.233,3.217-3.346,3.217h-2.961
				v4.242H-318.034z M-311.776,345.92c0-1.201-0.864-2.033-2.128-2.033h-2.801v4.065h2.801
				C-312.64,347.952-311.776,347.12-311.776,345.92z"/>
			<path class="st1" d="M-304.176,353.379v-0.88c-0.641,0.704-1.521,1.072-2.561,1.072c-1.313,0-2.706-0.88-2.706-2.561
				c0-1.729,1.393-2.545,2.706-2.545c1.056,0,1.937,0.336,2.561,1.057v-1.393c0-1.041-0.833-1.633-1.953-1.633
				c-0.928,0-1.681,0.336-2.369,1.072l-0.561-0.832c0.833-0.864,1.825-1.281,3.089-1.281c1.633,0,2.993,0.736,2.993,2.609v5.314
				h-1.199V353.379z M-304.176,351.746v-1.457c-0.464-0.64-1.281-0.96-2.129-0.96c-1.121,0-1.905,0.705-1.905,1.697
				c0,0.977,0.784,1.681,1.905,1.681C-305.457,352.706-304.64,352.386-304.176,351.746z"/>
			<path class="st1" d="M-300.818,355.316c0.176,0.079,0.464,0.128,0.656,0.128c0.528,0,0.88-0.177,1.152-0.817l0.512-1.168
				l-3.233-7.811h1.297l2.577,6.338l2.561-6.338h1.312l-3.874,9.3c-0.464,1.121-1.249,1.552-2.273,1.569
				c-0.256,0-0.656-0.048-0.88-0.112L-300.818,355.316z"/>
			<path class="st1" d="M-293.187,349.505c0-2.241,1.473-4.05,3.825-4.05c2.353,0,3.826,1.809,3.826,4.05s-1.473,4.065-3.826,4.065
				C-291.714,353.571-293.187,351.746-293.187,349.505z M-286.8,349.505c0-1.569-0.912-2.977-2.561-2.977
				c-1.648,0-2.577,1.408-2.577,2.977c0,1.584,0.928,2.993,2.577,2.993C-287.712,352.498-286.8,351.09-286.8,349.505z"/>
			<path class="st1" d="M-278.369,353.379v-1.088c-0.592,0.672-1.601,1.28-2.753,1.28c-1.617,0-2.465-0.784-2.465-2.465v-5.458h1.2
				v5.09c0,1.361,0.688,1.761,1.729,1.761c0.944,0,1.84-0.544,2.289-1.168v-5.682h1.201v7.731h-1.201V353.379z"/>
			<path class="st1" d="M-274.531,351.762v-5.058h-1.28v-1.056h1.28v-2.113h1.201v2.113h1.568v1.056h-1.568v4.802
				c0,0.576,0.256,0.992,0.784,0.992c0.336,0,0.656-0.144,0.816-0.32l0.352,0.896c-0.304,0.288-0.736,0.496-1.44,0.496
				C-273.955,353.571-274.531,352.914-274.531,351.762z"/>
			<path class="st1" d="M-266.531,351.874l0.784-1.009c0.704,0.785,1.857,1.521,3.361,1.521c1.905,0,2.513-1.024,2.513-1.841
				c0-2.753-6.323-1.232-6.323-5.042c0-1.761,1.569-2.961,3.666-2.961c1.633,0,2.897,0.544,3.793,1.489l-0.8,0.976
				c-0.8-0.88-1.921-1.28-3.089-1.28c-1.28,0-2.193,0.688-2.193,1.697c0,2.401,6.323,1.024,6.323,5.01
				c0,1.553-1.057,3.137-3.938,3.137C-264.29,353.571-265.65,352.866-266.531,351.874z"/>
			<path class="st1" d="M-257.011,349.505c0-2.241,1.601-4.05,3.81-4.05c2.337,0,3.713,1.825,3.713,4.146v0.304h-6.259
				c0.096,1.457,1.121,2.673,2.785,2.673c0.88,0,1.777-0.352,2.385-0.977l0.576,0.785c-0.769,0.768-1.809,1.184-3.073,1.184
				C-255.362,353.571-257.011,351.922-257.011,349.505z M-253.217,346.448c-1.649,0-2.465,1.393-2.529,2.577h5.074
				C-250.688,347.872-251.457,346.448-253.217,346.448z"/>
			<path class="st1" d="M-247.315,351.762v-5.058h-1.28v-1.056h1.28v-2.113h1.201v2.113h1.568v1.056h-1.568v4.802
				c0,0.576,0.256,0.992,0.784,0.992c0.336,0,0.656-0.144,0.816-0.32l0.352,0.896c-0.304,0.288-0.736,0.496-1.44,0.496
				C-246.739,353.571-247.315,352.914-247.315,351.762z"/>
			<path class="st1" d="M-242.611,351.762v-5.058h-1.28v-1.056h1.28v-2.113h1.201v2.113h1.568v1.056h-1.568v4.802
				c0,0.576,0.256,0.992,0.784,0.992c0.336,0,0.656-0.144,0.816-0.32l0.352,0.896c-0.304,0.288-0.736,0.496-1.44,0.496
				C-242.035,353.571-242.611,352.914-242.611,351.762z"/>
			<path class="st1" d="M-238.355,343.743c0-0.448,0.368-0.816,0.8-0.816c0.448,0,0.816,0.368,0.816,0.816s-0.368,0.8-0.816,0.8
				C-237.987,344.543-238.355,344.191-238.355,343.743z M-238.146,353.379v-7.731h1.2v7.731H-238.146z"/>
			<path class="st1" d="M-229.329,353.379v-5.058c0-1.36-0.688-1.792-1.729-1.792c-0.944,0-1.841,0.576-2.289,1.2v5.65h-1.2v-7.731
				h1.2v1.12c0.544-0.64,1.601-1.312,2.753-1.312c1.616,0,2.465,0.816,2.465,2.497v5.426L-229.329,353.379L-229.329,353.379z"/>
			<path class="st1" d="M-225.747,355.364l0.608-0.897c0.64,0.769,1.408,1.057,2.513,1.057c1.281,0,2.481-0.625,2.481-2.322v-1.104
				c-0.56,0.784-1.504,1.376-2.593,1.376c-2.017,0-3.441-1.505-3.441-4.002c0-2.481,1.408-4.018,3.441-4.018
				c1.04,0,1.969,0.512,2.593,1.361v-1.168h1.201v7.507c0,2.561-1.793,3.362-3.682,3.362
				C-223.938,356.516-224.835,356.26-225.747,355.364z M-220.145,351.154v-3.377c-0.416-0.672-1.344-1.249-2.305-1.249
				c-1.553,0-2.481,1.232-2.481,2.945c0,1.697,0.928,2.945,2.481,2.945C-221.489,352.418-220.561,351.826-220.145,351.154z"/>
			<path class="st1" d="M-217.219,352.354l0.624-0.864c0.512,0.592,1.489,1.104,2.545,1.104c1.185,0,1.825-0.561,1.825-1.329
				c0-1.873-4.786-0.72-4.786-3.585c0-1.201,1.041-2.225,2.881-2.225c1.312,0,2.241,0.497,2.865,1.121l-0.56,0.833
				c-0.464-0.561-1.312-0.977-2.305-0.977c-1.057,0-1.713,0.528-1.713,1.216c0,1.697,4.786,0.576,4.786,3.585
				c0,1.297-1.041,2.337-3.042,2.337C-215.363,353.571-216.435,353.187-217.219,352.354z"/>
		</g>
		<g>
			<path class="st1" d="M-350.383,351.81l0.784-0.832c0.624,0.832,1.713,1.409,2.977,1.409c1.553,0,2.497-0.769,2.497-2.001
				c0-1.329-1.088-1.889-2.657-1.889c-0.448,0-0.944,0-1.104,0.016v-1.216c0.176,0.016,0.672,0.016,1.104,0.016
				c1.345,0,2.481-0.528,2.481-1.761c0-1.185-1.089-1.825-2.385-1.825c-1.168,0-2.033,0.448-2.817,1.296l-0.736-0.832
				c0.768-0.929,2-1.649,3.649-1.649c2.049,0,3.617,1.041,3.617,2.849c0,1.537-1.296,2.305-2.305,2.481
				c0.977,0.08,2.465,0.913,2.465,2.625c0,1.777-1.424,3.073-3.777,3.073C-348.398,353.571-349.727,352.77-350.383,351.81z"/>
		</g>
	</g>
</g>
</svg>
