<?xml version="1.0" encoding="utf-8"?>
<!-- Generator: Adobe Illustrator 19.1.0, SVG Export Plug-In . SVG Version: 6.00 Build 0)  -->
<svg version="1.1" id="Layer_1" xmlns="http://www.w3.org/2000/svg" xmlns:xlink="http://www.w3.org/1999/xlink" x="0px" y="0px"
	 width="852px" height="92px" viewBox="0 0 852 92" style="enable-background:new 0 0 852 92;" xml:space="preserve">
<style type="text/css">
	.st0{fill:url(#SVGID_1_);}
</style>
<linearGradient id="SVGID_1_" gradientUnits="userSpaceOnUse" x1="0" y1="46" x2="852" y2="46">
	<stop  offset="0" style="stop-color:#7CF78A"/>
	<stop  offset="1" style="stop-color:#47ABED"/>
</linearGradient>
<path class="st0" d="M846,0c-3.119,0-5.681,2.381-5.971,5.424l-128.204,9.159c-0.638-2.628-3-4.583-5.825-4.583
	c-3.261,0-5.909,2.604-5.992,5.845l-128.3,18.308C570.928,31.744,568.669,30,566,30c-3.021,0-5.513,2.234-5.931,5.139l-128.248,9.43
	C431.179,41.948,428.82,40,426,40c-3.119,0-5.681,2.38-5.971,5.423l-128.208,9.148C291.18,51.949,288.82,50,286,50
	c-3.068,0-5.594,2.305-5.952,5.276L151.706,74.15C150.926,71.742,148.668,70,146,70c-2.996,0-5.471,2.198-5.92,5.068l-128.181,9.86
	C11.393,82.127,8.947,80,6,80c-3.314,0-6,2.686-6,6s2.686,6,6,6c2.996,0,5.472-2.198,5.92-5.068l128.181-9.86
	C140.607,79.873,143.053,82,146,82c3.27,0,5.924-2.617,5.993-5.871l128.148-18.845C280.73,59.98,283.127,62,286,62
	c3.123,0,5.686-2.386,5.971-5.435l128.204-9.147c0.638,2.628,3,4.582,5.824,4.582c3.123,0,5.687-2.387,5.971-5.436l128.14-9.422
	C560.645,39.909,563.077,42,566,42c3.269,0,5.922-2.615,5.993-5.867l128.292-18.307C701.058,20.246,703.323,22,706,22
	c3.119,0,5.68-2.38,5.971-5.423l128.205-9.159c0.638,2.628,3,4.581,5.824,4.581c3.314,0,6-2.686,6-6S849.314,0,846,0z M6,90
	c-2.206,0-4-1.794-4-4s1.794-4,4-4s4,1.794,4,4S8.206,90,6,90z M146,80c-2.206,0-4-1.794-4-4s1.794-4,4-4s4,1.794,4,4
	S148.206,80,146,80z M286,60.005c-1.862,0-3.417-1.005-3.861-3.005h0.006L282,56.005c0-2.206,1.794-4.003,4-4.003
	c2.206,0,4,1.795,4,4.001S288.206,60.005,286,60.005z M426,50c-2.206,0-4-1.794-4-4s1.794-4,4-4c2.206,0,4,1.794,4,4
	S428.206,50,426,50z M566,40c-2.206,0-4-1.794-4-4c0-2.206,1.794-4,4-4s4,1.794,4,4C570,38.206,568.206,40,566,40z M706,20
	c-2.206,0-4-1.794-4-4c0-2.206,1.794-4,4-4s4,1.794,4,4C710,18.206,708.206,20,706,20z M846,10c-2.206,0-4-1.794-4-4
	c0-2.206,1.794-4,4-4s4,1.794,4,4C850,8.206,848.206,10,846,10z"/>
</svg>
