<?xml version="1.0" encoding="utf-8"?>
<!-- Generator: Adobe Illustrator 19.1.0, SVG Export Plug-In . SVG Version: 6.00 Build 0)  -->
<svg version="1.1" id="Layer_1" xmlns="http://www.w3.org/2000/svg" xmlns:xlink="http://www.w3.org/1999/xlink" x="0px" y="0px"
	 width="407.218px" height="59.959px" viewBox="174.22 252.992 407.218 59.959"
	 style="enable-background:new 174.22 252.992 407.218 59.959;" xml:space="preserve">
<style type="text/css">
	.st0{opacity:0.2;fill:#F24C3E;}
	.st1{opacity:0;fill:#F24C3E;}
	.st2{opacity:0.5;fill:#00CC86;}
	.st3{opacity:0.3;fill:#00CC86;}
	.st4{fill:#F24C3E;}
	.st5{fill:#00CC86;}
	.st6{fill:#0094DE;}
	.st7{fill:#F2D230;}
	.st8{fill:#666C80;}
	.st9{fill:#1F2B3A;}
	.st10{fill:#324451;}
	.st11{fill:#525766;}
	.st12{opacity:0.3;fill:#0094DE;}
	.st13{fill:#1F2B3B;}
</style>
<g>
	<g>
		<rect x="190.282" y="268.99" class="st4" width="28" height="28"/>
		<polyline class="st5" points="234.32,252.992 190.22,252.992 182.22,260.992 226.22,260.99 226.22,304.992 234.22,296.992 		"/>
		<polygon class="st6" points="174.22,312.952 218.22,312.952 226.22,304.952 182.22,304.952 		"/>
		<polygon class="st7" points="174.22,312.952 182.22,304.952 182.22,260.949 174.22,268.952 		"/>
	</g>
	<g>
		<path class="st13" d="M256.497,282.95c0-9.225,6.975-15.524,15.974-15.524c6.615,0,10.44,3.6,12.555,7.335l-5.489,2.699
			c-1.261-2.43-3.96-4.364-7.065-4.364c-5.444,0-9.404,4.185-9.404,9.854s3.96,9.854,9.404,9.854c3.105,0,5.805-1.89,7.065-4.364
			l5.489,2.654c-2.16,3.735-5.939,7.38-12.555,7.38C263.472,298.474,256.497,292.174,256.497,282.95z"/>
		<path class="st13" d="M288.221,287.044c0-6.165,4.32-11.385,11.475-11.385c7.2,0,11.52,5.22,11.52,11.385
			c0,6.21-4.319,11.43-11.52,11.43C292.541,298.474,288.221,293.254,288.221,287.044z M305.275,287.044c0-3.375-2.024-6.3-5.58-6.3
			c-3.555,0-5.534,2.925-5.534,6.3c0,3.42,1.979,6.345,5.534,6.345C303.251,293.389,305.275,290.464,305.275,287.044z"/>
		<path class="st13" d="M343.3,297.934v-13.725c0-2.024-0.9-3.465-3.24-3.465c-2.024,0-3.689,1.35-4.5,2.521v14.669h-5.76v-13.725
			c0-2.024-0.899-3.465-3.239-3.465c-1.98,0-3.646,1.35-4.5,2.565v14.624h-5.715V276.2h5.715v2.835
			c0.899-1.305,3.779-3.375,7.109-3.375c3.195,0,5.22,1.485,6.03,3.96c1.26-1.979,4.14-3.96,7.47-3.96c4.005,0,6.39,2.115,6.39,6.57
			v15.704H343.3z"/>
		<path class="st13" d="M382.54,297.934v-13.725c0-2.024-0.9-3.465-3.24-3.465c-2.024,0-3.689,1.35-4.5,2.521v14.669h-5.76v-13.725
			c0-2.024-0.899-3.465-3.239-3.465c-1.98,0-3.646,1.35-4.5,2.565v14.624h-5.715V276.2h5.715v2.835
			c0.899-1.305,3.779-3.375,7.109-3.375c3.195,0,5.22,1.485,6.03,3.96c1.26-1.979,4.14-3.96,7.47-3.96c4.005,0,6.39,2.115,6.39,6.57
			v15.704H382.54z"/>
		<path class="st13" d="M393.43,287.044c0-6.3,4.636-11.385,11.25-11.385c6.479,0,10.89,4.86,10.89,11.97v1.26h-16.154
			c0.36,2.745,2.564,5.04,6.255,5.04c1.845,0,4.409-0.81,5.805-2.16l2.52,3.69c-2.16,1.979-5.579,3.015-8.954,3.015
			C398.425,298.474,393.43,294.019,393.43,287.044z M404.68,280.204c-3.555,0-5.085,2.655-5.354,4.815h10.709
			C409.899,282.95,408.46,280.204,404.68,280.204z"/>
		<path class="st13" d="M420.61,297.934V276.2h5.715v2.97c1.53-1.935,4.229-3.51,6.93-3.51v5.58
			c-0.405-0.09-0.945-0.135-1.575-0.135c-1.89,0-4.41,1.08-5.354,2.475v14.354H420.61z"/>
		<path class="st13" d="M435.414,287.044c0-6.659,4.815-11.385,11.52-11.385c4.455,0,7.155,1.936,8.595,3.915l-3.734,3.51
			c-1.035-1.529-2.61-2.34-4.59-2.34c-3.465,0-5.895,2.521-5.895,6.3c0,3.78,2.43,6.345,5.895,6.345c1.979,0,3.555-0.899,4.59-2.34
			l3.734,3.465c-1.439,2.025-4.14,3.96-8.595,3.96C440.229,298.474,435.414,293.749,435.414,287.044z"/>
		<path class="st13" d="M458.77,287.044c0-6.3,4.635-11.385,11.249-11.385c6.479,0,10.89,4.86,10.89,11.97v1.26h-16.154
			c0.36,2.745,2.564,5.04,6.255,5.04c1.845,0,4.409-0.81,5.805-2.16l2.52,3.69c-2.16,1.979-5.579,3.015-8.954,3.015
			C463.764,298.474,458.77,294.019,458.77,287.044z M470.019,280.204c-3.555,0-5.085,2.655-5.354,4.815h10.709
			C475.238,282.95,473.799,280.204,470.019,280.204z"/>
		<path class="st13" d="M484.644,282.95c0-9.494,7.199-15.524,15.974-15.524c6.255,0,10.17,3.149,12.42,6.705l-5.31,2.88
			c-1.351-2.115-3.915-3.915-7.11-3.915c-5.444,0-9.404,4.185-9.404,9.854s3.96,9.854,9.404,9.854c2.655,0,5.175-1.17,6.39-2.295
			v-3.6h-7.919v-5.58h14.31v11.52c-3.061,3.42-7.335,5.67-12.78,5.67C491.843,298.519,484.644,292.399,484.644,282.95z"/>
		<path class="st13" d="M532.298,297.934v-2.25c-1.485,1.755-4.05,2.79-6.885,2.79c-3.465,0-7.56-2.34-7.56-7.2
			c0-5.084,4.095-7.02,7.56-7.02c2.88,0,5.444,0.945,6.885,2.655v-2.925c0-2.205-1.891-3.646-4.771-3.646
			c-2.34,0-4.5,0.855-6.345,2.565l-2.159-3.825c2.654-2.34,6.074-3.42,9.494-3.42c4.95,0,9.494,1.98,9.494,8.235v14.039H532.298z
			 M532.298,292.714v-2.7c-0.945-1.26-2.745-1.89-4.59-1.89c-2.25,0-4.095,1.17-4.095,3.285c0,2.024,1.845,3.194,4.095,3.194
			C529.553,294.604,531.353,293.974,532.298,292.714z"/>
		<path class="st13" d="M545.708,292.535v-11.34h-3.6V276.2h3.6v-5.939h5.76v5.939h4.41v4.995h-4.41v9.81
			c0,1.35,0.72,2.385,1.979,2.385c0.855,0,1.665-0.314,1.98-0.63l1.215,4.32c-0.855,0.765-2.385,1.395-4.77,1.395
			C547.868,298.474,545.708,296.404,545.708,292.535z"/>
		<path class="st13" d="M559.299,287.044c0-6.3,4.635-11.385,11.249-11.385c6.479,0,10.89,4.86,10.89,11.97v1.26h-16.154
			c0.36,2.745,2.564,5.04,6.255,5.04c1.845,0,4.409-0.81,5.805-2.16l2.52,3.69c-2.16,1.979-5.579,3.015-8.954,3.015
			C564.293,298.474,559.299,294.019,559.299,287.044z M570.548,280.204c-3.555,0-5.085,2.655-5.354,4.815h10.709
			C575.768,282.95,574.328,280.204,570.548,280.204z"/>
	</g>
</g>
</svg>
