<?xml version="1.0" encoding="utf-8"?>
<!-- Generator: Adobe Illustrator 19.1.0, SVG Export Plug-In . SVG Version: 6.00 Build 0)  -->
<svg version="1.1" id="Layer_1" xmlns="http://www.w3.org/2000/svg" xmlns:xlink="http://www.w3.org/1999/xlink" x="0px" y="0px"
	 width="407.218px" height="59.972px" viewBox="-275 331.013 407.218 59.972"
	 style="enable-background:new -275 331.013 407.218 59.972;" xml:space="preserve">
<style type="text/css">
	.st0{fill:#F24C3E;}
	.st1{fill:#00CC86;}
	.st2{fill:#0094DE;}
	.st3{fill:#F2D230;}
	.st4{fill:#1F2B3B;}
	.st5{fill:#FFFFFF;}
</style>
<g>
	<g>
		<g>
			<path class="st5" d="M-233.938,350.022v22h-22v-22H-233.938 M-230.938,347.022h-28v28h28V347.022L-230.938,347.022z"/>
		</g>
		<g>
			<path class="st5" d="M-267,349.249v30.737v3h3h30.806l-5.001,5H-272v-33.754L-267,349.249 M-264,342.023l-11,10.961v38h38.047
				l11.003-11H-264V342.023L-264,342.023z"/>
		</g>
		<g>
			<path class="st5" d="M-217.95,334.013v33.727l-5,5.001v-30.728v-3h-3h-30.784l5.023-5H-217.95 M-214.95,331.013h-38l-11.05,11
				h38.05v37.972l11-11.003V331.013L-214.95,331.013z"/>
		</g>
	</g>
	<g>
		<path class="st5" d="M-192.723,360.983c0-9.225,6.975-15.524,15.974-15.524c6.615,0,10.44,3.6,12.555,7.335l-5.489,2.699
			c-1.261-2.43-3.96-4.364-7.065-4.364c-5.444,0-9.404,4.185-9.404,9.854s3.96,9.854,9.404,9.854c3.105,0,5.805-1.89,7.065-4.364
			l5.489,2.654c-2.16,3.735-5.939,7.38-12.555,7.38C-185.748,376.507-192.723,370.207-192.723,360.983z"/>
		<path class="st5" d="M-160.999,365.077c0-6.165,4.32-11.385,11.475-11.385c7.2,0,11.52,5.22,11.52,11.385
			c0,6.21-4.319,11.43-11.52,11.43C-156.679,376.507-160.999,371.286-160.999,365.077z M-143.945,365.077
			c0-3.375-2.024-6.3-5.58-6.3c-3.555,0-5.534,2.925-5.534,6.3c0,3.42,1.979,6.345,5.534,6.345
			C-145.969,371.422-143.945,368.496-143.945,365.077z"/>
		<path class="st5" d="M-105.92,375.966v-13.725c0-2.024-0.9-3.465-3.24-3.465c-2.024,0-3.689,1.35-4.5,2.521v14.669h-5.76v-13.725
			c0-2.024-0.899-3.465-3.239-3.465c-1.98,0-3.646,1.35-4.5,2.565v14.624h-5.715v-21.733h5.715v2.835
			c0.899-1.305,3.779-3.375,7.109-3.375c3.195,0,5.22,1.485,6.03,3.96c1.26-1.979,4.14-3.96,7.47-3.96c4.005,0,6.39,2.115,6.39,6.57
			v15.704H-105.92L-105.92,375.966z"/>
		<path class="st5" d="M-66.68,375.966v-13.725c0-2.024-0.9-3.465-3.24-3.465c-2.024,0-3.689,1.35-4.5,2.521v14.669h-5.76v-13.725
			c0-2.024-0.899-3.465-3.239-3.465c-1.98,0-3.646,1.35-4.5,2.565v14.624h-5.715v-21.733h5.715v2.835
			c0.899-1.305,3.779-3.375,7.109-3.375c3.195,0,5.22,1.485,6.03,3.96c1.26-1.979,4.14-3.96,7.47-3.96c4.005,0,6.39,2.115,6.39,6.57
			v15.704H-66.68L-66.68,375.966z"/>
		<path class="st5" d="M-55.79,365.077c0-6.3,4.636-11.385,11.25-11.385c6.479,0,10.89,4.86,10.89,11.97v1.26h-16.154
			c0.36,2.745,2.564,5.04,6.255,5.04c1.845,0,4.409-0.81,5.805-2.16l2.52,3.69c-2.16,1.979-5.579,3.015-8.954,3.015
			C-50.795,376.507-55.79,372.052-55.79,365.077z M-44.54,358.237c-3.555,0-5.085,2.655-5.354,4.815h10.709
			C-39.321,360.983-40.76,358.237-44.54,358.237z"/>
		<path class="st5" d="M-28.61,375.966v-21.734h5.715v2.97c1.53-1.935,4.229-3.51,6.93-3.51v5.58
			c-0.405-0.09-0.945-0.135-1.575-0.135c-1.89,0-4.41,1.08-5.354,2.475v14.354H-28.61z"/>
		<path class="st5" d="M-13.806,365.077c0-6.659,4.815-11.385,11.52-11.385c4.455,0,7.155,1.936,8.595,3.915l-3.734,3.51
			c-1.035-1.529-2.61-2.34-4.59-2.34c-3.465,0-5.895,2.521-5.895,6.3c0,3.78,2.43,6.345,5.895,6.345c1.979,0,3.555-0.899,4.59-2.34
			l3.734,3.465c-1.439,2.025-4.14,3.96-8.595,3.96C-8.991,376.507-13.806,371.781-13.806,365.077z"/>
		<path class="st5" d="M9.55,365.077c0-6.3,4.635-11.385,11.249-11.385c6.479,0,10.89,4.86,10.89,11.97v1.26H15.535
			c0.36,2.745,2.564,5.04,6.255,5.04c1.845,0,4.409-0.81,5.805-2.16l2.52,3.69c-2.16,1.979-5.579,3.015-8.954,3.015
			C14.544,376.507,9.55,372.052,9.55,365.077z M20.799,358.237c-3.555,0-5.085,2.655-5.354,4.815h10.709
			C26.018,360.983,24.579,358.237,20.799,358.237z"/>
		<path class="st5" d="M35.424,360.983c0-9.494,7.199-15.524,15.974-15.524c6.255,0,10.17,3.149,12.42,6.705l-5.31,2.88
			c-1.351-2.115-3.915-3.915-7.11-3.915c-5.444,0-9.404,4.185-9.404,9.854s3.96,9.854,9.404,9.854c2.655,0,5.175-1.17,6.39-2.295
			v-3.6h-7.919v-5.58h14.31v11.52c-3.061,3.42-7.335,5.67-12.78,5.67C42.623,376.552,35.424,370.431,35.424,360.983z"/>
		<path class="st5" d="M83.078,375.966v-2.25c-1.485,1.755-4.05,2.79-6.885,2.79c-3.465,0-7.56-2.34-7.56-7.2
			c0-5.084,4.095-7.02,7.56-7.02c2.88,0,5.444,0.945,6.885,2.655v-2.925c0-2.205-1.891-3.646-4.771-3.646
			c-2.34,0-4.5,0.855-6.345,2.565l-2.159-3.825c2.654-2.34,6.074-3.42,9.494-3.42c4.95,0,9.494,1.98,9.494,8.235v14.039h-5.713
			L83.078,375.966L83.078,375.966z M83.078,370.746v-2.7c-0.945-1.26-2.745-1.89-4.59-1.89c-2.25,0-4.095,1.17-4.095,3.285
			c0,2.024,1.845,3.194,4.095,3.194C80.333,372.637,82.133,372.007,83.078,370.746z"/>
		<path class="st5" d="M96.488,370.568v-11.34h-3.6v-4.995h3.6v-5.939h5.76v5.939h4.41v4.995h-4.41v9.81
			c0,1.35,0.72,2.385,1.979,2.385c0.855,0,1.665-0.314,1.98-0.63l1.215,4.32c-0.855,0.765-2.385,1.395-4.77,1.395
			C98.648,376.507,96.488,374.436,96.488,370.568z"/>
		<path class="st5" d="M110.079,365.077c0-6.3,4.635-11.385,11.249-11.385c6.479,0,10.89,4.86,10.89,11.97v1.26h-16.154
			c0.36,2.745,2.564,5.04,6.255,5.04c1.845,0,4.409-0.81,5.805-2.16l2.52,3.69c-2.16,1.979-5.579,3.015-8.954,3.015
			C115.073,376.507,110.079,372.052,110.079,365.077z M121.328,358.237c-3.555,0-5.085,2.655-5.354,4.815h10.709
			C126.548,360.983,125.108,358.237,121.328,358.237z"/>
	</g>
</g>
</svg>
