<?xml version="1.0" encoding="utf-8"?>
<!-- Generator: Adobe Illustrator 16.0.0, SVG Export Plug-In . SVG Version: 6.00 Build 0)  -->
<!DOCTYPE svg PUBLIC "-//W3C//DTD SVG 1.1//EN" "http://www.w3.org/Graphics/SVG/1.1/DTD/svg11.dtd">
<svg version="1.1" id="Layer_1" xmlns="http://www.w3.org/2000/svg" xmlns:xlink="http://www.w3.org/1999/xlink" x="0px" y="0px"
	 width="700px" height="667.492px" viewBox="0 0 700 667.492" enable-background="new 0 0 700 667.492" xml:space="preserve">
<linearGradient id="SVGID_1_" gradientUnits="userSpaceOnUse" x1="27.3169" y1="1672.6787" x2="27.3169" y2="1744.5771" gradientTransform="matrix(9.2838 0 0 -9.2838 96.405 16196.3066)">
	<stop  offset="0" style="stop-color:#24C7FB"/>
	<stop  offset="1" style="stop-color:#36E6FF"/>
</linearGradient>
<path fill="#fff" d="M0,0v667.492h700V0H0z M674.016,26.021v103.974H25.984V26.021H674.016z M25.984,640.592V143.923
	h647.995v496.669H25.984z M63.146,75.204c0-10.225,8.356-18.581,18.581-18.581c10.226,0,18.582,8.356,18.582,18.581
	c0,10.226-8.356,18.582-18.582,18.582C71.502,93.785,63.146,85.429,63.146,75.204z M120.686,75.204
	c0-10.225,8.356-18.581,18.581-18.581s18.581,8.356,18.581,18.581c0,10.226-8.356,18.582-18.581,18.582
	S120.686,85.429,120.686,75.204z M177.309,75.204c0-10.225,8.356-18.581,18.581-18.581s18.581,8.356,18.581,18.581
	c0,10.226-8.356,18.582-18.581,18.582S177.309,85.429,177.309,75.204z M388.995,223.744l13.01,3.701l-90.963,322.146l-13.011-3.701
	L388.995,223.744z M289.639,272.964L151.325,387.162l138.314,114.199l-8.356,10.226L129.958,387.199l151.325-124.388
	L289.639,272.964z M418.717,262.738l151.325,124.388L418.717,511.514l-8.354-10.227l138.313-114.199L410.361,272.891
	L418.717,262.738z"/>
</svg>
