<?xml version="1.0" encoding="utf-8"?>
<!-- Generator: Adobe Illustrator 16.0.0, SVG Export Plug-In . SVG Version: 6.00 Build 0)  -->
<!DOCTYPE svg PUBLIC "-//W3C//DTD SVG 1.1//EN" "http://www.w3.org/Graphics/SVG/1.1/DTD/svg11.dtd">
<svg version="1.1" id="Layer_1" xmlns="http://www.w3.org/2000/svg" xmlns:xlink="http://www.w3.org/1999/xlink" x="0px" y="0px"
	 width="700px" height="609.696px" viewBox="0 0 700 609.696" enable-background="new 0 0 700 609.696" xml:space="preserve">
<linearGradient id="SVGID_1_" gradientUnits="userSpaceOnUse" x1="30.7729" y1="1653.5015" x2="30.7729" y2="1727.8782" gradientTransform="matrix(8.2063 0 0 -8.2063 97.475 14179.5176)">
	<stop  offset="0" style="stop-color:#24C7FB"/>
	<stop  offset="1" style="stop-color:#36E6FF"/>
</linearGradient>
<path fill="#fff" d="M655.691,238h-31.188V48.414C624.503,21.33,602.33,0,576.089,0H48.414C22.173,0,0,22.172,0,48.414
	v324.162c0,27.084,22.173,48.414,48.414,48.414h163.309l-13.121,91.916h-75.498c-6.56,0-11.471,4.91-11.471,11.471
	s4.911,11.473,11.471,11.473h311.849v29.539c0,24.629,19.681,44.309,44.309,44.309h176.431c24.628,0,44.309-19.68,44.309-44.309
	v-283.08C700,257.681,680.319,238,655.691,238z M22.979,48.414c0-13.963,11.471-25.436,25.435-25.436h526.833
	c13.963,0,25.435,11.471,25.435,25.436v189.549h-120.65c-24.628,0-44.31,19.682-44.31,44.311v45.957H22.979V48.414z M48.414,398.009
	c-13.963,0-25.435-11.471-25.435-25.434v-32.838h411.974v58.271H48.414L48.414,398.009z M222.388,512.906l13.12-91.916h153.45
	l13.12,91.916H222.388z M425.095,512.906l-13.121-91.916h22.979v91.916H425.095z M677.021,565.423c0,11.473-9.859,21.33-21.33,21.33
	H480.068c-11.473,0-21.33-9.857-21.33-21.33V282.308c0-11.471,9.857-21.33,21.33-21.33h176.429c11.472,0,21.33,9.859,21.33,21.33
	v283.115H677.021L677.021,565.423z M481.717,522.763h171.52V289.712h-171.52V522.763z M493.188,301.183h148.539v210.072H493.188
	V301.183z M585.947,554.759c0,9.857-8.209,18.873-18.874,18.873s-18.874-8.209-18.874-18.873c0-9.857,8.209-18.875,18.874-18.875
	S585.947,544.093,585.947,554.759z M96.827,71.392c0,9.016-7.403,16.419-16.419,16.419c-9.016,0-16.418-7.403-16.418-16.419
	s7.403-16.419,16.418-16.419C89.424,54.973,96.827,62.376,96.827,71.392z M148.539,71.392c0,9.016-7.403,16.419-16.418,16.419
	c-9.016,0-16.419-7.403-16.419-16.419s7.403-16.419,16.419-16.419C141.136,55.01,148.539,62.376,148.539,71.392z M199.408,71.392
	c0,9.016-7.403,16.419-16.418,16.419c-9.016,0-16.419-7.403-16.419-16.419s7.403-16.419,16.419-16.419
	C192.005,54.973,199.408,62.376,199.408,71.392z"/>
</svg>
