<?xml version="1.0" encoding="utf-8"?>
<!-- Generator: Adobe Illustrator 18.0.0, SVG Export Plug-In . SVG Version: 6.00 Build 0)  -->
<!DOCTYPE svg PUBLIC "-//W3C//DTD SVG 1.1//EN" "http://www.w3.org/Graphics/SVG/1.1/DTD/svg11.dtd">
<svg version="1.1" id="Layer_1" xmlns="http://www.w3.org/2000/svg" xmlns:xlink="http://www.w3.org/1999/xlink" x="0px" y="0px"
	 viewBox="0 0 31 34.5" enable-background="new 0 0 31 34.5" xml:space="preserve">
<linearGradient id="SVGID_1_" gradientUnits="userSpaceOnUse" x1="15.4783" y1="34.4766" x2="15.4783" y2="0">
	<stop  offset="0" style="stop-color:#24C7FB"/>
	<stop  offset="1" style="stop-color:#36E6FF"/>
</linearGradient>
<path fill="#fff" d="M15.5,34.5c-0.6,0-1.1-0.1-1.6-0.3C2,29.1,0.3,20,0.1,18.3c0-0.3-0.1-0.7-0.1-1V3.5
	c0-1.2,0.9-2.3,2.1-2.5C4.9,0.7,10.3,0,15.5,0c6.5,0,12.7,1,13.4,1.1C30.1,1.3,31,2.3,31,3.6v13.6c0,0.4,0,0.7-0.1,1.1
	c-0.4,2.5-2.4,11.1-13.8,15.8C16.7,34.3,16.1,34.5,15.5,34.5z M15.5,1.4c-5.1,0-10.4,0.6-13.1,1C1.8,2.5,1.4,3,1.4,3.5v13.7
	c0,0.3,0,0.6,0.1,0.9c0.2,1.6,1.8,10.1,12.9,14.8c0.6,0.3,1.2,0.3,2.2,0c10.6-4.5,12.6-12.4,12.9-14.7c0-0.3,0.1-0.6,0.1-0.9V3.6
	c0-0.5-0.4-1-0.9-1.1C27.9,2.4,21.8,1.4,15.5,1.4z M17.7,12.8c0-1.2-1-2.2-2.2-2.2c-1.3,0-2.3,1-2.3,2.2v0.4h4.5V12.8z M19.1,14.6
	h-1.4h-4.5h-1.4c-0.4,0-0.8,0.3-0.8,0.8v4.8c0,0.4,0.3,0.8,0.8,0.8h7.3c0.4,0,0.8-0.3,0.8-0.8v-4.8C19.9,15,19.5,14.6,19.1,14.6z
	 M14.1,19.8l0.8-1.4c-0.4-0.2-0.7-0.7-0.7-1.2c0-0.8,0.6-1.4,1.4-1.4c0.8,0,1.4,0.6,1.4,1.4c0,0.5-0.3,1-0.7,1.2l0.8,1.4H14.1z
	 M15.5,6.6c-5.3,0-9.6,4.3-9.6,9.6s4.3,9.6,9.6,9.6s9.6-4.3,9.6-9.6S20.8,6.6,15.5,6.6z M21.3,20.2c0,0.2,0,0.3,0,0.4
	c-0.2,1-1.1,1.8-2.1,1.8h-7.3c-1.1,0-1.9-0.8-2.1-1.8c0-0.1,0-0.3,0-0.4v-4.8c0-0.2,0-0.3,0-0.4c0-0.1,0-0.1,0-0.2
	c0-0.1,0-0.2,0.1-0.3c0-0.1,0.1-0.1,0.1-0.2c0-0.1,0.1-0.1,0.1-0.2c0-0.1,0.1-0.1,0.1-0.2c0-0.1,0.1-0.1,0.1-0.2
	c0.1-0.1,0.1-0.1,0.2-0.1c0.1,0,0.1-0.1,0.2-0.1c0.1,0,0.1-0.1,0.2-0.1c0.1,0,0.1-0.1,0.2-0.1c0.1,0,0.2-0.1,0.2-0.1
	c0.1,0,0.1,0,0.2-0.1c0.1,0,0.2,0,0.3,0c0.1,0,0.1,0,0.2,0v-0.4c0-2,1.6-3.6,3.6-3.6c2.1,0,3.7,1.6,3.7,3.6v0.4c0.1,0,0.1,0,0.2,0
	c0.1,0,0.2,0,0.3,0c0.1,0,0.1,0,0.2,0.1c0.1,0,0.2,0,0.2,0.1c0.1,0,0.1,0.1,0.2,0.1c0.1,0,0.1,0.1,0.2,0.1c0.1,0,0.1,0.1,0.2,0.1
	c0.1,0,0.1,0.1,0.2,0.1c0.1,0.1,0.1,0.1,0.1,0.2c0,0.1,0.1,0.1,0.1,0.2c0,0.1,0.1,0.1,0.1,0.2c0,0.1,0.1,0.1,0.1,0.2
	c0,0.1,0.1,0.2,0.1,0.3c0,0.1,0,0.1,0,0.2c0,0.1,0,0.3,0,0.4V20.2z"/>
</svg>
