<?xml version="1.0" encoding="utf-8"?>
<!-- Generator: Adobe Illustrator 16.0.0, SVG Export Plug-In . SVG Version: 6.00 Build 0)  -->
<!DOCTYPE svg PUBLIC "-//W3C//DTD SVG 1.1//EN" "http://www.w3.org/Graphics/SVG/1.1/DTD/svg11.dtd">
<svg version="1.1" id="Layer_1" xmlns="http://www.w3.org/2000/svg" xmlns:xlink="http://www.w3.org/1999/xlink" x="0px" y="0px"
	 width="700.039px" height="742.639px" viewBox="0 0 700.039 742.639" enable-background="new 0 0 700.039 742.639"
	 xml:space="preserve">
<linearGradient id="SVGID_1_" gradientUnits="userSpaceOnUse" x1="22.6167" y1="1690.0225" x2="22.6167" y2="1780.7296" gradientTransform="matrix(8.1965 0 0 -8.1965 164.644 14595.7959)">
	<stop  offset="0" style="stop-color:#24C7FB"/>
	<stop  offset="1" style="stop-color:#36E6FF"/>
</linearGradient>
<path fill="#fff" d="M321.327,87.716h-13.099v-8.182h13.099V-0.001h73.753v12.312h-59.828v35.244h58.176v12.312h-58.176
	v19.667h33.592v8.182h-33.592v22.932h-13.925V87.716L321.327,87.716z M380.329,727.848c-2.479,2.479-5.743,3.267-9.008,3.267
	s-6.568-1.652-11.485-3.267l-9.834-3.265c3.266-4.917,4.917-10.659,4.917-15.576c0-3.265-0.826-6.569-1.651-9.834h17.229v-9.008
	h-21.319l-2.478-4.916c-4.917-9.008-9.008-15.577-9.008-23.759c0-5.743,2.479-11.485,6.567-14.75
	c2.479-2.479,7.396-4.917,13.926-4.917c7.396,0,11.485,2.478,13.925,4.917c5.743,4.917,5.743,12.312,5.743,17.229v1.651h12.312
	v-1.651c0-11.486-4.917-21.319-9.834-26.236c-4.091-4.091-11.485-8.182-22.146-8.182c-12.313,0-19.667,4.091-24.584,9.008
	c-5.743,5.742-9.009,13.924-9.009,22.146c0,9.008,3.266,15.576,7.396,22.932l3.265,5.743h-14.751v9.008h18.843
	c2.478,4.917,2.478,9.007,2.478,9.833c0,4.917-1.651,9.834-4.917,13.925c-4.091,0-9.007,0.826-13.924,4.917
	c-2.479,1.652-5.743,5.743-8.183,9.009l9.833,6.567c0-0.826,2.479-4.091,4.917-5.742c3.266-2.479,6.569-3.266,9.009-3.266
	c1.651,0,5.742,0.826,12.312,3.266l6.569,2.479c4.917,1.651,9.008,3.265,14.75,3.265c5.743,0,10.66-1.65,14.751-5.742
	c3.265-2.479,5.743-5.742,8.182-11.485l-9.834-4.917C384.42,722.932,381.981,725.409,380.329,727.848z M31.981,440.153
	c-9.008,0-16.403-4.091-21.32-9.008c-5.743-4.917-9.007-12.312-10.66-19.667l12.312-3.265c0.826,5.742,3.265,10.659,6.569,13.924
	c4.917,4.917,9.008,5.743,13.099,5.743v-45.117c-4.917-1.652-13.099-5.742-18.841-10.659c-5.743-5.743-7.395-10.66-7.395-18.016
	c0-15.576,11.486-27.063,26.236-27.849v-14.751h9.833v14.751c3.265,0,7.395,0.825,13.099,4.917
	c4.091,3.265,8.181,7.395,10.66,12.312l-9.834,6.568c-1.652-3.266-4.091-6.568-6.569-8.183c-2.478-2.478-5.743-3.265-7.395-3.265
	v36.896c8.182,3.266,14.75,6.568,19.667,11.485c5.743,5.743,8.182,12.313,8.182,19.667c0,14.751-9.833,30.327-27.849,33.592v15.577
	h-9.833v-15.655h0.039V440.153z M41.815,427.843c9.008-2.479,14.75-12.313,14.75-21.319c0-6.568-2.478-10.659-5.743-13.099
	c-2.479-2.479-6.569-4.917-9.008-5.743L41.815,427.843L41.815,427.843z M31.981,370.492v-31.979
	c-9.008,1.651-13.925,8.182-13.925,16.402c0,3.265,0.826,6.567,4.091,9.834C24.586,366.401,28.677,368.841,31.981,370.492z
	 M633.605,391.812h40.985l4.092-10.658h-47.557c-0.826-4.092-0.826-8.183,0-13.1h51.646l4.091-10.66h-53.259
	c2.478-9.007,10.659-27.849,34.418-27.849c6.567,0,16.401,1.652,25.41,9.008l5.741-11.485c-12.312-8.182-23.758-9.008-30.327-9.008
	c-27.849,0-44.25,19.667-48.342,39.334h-7.395l-4.092,10.66h10.659c-0.825,4.091-0.825,8.183,0,13.1h-5.742l-4.092,10.658h11.486
	c3.265,21.319,18.841,40.161,47.556,40.161c13.1,0,23.759-4.091,31.152-9.008v-15.576c-8.182,7.396-18.015,13.1-30.326,13.1
	C649.181,420.487,636.87,408.175,633.605,391.812z M452.469,649.179l-28.675,40.16l45.903,11.486
	c108.21-40.161,186.879-130.316,216.38-236.873l-54.085-9.008C606.543,541.795,541.798,614.722,452.469,649.179z M74.58,489.322
	l-39.334-22.146l-13.925,36.07c44.252,108.21,138.498,185.267,247.533,210.677l15.576-52.473
	C192.624,641.784,113.129,578.69,74.58,489.322z M8.183,277.86l52.473,13.924c25.41-92.633,95.898-170.478,191.796-202.456
	l36.07-40.161l-50.821-11.446C122.962,74.578,38.511,167.211,8.183,277.86z M624.599,266.374l34.418,26.235l18.015-40.985
	C636.045,139.323,542.625,59.002,431.977,31.153l-18.017,50.82C508.206,104.079,589.354,171.302,624.599,266.374z"/>
</svg>
