<?xml version="1.0" encoding="utf-8"?>
<!-- Generator: Adobe Illustrator 16.0.0, SVG Export Plug-In . SVG Version: 6.00 Build 0)  -->
<!DOCTYPE svg PUBLIC "-//W3C//DTD SVG 1.1//EN" "http://www.w3.org/Graphics/SVG/1.1/DTD/svg11.dtd">
<svg version="1.1" id="Layer_1" xmlns="http://www.w3.org/2000/svg" xmlns:xlink="http://www.w3.org/1999/xlink" x="0px" y="0px"
	 width="700px" height="621.916px" viewBox="0 0 700 621.916" enable-background="new 0 0 700 621.916" xml:space="preserve">
<g>
	
		<linearGradient id="SVGID_1_" gradientUnits="userSpaceOnUse" x1="47.0063" y1="-242.7129" x2="47.0063" y2="3.3854" gradientTransform="matrix(6.9102 0 0 6.9102 98.7715 1465.3628)">
		<stop  offset="0" style="stop-color:#E6E7E8"/>
		<stop  offset="1" style="stop-color:#F1F2F2"/>
	</linearGradient>
	<path fill="url(#SVGID_1_)" d="M147.187,248.767V143.041l76.012-73.939v178.283c-0.691,0-0.691-0.69-1.382-0.69
		c-2.764-2.073-5.528-2.765-8.292-2.765c-11.748-6.22-24.877-6.91-40.079-5.527C164.462,239.092,154.788,242.547,147.187,248.767z
		 M291.609,134.749v277.788h277.79V134.749H291.609z M400.099,483.712c0,0.691,0,1.382,0,2.073v17.275
		c0,3.454-0.689,6.22-1.382,8.291c0,6.221,0,11.748,0,17.275c1.382,8.293,1.382,15.895,1.382,24.187h165.153l69.102-69.103
		L400.099,483.712L400.099,483.712z M295.064,0l-69.102,62.191h411.846v414.61L700,411.847V0H295.064z"/>
	
		<linearGradient id="SVGID_2_" gradientUnits="userSpaceOnUse" x1="15.0562" y1="-122.0581" x2="15.0561" y2="-178.7583" gradientTransform="matrix(6.9102 0 0 6.9102 98.7715 1465.3628)">
		<stop  offset="0" style="stop-color:#24C7FB"/>
		<stop  offset="1" style="stop-color:#36E6FF"/>
	</linearGradient>
	<path fill="url(#SVGID_2_)" d="M373.84,491.313h-82.922c-2.764,0-4.837-2.072-4.837-4.837s2.073-4.837,4.837-4.837h82.922
		c2.766,0,4.837,2.072,4.837,4.837S376.604,491.313,373.84,491.313z M378.677,513.426c0-2.764-2.071-4.837-4.837-4.837h-82.922
		c-2.764,0-4.837,2.073-4.837,4.837c0,2.766,2.073,4.837,4.837,4.837h82.922C376.604,518.263,378.677,516.19,378.677,513.426z
		 M378.677,539.685c0-2.764-2.071-4.837-4.837-4.837h-82.922c-2.764,0-4.837,2.073-4.837,4.837c0,2.765,2.073,4.837,4.837,4.837
		h82.922C376.604,544.521,378.677,542.448,378.677,539.685z M405.627,445.016v176.9H259.131v-41.461H0v-4.838
		c0-2.764,0.691-66.337,48.371-90.522c20.73-10.364,50.444-20.04,68.411-25.567c6.91-2.073,12.438-4.146,14.511-4.837
		c7.602-3.455,12.438-11.057,12.438-19.35V420.83c0-0.691,0-2.073-0.691-2.073c-4.146-4.837-11.748-15.894-15.894-36.624
		c0-1.382-0.691-2.073-2.073-2.764c-8.292-3.455-10.365-16.585-10.365-22.113c0-1.382,0-2.764-0.691-4.146
		c-1.382-11.747-2.073-21.422,2.764-26.95c0.691-1.382,2.764-3.455,2.073-6.219c-1.382-13.82-2.073-23.495-1.382-29.715
		c2.764-26.259,26.95-55.973,67.029-60.119c2.764,0,6.219,0,8.983,0c38.697,2.765,63.573,25.568,67.028,60.119
		c0.691,5.528,0,14.513-2.073,29.715c0,2.764,1.382,4.837,2.073,6.219c4.146,5.528,3.455,15.203,2.073,26.95
		c0,1.382-0.691,3.455-0.691,4.146c0,5.528-2.073,18.658-10.365,22.113c-0.691,0.689-2.073,1.382-2.073,2.764
		c-3.455,20.73-11.056,31.787-15.894,36.624c-0.691,0.69-0.691,1.382-0.691,2.073v14.511c0,8.292,4.837,15.895,12.438,19.35
		c1.382,0.69,6.91,2.072,13.129,4.146v-13.82H405.627z M259.131,570.78V469.201c-0.691,0-1.382-0.691-2.073-0.691
		c-7.601-2.764-12.438-4.146-14.511-4.837c-11.056-4.837-17.966-15.894-17.966-27.641V421.52c0-3.454,1.382-6.909,3.455-8.982
		c2.764-3.455,9.674-12.438,13.129-31.786c0.691-4.837,4.146-8.292,8.292-9.675c1.382-0.69,4.146-5.527,4.146-13.129
		c0-1.382,0-2.765,0.691-4.837c0.691-4.146,2.073-17.275,0-19.35c-3.455-4.146-4.837-8.982-4.146-13.819
		c1.382-9.676,2.764-21.422,2.073-27.642c-1.382-14.512-9.674-47.681-58.045-51.136c-2.764,0-4.837,0-7.601,0
		c-35.242,3.455-55.973,29.023-58.045,51.136c-0.691,4.837,0,13.82,2.073,27.642c0.691,4.837-0.691,9.674-4.146,13.819
		c-2.073,2.765-0.691,15.202,0,19.35c0,2.072,0.691,3.455,0.691,4.837c0.691,8.292,2.764,12.438,4.146,13.129
		c4.146,1.383,7.602,5.528,8.292,9.675c3.455,19.349,10.365,28.331,13.129,31.786c2.073,2.765,3.455,5.528,3.455,8.982v14.513
		c0,11.747-6.91,22.804-17.966,27.641c-2.073,0.691-6.911,2.765-15.894,5.528c-17.275,5.528-46.989,14.511-67.029,24.876
		C20.039,512.044,13.82,556.27,12.438,570.78H259.131L259.131,570.78z M395.952,454.689H268.806v157.552h127.147L395.952,454.689
		L395.952,454.689z M348.964,593.584l26.258-30.405c2.073-2.071,1.384-4.837-0.689-6.91c-2.073-2.071-4.837-1.382-6.91,0.691
		l-19.349,22.804l-9.675-10.364c-2.072-2.073-4.838-2.073-6.909,0c-2.073,2.072-2.073,4.837,0,6.909L348.964,593.584z"/>
</g>
</svg>
