<?xml version="1.0" encoding="utf-8"?>
<!-- Generator: Adobe Illustrator 16.0.0, SVG Export Plug-In . SVG Version: 6.00 Build 0)  -->
<!DOCTYPE svg PUBLIC "-//W3C//DTD SVG 1.1//EN" "http://www.w3.org/Graphics/SVG/1.1/DTD/svg11.dtd">
<svg version="1.1" id="Layer_1" xmlns="http://www.w3.org/2000/svg" xmlns:xlink="http://www.w3.org/1999/xlink" x="0px" y="0px"
	 width="699.963px" height="609.296px" viewBox="0 0 699.963 609.296" enable-background="new 0 0 699.963 609.296"
	 xml:space="preserve">
<g>
	
		<linearGradient id="SVGID_1_" gradientUnits="userSpaceOnUse" x1="47.0215" y1="1734.2944" x2="47.0215" y2="1641.568" gradientTransform="matrix(6.9239 0 0 -6.9239 101.273 12008.084)">
		<stop  offset="0" style="stop-color:#E6E7E8"/>
		<stop  offset="1" style="stop-color:#F1F2F2"/>
	</linearGradient>
	<path fill="url(#SVGID_1_)" d="M703.8,0v412.686l-62.316,65.072V62.319H228.834L298.056,0H703.8z M155.426,249.932
		c2.093-0.695,3.452-2.092,5.545-2.754c4.15-2.754,8.997-3.451,12.449-2.754c0.698,0,1.395-0.697,2.754-0.697
		c11.788-2.094,22.841-2.094,33.932,0c0.698,0,1.395,0,2.093,0.697c2.093,0.697,4.15,0.697,5.545,1.396
		c2.754,0.697,5.545,1.396,7.602,2.754h0.698V69.223l-76.162,74.105v109.395C151.975,252.026,153.333,250.631,155.426,249.932z
		 M361.071,484.663c0.696,1.395,1.396,2.754,2.093,4.846c0.698,2.754,0.698,4.85,1.396,7.604c4.849,2.092,8.3,5.545,10.394,11.09
		c4.848,2.754,8.299,6.242,9.694,12.449c2.094,11.787,2.094,22.143,0,33.232h184.161l69.223-69.223L361.071,484.663L361.071,484.663
		z M294.604,135.03v278.354h278.355V135.03H294.604L294.604,135.03z"/>
	
		<linearGradient id="SVGID_2_" gradientUnits="userSpaceOnUse" x1="15.231" y1="1646.2954" x2="15.231" y2="1700.9358" gradientTransform="matrix(6.9239 0 0 -6.9239 101.273 12008.084)">
		<stop  offset="0" style="stop-color:#24C7FB"/>
		<stop  offset="1" style="stop-color:#36E6FF"/>
	</linearGradient>
	<path fill="url(#SVGID_2_)" d="M339.589,473.608c-8.997,0-17.297,2.094-24.935,4.848c-17.994-7.602-38.779-13.844-51.926-18.691
		c-6.243-2.094-12.449-4.148-13.844-4.848c-7.601-3.451-12.449-11.09-12.449-19.389v-14.543c0-0.697,0-2.094,0.698-2.094
		c4.15-4.848,11.788-15.938,15.938-36.686c0-1.396,0.698-2.094,2.093-2.754c8.997-3.453,10.393-16.635,10.393-22.145
		c0-1.396,0-2.754,0.697-4.148c1.396-11.789,2.093-21.482-2.093-26.992c-0.698-1.395-2.754-3.451-2.093-6.242
		c2.093-15.238,2.754-24.236,2.093-29.781c-3.452-34.629-28.387-57.471-67.165-60.225c-2.754,0-6.243,0-8.997,0
		c-40.174,4.113-64.411,33.895-67.202,60.188c-0.698,5.545,0,15.238,2.093,29.781c0,2.754-1.395,4.848-2.093,6.242
		c-4.15,5.545-3.452,15.24-2.754,26.99c0,2.094,0.698,3.453,0.698,4.15c0.698,5.545,2.093,18.691,10.393,22.145
		c0.698,0.697,2.093,1.396,2.093,2.754c3.452,20.785,11.09,31.838,15.938,36.686c0.698,0.697,0.698,1.396,0.698,2.094v14.541
		c0,8.301-4.847,15.938-12.449,19.391c-1.396,0.697-7.602,2.754-14.542,4.848c-17.994,5.545-47.776,15.238-68.561,25.633
		C3.838,509.594,3.838,573.309,3.838,576.063v5.545H287.04c12.448,16.637,31.838,27.688,54.716,27.688
		c37.384,0,67.863-30.479,67.863-67.861C407.451,504.051,376.972,473.608,339.589,473.608z M373.52,546.282h-29.084v25.633h-9.693
		v-25.633h-29.084v-9.695h29.084v-29.084h9.693l0,0v28.387h29.084V546.282L373.52,546.282z M12.797,571.915
		c1.396-14.543,7.602-58.867,42.928-76.861c20.087-10.391,49.171-19.389,67.165-24.934c8.997-2.754,13.147-4.15,15.938-5.545
		c11.09-4.848,17.994-15.939,17.994-27.689v-14.541c0-3.453-1.396-6.939-3.452-8.998c-2.754-3.449-9.694-12.447-13.146-31.838
		c-0.698-4.848-4.149-8.299-8.299-9.693c-1.395-0.697-4.149-4.848-4.149-13.146c0-1.395,0-2.754-0.698-4.848
		c-0.698-4.148-2.093-16.635,0-19.391c3.452-4.148,4.847-8.996,4.149-13.844c-1.395-13.844-2.093-22.842-2.093-27.688
		c2.093-22.145,23.539-47.775,58.168-51.229c2.754,0,4.847,0,7.602,0c48.473,4.15,56.772,37.383,58.168,51.229
		c0.698,6.242-0.698,17.992-2.093,27.688c-0.698,4.848,0.698,9.695,4.15,13.844c2.093,2.756,0.698,15.24,0,19.391
		c0,2.094-0.698,3.453-0.698,4.848c-0.698,7.602-2.754,12.449-4.15,13.146c-4.149,1.396-7.602,5.545-8.299,9.693
		c-3.452,19.391-10.392,28.389-13.146,31.838c-2.093,2.756-3.452,5.545-3.452,8.998v14.541c0,11.789,7.602,22.844,17.994,27.689
		c2.093,0.697,6.94,2.754,14.542,4.848c11.09,3.451,27.689,8.996,43.626,15.24c-18.691,11.787-31.14,33.232-31.14,56.771
		c0,11.09,2.754,21.482,6.94,30.479H12.797V571.915z"/>
</g>
</svg>
