<?xml version="1.0" encoding="utf-8"?>
<!-- Generator: Adobe Illustrator 16.0.0, SVG Export Plug-In . SVG Version: 6.00 Build 0)  -->
<!DOCTYPE svg PUBLIC "-//W3C//DTD SVG 1.1//EN" "http://www.w3.org/Graphics/SVG/1.1/DTD/svg11.dtd">
<svg version="1.1" id="Layer_1" xmlns="http://www.w3.org/2000/svg" xmlns:xlink="http://www.w3.org/1999/xlink" x="0px" y="0px"
	 width="700.922px" height="647.157px" viewBox="0 0 700.922 647.157" enable-background="new 0 0 700.922 647.157"
	 xml:space="preserve">
<g>
	
		<linearGradient id="SVGID_1_" gradientUnits="userSpaceOnUse" x1="49.3262" y1="-198.4448" x2="49.3262" y2="-105.7195" gradientTransform="matrix(7.2389 0 0 7.2389 95.5603 1436.519)">
		<stop  offset="0" style="stop-color:#E6E7E8"/>
		<stop  offset="1" style="stop-color:#F1F2F2"/>
	</linearGradient>
	<polygon fill="url(#SVGID_1_)" points="276.725,0 204.337,65.149 635.774,65.149 635.774,499.481 700.924,431.436 700.924,0 	"/>
	
		<linearGradient id="SVGID_2_" gradientUnits="userSpaceOnUse" x1="41.9263" y1="-114.2095" x2="41.9263" y2="-166.9839" gradientTransform="matrix(7.2389 0 0 7.2389 95.5603 1436.519)">
		<stop  offset="0" style="stop-color:#24C7FB"/>
		<stop  offset="1" style="stop-color:#36E6FF"/>
	</linearGradient>
	<path fill="url(#SVGID_2_)" d="M401.958,524.094c-2.172-2.172-3.619-3.619-5.791-5.791
		C398.338,519.75,400.51,521.922,401.958,524.094z"/>
	
		<linearGradient id="SVGID_3_" gradientUnits="userSpaceOnUse" x1="40.9268" y1="-114.2085" x2="40.9268" y2="-166.983" gradientTransform="matrix(7.2389 0 0 7.2389 95.5603 1436.519)">
		<stop  offset="0" style="stop-color:#24C7FB"/>
		<stop  offset="1" style="stop-color:#36E6FF"/>
	</linearGradient>
	<path fill="url(#SVGID_3_)" d="M395.444,517.579c-2.172-2.172-4.344-3.619-7.238-5.791
		C391.1,513.959,393.272,515.407,395.444,517.579z"/>
	
		<linearGradient id="SVGID_4_" gradientUnits="userSpaceOnUse" x1="34.4766" y1="-114.2095" x2="34.4766" y2="-166.9839" gradientTransform="matrix(7.2389 0 0 7.2389 95.5603 1436.519)">
		<stop  offset="0" style="stop-color:#24C7FB"/>
		<stop  offset="1" style="stop-color:#36E6FF"/>
	</linearGradient>
	<path fill="url(#SVGID_4_)" d="M347.666,492.967c-1.447-0.725-3.619-1.449-5.066-2.172
		C344.047,491.518,346.219,492.243,347.666,492.967z"/>
	
		<linearGradient id="SVGID_5_" gradientUnits="userSpaceOnUse" x1="37.127" y1="-114.1714" x2="37.1269" y2="-167.075" gradientTransform="matrix(7.2389 0 0 7.2389 95.5603 1436.519)">
		<stop  offset="0" style="stop-color:#24C7FB"/>
		<stop  offset="1" style="stop-color:#36E6FF"/>
	</linearGradient>
	<path fill="url(#SVGID_5_)" d="M367.936,500.93c-2.172-0.725-5.066-2.172-7.238-2.896
		C363.592,499.481,365.764,500.206,367.936,500.93z"/>
	
		<linearGradient id="SVGID_6_" gradientUnits="userSpaceOnUse" x1="35.8267" y1="-114.2397" x2="35.8267" y2="-166.9112" gradientTransform="matrix(7.2389 0 0 7.2389 95.5603 1436.519)">
		<stop  offset="0" style="stop-color:#24C7FB"/>
		<stop  offset="1" style="stop-color:#36E6FF"/>
	</linearGradient>
	<path fill="url(#SVGID_6_)" d="M359.249,497.309c-2.896-1.447-5.791-2.17-8.688-3.619
		C354.182,495.139,357.077,496.586,359.249,497.309z"/>
	
		<linearGradient id="SVGID_7_" gradientUnits="userSpaceOnUse" x1="42.8765" y1="-114.1968" x2="42.8765" y2="-167.0286" gradientTransform="matrix(7.2389 0 0 7.2389 95.5603 1436.519)">
		<stop  offset="0" style="stop-color:#24C7FB"/>
		<stop  offset="1" style="stop-color:#36E6FF"/>
	</linearGradient>
	<path fill="url(#SVGID_7_)" d="M403.405,525.542c2.172,2.172,3.619,4.344,5.066,6.516
		C407.026,529.885,405.577,527.713,403.405,525.542z"/>
	
		<linearGradient id="SVGID_8_" gradientUnits="userSpaceOnUse" x1="43.6265" y1="-114.2095" x2="43.6265" y2="-166.9839" gradientTransform="matrix(7.2389 0 0 7.2389 95.5603 1436.519)">
		<stop  offset="0" style="stop-color:#24C7FB"/>
		<stop  offset="1" style="stop-color:#36E6FF"/>
	</linearGradient>
	<path fill="url(#SVGID_8_)" d="M409.198,532.78c1.445,2.172,2.895,4.344,4.342,6.516
		C412.092,537.124,410.645,534.952,409.198,532.78z"/>
	
		<linearGradient id="SVGID_9_" gradientUnits="userSpaceOnUse" x1="44.2764" y1="-114.2192" x2="44.2764" y2="-166.9365" gradientTransform="matrix(7.2389 0 0 7.2389 95.5603 1436.519)">
		<stop  offset="0" style="stop-color:#24C7FB"/>
		<stop  offset="1" style="stop-color:#36E6FF"/>
	</linearGradient>
	<path fill="url(#SVGID_9_)" d="M414.264,540.743c1.447,2.172,2.896,4.344,3.619,6.516
		C417.159,545.086,415.711,542.915,414.264,540.743z"/>
	
		<linearGradient id="SVGID_10_" gradientUnits="userSpaceOnUse" x1="44.7764" y1="-114.2095" x2="44.7764" y2="-166.9839" gradientTransform="matrix(7.2389 0 0 7.2389 95.5603 1436.519)">
		<stop  offset="0" style="stop-color:#24C7FB"/>
		<stop  offset="1" style="stop-color:#36E6FF"/>
	</linearGradient>
	<path fill="url(#SVGID_10_)" d="M418.608,549.43c0.725,2.172,1.447,3.619,2.172,5.066
		C420.78,553.049,420.055,550.877,418.608,549.43z"/>
	
		<linearGradient id="SVGID_11_" gradientUnits="userSpaceOnUse" x1="45.5762" y1="-114.1978" x2="45.5762" y2="-167.0753" gradientTransform="matrix(7.2389 0 0 7.2389 95.5603 1436.519)">
		<stop  offset="0" style="stop-color:#24C7FB"/>
		<stop  offset="1" style="stop-color:#36E6FF"/>
	</linearGradient>
	<path fill="url(#SVGID_11_)" d="M425.122,566.079c0,1.447,0.725,2.172,0.725,3.621C425.846,568.25,425.846,567.528,425.122,566.079
		z"/>
	
		<linearGradient id="SVGID_12_" gradientUnits="userSpaceOnUse" x1="45.2764" y1="-114.1982" x2="45.2764" y2="-167.0587" gradientTransform="matrix(7.2389 0 0 7.2389 95.5603 1436.519)">
		<stop  offset="0" style="stop-color:#24C7FB"/>
		<stop  offset="1" style="stop-color:#36E6FF"/>
	</linearGradient>
	<path fill="url(#SVGID_12_)" d="M422.227,556.668c0.725,2.172,1.447,4.344,2.172,6.516
		C423.674,561.012,422.952,558.84,422.227,556.668z"/>
	
		<linearGradient id="SVGID_13_" gradientUnits="userSpaceOnUse" x1="27.6626" y1="-109.106" x2="27.6626" y2="-167.0059" gradientTransform="matrix(7.2389 0 0 7.2389 95.5603 1436.519)">
		<stop  offset="0" style="stop-color:#24C7FB"/>
		<stop  offset="1" style="stop-color:#36E6FF"/>
	</linearGradient>
	<path fill="url(#SVGID_13_)" d="M429.465,582.004h162.152c0,0,0-62.979-45.605-85.418c-28.955-14.479-49.225-27.508-55.74-30.404
		c-9.41-4.342-15.201-13.029-15.201-23.164v-13.754c0-2.172,0.725-4.344,2.172-5.791c3.619-3.619,10.857-13.754,14.479-34.021
		c0.725-2.896,2.172-5.066,5.066-6.516c5.066-2.172,7.24-10.857,7.24-17.373c0.723-5.791,3.617-22.439-0.725-27.508
		c-2.172-2.896-3.621-6.516-3.621-10.135c1.449-12.306,2.172-22.441,2.172-28.955c-2.172-25.338-19.545-52.121-62.254-55.74
		c-2.895,0-5.791,0-7.963,0c-36.193,3.619-60.082,30.402-62.254,55.74c-0.725,5.791,0,16.648,1.447,28.955
		c0.725,3.619-0.725,7.238-3.619,10.135c-4.344,5.066-1.447,21.717-0.725,27.508c0.725,6.516,2.172,15.924,7.238,17.373
		c2.896,0.725,4.344,3.619,5.068,6.516c3.619,19.545,10.857,29.68,14.477,34.021c1.447,1.447,2.172,3.619,2.172,5.791v14.479
		c0,10.135-5.791,18.82-15.201,23.164c-5.066,2.172-30.403,9.41-55.016,18.82c-7.963-2.895-15.201-5.066-21.716-7.236
		c-7.239-2.174-13.03-4.346-15.202-5.068c-7.963-3.619-13.754-12.307-13.754-20.992v-15.201c0-0.725,0-2.172,0.724-2.896
		c4.343-5.066,13.03-16.648,16.649-39.814c0-1.445,1.448-2.172,2.171-2.895c9.41-3.619,10.858-18.098,11.582-23.889
		c0-1.447,0-2.896,0.724-5.066c1.448-12.309,2.173-23.166-2.896-28.957c-1.447-1.447-2.896-4.342-2.171-7.238
		c2.171-16.648,2.896-26.06,2.171-32.574c-3.619-37.643-31.127-62.254-73.112-65.874c-3.62,0-6.515,0-10.134,0
		c-43.434,4.343-70.217,36.917-73.113,65.149c-0.724,6.516,0,16.65,2.171,32.574c0,2.896-1.448,5.791-2.171,7.24
		c-4.343,5.791-3.62,16.648-2.896,28.953c0,2.174,0.724,3.621,0.724,5.068c0.724,5.791,2.172,20.27,11.583,23.889
		c1.448,0.725,2.171,1.447,2.171,2.896c4.343,22.439,12.306,34.746,16.649,39.813c0.724,0.725,0.724,1.447,0.724,2.896v15.926
		c0,8.688-5.067,17.373-13.754,20.992c-2.172,0.725-8.687,2.896-15.926,5.068c-3.619,0.723-7.239,2.17-11.582,3.617
		c-13.754-7.963-29.68-13.029-46.329-13.029c-12.306,0-23.888,2.172-35.47,7.238c-44.881,19.547-65.15,72.391-45.605,117.271
		c14.478,32.574,46.329,53.568,81.075,53.568c12.306,0,23.889-2.174,35.471-7.24c14.478-6.516,27.508-16.648,36.194-29.68H425.12
		c2.896,0,5.066-2.172,5.066-5.066C431.637,603.721,431.637,594.311,429.465,582.004L429.465,582.004z M169.59,388.002
		c0-2.896-2.896-4.344-5.791-4.344c-1.448-0.725-2.172-1.447-3.62-2.17c-2.171-0.727-4.343-6.518-5.067-14.48
		c0-1.447,0-2.895-0.724-5.066c-0.724-5.066-2.172-18.82,0-20.992c3.62-4.344,5.067-9.41,5.067-15.201
		c-2.172-15.201-2.172-24.613-2.172-30.404c2.172-24.611,25.336-52.119,63.702-56.463c2.896,0,5.067,0,7.963,0
		c52.844,4.344,62.254,40.539,63.702,56.463c0.724,6.516-0.724,19.545-2.172,30.404c-0.724,5.066,0.724,10.135,5.067,15.201
		c2.172,2.896,0.724,16.648,0,21.717c0,2.172-0.724,3.619-0.724,5.066c-0.724,7.963-2.896,13.756-5.067,14.479
		c-0.724,0-0.724,0.725-1.448,0.725h-0.724c-2.896,0-5.067,1.447-5.791,4.344c-4.343,33.299-30.403,60.082-57.187,60.082
		C197.821,445.915,173.21,420.579,169.59,388.002z M58.111,485.727c10.135-4.342,20.269-6.514,31.127-6.514
		c15.925,0,31.127,5.066,44.157,13.754l-18.821-1.449c-13.754-1.445-27.508,0-40.538,2.896c-14.478,3.621-31.851,7.963-31.851,7.963
		s-2.172,0.725-3.62-2.896v-0.723C44.357,493.69,50.872,489.346,58.111,485.727z M34.947,550.153c-1.448,0-9.411,0-13.754,0
		c-2.172,0-4.343-0.725-5.792-2.896l0,0c-0.724-1.447-2.171-2.17-2.896-2.896c0.724-5.064,2.172-9.408,3.62-13.754
		c2.896,0,5.067,0.727,7.239,2.172l4.343,2.896c2.172,1.449,4.343,2.896,7.963,2.896s8.687,0,8.687,5.791
		C45.081,550.877,37.118,550.153,34.947,550.153z M152.941,605.168c-2.172-0.725-4.343,0-5.791,0.725
		c-2.172,1.447-22.44,10.135-23.165,11.582c-0.724,0.725-1.448,7.238-1.448,12.307c0,0-0.724,0-0.724,0.725
		c-10.134,4.344-20.269,6.516-31.127,6.516c-16.649,0-32.575-5.066-45.605-14.479c2.896-3.619,5.791-7.238,6.515-11.582
		c0-2.896-2.896-13.029-2.896-14.479c0.724-7.238,10.858-13.031,11.582-14.479s3.62-7.963-7.963-6.516c0,0-0.724-5.066-2.896-6.516
		c-2.172-1.447,0.724-6.514,5.067-3.619c4.343,2.896,6.515,5.068,10.858,0.725c4.343-4.344,4.343-5.791-1.448-9.41
		c-5.792-3.619,0.724-6.516,0.724-6.516l9.411,2.172c5.791,1.447,10.858,5.791,14.478,10.857l0,0c2.896,5.791,11.583,5.791,15.202,0
		l2.896-5.066l0,0c3.62,0,7.239,2.172,8.687,5.791l2.896,7.238c1.448,3.619,0.724,7.24-0.724,10.859l0,0
		c-0.724,1.447,4.343,12.307,4.343,12.307s4.344,6.514,5.792,5.791c0,0,0,0,0.724,0c2.896-1.449,3.62-5.068,1.448-7.963
		c-1.448-1.449-0.724-2.172-0.724-2.172s0-1.449-0.724-5.791c-0.724-5.068,4.343-5.068,5.791-10.137
		c0-1.445,0.724-2.895,0.724-2.895s0-0.725,0-2.172c-1.448-4.344,2.171-8.688,6.515-8.688l0,0l1.448-1.447
		c0,0,0.724-10.135,0-11.582c-0.724-1.447-2.896-5.066-2.896-5.066s-2.171-4.344,0-4.344c0.724,0,2.896,0.723,5.067,2.172
		c2.172,1.447,5.067,0.723,6.515-2.172c0,0,0,0,0-0.725s0.724-15.926,0-16.648c-0.724-0.725-3.62-5.068-6.515-5.068
		c-1.448-0.723-3.619-2.895,1.448-4.344c1.448-0.723,3.62-1.447,5.791-2.17c4.344,5.064,7.239,10.857,10.135,16.648
		c8.687,19.545,8.687,40.537,1.448,60.082C160.179,592.864,156.56,599.377,152.941,605.168z M168.142,599.377
		c1.448-2.896,2.896-5.791,4.343-9.41c8.687-22.439,7.963-46.328-1.448-68.045c-5.791-13.029-14.478-23.889-24.612-32.576
		c1.448-0.723,2.896-0.723,4.343-1.447c9.411-2.895,14.478-4.344,16.649-5.791c11.583-5.066,19.545-17.373,19.545-30.402v-10.857
		c10.858,9.41,24.612,14.479,39.09,14.479c13.754,0,27.508-5.791,38.366-14.479v10.135c0,13.029,7.963,24.611,19.545,30.402
		c2.171,0.725,7.962,2.896,15.925,5.791c19.545,6.516,51.396,16.65,73.837,27.508c39.09,19.545,45.604,68.045,47.053,83.973H168.142
		V599.377z"/>
	<g>
		
			<linearGradient id="SVGID_14_" gradientUnits="userSpaceOnUse" x1="44.5762" y1="-198.4463" x2="44.5762" y2="-105.7221" gradientTransform="matrix(7.2389 0 0 7.2389 95.5603 1436.519)">
			<stop  offset="0" style="stop-color:#E6E7E8"/>
			<stop  offset="1" style="stop-color:#F1F2F2"/>
		</linearGradient>
		<path fill="url(#SVGID_14_)" d="M303.509,293.175c0.725,6.514,0,15.924-2.171,32.574c-0.725,2.895,1.447,5.791,2.171,7.238
			c4.344,5.791,3.62,16.648,2.896,28.955c0,2.172-0.725,3.619-0.725,5.066c0,5.791-2.172,20.271-11.582,23.889
			c-1.448,0.725-2.172,1.447-2.172,2.896c-3.619,20.994-10.858,32.576-15.925,38.367h118.717v-3.619
			c0-2.172-0.725-4.344-2.172-5.793c-3.619-3.619-10.857-13.754-14.479-34.021c-0.725-2.896-2.172-5.066-5.066-6.516
			c-5.066-2.172-7.238-10.857-7.238-17.373c0-5.791-3.619-22.441,0.725-27.508c2.172-2.896,3.617-6.516,3.617-10.135
			c-1.445-12.306-2.17-22.439-1.445-28.955c2.172-25.336,26.059-51.396,62.254-55.74c2.895,0,5.791,0,7.963,0
			c42.709,3.621,60.082,29.68,62.254,55.74c0.725,5.791,0,16.648-2.172,28.955c-0.723,3.619,0.725,7.238,3.619,10.135
			c4.344,5.066,1.449,21.717,0.725,27.508c-0.725,6.516-2.172,15.926-7.238,17.373c-2.896,0.725-4.344,3.619-5.066,6.516
			c-3.619,19.545-10.859,29.68-14.479,34.021c-1.447,1.449-2.172,3.621-2.172,5.793v3.619h89.037V141.157H273.106v100.621
			C290.479,252.636,301.338,270.733,303.509,293.175z"/>
	</g>
	<g>
		
			<linearGradient id="SVGID_15_" gradientUnits="userSpaceOnUse" x1="69.2266" y1="-171.6899" x2="69.2266" y2="-114.4084" gradientTransform="matrix(7.2389 0 0 7.2389 95.5603 1436.519)">
			<stop  offset="0" style="stop-color:#E6E7E8"/>
			<stop  offset="1" style="stop-color:#F1F2F2"/>
		</linearGradient>
		<path fill="url(#SVGID_15_)" d="M561.213,506.721c14.479,13.029,21.717,29.678,26.061,44.881l44.881-44.881H561.213z"/>
	</g>
	<g>
		
			<linearGradient id="SVGID_16_" gradientUnits="userSpaceOnUse" x1="7.6074" y1="-128.7866" x2="7.6074" y2="-122.0065" gradientTransform="matrix(7.2389 0 0 7.2389 95.5603 1436.519)">
			<stop  offset="0" style="stop-color:#E6E7E8"/>
			<stop  offset="1" style="stop-color:#F1F2F2"/>
		</linearGradient>
		<path fill="url(#SVGID_16_)" d="M151.493,509.616c-2.172,0.725-3.62,1.447-5.791,2.172c-5.067,2.172-2.896,3.619-1.448,4.344
			c2.896,0.723,5.067,3.619,5.791,5.066h8.687C156.56,516.854,154.388,513.235,151.493,509.616z"/>
		
			<linearGradient id="SVGID_17_" gradientUnits="userSpaceOnUse" x1="4.4766" y1="-131.688" x2="4.4766" y2="-127.7884" gradientTransform="matrix(7.2389 0 0 7.2389 95.5603 1436.519)">
			<stop  offset="0" style="stop-color:#E6E7E8"/>
			<stop  offset="1" style="stop-color:#F1F2F2"/>
		</linearGradient>
		<path fill="url(#SVGID_17_)" d="M121.813,491.518l12.306,1.449c-3.619-2.896-7.962-5.068-12.306-6.516V491.518z"/>
		
			<linearGradient id="SVGID_18_" gradientUnits="userSpaceOnUse" x1="9.127" y1="-214.0825" x2="9.1269" y2="24.1577" gradientTransform="matrix(7.2389 0 0 7.2389 95.5603 1436.519)">
			<stop  offset="0" style="stop-color:#E6E7E8"/>
			<stop  offset="1" style="stop-color:#F1F2F2"/>
		</linearGradient>
		<path fill="url(#SVGID_18_)" d="M135.567,482.108c4.343-1.447,7.963-2.895,11.583-3.617c7.239-2.174,13.754-4.346,15.925-5.068
			c7.963-3.619,13.754-12.307,13.754-20.992v-15.926c0-0.725,0-2.172-0.724-2.896c-4.343-5.066-13.03-16.648-16.649-39.813
			c0-1.449-1.448-2.172-2.172-2.896c-9.411-3.619-10.858-18.098-11.582-23.889c0-1.447,0-2.896-0.724-5.068
			c-1.448-12.305-2.171-23.164,2.896-28.953c1.448-1.449,2.896-4.346,2.172-7.24c-2.172-15.923-2.172-26.06-2.172-32.574
			c2.172-23.889,21.717-50.672,53.568-61.531V72.388l-79.628,77.457v325.75C126.881,477.042,131.224,479.213,135.567,482.108z"/>
	</g>
</g>
</svg>
