<?xml version="1.0" encoding="utf-8"?>
<!-- Generator: Adobe Illustrator 18.0.0, SVG Export Plug-In . SVG Version: 6.00 Build 0)  -->
<!DOCTYPE svg PUBLIC "-//W3C//DTD SVG 1.1//EN" "http://www.w3.org/Graphics/SVG/1.1/DTD/svg11.dtd">
<svg version="1.1" id="Layer_1" xmlns="http://www.w3.org/2000/svg" xmlns:xlink="http://www.w3.org/1999/xlink" x="0px" y="0px"
	 viewBox="0 0 841.9 595.3" enable-background="new 0 0 841.9 595.3" xml:space="preserve">
<linearGradient id="SVGID_1_" gradientUnits="userSpaceOnUse" x1="319.234" y1="0.2473" x2="319.2342" y2="595.3129" gradientTransform="matrix(1.0004 0 0 -1.0004 101.5824 595.54)">
	<stop  offset="0" style="stop-color:#24C7FB"/>
	<stop  offset="1" style="stop-color:#36E6FF"/>
</linearGradient>
<path fill="url(#SVGID_1_)" d="M807.2,523.8c0-3.1-0.7-75.9-55.6-103.4c-20.7-10.2-37.6-20-48.8-26.8c-7.1-4.1-12.2-7.1-15.6-8.5
	c-8.8-4.1-14.6-12.9-14.6-22.4V346c0-1,0.3-2.4,1-3.1c4.7-5.4,13.6-17.6,17.6-41.7c0.3-1.7,1.4-2.7,2.7-3.4
	c9.8-3.7,11.5-18.3,11.9-24.7c0-1.4,0.3-3.1,0.3-5.1c1.4-13.2,2.4-24.4-2.7-30.2c-1-1.4-3.1-4.4-2.7-7.8c2-17.3,2.7-27.8,2-34.2
	c-3.7-39.3-32.5-65.1-76.6-68.5c-3.4-0.3-6.8-0.3-10.2,0c-45.8,4.7-73.6,38.6-76.3,68.5c-0.7,6.4,0,17.3,2,34.2
	c0.3,3.1-1.4,5.8-2.7,7.8c-4.7,5.8-4.1,17.3-2.7,30.2c0.3,2,0.3,3.7,0.3,5.1c0.3,6.1,2.4,21,11.9,24.7c1.4,0.3,2.4,1.7,2.7,3.4
	c4.4,23.7,12.9,36.3,17.6,41.7c0.7,0.7,1,2,1,3.1v16.6c0,9.5-5.8,18.3-14.6,22.4c-2,1-8.8,3.1-16.6,5.4c-7.8,2.4-17.6,5.4-27.8,9.2
	c-12.9-4.4-24.7-8.1-34.6-11.5c-11.2-3.7-20.7-6.8-23.4-8.1c-12.5-5.8-21-18.3-21-32.2l-0.3-24.1c0-1.4,0.3-3.1,1.4-4.1
	c7.1-7.8,20-26.4,26.4-62c0.3-2,1.7-3.4,3.4-4.1c14.9-5.4,17.6-27.8,18.3-37.3c0-2,0.3-4.4,0.7-7.5c2-19.7,3.4-36.6-4.1-45.4
	c-2-2.4-4.4-6.1-3.7-10.5c3.1-25.8,4.1-41,3.1-50.8C472.1,43.6,429.1,5.3,363.4,0.2c-5.1-0.3-10.5-0.3-15.6,0
	c-68.1,7.1-109.8,58-113.9,102.4c-1,9.8,0,26.1,3.1,50.8c0.7,4.4-1.7,8.1-3.7,10.5c-7.5,8.8-6.4,25.8-4.1,45.4
	c0.3,3.1,0.7,5.4,0.7,7.5c0.7,9.5,3.4,31.9,18.3,37.3c1.7,0.7,3.1,2.4,3.4,4.1c6.4,35.6,19.3,54.2,26.4,62c1,1,1.4,2.4,1.4,4.1
	l-0.3,24.7c0,13.9-8.5,26.4-21,32.2c-3.1,1.4-12.9,4.4-24.4,8.1c-30.2,9.5-80.7,25.4-115.9,43.1c-82,41.4-83.1,149.5-83.1,154.2v8.5
	h642.2v-8.5c0-2-0.3-27.8-9.2-58.3l139.6,0.2L807.2,523.8L807.2,523.8z M267.8,255.6c-1.4-7.8-6.8-14.2-13.9-16.9
	c-2.4-1-6.4-9.2-7.1-22.4c0-2-0.3-5.1-0.7-8.1c-0.7-7.1-3.1-28.5,0.3-32.9c5.8-7.1,8.5-15.3,7.5-23.4c-2.7-23.4-3.7-38.6-3.1-47.1
	c3.4-38.3,39.3-81.4,98.6-87.5c4.1-0.3,8.1-0.3,12.5,0c82,6.4,96.3,63.1,98.6,87.1c1,10.8-1.4,31.9-3.1,47.1
	c-1,8.1,1.7,16.6,7.5,23.4c3.4,4.1,1,25.8,0.3,32.9c-0.3,3.1-0.7,6.1-0.7,8.1c-0.7,13.2-4.7,21.4-7.1,22.4
	c-7.1,2.7-12.5,9.2-13.9,16.9c-4.7,26.4-13.2,41.7-19,49.5c-0.7,1-1.4,2-2.4,3.1c-0.3,0.7-0.7,1-1,1.4c-0.3,0.3-0.7,1-1,1.4
	c-16.9,19.7-40,32.2-63.7,32.2c-28.1,0-54.2-15.9-71.5-40.7C278.9,293.6,271.8,278.7,267.8,255.6z M51.6,578.8L51.6,578.8
	c2-25.5,12.9-100.4,72.9-130.2c34.2-16.9,83.7-32.9,113.6-42.4c14.9-4.7,22.7-7.1,26.4-8.8c18.6-8.5,30.5-27.1,30.8-47.5l0.3-20.3
	c16.9,14.6,38,23.4,60,23.4c21.4,0,42-8.8,59.3-23.4l0.3,19.3c0.3,20.3,12.5,39.3,31.2,47.5c3.7,1.7,12.2,4.4,25.1,8.8
	c29.8,9.8,80,26.1,114.6,43.4c60,29.8,70.9,104.8,72.9,130.2H51.6z"/>
</svg>
