<?xml version="1.0" encoding="utf-8"?>
<!-- Generator: Adobe Illustrator 16.0.0, SVG Export Plug-In . SVG Version: 6.00 Build 0)  -->
<!DOCTYPE svg PUBLIC "-//W3C//DTD SVG 1.1//EN" "http://www.w3.org/Graphics/SVG/1.1/DTD/svg11.dtd">
<svg version="1.1" id="Layer_1" xmlns="http://www.w3.org/2000/svg" xmlns:xlink="http://www.w3.org/1999/xlink" x="0px" y="0px"
	 width="699.999px" height="835.422px" viewBox="0.001 82.289 699.999 835.422"
	 enable-background="new 0.001 82.289 699.999 835.422" xml:space="preserve">
<linearGradient id="SVGID_1_" gradientUnits="userSpaceOnUse" x1="31.6602" y1="921.2402" x2="31.6602" y2="1008.8398" gradientTransform="matrix(9.5368 0 0 -9.5368 48.0675 9703.3809)">
	<stop  offset="0" style="stop-color:#24C7FB"/>
	<stop  offset="1" style="stop-color:#36E6FF"/>
</linearGradient>
<path fill="#FFF" d="M594.142,731.744h-47.684v-7.63c0-8.583,7.629-16.213,16.212-16.213h15.259
	c8.583,0,16.213,7.63,16.213,16.213V731.744z M516.894,808.038c-7.629,0-14.305-2.861-20.027-6.676v31.472
	c0,5.722,4.769,11.444,11.444,11.444h121.117c5.722,0,11.444-4.769,11.444-11.444v-31.472c-5.723,3.814-12.398,6.676-20.027,6.676
	H516.894z M700,786.104c0,72.479-59.128,131.607-131.607,131.607c-60.082,0-110.627-40.055-125.886-95.367
	c-35.286,12.397-70.572,18.119-107.766,18.119c-133.515,0-253.679-79.155-307.084-201.226
	C-20.027,529.564-3.814,407.493,59.128,314.986C34.333,276.839,9.537,228.202,9.537,187.193c0-57.221,46.73-104.904,104.905-104.904
	c57.221,0,104.905,46.73,104.905,104.904c0,1.907,0,2.861,0,4.769c37.193-14.305,76.294-20.981,116.349-20.981
	c133.515,0,253.678,79.155,307.084,201.226c36.24,82.017,37.193,172.616,4.769,256.54c-5.723,14.305-12.398,27.656-19.073,41.008
	C670.436,689.782,700,734.604,700,786.104z M533.106,337.875c0-9.537,12.397-14.305,16.212-16.212
	c7.63-2.861,17.167-6.676,25.75-10.49c-14.306-17.167-29.564-32.425-46.73-46.73l-94.414-9.537
	c-51.499-4.769-102.997-0.954-153.542,11.444c-34.333,8.583-72.479,18.12-96.321,23.842c-27.657,48.638-61.989,87.739-63.896,90.6
	l-6.676,6.676l-4.769-5.722c-0.954-1.907-15.259-18.12-32.425-41.961c-10.491,17.166-20.027,35.286-27.657,54.359
	c13.352-0.954,26.703,2.861,36.24,10.49l15.259,12.398c6.676,6.676,15.259,8.583,27.657,8.583s39.101,0,41.008,29.563
	c0,6.676-1.908,13.352-5.722,17.166c-7.629,8.584-21.935,9.537-31.472,9.537h-6.676H71.526c-10.49,0-20.981-4.769-26.703-14.305
	c-3.814-4.769-7.629-8.583-13.352-10.491c-8.583,56.268-2.861,115.396,21.935,171.662c21.935,49.592,55.313,91.554,97.275,123.025
	c11.444-13.352,23.842-30.519,28.61-47.685c0.954-3.814-2.861-20.98-4.769-29.563c-2.861-14.306-3.814-18.12-2.861-20.027
	c3.815-22.889,24.796-41.962,38.147-52.452c2.861-2.861,6.676-5.723,7.629-6.676c1.908-3.815,3.815-8.584,1.908-11.444
	c-1.908-3.814-11.444-5.723-26.703-3.814l-5.722,0.953l-0.954-5.722c-0.954-6.676-5.722-18.12-9.537-20.981
	c-4.769-3.814-6.676-10.49-4.769-17.166c2.861-7.63,9.537-13.352,17.166-13.352c4.769,0,8.583,1.907,13.352,4.769
	c8.583,5.722,15.259,10.49,20.027,10.49c2.861,0,6.676-0.953,14.305-7.629c6.676-6.676,9.537-10.491,9.537-12.398
	c0-3.814-10.49-10.49-14.305-12.397c-8.583-5.722-12.397-11.444-11.444-18.12c0.954-10.49,13.352-16.213,16.212-17.166l1.907-0.954
	l38.147,9.537c24.795,6.676,46.73,22.889,59.128,44.823v0.953c4.768,8.583,13.351,13.352,22.888,13.352s18.12-4.769,22.889-12.397
	l13.352-21.935h3.814c18.12,0,33.379,10.49,40.055,26.703l11.444,26.703c5.722,14.305,4.768,31.471-1.908,46.729
	c0,4.769,7.63,25.75,15.26,41.962c5.722,7.63,12.397,16.213,15.258,19.074c2.861-1.908,4.769-4.769,5.723-7.63
	c0.953-3.814,0-8.583-2.861-11.444c-2.861-2.86-5.722-7.629-3.814-12.397l-0.954-8.583h0.954c0-2.861-0.954-7.63-1.907-14.306
	c-2.861-14.305,5.722-20.98,11.444-26.703c4.768-3.814,8.583-7.629,10.49-14.305s2.861-10.49,3.814-12.397
	c0-0.954-0.953-1.908-0.953-3.815c-2.861-10.49-1.908-20.98,4.768-29.563c5.723-8.583,15.259-13.352,24.796-13.352l1.907-2.861
	c0.954-16.213,0.954-36.239,0-39.101c-1.907-3.814-9.536-18.12-9.536-18.12c-2.861-4.769-7.63-15.259-3.815-20.98
	c1.907-2.861,4.769-4.769,8.583-4.769c2.861,0,8.583,0.953,22.889,8.583c1.907,0.953,3.814,0.953,4.769,0.953
	c3.814,0,7.629-1.907,9.537-5.722c0.953-4.769,1.907-52.452,0-60.082c-2.861-4.769-12.398-15.259-19.074-17.167l-1.907-0.954
	C537.875,349.319,533.106,344.55,533.106,337.875z M33.379,443.733c8.583,2.86,16.212,8.583,20.981,16.212
	c3.814,5.723,9.537,8.583,16.212,8.583h53.406h6.676c11.444,0,19.074-1.907,21.935-5.722c0.954-0.954,2.861-2.861,1.908-7.63
	c-0.954-14.305-8.583-16.212-27.657-16.212c-15.259,0-26.703-3.815-36.24-12.398l-15.259-11.444
	c-9.537-7.629-21.935-9.537-33.379-6.676C39.101,419.891,36.24,431.335,33.379,443.733z M213.624,222.479
	c-4.769,17.166-12.398,35.286-20.981,52.452c23.842-5.722,55.313-14.305,83.924-20.98c51.499-12.398,104.905-16.213,157.357-11.444
	l72.479,6.676c-49.592-33.379-109.673-52.452-171.662-52.452C292.779,196.73,251.771,205.313,213.624,222.479z M22.888,187.193
	c0,65.804,71.526,155.45,90.6,179.292c20.027-23.842,90.599-114.441,90.599-179.292c0-50.545-41.008-90.6-90.599-90.6
	C63.896,95.64,22.888,136.648,22.888,187.193z M438.692,795.641c0-2.861-0.954-6.676-0.954-9.537
	c0-72.479,59.128-131.607,131.607-131.607c11.444,0,21.935,1.907,32.426,3.814c7.629-13.352,14.305-26.703,20.027-41.008
	c29.563-76.295,28.61-160.218-4.769-235.559c-9.537-20.981-20.981-41.008-34.333-59.128c-9.536,3.815-20.027,8.583-29.563,12.398
	c-3.815,1.907-5.723,2.861-6.676,3.814c0,0,0.953,0,0.953,0.954c16.213,2.861,28.61,23.842,28.61,23.842
	c4.769,7.629,0.954,68.665,0.954,69.618c0,0.954-0.954,1.907-0.954,2.861c-3.814,7.63-12.397,12.397-20.98,12.397
	c-3.814,0-7.63-0.953-11.444-2.86c-5.722-2.861-9.537-4.769-11.444-5.723c0.954,0.954,0.954,2.861,1.907,3.815
	c0,0.953,7.63,14.305,10.491,19.073c1.907,4.769,1.907,20.027,0.953,47.684v1.907l-9.537,10.491h-4.768
	c-5.723,0-11.444,2.86-15.259,7.629c-3.815,4.769-4.769,11.444-2.861,17.166c1.907,5.723,2.861,10.491,0,14.306
	c0,0.953-0.954,2.861-2.861,9.537c-1.907,11.443-8.583,17.166-14.305,21.935c-5.723,5.722-8.583,7.629-7.63,14.305
	c1.907,11.444,2.861,17.166,2.861,20.027l0,0l5.722,7.629l-2.86,0.954c3.814,5.722,5.722,13.352,3.814,20.98
	c-1.907,7.63-6.676,14.306-13.352,18.12c-1.907,0.954-2.861,0.954-3.814,1.907H479.7c-2.861,0-8.583,0-26.703-25.749l-0.953-0.954
	c-19.074-43.869-17.167-49.591-16.213-52.452c5.722-13.352,6.676-26.702,1.907-37.193l-11.444-27.656
	c-3.814-10.49-13.352-17.166-23.842-18.12l-9.536,15.259c-7.63,12.397-20.027,19.073-34.333,19.073
	c-14.305,0-27.656-7.629-35.286-20.98v-0.954c-10.49-19.073-28.61-33.378-50.545-38.146l-33.378-8.583
	c-2.861,1.907-5.722,3.814-5.722,4.768c0,0.954,0.954,2.861,5.722,5.723c12.397,8.583,19.073,14.305,20.027,22.888
	c0.954,7.63-4.768,14.306-13.351,23.843c-8.583,7.629-15.259,11.443-23.842,11.443c-9.537,0-18.12-5.722-27.657-12.397
	c-1.907-1.907-3.814-1.907-5.722-1.907c-1.908,0-3.815,1.907-3.815,2.861c-0.954,1.907-0.954,2.86-0.954,3.814
	c6.676,4.769,11.444,16.213,13.352,23.842c18.12-0.953,28.61,2.861,33.378,11.444c5.722,9.536,0,20.98-2.861,24.796
	c-1.907,2.86-4.769,4.768-10.49,10.49c-11.444,9.536-30.518,26.703-33.379,43.869c0,0.953,1.907,9.537,2.861,15.259
	c4.769,20.98,6.676,31.472,4.769,36.239c-5.722,18.12-18.12,37.194-30.518,51.499c50.545,34.332,110.626,53.406,173.569,53.406
	C370.027,813.76,405.313,807.084,438.692,795.641z M654.224,756.539c0-13.352-11.444-24.795-24.796-24.795h-21.935v-7.63
	c0-16.213-13.352-29.563-29.564-29.563H562.67c-16.212,0-29.563,13.351-29.563,29.563v7.63h-23.842
	c-13.352,0-24.796,11.443-24.796,24.795v22.889l0,0v54.359c0,13.352,11.444,24.796,24.796,24.796h120.163
	c13.352,0,24.796-11.444,24.796-24.796V756.539z M629.428,745.096h-28.61h-61.035h-31.472c-5.722,0-11.444,4.768-11.444,11.443
	v20.981l3.815,8.583c2.86,4.769,8.583,8.583,15.259,8.583h103.95c6.676,0,13.352-3.814,15.259-8.583l3.815-8.583v-20.981
	C640.872,750.817,636.104,745.096,629.428,745.096z M113.488,253.951c-36.24,0-66.757-29.564-66.757-66.758
	s29.564-66.757,66.757-66.757s66.757,29.564,66.757,66.757S150.681,253.951,113.488,253.951z M113.488,240.6
	c29.564,0,52.452-23.842,52.452-52.453s-22.888-53.406-52.452-53.406s-52.452,23.842-52.452,52.452S84.877,240.6,113.488,240.6z"/>
</svg>
