<?xml version="1.0" encoding="utf-8"?>
<!-- Generator: Adobe Illustrator 19.2.1, SVG Export Plug-In . SVG Version: 6.00 Build 0)  -->
<svg version="1.1" id="Layer_1" xmlns="http://www.w3.org/2000/svg" xmlns:xlink="http://www.w3.org/1999/xlink" x="0px" y="0px"
	 width="794.2px" height="908.3px" viewBox="0 0 794.2 908.3" style="enable-background:new 0 0 794.2 908.3;" xml:space="preserve"
	>
<style type="text/css">
	.st0{fill:url(#SVGID_1_);}
</style>
<linearGradient id="SVGID_1_" gradientUnits="userSpaceOnUse" x1="397.0925" y1="1661.431" x2="397.0925" y2="2.114803e-09">
	<stop  offset="0" style="stop-color:#24C7FB"/>
	<stop  offset="1" style="stop-color:#36E6FF"/>
</linearGradient>
<path class="st0" d="M234.5,318.5H391v19.7H230.2c-1,8.2-1.4,16.3-1.4,25c0,8.2,0.5,16.3,1.4,24H391v19.7H234.5
	c16.8,58.6,66.2,97,127.7,97c38.4,0,73.4-18.7,93.6-46.6l23,14.4c-28.3,35-65.8,57.1-116.6,57.1c-76.8,0-139.7-47.5-157.4-121.9
	h-25.9v-19.7h22.6c-1-7.7-1.4-15.8-1.4-24c0-8.6,0.5-16.8,1.4-25h-22.6v-19.7h26.4c17.8-73.4,80.6-121,157-121
	c50.9,0,89.3,22.6,116.6,56.6l-23,14.9c-20.2-27.8-55.2-46.6-93.6-46.6C301.2,222.5,251.3,259.9,234.5,318.5z M27.7,271.6V78.1
	c0-12.9,9.9-24.7,22.7-26.7c61.3-8.9,182.9-23.7,299.6-23.7c144.4,0,283.8,21.8,299.6,24.7c12.9,2,22.7,13.8,22.7,26.7v187.5
	l14.1,14.1l13.6-13.6v-188c0-27.7-18.8-50.4-46.5-54.4C638.7,22.7,497.3,0,350,0C231.4,0,108.8,14.8,46.5,23.7
	C19.8,27.7,0,51.4,0,78.1v193.4l13.8-13.8L27.7,271.6z M664.2,667.8c0-26.1-21.2-47.3-47.3-47.3h-1.1c-6.9,0-13.4,1.5-19.3,4.1
	c-11.5,5.2-20.7,14.9-25.1,26.8c-1.9,5.1-2.9,10.6-2.9,16.4v12.7h95.8V667.8z M704.2,714.9v89.4c0,11.3-9.2,20.4-20.4,20.4h-135
	c-11.3,0-20.4-9.2-20.4-20.4v-89.4c0-11.3,9.2-20.4,20.4-20.4h19.6h95.8h19.6C695.1,694.4,704.2,703.6,704.2,714.9z M642.7,796.3
	l-14.9-25.7c8.2-4.2,13.8-12.6,13.8-22.5c0-14-11.3-25.3-25.3-25.3s-25.3,11.3-25.3,25.3c0,9.8,5.7,18.3,13.8,22.5l-14.9,25.7H642.7
	z M794.2,730.4c0,98.1-79.8,177.9-177.9,177.9c-92.5,0-168.7-71-177.1-161.3c-16.8,8.8-34.6,17.3-53.6,25.2
	c-8.9,4-21.8,7.9-35.6,7.9c-11.9,0-23.7-2-35.6-6.9C45.5,659.5,6.9,453.8,2,413.3c-1-6.9-2-15.8-2-23.7v-90.1l13.9-13.9l13.7,13.7
	v90.3c0,5.9,1,13.8,2,19.8c4.9,37.6,41.5,230.4,295.6,338.1c7.9,3,15.8,4.9,24.7,4.9c7.9,0,15.8-2,25.7-5.9
	c22.8-9.6,43.9-20,63.3-30.8c7.5-91,83.8-162.9,176.7-163.2c38.8-62,50.9-117.4,54.7-143.1c1-6.9,2-12.9,2-19.8h0v-95.2l14.2,14.2
	L700,295v94.6c0,8.9-1,16.8-2,23.7c-4.1,25.6-15.9,80-51.8,141.7C730.1,569.3,794.2,642.5,794.2,730.4z M718.2,714.9
	c0-19-15.4-34.4-34.4-34.4h-5.6v-12.7c0-33.8-27.5-61.3-61.3-61.3h-1.1c-1.5,0-3,0.1-4.5,0.2c-31.6,2.3-56.6,28.6-56.8,60.8
	c0,0.1,0,0.3,0,0.4v12.7h-5.6c-4.2,0-8.3,0.8-12.1,2.2c-6.7,2.5-12.5,7.1-16.5,13c-3.7,5.5-5.9,12.1-5.9,19.2v89.4
	c0,19,15.4,34.4,34.4,34.4h135c19,0,34.4-15.4,34.4-34.4V714.9z"/>
</svg>
