<?xml version="1.0" encoding="utf-8"?>
<!-- Generator: Adobe Illustrator 19.2.1, SVG Export Plug-In . SVG Version: 6.00 Build 0)  -->
<svg version="1.1" id="Layer_1" xmlns="http://www.w3.org/2000/svg" xmlns:xlink="http://www.w3.org/1999/xlink" x="0px" y="0px"
	 width="795.2px" height="907.2px" viewBox="0 0 795.2 907.2" style="enable-background:new 0 0 795.2 907.2;" xml:space="preserve"
	>
<style type="text/css">
	.st0{fill:url(#SVGID_1_);}
</style>
<linearGradient id="SVGID_1_" gradientUnits="userSpaceOnUse" x1="397.5998" y1="907.1001" x2="397.5998" y2="2.091838e-09">
	<stop  offset="0" style="stop-color:#24C7FB"/>
	<stop  offset="1" style="stop-color:#36E6FF"/>
</linearGradient>
<path class="st0" d="M215.8,405.7h-25.9V386h22.6c-1-7.7-1.4-15.8-1.4-24c0-8.6,0.5-16.8,1.4-25h-22.6v-19.7h26.4
	c17.8-73.4,80.6-121,157-121c50.9,0,89.3,22.6,116.6,56.6l-23,14.9c-20.2-27.8-55.2-46.6-93.6-46.6c-61,0-110.9,37.4-127.7,96H402
	v19.7H241.2c-1,8.2-1.4,16.3-1.4,25c0,8.2,0.5,16.3,1.4,24H402v19.7H245.5c16.8,58.6,66.2,97,127.7,97c38.4,0,73.4-18.7,93.6-46.6
	l23,14.4c-28.3,35-65.8,57.1-116.6,57.1C296.4,527.6,233.5,480.1,215.8,405.7z M684.8,693.4h-19.6h-95.8h-19.6
	c-11.3,0-20.4,9.2-20.4,20.4v89.4c0,11.3,9.2,20.4,20.4,20.4h135c11.3,0,20.4-9.2,20.4-20.4v-89.4
	C705.2,702.5,696.1,693.4,684.8,693.4z M590.9,795.3l14.9-25.7c-8.2-4.2-13.8-12.6-13.8-22.5c0-14,11.3-25.3,25.3-25.3
	s25.3,11.3,25.3,25.3c0,9.8-5.7,18.3-13.8,22.5l14.9,25.7H590.9z M665.2,666.7c0-26.1-21.2-47.3-47.3-47.3h-1.1
	c-26.1,0-47.3,21.2-47.3,47.3v12.7h95.8v-12.7H665.2z M649.5,554.3c28.7-42,50.3-91,50.3-144.4l0.2-70.5l-15,15.1v0.2l-34.5,34.5
	l-33.6-33.6l0,0l-15-15l-0.2,60.8c0,34.5-14,97.3-107.9,183.6c-26.7,24.6-56.9,47.2-85.2,63.8c-25,14.7-46.6,23.5-57.8,23.5
	c-11.2,0-32.8-8.8-57.9-23.5c-28.3-16.6-58.6-39.2-85.4-63.8c-94-86.3-108.1-157.1-108.1-191.7v-4.4l-50.1-50.1L1.1,387l0.1,14.9
	c0,110.4,93.2,210.3,148.7,260c36.3,32.5,77.4,62.5,115.8,84.4c36.8,21,67.1,32.6,85.3,32.6c18.2,0,48.4-11.6,85.1-32.6
	c1.3-0.7,2.6-1.5,3.9-2.3c7.6,91.2,84.2,163.1,177.3,163.1c98.1,0,177.9-79.8,177.9-177.9C795.2,642.2,732.3,569.5,649.5,554.3z
	 M439.4,727c-38.6,23.4-71.4,37-88.4,37c-15.2,0-44.3-11.5-77.8-30.6c-37.5-21.5-77.8-50.8-113.3-82.6
	C34.8,538.8,16.2,446.8,16.2,402v-8.7L49.3,360l35.2,35.2c1,85.4,71.1,162.4,113.1,200.9c27.5,25.2,58.8,48.6,88,65.7
	c16.3,9.5,46.4,25.5,65.5,25.5c19,0,49.1-16,65.4-25.6c20.4-12,41.7-27,62.1-43.5C454.5,648.1,439.9,685.9,439.4,727z M616.8,401.4
	l0.1-24.7l33.7,33.7L685,376l-0.1,33.9c0,30.5-8.6,79-53.1,142c-4.8-0.4-9.6-0.6-14.4-0.6c-35,0-67.7,10.2-95.3,27.7
	C563.6,538.6,616.8,476.1,616.8,401.4z M719.2,803.2c0,19-15.4,34.4-34.4,34.4h-135c-19,0-34.4-15.4-34.4-34.4v-89.4
	c0-19,15.4-34.4,34.4-34.4h5.6v-12.7c0-3,0.2-5.9,0.6-8.8c3.9-27,25.4-48.4,52.5-52c2.7-0.4,5.4-0.6,8.2-0.6h1.1
	c33.8,0,61.3,27.5,61.3,61.3v12.7h5.6c19,0,34.4,15.4,34.4,34.4v89.5H719.2z M99.3,334.9l-0.8-218.6c27.3-4.4,139.8-21.1,251.8-21.1
	h0.7c111.9,0,224.4,16.8,251.8,21.1L602.1,287l48.5,48.4l49.7-50L701,79.5c0.1-28.7-21.2-53.2-49.7-57.2C590.7,14,471.1,0,351,0h-1
	C229.9,0,110.3,14,49.7,22.3C21.2,26.2-0.1,50.8,0,79.5l1,253.8L49.3,285L99.3,334.9z M15,79.4C14.9,58.2,30.7,40,51.7,37.2
	C112,28.9,230.8,15,350,15h1c119.2,0,238,13.9,298.3,22.2c21,2.9,36.8,21,36.7,42.2l-0.7,200.1l-34.7,34.7l-33.4-33.4l0.6-177.1
	l-6.2-1.1c-1.3-0.2-131.3-22.4-260.5-22.4h-0.7C221,80.2,91,102.3,89.7,102.5l-6.2,1.1l0.7,195.1l-34.9-34.9l-33.5,33.5L15,79.4z"/>
</svg>
