<?xml version="1.0" encoding="utf-8"?>
<!-- Generator: Adobe Illustrator 19.2.1, SVG Export Plug-In . SVG Version: 6.00 Build 0)  -->
<svg version="1.1" id="Layer_1" xmlns="http://www.w3.org/2000/svg" xmlns:xlink="http://www.w3.org/1999/xlink" x="0px" y="0px"
	 width="84.605px" height="67.041px" viewBox="0 0 84.605 67.041" style="enable-background:new 0 0 84.605 67.041;"
	 xml:space="preserve">
<style type="text/css">
	.st0{fill:#FFFFFF;}
	.st1{fill:url(#SVGID_1_);}
</style>
<g>
	<g>
		<path class="st0" d="M70.994,50.407c-0.103-0.012-0.205-0.03-0.31-0.03c-1.613,0-2.743,1.129-2.743,2.743
			c0,1.219,0.913,2.314,2.065,2.638c0.22,0.062,0.445,0.105,0.678,0.105c1.452,0,2.743-1.291,2.743-2.743
			C73.427,51.623,72.314,50.556,70.994,50.407z"/>
		<linearGradient id="SVGID_1_" gradientUnits="userSpaceOnUse" x1="68.0777" y1="59.1109" x2="68.0777" y2="4.252">
			<stop  offset="0" style="stop-color:#24C7FB"/>
			<stop  offset="1" style="stop-color:#36E6FF"/>
		</linearGradient>
		<path class="st1" d="M67.759,59.111h0.638c-0.138-0.046-0.274-0.091-0.456-0.182L67.759,59.111z"/>
		<path class="st0" d="M74.221,39.65V4.84c0-2.669-2.171-4.84-4.84-4.84H4.84C2.171,0,0,2.171,0,4.84v49.43
			c0,2.669,2.171,4.84,4.84,4.84h53.526c2.174,5.159,7.572,7.93,12.317,7.93c7.801,0,13.921-5.901,13.921-13.921
			C84.605,46.322,80.528,41.232,74.221,39.65z M2.927,4.54c0-0.89,0.723-1.613,1.613-1.613h65.14c0.89,0,1.613,0.723,1.613,1.613
			v4.996H2.927V4.54z M57.062,53.12c0,0.946,0.097,1.868,0.27,2.764H4.54c-0.89,0-1.613-0.723-1.613-1.613V11.15h68.367v28.065
			c-0.104-0.002-0.205-0.016-0.31-0.016C62.964,39.198,57.062,45.1,57.062,53.12z M80.204,55.217h-3.227
			c-0.161,0.323-0.161,0.484-0.323,0.807l2.259,2.259l-2.904,2.904l-2.259-2.259c-0.323,0.161-0.484,0.161-0.807,0.323v3.227h-4.195
			v-3.227c-0.14-0.07-0.624-0.232-0.807-0.323l-2.259,2.259l-2.076-2.076l-0.828-0.828l2.259-2.259
			c-0.028-0.056-0.036-0.092-0.056-0.14c-0.095-0.228-0.133-0.4-0.267-0.666h-3.227v-4.195h3.227
			c0.161-0.323,0.161-0.484,0.323-0.807l-2.259-2.259l2.904-2.904l2.259,2.259c0.323-0.161,0.484-0.161,0.807-0.323v-3.227h2.246
			h1.949v3.227c0.323,0.161,0.484,0.161,0.807,0.323l0.471-0.471l1.788-1.788l2.904,2.904l-2.259,2.259
			c0.161,0.323,0.161,0.484,0.323,0.807h3.227V55.217z"/>
	</g>
	<circle class="st0" cx="6.319" cy="6.303" r="1.613"/>
	<circle class="st0" cx="11.16" cy="6.303" r="1.613"/>
	<circle class="st0" cx="16" cy="6.303" r="1.613"/>
	<g>
		<g>
			<polygon class="st0" points="28.317,38.886 19.51,32.067 28.317,25.25 29.174,26.357 21.797,32.067 29.174,37.778 			"/>
		</g>
		<g>
			<polygon class="st0" points="44.848,38.886 43.991,37.778 51.368,32.067 43.991,26.357 44.848,25.25 53.655,32.067 			"/>
		</g>
		<g>
			
				<rect x="23.382" y="31.839" transform="matrix(0.2596 -0.9657 0.9657 0.2596 -4.8344 58.7718)" class="st0" width="25.056" height="1.4"/>
		</g>
	</g>
</g>
</svg>
