<?xml version="1.0" encoding="utf-8"?>
<!-- Generator: Adobe Illustrator 16.0.0, SVG Export Plug-In . SVG Version: 6.00 Build 0)  -->
<!DOCTYPE svg PUBLIC "-//W3C//DTD SVG 1.1//EN" "http://www.w3.org/Graphics/SVG/1.1/DTD/svg11.dtd">
<svg version="1.1" id="Layer_1" xmlns="http://www.w3.org/2000/svg" xmlns:xlink="http://www.w3.org/1999/xlink" x="0px" y="0px"
	 width="700.611px" height="905.021px" viewBox="-0.009 47.489 700.611 905.021"
	 enable-background="new -0.009 47.489 700.611 905.021" xml:space="preserve">
<linearGradient id="SVGID_1_" gradientUnits="userSpaceOnUse" x1="30.9678" y1="915.9482" x2="30.9678" y2="1008.6484" gradientTransform="matrix(9.7629 0 0 -9.7629 47.9623 9894.8145)">
	<stop  offset="0" style="stop-color:#24C7FB"/>
	<stop  offset="1" style="stop-color:#36E6FF"/>
</linearGradient>
<path fill="#FFF" d="M677.545,387.238c-15.62-16.597-19.525-41.004-8.786-60.53c11.716-21.479,12.691-47.838,1.952-70.293
	c-9.763-22.455-30.265-39.052-54.672-44.909c-22.455-4.881-38.075-23.431-40.028-46.862c-1.952-24.407-15.62-46.862-36.122-60.53
	s-46.862-16.597-69.316-7.811c-20.503,7.811-44.91,0-58.578-17.573c-14.645-19.526-38.075-31.242-62.482-31.242
	s-47.838,11.716-62.482,31.242c-13.668,17.573-38.075,24.407-58.577,17.573c-23.431-8.786-48.815-5.857-69.317,7.811
	s-34.17,36.123-36.123,60.53c-1.953,22.455-17.573,41.004-40.028,46.862c-23.431,4.881-43.933,21.478-53.696,43.933
	c-9.763,22.455-9.763,48.814,1.953,70.293c10.739,20.502,6.834,44.909-8.787,60.53C4.881,403.835-2.929,429.219,0.976,453.626
	c3.905,24.407,18.55,45.886,40.028,58.578c19.525,10.738,30.265,33.193,25.383,55.648c-4.881,24.407,1.953,49.79,17.573,68.34
	c10.739,12.691,25.384,21.479,41.004,25.384L52.72,873.431c-0.977,2.93,0,5.858,1.953,7.811c1.953,1.953,4.881,1.953,7.81,0.977
	l132.775-66.388l65.412,132.775c0.976,1.952,3.905,3.905,5.858,3.905l0,0c2.929,0,4.881-1.953,5.857-4.882l76.15-225.522
	l76.151,225.522c0.976,2.929,2.929,4.882,5.857,4.882l0,0c2.929,0,4.882-1.953,5.857-3.905l65.412-132.775l132.775,65.411
	c2.929,0.977,5.857,0.977,7.81-0.977c1.953-1.952,2.93-4.881,1.953-7.811l-68.341-210.878c15.621-3.905,30.266-12.692,41.005-25.384
	c15.62-18.55,22.454-43.933,17.573-68.34c-4.882-22.455,5.857-44.91,25.383-55.648c21.479-11.716,36.123-34.171,40.028-58.578
	C702.929,429.219,695.118,404.812,677.545,387.238z M266.527,928.104l-61.506-123.989c-0.977-2.929-3.905-3.905-5.858-3.905
	c-0.976,0-1.953,0-2.929,0.977L71.269,862.691l67.364-199.163c2.929,0,6.834,0,9.763,0c22.455-0.976,42.957,12.692,50.767,33.194
	c8.787,23.431,28.313,41.004,51.744,47.838c23.431,6.834,49.791,1.953,69.316-12.691c4.882-3.905,9.764-5.858,15.621-7.811
	L266.527,928.104z M628.73,862.691l-123.988-61.506c-3.905-1.952-7.811,0-8.787,2.929l-61.506,123.989l-68.341-203.068
	c5.858,1.952,10.739,3.905,15.621,7.81c13.668,9.764,30.265,15.621,46.862,15.621c7.81,0,14.644-0.977,22.454-2.929
	c23.431-6.834,42.957-24.407,51.743-47.839c7.811-20.502,29.289-34.17,50.768-33.193c1.952,0,2.929,0,4.881,0l0,0
	c1.953,0,2.93,0,4.882,0L628.73,862.691z M671.688,449.721c-1.952,15.621-11.715,30.266-25.384,38.075
	c-30.265,16.598-45.886,51.744-39.051,85.914c2.929,15.62-0.977,32.218-11.716,44.909c-10.739,11.716-25.384,18.55-41.98,17.573
	c-34.17-1.952-66.388,18.55-79.08,50.768c-5.857,14.644-18.549,26.359-33.193,31.241c-15.621,4.881-32.218,1.952-44.909-7.811
	c-13.668-9.763-30.265-15.621-46.862-15.621c-16.597,0-33.193,4.882-46.861,15.621c-12.692,9.763-29.289,12.691-44.91,7.811
	c-15.621-4.882-27.336-16.598-33.194-31.241c-11.716-32.218-43.933-53.696-79.08-50.768c-15.621,0.977-31.241-5.857-41.98-17.573
	S88.842,589.33,91.771,573.71c6.834-34.17-8.787-68.341-39.052-85.914c-13.668-7.81-23.431-22.454-25.383-38.075
	c-1.953-15.62,2.929-32.217,14.644-43.933c24.407-25.384,29.289-62.482,13.668-92.748c-7.81-14.645-7.81-31.241-0.976-45.886
	s19.526-25.383,35.146-29.289c34.17-7.811,58.577-36.123,61.506-71.27c0.976-15.621,9.763-31.241,23.431-39.051
	c13.668-8.787,30.265-10.739,44.91-4.881c8.787,2.929,17.573,4.881,27.336,4.881c24.407,0,47.838-11.715,62.483-31.241
	c9.763-12.692,24.407-20.502,41.004-20.502c15.62,0,31.241,7.811,41.004,20.502c14.645,19.526,38.075,31.241,62.482,31.241
	c8.787,0,18.55-1.953,27.337-4.881c14.644-5.858,32.217-3.905,44.909,4.881c13.668,8.787,22.454,23.431,23.431,39.051
	c2.929,35.146,27.336,63.459,61.506,71.27c15.621,3.905,28.313,14.644,35.146,29.289s5.858,32.217-0.976,45.886
	c-16.598,31.241-10.739,68.34,13.668,92.748C668.759,417.503,674.616,434.101,671.688,449.721z M350.488,157.811
	c-131.799,0-239.191,107.392-239.191,239.191s107.392,239.191,239.191,239.191c131.799,0,239.191-107.392,239.191-239.191
	S482.287,157.811,350.488,157.811z M350.488,623.501c-123.989,0-225.523-101.534-225.523-225.523
	c0-123.989,101.534-225.523,225.523-225.523c123.988,0,225.522,100.558,225.522,225.523S474.477,623.501,350.488,623.501z
	 M354.394,302.301h23.431v213.807h-26.359V337.448l-34.171,36.123l-15.62-16.597L354.394,302.301z"/>
</svg>
