<?xml version="1.0" encoding="utf-8"?>
<!-- Generator: Adobe Illustrator 16.0.0, SVG Export Plug-In . SVG Version: 6.00 Build 0)  -->
<!DOCTYPE svg PUBLIC "-//W3C//DTD SVG 1.1//EN" "http://www.w3.org/Graphics/SVG/1.1/DTD/svg11.dtd">
<svg version="1.1" id="Layer_1" xmlns="http://www.w3.org/2000/svg" xmlns:xlink="http://www.w3.org/1999/xlink" x="0px" y="0px"
	 width="700px" height="700px" viewBox="0 150 700 700" enable-background="new 0 150 700 700" xml:space="preserve">
<linearGradient id="SVGID_1_" gradientUnits="userSpaceOnUse" x1="16.6304" y1="966.8184" x2="16.6304" y2="1004.8184" gradientTransform="matrix(18.4211 0 0 -18.4211 43.6332 18659.8105)">
	<stop  offset="0" style="stop-color:#24C7FB"/>
	<stop  offset="1" style="stop-color:#36E6FF"/>
</linearGradient>
<path fill="#FFF" d="M528.685,231.053H171.316c-49.737,0-90.263,40.526-90.263,90.263v359.21
	c0,49.736,40.526,90.263,90.263,90.263h359.21c49.737,0,90.263-40.526,90.263-90.263v-359.21
	C618.947,271.579,578.421,231.053,528.685,231.053z M593.158,678.685c0,35-27.632,62.631-62.632,62.631h-359.21
	c-35,0-62.632-27.631-62.632-62.631V321.316c0-35,27.632-62.632,62.632-62.632h359.21c35,0,62.632,27.632,62.632,62.632V678.685z
	 M486.315,330.526H213.684c-16.579,0-31.315,14.737-31.315,31.316v274.473c0,16.579,14.737,31.316,31.315,31.316h274.474
	c16.578,0,31.315-14.737,31.315-31.316V361.842C519.474,345.263,504.736,330.526,486.315,330.526z M501.053,636.315
	c0,7.369-5.526,12.896-12.895,12.896H213.684c-7.368,0-12.895-5.526-12.895-12.896V361.842c0-7.369,5.526-12.895,12.895-12.895
	h274.474c7.368,0,12.895,5.526,12.895,12.895V636.315z M198.947,207.105V150h25.79v57.105H198.947z M267.105,207.105V150h27.631
	v57.105H267.105z M337.105,207.105V150h25.789v57.105H337.105z M405.263,207.105V150h25.79v57.105H405.263z M475.264,207.105V150
	h25.789v57.105H475.264z M224.737,792.895V850h-25.79v-57.105H224.737z M294.737,792.895V850h-25.79v-57.105H294.737z
	 M362.895,792.895V850h-25.789v-57.105H362.895z M432.895,792.895V850h-27.632v-57.105H432.895z M501.053,792.895V850h-25.789
	v-57.105H501.053z M700,348.947v25.79h-57.105v-25.79H700z M642.895,417.105H700v27.632h-57.105V417.105z M642.895,487.105H700
	v25.789h-57.105V487.105z M642.895,555.263H700v25.79h-57.105V555.263z M642.895,625.263H700v25.79h-57.105V625.263z M0,348.947
	h57.105v25.79H0V348.947z M0,417.105h57.105v27.632H0V417.105z M0,487.105h57.105v25.789H0V487.105z M0,555.263h57.105v25.79H0
	V555.263z M0,625.263h57.105v25.79H0V625.263z M379.474,413.421l-40.526,175l-18.421-3.684l40.526-175L379.474,413.421z
	 M320.526,557.105l-11.053,14.736L222.895,500l86.579-71.842l11.053,14.736L252.368,500L320.526,557.105z M390.526,428.158
	L477.105,500l-86.579,71.842l-11.053-14.736l70-57.105l-70-57.105L390.526,428.158z"/>
</svg>
