<?xml version="1.0" encoding="utf-8"?>
<!-- Generator: Adobe Illustrator 16.0.0, SVG Export Plug-In . SVG Version: 6.00 Build 0)  -->
<!DOCTYPE svg PUBLIC "-//W3C//DTD SVG 1.1//EN" "http://www.w3.org/Graphics/SVG/1.1/DTD/svg11.dtd">
<svg version="1.1" id="Layer_1" xmlns="http://www.w3.org/2000/svg" xmlns:xlink="http://www.w3.org/1999/xlink" x="0px" y="0px"
	 width="699.027px" height="700px" viewBox="0 0 699.027 700" enable-background="new 0 0 699.027 700" xml:space="preserve">
<linearGradient id="SVGID_1_" gradientUnits="userSpaceOnUse" x1="6.7954" y1="-136.0903" x2="6.7954" y2="-154.0903" gradientTransform="matrix(38.8889 0 0 38.8889 85.232 5992.3945)">
	<stop  offset="0" style="stop-color:#24C7FB"/>
	<stop  offset="1" style="stop-color:#36E6FF"/>
</linearGradient>
<path fill="url(#SVGID_1_)" d="M62.222,38.889C3.889,101.11,0,178.889,0,178.889c15.556,73.888,101.11,213.889,202.222,318.889
	c105,105,241.111,186.668,318.89,202.223c0,0,77.776-3.889,140-62.223l0,0l35-35c3.889-3.889,3.889-11.666,0-19.443L540.556,427.777
	c-3.889-3.891-11.667-3.891-19.443,0l-35,35l0,0L455,505.555c0,0-66.111-15.555-155.556-105C206.11,311.112,194.443,245,194.443,245
	l42.778-35l0,0l0,0l0,0l0,0l35-35c3.889-3.889,3.889-11.667,0-19.444L116.667,0c-3.89,0-11.667,0-15.556,3.889L62.222,38.889
	L62.222,38.889z"/>
</svg>
