<?xml version="1.0" encoding="utf-8"?>
<!-- Generator: Adobe Illustrator 16.0.0, SVG Export Plug-In . SVG Version: 6.00 Build 0)  -->
<!DOCTYPE svg PUBLIC "-//W3C//DTD SVG 1.1//EN" "http://www.w3.org/Graphics/SVG/1.1/DTD/svg11.dtd">
<svg version="1.1" id="Layer_1" xmlns="http://www.w3.org/2000/svg" xmlns:xlink="http://www.w3.org/1999/xlink" x="0px" y="0px"
	 width="700.926px" height="754.629px" viewBox="0 0 700.926 754.629" enable-background="new 0 0 700.926 754.629"
	 xml:space="preserve">
<linearGradient id="SVGID_1_" gradientUnits="userSpaceOnUse" x1="27.8481" y1="-58.1733" x2="27.8481" y2="-139.8165" gradientTransform="matrix(9.2593 0 0 9.2593 92.6019 1294.562)">
	<stop  offset="0" style="stop-color:#24C7FB"/>
	<stop  offset="1" style="stop-color:#36E6FF"/>
</linearGradient>
<path fill="url(#SVGID_1_)" d="M632.407,515.741V101.853c0-16.667-12.963-29.631-27.777-29.631H503.704V42.593
	C503.704,18.52,484.26,0,460.185,0c-24.074,0-43.519,19.444-43.519,42.593v28.704H215.741V42.593C215.741,18.52,196.297,0,172.222,0
	c-24.075,0-42.593,19.444-42.593,42.593v28.704H27.778C12.037,71.297,0,85.186,0,100.926v529.63h445.37
	c1.853,68.519,58.334,124.073,127.778,124.073c70.369,0,127.776-57.406,127.776-127.776C700,579.63,673.148,537.037,632.407,515.741
	z M443.519,42.593c0-9.259,7.407-16.667,17.594-16.667c9.259,0,16.666,7.408,16.666,16.667v64.815
	c0,9.259-7.407,16.667-16.666,16.667h-0.927c-9.26,0-16.667-7.408-16.667-16.667V42.593L443.519,42.593z M155.556,42.593
	c0-9.259,7.407-16.667,17.592-16.667c9.259,0,16.667,7.408,16.667,16.667v64.815c0,9.259-7.408,16.667-16.667,16.667h-0.926
	c-9.259,0-16.667-7.408-16.667-16.667L155.556,42.593L155.556,42.593z M25.926,101.853c0-2.778,1.852-3.704,1.852-3.704h100.926
	v10.186c0,24.074,19.444,42.593,42.593,42.593h0.926c24.074,0,42.593-19.444,42.593-42.593V98.148h201.852v10.186
	c0,24.074,19.444,42.593,42.592,42.593h0.928c24.072,0,42.592-19.444,42.592-42.593V98.148h100.927c0.926,0,1.852,0.926,1.852,3.704
	v81.48H25.926V101.853z M25.926,209.259h580.557v296.297c-11.111-2.777-22.224-4.63-33.333-4.63
	c-22.224,0-42.594,5.557-61.111,15.74V274.074H103.704V550h368.519c-12.037,15.74-21.297,34.26-25,55.556H25.926V209.259z
	 M484.26,537.037H380.556V418.52h118.52V525C493.52,528.704,488.889,532.408,484.26,537.037z M380.556,405.556V287.037h118.52
	v118.519H380.556z M248.148,405.556V287.037h118.519v118.519H248.148z M366.667,418.52v118.518H248.148V418.52H366.667z
	 M116.667,405.556V287.037h118.519v118.519H116.667z M235.185,418.52v118.518H116.667V418.52H235.185z M614.814,679.63
	l-41.666-41.666l-41.667,41.666l-9.26-9.259l41.666-41.667l-41.666-41.667l9.26-9.259l41.667,41.667l41.666-41.667l9.26,9.259
	l-41.667,41.667l41.667,41.667L614.814,679.63z"/>
</svg>
