<?xml version="1.0" encoding="utf-8"?>
<!-- Generator: Adobe Illustrator 16.0.0, SVG Export Plug-In . SVG Version: 6.00 Build 0)  -->
<!DOCTYPE svg PUBLIC "-//W3C//DTD SVG 1.1//EN" "http://www.w3.org/Graphics/SVG/1.1/DTD/svg11.dtd">
<svg version="1.1" id="Layer_1" xmlns="http://www.w3.org/2000/svg" xmlns:xlink="http://www.w3.org/1999/xlink" x="0px" y="0px"
	 width="700px" height="706.564px" viewBox="0 0 700 706.564" enable-background="new 0 0 700 706.564" xml:space="preserve">
<g>
	
		<linearGradient id="SVGID_1_" gradientUnits="userSpaceOnUse" x1="30.46" y1="-134.4565" x2="30.46" y2="-166.1567" gradientTransform="matrix(8.2063 0 0 8.2063 97.475 1363.5337)">
		<stop  offset="0" style="stop-color:#24C7FB"/>
		<stop  offset="1" style="stop-color:#36E6FF"/>
	</linearGradient>
	<path fill="url(#SVGID_1_)" d="M19.695,238.805c0.82,0,1.641,0,1.641,0c2.462,0,4.924-1.642,5.745-4.104
		c0.82-3.283,2.462-5.745,3.282-9.027C77.96,97.655,203.517,11.489,340.563,11.489c130.48,0,250.293,77.96,302.813,196.131
		l-26.26,9.848l51.7,42.673l10.668-65.65l-24.619,9.027C599.883,81.243,475.967,0,340.562,0C198.593,0,68.933,89.449,18.874,222.393
		c-0.821,3.281-2.462,5.744-3.283,9.026C14.771,234.701,16.413,237.982,19.695,238.805z"/>
	
		<linearGradient id="SVGID_2_" gradientUnits="userSpaceOnUse" x1="28.7729" y1="-114.0225" x2="28.7729" y2="-132.2842" gradientTransform="matrix(8.2063 0 0 8.2063 97.475 1363.5337)">
		<stop  offset="0" style="stop-color:#24C7FB"/>
		<stop  offset="1" style="stop-color:#36E6FF"/>
	</linearGradient>
	<path fill="url(#SVGID_2_)" d="M289.684,326.611h-9.027l-7.385,19.694h13.951c-0.821,4.104-0.821,9.027,0,13.951h-6.565
		l-7.385,19.695h16.413c0.82,4.924,3.282,18.054,13.95,29.543c10.669,11.488,26.261,18.874,49.238,18.874
		c18.875,0,31.185-4.104,39.391-9.026v-31.185c-6.564,7.386-17.232,14.771-36.929,14.771c-15.592,0-31.184-6.564-35.287-22.978
		h37.749l7.386-19.695h-50.059c-0.82-4.924-0.82-9.848,0-13.951h54.162l7.386-19.694h-57.444
		c2.463-7.386,9.849-23.798,35.287-23.798c13.95,0,22.979,4.924,27.901,7.386l11.489-22.979c-8.207-4.924-19.695-9.848-36.93-9.848
		c-21.337,0-38.569,7.386-50.059,18.054C301.993,300.352,292.966,310.199,289.684,326.611z"/>
	
		<linearGradient id="SVGID_3_" gradientUnits="userSpaceOnUse" x1="30.0229" y1="-102.7563" x2="30.0229" y2="-144.1567" gradientTransform="matrix(8.2063 0 0 8.2063 97.475 1363.5337)">
		<stop  offset="0" style="stop-color:#24C7FB"/>
		<stop  offset="1" style="stop-color:#36E6FF"/>
	</linearGradient>
	<path fill="url(#SVGID_3_)" d="M173.974,350.41c0,93.552,76.319,169.871,169.872,169.871s169.871-76.319,169.871-169.871
		c0-93.553-76.318-169.871-169.871-169.871S173.974,256.857,173.974,350.41z M490.738,350.41
		c0,81.242-65.65,146.894-146.894,146.894c-81.243,0-146.894-65.65-146.894-146.894s65.65-146.894,146.894-146.894
		C425.088,203.517,490.738,269.988,490.738,350.41z"/>
	
		<linearGradient id="SVGID_4_" gradientUnits="userSpaceOnUse" x1="30.7729" y1="-80.1167" x2="30.7729" y2="-116.0283" gradientTransform="matrix(8.2063 0 0 8.2063 97.475 1363.5337)">
		<stop  offset="0" style="stop-color:#24C7FB"/>
		<stop  offset="1" style="stop-color:#36E6FF"/>
	</linearGradient>
	<path fill="url(#SVGID_4_)" d="M647.479,497.304c11.489-22.978,20.517-48.418,27.081-74.678l0.82-4.924
		c0.82-3.282-1.641-6.565-4.104-6.565c-3.282-0.819-6.564,1.643-6.564,4.104l-0.82,4.104c-5.745,25.439-14.771,49.237-26.261,71.396
		c-14.771-7.386-32.005-12.311-50.059-12.311c-62.368,0-113.247,50.881-113.247,113.248c0,17.232,4.103,34.467,11.487,49.237
		c-44.313,21.337-93.552,32.825-145.252,32.825c-129.66,0-247.831-76.318-301.171-192.85l25.439-4.924L19.693,426.73L0,490.738
		l27.081-6.564C82.884,606.447,205.158,686.87,340.562,686.87c53.343,0,105.041-12.31,150.177-34.467
		c19.694,32.005,55.804,54.161,96.015,54.161c62.368,0,113.247-50.879,113.247-113.247C700,553.106,678.663,517.819,647.479,497.304
		z M624.502,638.452l-36.929-36.929l-37.749,36.929l-8.206-8.206l36.928-36.929l-36.928-37.749l8.206-8.206l36.929,36.929
		l36.928-36.929l8.207,8.206l-36.929,36.929l36.929,36.929L624.502,638.452z"/>
</g>
</svg>
