<?xml version="1.0" encoding="utf-8"?>
<!-- Generator: Adobe Illustrator 16.0.0, SVG Export Plug-In . SVG Version: 6.00 Build 0)  -->
<!DOCTYPE svg PUBLIC "-//W3C//DTD SVG 1.1//EN" "http://www.w3.org/Graphics/SVG/1.1/DTD/svg11.dtd">
<svg version="1.1" id="Layer_1" xmlns="http://www.w3.org/2000/svg" xmlns:xlink="http://www.w3.org/1999/xlink" x="0px" y="0px"
	 width="700px" height="765.379px" viewBox="0 0 700 765.379" enable-background="new 0 0 700 765.379" xml:space="preserve">
<linearGradient id="SVGID_1_" gradientUnits="userSpaceOnUse" x1="29.0278" y1="-47.7607" x2="29.0278" y2="-135.561" gradientTransform="matrix(8.7173 0 0 8.7173 96.9617 1181.7241)">
	<stop  offset="0" style="stop-color:#24C7FB"/>
	<stop  offset="1" style="stop-color:#36E6FF"/>
</linearGradient>
<path fill="url(#SVGID_1_)" d="M387.049,371.356l-4.358-11.332c3.486-1.743,7.846-3.487,11.333-5.23l5.229,11.334
	C395.766,368.742,391.407,370.485,387.049,371.356z M373.101,95.019c-8.717-2.615-17.435-3.487-27.022-4.358l-0.872,12.204
	c8.718,0.872,16.563,1.744,24.409,4.359L373.101,95.019z M212.702,282.44l-12.204,4.358c3.487,8.717,6.974,16.563,12.204,24.407
	l10.461-6.102C218.805,298.131,215.317,290.287,212.702,282.44z M328.643,102.863l-0.871-12.204
	c-8.718,0.872-18.307,1.743-27.023,4.358l2.615,12.205C312.08,104.607,320.797,103.735,328.643,102.863z M232.752,318.182
	l-9.589,7.846c6.102,6.974,12.204,13.947,19.178,19.178l7.846-9.589C244.084,331.257,237.982,325.155,232.752,318.182z
	 M369.614,376.587l-2.615-12.204c-7.846,1.743-16.563,2.614-24.409,3.486l0.872,12.204
	C352.18,380.074,360.896,379.202,369.614,376.587z M208.344,201.369l-12.204-3.487c-2.615,8.718-3.487,17.436-4.359,27.024
	l12.204,0.872C204.857,217.061,205.729,209.214,208.344,201.369z M224.907,163.014l-10.461-6.103
	c-5.23,7.846-9.589,15.691-12.204,24.408l11.333,4.359C217.061,177.832,220.548,169.987,224.907,163.014z M256.289,356.537
	c7.845,5.23,15.691,9.591,24.408,13.076l4.359-11.332c-7.846-3.487-14.819-6.974-21.793-11.333L256.289,356.537z M225.778,142.091
	l9.589,7.847c5.23-6.104,11.333-12.205,17.435-17.436l-7.845-9.589C237.982,129.016,231.009,135.117,225.778,142.091z
	 M325.155,367.87c-8.718-0.872-16.563-1.742-24.408-4.357l-3.487,12.204c8.717,2.614,17.436,4.357,27.024,4.357L325.155,367.87z
	 M203.985,242.34l-12.204,0.872c0,8.718,1.744,18.307,3.487,27.024l12.205-2.615C205.729,258.903,203.985,250.187,203.985,242.34z
	 M288.543,111.581l-4.359-11.333c-8.717,3.487-16.563,6.975-24.408,12.204l6.974,10.461
	C273.724,118.555,280.697,115.067,288.543,111.581z M402.739,106.351c-4.358-1.743-7.846-4.358-12.204-6.103l-4.358,11.333
	c3.487,1.744,7.847,3.487,11.333,5.23L402.739,106.351z M248.443,206.6h-26.152v12.205h26.152V206.6z M309.465,218.805h26.151V206.6
	h-26.151V218.805z M353.051,218.805h19.18V206.6h-19.18V218.805L353.051,218.805z M265.878,218.805h26.152V206.6h-26.152V218.805z
	 M147.323,218.805h26.152V206.6h-26.152V218.805z M147.323,263.263h26.152v-12.204h-26.152V263.263z M222.292,263.263h26.152
	v-12.204h-26.152V263.263z M265.878,263.263h26.152v-12.204h-26.152V263.263z M309.465,263.263h24.408v-12.204h-24.408V263.263z
	 M700,645.08c0,66.252-54.047,120.3-120.299,120.3c-51.434,0-95.02-32.255-111.582-76.713H12.204C5.23,688.667,0,683.437,0,676.463
	V349.563c0-3.486,0.872-6.102,3.487-8.717l0,0l61.021-62.765V6.102c0-3.487,2.615-6.103,6.102-6.103h468.119
	c3.487,0,6.104,2.615,6.104,6.103v265.878l67.995,68.867l0,0c2.615,2.615,3.486,5.229,3.486,8.717v181.32
	C665.131,545.703,700,591.033,700,645.08z M544.832,360.896l37.484-15.691l-37.484-37.483V360.896L544.832,360.896z
	 M331.258,477.708l149.938,100.249c21.793-32.254,58.405-53.176,99.378-53.176c4.357,0,7.845,0,12.204,0.872V367.87L331.258,477.708
	z M76.712,363.512l228.394,97.634l227.521-95.02V12.203H76.712V363.512z M33.998,345.205l31.382,13.076v-45.33L33.998,345.205z
	 M24.409,652.055l255.417-174.348L24.409,367.87V652.055z M462.018,663.387c-0.871-6.104-1.743-12.204-1.743-18.308
	c0-15.689,3.486-31.382,8.718-45.328L305.105,489.912L52.304,663.387H462.018z M589.29,645.08l39.228-39.228l-8.717-8.717
	l-39.228,39.228l-40.101-40.1l-8.718,8.717l39.229,39.229l-39.229,40.1l8.718,8.717l39.229-39.228l39.228,39.228l8.719-8.717
	L589.29,645.08z"/>
</svg>
