<?xml version="1.0" encoding="utf-8"?>
<!-- Generator: Adobe Illustrator 16.0.0, SVG Export Plug-In . SVG Version: 6.00 Build 0)  -->
<!DOCTYPE svg PUBLIC "-//W3C//DTD SVG 1.1//EN" "http://www.w3.org/Graphics/SVG/1.1/DTD/svg11.dtd">
<svg version="1.1" id="Layer_1" xmlns="http://www.w3.org/2000/svg" xmlns:xlink="http://www.w3.org/1999/xlink" x="0px" y="0px"
	 width="700px" height="756.482px" viewBox="0 0 700 756.482" enable-background="new 0 0 700 756.482" xml:space="preserve">
<linearGradient id="SVGID_1_" gradientUnits="userSpaceOnUse" x1="27.3853" y1="-57.2861" x2="27.3853" y2="-138.9858" gradientTransform="matrix(9.2593 0 0 9.2593 96.425 1286.9077)">
	<stop  offset="0" style="stop-color:#24C7FB"/>
	<stop  offset="1" style="stop-color:#36E6FF"/>
</linearGradient>
<path fill="url(#SVGID_1_)" d="M337.963,298.149v202.778h-25V331.482l-32.407,34.259l-14.815-15.74l50.926-51.852H337.963
	L337.963,298.149z M700,628.704c0,70.37-57.407,127.778-127.777,127.778c-69.444,0-125.927-55.556-127.777-124.074H0V101.853
	c0-16.667,12.963-29.631,27.778-29.631h100.926V42.593C128.704,19.445,148.148,0,172.223,0c24.075,0,43.519,19.444,43.519,42.593
	v28.704h200.926V42.593C416.668,19.445,436.112,0,460.188,0c24.074,0,43.519,19.444,43.519,42.593v28.704H604.63
	c15.74,0,27.777,13.89,27.777,29.629v413.89C673.148,537.037,700,579.63,700,628.704z M443.519,108.334
	c0,9.259,7.407,16.667,16.667,16.667h0.927c9.259,0,16.666-7.407,16.666-16.667V43.52c0-9.26-7.407-16.667-16.666-16.667
	c-10.187,0-17.594,7.406-17.594,16.667V108.334L443.519,108.334z M155.556,108.334c0,9.259,7.407,16.667,16.667,16.667h0.926
	c9.259,0,16.667-7.407,16.667-16.667V43.52c0-9.26-7.408-16.667-16.667-16.667c-10.185,0-17.592,7.406-17.592,16.667
	L155.556,108.334L155.556,108.334z M25.926,182.408h580.557v-80.556c0-2.778-1.853-3.704-1.853-3.704H503.704v10.186
	c0,24.074-19.444,42.593-42.593,42.593h-0.926c-24.074,0-42.594-19.444-42.594-42.593V98.148H215.741v10.186
	c0,24.074-19.444,42.593-42.593,42.593h-0.926c-24.074,0-42.593-19.444-42.593-42.593V98.148H27.778
	c-0.926,0-1.852,0.926-1.852,3.704V182.408z M25.926,605.556h421.297c11.11-59.26,62.963-104.63,125-104.63
	c12.036,0,23.147,1.853,33.333,4.63V209.259H25.926V605.556z M582.407,628.704l41.667-41.667l-9.26-9.259l-41.666,41.667
	l-41.667-41.667l-9.26,9.259l41.666,41.667l-41.666,41.667l9.26,9.259l41.667-41.666l41.666,41.666l9.26-9.259L582.407,628.704z"/>
</svg>
