<?xml version="1.0" encoding="utf-8"?>
<!-- Generator: Adobe Illustrator 16.0.0, SVG Export Plug-In . SVG Version: 6.00 Build 0)  -->
<!DOCTYPE svg PUBLIC "-//W3C//DTD SVG 1.1//EN" "http://www.w3.org/Graphics/SVG/1.1/DTD/svg11.dtd">
<svg version="1.1" id="Layer_1" xmlns="http://www.w3.org/2000/svg" xmlns:xlink="http://www.w3.org/1999/xlink" x="0px" y="0px"
	 width="700px" height="623.93px" viewBox="0 0 700 623.93" enable-background="new 0 0 700 623.93" xml:space="preserve">
<linearGradient id="SVGID_1_" gradientUnits="userSpaceOnUse" x1="31.1909" y1="-130.5913" x2="31.1909" y2="-207.6909" gradientTransform="matrix(8.0925 0 0 8.0925 97.5866 1680.7417)">
	<stop  offset="0" style="stop-color:#24C7FB"/>
	<stop  offset="1" style="stop-color:#36E6FF"/>
</linearGradient>
<path fill="#FFF" d="M688.671,50.173H667.63H359.307V11.33c0-6.474-5.665-11.33-11.33-11.33
	c-5.663,0-11.328,4.855-11.328,11.33v38.844H29.942H11.33C4.856,50.173,0,55.028,0,61.503s4.855,11.33,11.33,11.33h17.803v420.809
	h268.671L194.22,608.555l16.994,15.375l118.15-130.287h8.093v122.195h22.658V493.643h6.475L484.74,623.93l16.994-15.375
	L397.341,493.643H667.63V72.833h21.041c6.474,0,11.329-4.855,11.329-11.33C700,55.027,695.145,50.173,688.671,50.173z
	 M644.971,470.982H52.601V72.833h592.37V470.982z M353.642,114.914v47.745l72.023,72.023h55.028v87.398h50.174v95.492H419.19
	v-96.301h50.174v-76.069h-43.699l-77.688,77.688l-77.688-77.688H226.59v76.069h50.173v95.49H165.087v-95.49h50.173v-87.399h55.029
	l72.023-72.023v-47.746h11.328L353.642,114.914L353.642,114.914z"/>
</svg>
