<?xml version="1.0" encoding="utf-8"?>
<!-- Generator: Adobe Illustrator 16.0.0, SVG Export Plug-In . SVG Version: 6.00 Build 0)  -->
<!DOCTYPE svg PUBLIC "-//W3C//DTD SVG 1.1//EN" "http://www.w3.org/Graphics/SVG/1.1/DTD/svg11.dtd">
<svg version="1.1" id="Layer_1" xmlns="http://www.w3.org/2000/svg" xmlns:xlink="http://www.w3.org/1999/xlink" x="0px" y="0px"
	 width="700px" height="779.4px" viewBox="0 0 700 779.4" enable-background="new 0 0 700 779.4" xml:space="preserve">
<linearGradient id="SVGID_1_" gradientUnits="userSpaceOnUse" x1="27.77" y1="-42.2773" x2="27.77" y2="-127.6772" gradientTransform="matrix(9.1265 0 0 9.1265 96.5618 1165.2412)">
	<stop  offset="0" style="stop-color:#24C7FB"/>
	<stop  offset="1" style="stop-color:#36E6FF"/>
</linearGradient>
<path fill="#FFF" d="M432.595,295.698c-2.737-10.952-7.302-20.991-13.688-31.03l26.467-32.854L413.43,199.87
	l-33.768,27.38c-9.127-5.476-19.166-9.127-30.117-11.865l-4.563-42.894h-45.634l-4.563,42.894
	c-10.952,2.738-20.991,6.389-30.118,11.865L230.9,199.87l-30.117,31.943l26.467,32.854c-6.389,9.126-10.952,20.078-13.689,31.03
	l-41.069,4.563v45.632l39.244,3.65c2.738,11.864,7.301,22.815,12.777,33.769l-23.729,29.204l31.943,31.942l29.205-23.729
	c10.039,6.389,21.903,11.864,34.681,14.603l3.65,37.419h45.634l3.649-37.419c12.776-2.737,23.729-8.214,34.681-14.603l29.204,23.729
	l31.943-31.942l-24.642-30.117c6.389-10.039,10.95-21.903,12.775-33.769l39.244-3.649v-45.634L432.595,295.698z M323.077,380.574
	c-31.03,0-55.672-24.642-55.672-55.671c0-31.03,24.642-55.672,55.672-55.672s55.671,24.642,55.671,55.672
	C378.748,355.933,354.106,380.574,323.077,380.574z M607.822,492.83c24.642-48.37,33.769-90.353,36.506-111.343
	c0.913-6.389,1.826-13.69,1.826-21.903V73.012c0-25.554-18.254-46.545-42.896-50.196C589.569,20.991,459.061,0,323.076,0
	C213.558,0,100.39,13.689,42.893,21.903C18.253,25.554,0,47.458,0,72.099v287.484c0,7.301,0.913,15.516,1.825,21.903
	c4.563,37.418,40.157,227.249,288.396,332.203c10.952,4.563,21.903,6.389,32.855,6.389c12.775,0,24.642-3.65,32.854-7.302
	c20.078-8.213,39.243-17.34,56.584-27.379c21.903,54.759,75.749,94.003,138.723,94.003C633.377,779.401,700,712.777,700,630.64
	C700,568.58,661.669,514.733,607.822,492.83z M346.806,689.049c-9.126,3.65-16.428,5.477-23.729,5.477
	c-8.214,0-15.517-1.825-22.816-4.563C65.71,590.483,31.943,412.517,27.379,377.837c-0.913-5.477-1.825-12.776-1.825-18.253V72.099
	c0-11.864,9.126-22.816,20.991-24.641c56.584-8.214,168.84-21.904,276.532-21.904c134.159,0,261.93,20.078,276.531,22.816
	c11.864,1.825,20.99,12.777,20.99,24.642v286.571c0,6.389-0.911,11.864-1.824,18.253c-2.738,20.078-11.864,60.234-36.507,106.779
	c-10.038-1.825-20.99-3.65-31.029-3.65c-10.951,0-20.99,0.912-31.029,3.65c33.768-51.108,42.896-96.74,45.632-116.819
	c0.913-5.476,0.913-9.126,0.913-13.688V96.741l-9.127-1.825c-58.409-8.214-146.022-18.253-234.55-18.253
	c-88.527,0-176.141,10.039-235.463,18.253L79.4,96.741v259.191c0,4.563,0,9.127,0.913,13.689
	c5.476,41.068,39.244,181.616,231.812,263.755c2.738,0.912,7.302,1.825,10.952,1.825s8.214-0.913,11.864-3.651
	c27.379-11.863,51.107-24.641,72.099-37.418c-2.737,11.864-4.563,24.643-4.563,37.418c0,10.04,0.911,20.079,2.736,30.118
	C386.962,670.796,367.797,679.923,346.806,689.049z M413.429,574.056c-23.729,16.428-51.107,31.941-83.963,45.632h-0.913
	c-1.825,0.913-3.649,1.825-5.476,1.825s-4.563-0.912-6.39-0.912C130.508,541.2,98.565,407.04,93.089,366.885
	c-0.913-3.65-0.913-7.302-0.913-11.864V106.78c58.41-8.214,144.198-18.253,230.9-18.253c86.701,0,173.401,10.039,230.898,18.253
	v247.327c0,4.563,0,7.302-0.913,11.864c-2.736,21.903-13.688,71.187-52.933,125.032
	C460.887,505.607,429.856,535.725,413.429,574.056z M637.027,692.699c0,16.428-12.777,29.205-29.205,29.205H494.654
	c-16.429,0-29.204-12.777-29.204-29.205v-74.837c0-16.428,12.775-29.204,29.204-29.204h3.649v-10.039
	c0-28.292,23.729-52.021,52.021-52.021h0.912c28.292,0,52.021,23.729,52.021,52.021v10.039h3.65
	c16.428,0,29.204,12.776,29.204,29.204v74.837H637.027z M607.822,601.435h-17.34h-79.4h-17.34c-9.127,0-16.428,7.302-16.428,16.428
	v74.837c0,9.127,7.301,16.428,16.428,16.428H606.91c9.126,0,16.428-7.301,16.428-16.428v-74.837
	C624.25,608.736,616.949,601.435,607.822,601.435z M529.335,686.311l12.777-21.903c-7.303-3.65-11.864-10.951-11.864-19.165
	c0-11.865,9.126-20.991,20.99-20.991s20.99,9.126,20.99,20.991c0,8.214-4.563,15.515-11.863,19.165l12.776,21.903H529.335z
	 M590.482,588.658h-79.4v-10.039c0-21.904,17.341-39.244,39.244-39.244h0.912c21.903,0,39.244,17.34,39.244,39.244V588.658z"/>
</svg>
