<?xml version="1.0" encoding="utf-8"?>
<!-- Generator: Adobe Illustrator 16.0.0, SVG Export Plug-In . SVG Version: 6.00 Build 0)  -->
<!DOCTYPE svg PUBLIC "-//W3C//DTD SVG 1.1//EN" "http://www.w3.org/Graphics/SVG/1.1/DTD/svg11.dtd">
<svg version="1.1" id="Layer_1" xmlns="http://www.w3.org/2000/svg" xmlns:xlink="http://www.w3.org/1999/xlink" x="0px" y="0px"
	 width="700px" height="439.352px" viewBox="0 0 700 439.352" enable-background="new 0 0 700 439.352" xml:space="preserve">
<linearGradient id="SVGID_1_" gradientUnits="userSpaceOnUse" x1="45.9888" y1="1621.8438" x2="45.9888" y2="1702.7471" gradientTransform="matrix(5.4306 0 0 -5.4306 100.2495 9246.9395)">
	<stop  offset="0" style="stop-color:#24C7FB"/>
	<stop  offset="1" style="stop-color:#36E6FF"/>
</linearGradient>
<path fill="#FFF" d="M305.215,168.367h77.659l-6.523,16.31h-73.885c-1.1,6.522-1.1,13.047,0,19.021h68.424l-6.522,16.31
	h-59.738c4.875,23.896,23.346,41.816,50.503,41.816c17.922,0,32.581-7.586,44.529-19.021v22.281
	c-11.398,7.588-26.059,13.563-45.079,13.563c-41.816,0-64.612-27.707-68.974-59.189h-16.236l6.524-16.309h8.136
	c-0.55-6.523-0.55-12.498,0-19.021h-14.66l6.524-16.309h10.335c6.523-29.319,29.319-58.089,70.036-58.089
	c9.236,0,26.059,1.1,43.431,13.56l-8.137,16.311c-12.498-10.85-27.156-13.048-36.941-13.048
	C320.938,127.099,308.989,154.806,305.215,168.367z M510.487,330.209c-4.875-5.975-12.498-9.785-20.634-9.785
	c-5.975,0-11.947,2.162-16.31,5.975c-11.397,9.234-13.048,25.508-3.812,36.941c4.873,5.975,12.496,9.785,20.633,9.785
	c5.974,0,11.947-2.162,16.31-5.975c5.424-4.361,8.687-10.848,9.785-17.371C516.974,342.156,514.813,335.633,510.487,330.209z
	 M577.262,359.529c0,43.979-35.843,79.822-79.821,79.822c-35.844,0-66.263-23.896-76.011-56.479
	c-21.732,8.137-45.629,13.049-70.037,13.049c-54.313,0-103.167-21.734-139.01-57.027h-81.508v26.607L0,246.576l130.875-113.502
	v26.058h26.607C175.404,68.425,255.226,0,351.357,0c55.377,0,105.365,22.796,141.209,59.188h76.561V33.13L700,150.995
	L569.126,264.498v-26.059h-24.445c-3.262,16.822-9.234,32.582-16.821,47.791C557.178,297.629,577.262,326.398,577.262,359.529z
	 M499.602,67.361c30.97,34.744,49.403,80.372,49.403,130.325c0,11.396-1.099,22.282-2.712,32.582h30.419v16.822l111.341-96.682
	L576.712,50.502v16.821h-77.11V67.361z M205.272,330.209c-32.032-35.293-51.603-81.473-51.603-132.523
	c0-10.335,1.1-20.634,2.163-30.419h-33.131v-16.822L11.398,246.576l111.34,100.455v-16.822H205.272L205.272,330.209z
	 M418.168,367.115c0-2.713-0.55-4.875-0.55-7.586c0-43.979,35.843-79.822,79.821-79.822c5.425,0,10.336,0.551,15.76,1.613
	c13.047-24.996,20.633-53.215,20.633-83.634c0-100.456-81.983-182.478-182.476-182.478c-100.493,0-182.478,82.021-182.478,182.478
	c0,100.455,81.984,182.476,182.478,182.476C375.251,380.162,397.534,375.287,418.168,367.115z M539.257,401.346l-24.995-30.969
	c5.424-5.426,8.687-12.498,9.785-20.084c1.1-9.236-1.612-17.922-7.073-24.994c-6.522-8.137-16.309-12.498-26.606-12.498
	c-7.586,0-15.209,2.713-21.184,7.586c-14.659,11.947-16.821,33.131-5.425,47.791c6.524,8.137,16.311,12.498,26.607,12.498
	c6.522,0,12.498-2.162,17.922-5.426l24.994,30.971L539.257,401.346z"/>
</svg>
