<?xml version="1.0" encoding="utf-8"?>
<!-- Generator: Adobe Illustrator 19.1.0, SVG Export Plug-In . SVG Version: 6.00 Build 0)  -->
<svg version="1.1" id="Layer_1" xmlns="http://www.w3.org/2000/svg" xmlns:xlink="http://www.w3.org/1999/xlink" x="0px" y="0px"
	 viewBox="-249 385.4 97 71.5" enable-background="new -249 385.4 97 71.5" xml:space="preserve">
<g>
	<path fill="none" d="M-178.8,421.7c0-10.8-8.7-19.5-19.5-19.5s-19.5,8.7-19.5,19.5s8.7,19.5,19.5,19.5S-178.8,432.4-178.8,421.7z
		 M-214.8,421.7c0-9.1,7.4-16.5,16.5-16.5s16.5,7.4,16.5,16.5c0,9.1-7.4,16.5-16.5,16.5C-207.4,438.2-214.8,430.8-214.8,421.7z"/>
	<path fill="none" d="M-214.3,434.8l-12.6,12.6l-3,3l-3.2,3.2c-0.2,0.2-0.2,0.5,0,0.7l1.5,1.5c0.2,0.2,0.5,0.2,0.7,0l5.4-5.4l3-3
		L-212,437L-214.3,434.8z"/>
	<path fill="none" d="M-208.9,431.6h-1.3c2.8,3.4,7.1,5.6,11.9,5.6s9.1-2.2,11.9-5.6h-7.7c-0.6,0-1.1-0.5-1.1-1.1
		c0-0.6,0.5-1.1,1.1-1.1h9.2c1.2-2,1.9-4.3,2-6.7h-5.9c-0.6,0-1.1-0.5-1.1-1.1c0-0.6,0.5-1.1,1.1-1.1h5.9c-0.2-2.2-0.8-4.3-1.7-6.1
		h-9.5c-0.6,0-1.1-0.5-1.1-1.1c0-0.6,0.5-1.1,1.1-1.1h8.1c-2.8-3.7-7.3-6.2-12.3-6.2c-5,0-9.5,2.4-12.3,6.2h1.7
		c0.6,0,1.1,0.5,1.1,1.1c0,0.6-0.5,1.1-1.1,1.1h-3.1c-1,1.9-1.6,3.9-1.7,6.1h9c0.6,0,1.1,0.5,1.1,1.1c0,0.6-0.5,1.1-1.1,1.1h-9
		c0.2,2.4,0.9,4.7,2,6.7h2.8c0.6,0,1.1,0.5,1.1,1.1C-207.8,431.1-208.3,431.6-208.9,431.6z"/>
	<path fill="none" d="M-246,395.4v50.5c0,0.8,0.7,1.5,1.5,1.5h16.3l13.5-13.5c-2.5-3.4-4.1-7.6-4.1-12.2c0-11.3,9.2-20.5,20.5-20.5
		s20.5,9.2,20.5,20.5s-9.2,20.5-20.5,20.5c-4.9,0-9.4-1.7-12.9-4.6l-9.8,9.8h64.5c0.8,0,1.5-0.7,1.5-1.5v-50.5H-246z M-227,415.4h3
		c0.3,0,0.5,0.2,0.5,0.5s-0.2,0.5-0.5,0.5h-3c-0.3,0-0.5-0.2-0.5-0.5S-227.3,415.4-227,415.4z M-224,426.4h-3
		c-0.3,0-0.5-0.2-0.5-0.5s0.2-0.5,0.5-0.5h3c0.3,0,0.5,0.2,0.5,0.5S-223.7,426.4-224,426.4z M-222,421.4h-3c-0.3,0-0.5-0.2-0.5-0.5
		s0.2-0.5,0.5-0.5h3c0.3,0,0.5,0.2,0.5,0.5S-221.7,421.4-222,421.4z M-176,415.4h3c0.3,0,0.5,0.2,0.5,0.5s-0.2,0.5-0.5,0.5h-3
		c-0.3,0-0.5-0.2-0.5-0.5S-176.3,415.4-176,415.4z M-173,426.4h-3c-0.3,0-0.5-0.2-0.5-0.5s0.2-0.5,0.5-0.5h3c0.3,0,0.5,0.2,0.5,0.5
		S-172.7,426.4-173,426.4z M-171,421.4h-3c-0.3,0-0.5-0.2-0.5-0.5s0.2-0.5,0.5-0.5h3c0.3,0,0.5,0.2,0.5,0.5S-170.7,421.4-171,421.4z
		"/>
	<path fill="none" d="M-155,389.9c0-0.8-0.7-1.5-1.5-1.5h-88c-0.8,0-1.5,0.7-1.5,1.5v4.5h91V389.9z M-243,392.7c-0.6,0-1-0.4-1-1
		c0-0.6,0.4-1,1-1s1,0.4,1,1C-242,392.2-242.4,392.7-243,392.7z M-239,392.7c-0.6,0-1-0.4-1-1c0-0.6,0.4-1,1-1s1,0.4,1,1
		C-238,392.2-238.4,392.7-239,392.7z M-235,392.7c-0.6,0-1-0.4-1-1c0-0.6,0.4-1,1-1s1,0.4,1,1C-234,392.2-234.4,392.7-235,392.7z"/>
	<path fill="#FFFFFF" d="M-181.8,421.7c0-9.1-7.4-16.5-16.5-16.5s-16.5,7.4-16.5,16.5c0,9.1,7.4,16.5,16.5,16.5
		C-189.2,438.2-181.8,430.8-181.8,421.7z M-208.9,429.4h-2.8c-1.2-2-1.9-4.3-2-6.7h9c0.6,0,1.1-0.5,1.1-1.1c0-0.6-0.5-1.1-1.1-1.1
		h-9c0.2-2.2,0.8-4.3,1.7-6.1h3.1c0.6,0,1.1-0.5,1.1-1.1c0-0.6-0.5-1.1-1.1-1.1h-1.7c2.8-3.7,7.3-6.2,12.3-6.2c5,0,9.5,2.4,12.3,6.2
		h-8.1c-0.6,0-1.1,0.5-1.1,1.1c0,0.6,0.5,1.1,1.1,1.1h9.5c1,1.9,1.6,3.9,1.7,6.1h-5.9c-0.6,0-1.1,0.5-1.1,1.1c0,0.6,0.5,1.1,1.1,1.1
		h5.9c-0.2,2.4-0.9,4.7-2,6.7h-9.2c-0.6,0-1.1,0.5-1.1,1.1c0,0.6,0.5,1.1,1.1,1.1h7.7c-2.8,3.4-7.1,5.6-11.9,5.6s-9.1-2.2-11.9-5.6
		h1.3c0.6,0,1.1-0.5,1.1-1.1C-207.8,429.9-208.3,429.4-208.9,429.4z"/>
	<path fill="#FFFFFF" d="M-227,416.4h3c0.3,0,0.5-0.2,0.5-0.5s-0.2-0.5-0.5-0.5h-3c-0.3,0-0.5,0.2-0.5,0.5S-227.3,416.4-227,416.4z"
		/>
	<path fill="#FFFFFF" d="M-222,420.4h-3c-0.3,0-0.5,0.2-0.5,0.5s0.2,0.5,0.5,0.5h3c0.3,0,0.5-0.2,0.5-0.5S-221.7,420.4-222,420.4z"
		/>
	<path fill="#FFFFFF" d="M-224,425.4h-3c-0.3,0-0.5,0.2-0.5,0.5s0.2,0.5,0.5,0.5h3c0.3,0,0.5-0.2,0.5-0.5S-223.7,425.4-224,425.4z"
		/>
	<path fill="#FFFFFF" d="M-176,416.4h3c0.3,0,0.5-0.2,0.5-0.5s-0.2-0.5-0.5-0.5h-3c-0.3,0-0.5,0.2-0.5,0.5S-176.3,416.4-176,416.4z"
		/>
	<path fill="#FFFFFF" d="M-171,420.4h-3c-0.3,0-0.5,0.2-0.5,0.5s0.2,0.5,0.5,0.5h3c0.3,0,0.5-0.2,0.5-0.5S-170.7,420.4-171,420.4z"
		/>
	<path fill="#FFFFFF" d="M-173,425.4h-3c-0.3,0-0.5,0.2-0.5,0.5s0.2,0.5,0.5,0.5h3c0.3,0,0.5-0.2,0.5-0.5S-172.7,425.4-173,425.4z"
		/>
	<path fill="#FFFFFF" d="M-156.5,385.4h-88c-2.5,0-4.5,2-4.5,4.5v56c0,2.5,2,4.5,4.5,4.5h13.3l-2.4,2.4c-0.3,0.3-0.4,0.7-0.4,1.1
		s0.2,0.8,0.4,1.1l1.5,1.5c0.3,0.3,0.7,0.4,1.1,0.4c0.4,0,0.8-0.2,1.1-0.4l6.1-6.1h67.5c2.5,0,4.5-2,4.5-4.5v-56
		C-152,387.4-154,385.4-156.5,385.4z M-246,389.9c0-0.8,0.7-1.5,1.5-1.5h88c0.8,0,1.5,0.7,1.5,1.5v4.5h-91V389.9z M-225.4,450.4
		l-5.4,5.4c-0.2,0.2-0.5,0.2-0.7,0l-1.5-1.5c-0.2-0.2-0.2-0.5,0-0.7l3.2-3.2l3-3l12.6-12.6l2.2,2.2l-10.3,10.3L-225.4,450.4z
		 M-217.8,421.7c0-10.8,8.7-19.5,19.5-19.5s19.5,8.7,19.5,19.5s-8.7,19.5-19.5,19.5S-217.8,432.4-217.8,421.7z M-156.5,447.4H-221
		l9.8-9.8c3.5,2.9,8,4.6,12.9,4.6c11.3,0,20.5-9.2,20.5-20.5s-9.2-20.5-20.5-20.5s-20.5,9.2-20.5,20.5c0,4.6,1.5,8.8,4.1,12.2
		l-13.5,13.5h-16.3c-0.8,0-1.5-0.7-1.5-1.5v-50.5h91v50.5C-155,446.7-155.7,447.4-156.5,447.4z"/>
	<circle fill="#FFFFFF" cx="-243" cy="391.7" r="1"/>
	<circle fill="#FFFFFF" cx="-239" cy="391.7" r="1"/>
	<circle fill="#FFFFFF" cx="-235" cy="391.7" r="1"/>
</g>
</svg>
