<?xml version="1.0" encoding="utf-8"?>
<!-- Generator: Adobe Illustrator 16.0.0, SVG Export Plug-In . SVG Version: 6.00 Build 0)  -->
<!DOCTYPE svg PUBLIC "-//W3C//DTD SVG 1.1//EN" "http://www.w3.org/Graphics/SVG/1.1/DTD/svg11.dtd">
<svg version="1.1" id="Layer_1" xmlns="http://www.w3.org/2000/svg" xmlns:xlink="http://www.w3.org/1999/xlink" x="0px" y="0px"
	 width="700px" height="789.824px" viewBox="0 0 700 789.824" enable-background="new 0 0 700 789.824" xml:space="preserve">
<linearGradient id="SVGID_1_" gradientUnits="userSpaceOnUse" x1="71.9927" y1="78.1885" x2="71.9927" y2="-151.3115" gradientTransform="matrix(3.4415 0 0 3.4415 102.2382 520.7373)">
	<stop  offset="0" style="stop-color:#24C7FB"/>
	<stop  offset="1" style="stop-color:#36E6FF"/>
</linearGradient>
<path fill="url(#SVGID_1_)" d="M700,134.907C700,60.571,639.43,0,565.094,0c-74.337,0-134.906,60.57-134.906,134.907
	c0,14.11,2.408,28.564,6.194,43.707c-36.824-15.143-77.09-23.402-119.076-23.402C142.478,155.212,0,297.346,0,472.517
	c0,174.828,142.478,317.307,317.306,317.307c174.828,0,317.307-142.479,317.307-317.307c0-46.461-9.98-90.512-28.221-130.434
	C644.592,291.152,700,204.769,700,134.907z M496.607,135.596c0-37.856,30.63-68.486,68.485-68.486
	c37.856,0,68.485,30.629,68.485,68.486s-30.629,68.485-68.485,68.485C527.237,204.081,496.607,173.108,496.607,135.596z
	 M514.504,329.697h-44.052c-22.025-63.325-58.161-110.817-97.05-152.116c24.435,4.474,47.837,12.39,69.518,22.37
	C459.783,247.1,489.381,294.593,514.504,329.697z M617.404,477.679c-0.688,45.773-11.701,88.791-30.975,127.338H475.959
	c10.668-35.447,16.52-77.092,16.863-127.338H617.404z M465.29,605.017H322.468V477.679h160.374
	C482.498,528.271,476.303,569.568,465.29,605.017z M17.208,477.679h122.861c0.344,50.246,6.539,91.891,16.863,127.338H47.837
	C28.909,566.47,17.896,523.107,17.208,477.679z M312.144,329.697H173.451c23.402-65.045,61.947-112.882,102.901-154.524
	c11.701-1.721,23.402-2.409,35.448-2.753v157.277H312.144L312.144,329.697z M312.144,340.021v127.334h-161.75
	c0.344-48.869,7.571-90.855,19.616-127.334H312.144z M140.069,467.355H17.208c0.688-45.771,11.701-88.789,30.974-127.334h111.16
	C147.64,376.5,140.757,418.486,140.069,467.355z M150.394,477.679h161.75v127.338H167.945
	C157.276,569.568,150.737,528.271,150.394,477.679z M312.144,615.339v157.277c-12.045-0.344-24.089-1.033-35.446-2.754
	c-45.083-45.428-82.94-89.822-105.31-154.523H312.144z M322.468,615.339h139.381c-22.37,64.701-60.227,109.439-105.31,154.867
	c-11.013,1.377-22.714,2.41-34.071,2.41V615.339L322.468,615.339z M322.468,467.355V340.021h140.758
	c12.046,36.479,19.272,78.465,19.616,127.334H322.468z M322.468,329.697V172.419c11.357,0.344,22.714,1.033,34.071,2.409
	c40.953,41.642,79.498,89.479,103.244,154.869H322.468z M259.489,177.926c-38.889,40.954-74.681,88.446-97.05,151.771H53.343
	C95.33,252.262,170.354,195.477,259.489,177.926z M53.343,615.339h107.03c20.993,63.324,56.44,107.721,99.115,151.771
	C170.354,749.558,95.33,692.429,53.343,615.339z M373.746,767.109c42.675-44.051,78.122-88.445,99.115-151.77h108.063
	C538.938,693.117,463.226,750.246,373.746,767.109z M617.404,467.355H493.166c-0.344-48.869-7.571-90.512-18.928-127.334h48.181
	c19.272,26.154,34.759,43.707,36.479,45.77l6.538,7.229l6.539-7.229c1.376-1.375,10.324-11.701,23.059-27.875
	C608.801,391.642,616.716,428.466,617.404,467.355z"/>
</svg>
