<?xml version="1.0" encoding="utf-8"?>
<!-- Generator: Adobe Illustrator 18.0.0, SVG Export Plug-In . SVG Version: 6.00 Build 0)  -->
<!DOCTYPE svg PUBLIC "-//W3C//DTD SVG 1.1//EN" "http://www.w3.org/Graphics/SVG/1.1/DTD/svg11.dtd">
<svg version="1.1" id="Layer_1" xmlns="http://www.w3.org/2000/svg" xmlns:xlink="http://www.w3.org/1999/xlink" x="0px" y="0px"
	 viewBox="0 11.4 845.3 575.9" enable-background="new 0 11.4 845.3 575.9" xml:space="preserve">
<linearGradient id="SVGID_1_" gradientUnits="userSpaceOnUse" x1="422.6288" y1="587.2502" x2="422.6288" y2="11.3974">
	<stop  offset="0" style="stop-color:#24C7FB"/>
	<stop  offset="1" style="stop-color:#36E6FF"/>
</linearGradient>
<path fill="url(#SVGID_1_)" d="M781.3,11.4h-724C26.9,11.4,0,38.3,0,72v454.6c0,33.7,26.9,60.6,60.6,60.6h724
	c33.7,0,60.6-26.9,60.6-60.6V72C841.9,38.3,814.9,11.4,781.3,11.4z M808.2,526.6c0,13.5-10.1,26.9-26.9,26.9h-724
	c-13.5-3.4-23.6-13.5-23.6-26.9V72c0-16.8,10.1-26.9,23.6-26.9h724c16.8,0,26.9,10.1,26.9,26.9V526.6z M471.5,449.2h269.4V146.1
	H471.5V449.2z M505.1,179.8h202.1v235.7H505.1V179.8z M101,146.1h303.1v33.7H101V146.1z M101,280.8h303.1v33.7H101V280.8z
	 M101,415.5h303.1v33.7H101V415.5z"/>
</svg>
