<?xml version="1.0" encoding="utf-8"?>
<!-- Generator: Adobe Illustrator 18.0.0, SVG Export Plug-In . SVG Version: 6.00 Build 0)  -->
<!DOCTYPE svg PUBLIC "-//W3C//DTD SVG 1.1//EN" "http://www.w3.org/Graphics/SVG/1.1/DTD/svg11.dtd">
<svg version="1.1" id="Layer_1" xmlns="http://www.w3.org/2000/svg" xmlns:xlink="http://www.w3.org/1999/xlink" x="0px" y="0px"
	 viewBox="0 0 841.9 418.5" enable-background="new 0 0 841.9 418.5" xml:space="preserve">
<linearGradient id="SVGID_1_" gradientUnits="userSpaceOnUse" x1="420.8867" y1="-3.4169" x2="420.8867" y2="415.0831" gradientTransform="matrix(1.0001 0 0 -1.0001 1.347327e-002 415.1274)">
	<stop  offset="0" style="stop-color:#24C7FB"/>
	<stop  offset="1" style="stop-color:#36E6FF"/>
</linearGradient>
<path fill="url(#SVGID_1_)" d="M795,0H269.9c-27.2,0-47,19.8-47,42.1v334.3c0,24.8,19.8,42.1,47,42.1h525c24.8,0,47-19.8,47-42.1
	V42.1C842,19.8,819.7,0,795,0z M817.2,378.9c0,9.9-9.9,17.3-22.3,17.3h-525c-12.4,0-22.3-7.4-22.3-17.3V42.1
	c0-9.9,9.9-17.3,22.3-17.3h525c12.4,0,22.3,7.4,22.3,17.3L817.2,378.9L817.2,378.9z M69.4,104h99v24.8h-99L69.4,104L69.4,104z
	 M123.8,225.3H0v-24.7h123.8V225.3z M69.4,297.1h99v24.8h-99L69.4,297.1L69.4,297.1z M317,297.1H738v24.8H317V297.1L317,297.1z"/>
</svg>
