<?xml version="1.0" encoding="utf-8"?>
<!-- Generator: Adobe Illustrator 16.0.0, SVG Export Plug-In . SVG Version: 6.00 Build 0)  -->
<!DOCTYPE svg PUBLIC "-//W3C//DTD SVG 1.1//EN" "http://www.w3.org/Graphics/SVG/1.1/DTD/svg11.dtd">
<svg version="1.1" id="Layer_1" xmlns="http://www.w3.org/2000/svg" xmlns:xlink="http://www.w3.org/1999/xlink" x="0px" y="0px"
	 width="700px" height="770px" viewBox="0 0 700 770" enable-background="new 0 0 700 770" xml:space="preserve">
<linearGradient id="SVGID_1_" gradientUnits="userSpaceOnUse" x1="297.6602" y1="80.0396" x2="297.6601" y2="850.0396" gradientTransform="matrix(1 0 0 -1 52.3398 850.0391)">
	<stop  offset="0" style="stop-color:#24C7FB"/>
	<stop  offset="1" style="stop-color:#36E6FF"/>
</linearGradient>
<path fill="url(#SVGID_1_)" d="M665,24.5C612.5,17.5,479.5,0,350,0S87.5,17.5,35,24.5c-21,3.5-35,21-35,42V385c0,7,0,14,3.5,21
	c7,56,56,248.5,315,357c10.5,3.5,21,7,31.5,7s21-3.5,31.5-7c262.5-108.5,308-301,315-357c0-7,3.5-14,3.5-21V66.5
	C700,45.5,686,28,665,24.5z M665,385c0,7,0,10.5,0,17.5c-7,52.5-52.5,227.5-294,329c-10.5,3.5-17.5,3.5-21,3.5c-7,0-14,0-17.5-3.5
	c-255.5-105-290.5-294-294-329c0-7,0-10.5,0-17.5V66.5c0-3.5,3.5-7,7-7C105,49,231,35,350,35c150.5,0,294,21,308,24.5
	c3.5,0,7,3.5,7,7V385z M472.5,224v80.5c0,0,0,3.5-3.5,7l-147,182c-3.5,3.5-3.5,3.5-7,3.5s-3.5,0-7-3.5l-80.5-84
	c-3.5-3.5-3.5-3.5-3.5-7V322c3.5-3.5,7-7,10.5-7c3.5-3.5,7,0,10.5,0l70,77l140-171.5c3.5-3.5,7-3.5,10.5-3.5S472.5,220.5,472.5,224z
	"/>
</svg>
