<?xml version="1.0" encoding="utf-8"?>
<!-- Generator: Adobe Illustrator 16.0.0, SVG Export Plug-In . SVG Version: 6.00 Build 0)  -->
<!DOCTYPE svg PUBLIC "-//W3C//DTD SVG 1.1//EN" "http://www.w3.org/Graphics/SVG/1.1/DTD/svg11.dtd">
<svg version="1.1" id="Layer_1" xmlns="http://www.w3.org/2000/svg" xmlns:xlink="http://www.w3.org/1999/xlink" x="0px" y="0px"
	 width="696.441px" height="712.963px" viewBox="0 0 696.441 712.963" enable-background="new 0 0 696.441 712.963"
	 xml:space="preserve">
<linearGradient id="SVGID_1_" gradientUnits="userSpaceOnUse" x1="295.8809" y1="80.0386" x2="295.8807" y2="793.0024" gradientTransform="matrix(1 0 0 -1 52.3398 793.002)">
	<stop  offset="0" style="stop-color:#24C7FB"/>
	<stop  offset="1" style="stop-color:#36E6FF"/>
</linearGradient>
<path fill="url(#SVGID_1_)" d="M651.799,317.593C645.319,139.352,509.208-0.001,347.17-0.001
	c-165.277,0-301.388,142.593-307.87,320.834c-25.926,12.963-42.13,45.37-38.889,81.019l16.204,113.426
	c3.241,38.89,35.648,68.057,71.296,68.057c9.722,29.167,29.167,87.5,55.093,129.63l38.889-25.926
	c-25.926-38.891-45.37-97.224-51.852-123.148c19.444-16.204,32.407-45.37,25.926-74.537l-16.204-113.426
	c-3.241-32.407-29.167-61.574-58.333-68.057C91.152,158.796,204.578,38.89,340.689,38.89c139.352,0,252.778,119.906,259.26,272.223
	c-25.926,9.723-45.371,32.407-48.611,64.814l-16.205,113.425c-6.48,42.13,22.686,84.259,61.574,87.5c3.24,0,6.48,0,9.723,0
	c35.648,0,68.057-29.167,71.297-68.056l16.203-113.427C703.651,362.963,684.208,327.314,651.799,317.593z M97.633,388.889
	l16.204,113.426c3.241,19.444-6.481,35.648-22.685,35.648C78.189,541.202,65.226,525,61.985,508.796L45.782,395.37
	c-3.241-19.443,6.481-35.647,19.444-35.647h3.241C84.67,359.722,94.392,372.685,97.633,388.889z M638.836,508.796
	c-3.24,16.203-12.963,29.167-25.926,29.167h-3.24c-12.963-3.241-22.686-19.444-19.443-35.648l16.203-113.426
	c3.24-16.204,12.963-29.167,25.926-29.167h3.24c12.965,3.241,22.686,19.443,19.445,35.647L638.836,508.796z"/>
</svg>
