<?xml version="1.0" encoding="utf-8"?>
<!-- Generator: Adobe Illustrator 16.0.0, SVG Export Plug-In . SVG Version: 6.00 Build 0)  -->
<!DOCTYPE svg PUBLIC "-//W3C//DTD SVG 1.1//EN" "http://www.w3.org/Graphics/SVG/1.1/DTD/svg11.dtd">
<svg version="1.1" id="Layer_1" xmlns="http://www.w3.org/2000/svg" xmlns:xlink="http://www.w3.org/1999/xlink" x="0px" y="0px"
	 width="700px" height="684.98px" viewBox="0 0 700 684.98" enable-background="new 0 0 700 684.98" xml:space="preserve">
<g>
	
		<linearGradient id="SVGID_1_" gradientUnits="userSpaceOnUse" x1="32.8667" y1="-88.9927" x2="32.8667" y2="-178.2393" gradientTransform="matrix(7.667 0 0 7.667 98.0142 1367.2876)">
		<stop  offset="0" style="stop-color:#24C7FB"/>
		<stop  offset="1" style="stop-color:#36E6FF"/>
	</linearGradient>
	<path fill="url(#SVGID_1_)" d="M29.901,388.264c-7.667-0.766-14.567-3.832-20.701-10.732c-5.367-6.135-8.434-13.033-9.2-20.701
		l16.101-3.834c0,5.367,1.534,9.969,4.601,13.801c3.833,4.602,8.434,6.135,13.8,6.135c5.367,0,9.201-1.533,12.268-5.367
		c3.833-3.834,4.6-7.668,4.6-13.033c0-4.602-1.533-8.436-4.6-11.502c-3.833-3.832-6.9-4.599-10.734-6.132l-9.967-4.6
		c-4.6-2.301-11.5-6.135-14.567-9.969c-4.6-5.365-6.9-10.732-6.9-16.102c0-8.434,3.067-16.1,8.434-20.701
		c3.833-3.832,9.2-6.898,16.867-7.666V264.06h11.5v13.801c3.833,0,9.201,1.533,13.801,5.367c3.833,3.066,7.667,7.666,9.967,12.268
		l-13.034,7.668c-0.767-2.303-2.3-4.602-4.6-6.9c-3.067-3.068-6.9-3.834-11.5-3.834c-5.367,0-9.201,2.299-11.5,4.6
		c-2.3,2.301-3.067,4.602-3.067,8.436c0,3.832,0.767,6.133,3.833,9.199c2.3,1.533,6.9,4.602,9.967,5.367l7.667,3.066
		c6.133,2.301,13.034,5.367,17.634,11.5c5.367,6.135,7.667,13.035,7.667,19.935c0,8.434-2.3,16.867-9.201,24.533
		c-5.367,4.602-11.5,7.668-17.634,8.436v16.1h-11.5v-15.336H29.901z M256.846,60.117c138.773-35.269,279.847,39.868,328.916,170.208
		l32.201,24.534l16.867-38.335C577.327,59.35,409.42-31.888,244.578,10.281C125.739,40.949,39.102,132.186,9.2,241.825
		l49.069,13.034C83.571,162.088,157.174,85.417,256.846,60.117z M614.896,529.338c0-16.102-13.033-29.902-29.901-29.902
		c-16.867,0-30.668,13.035-30.668,29.902v6.898h59.803v-6.898H614.896z M640.964,560.006v57.502c0,6.9-5.367,12.268-12.268,12.268
		h-87.404c-6.9,0-12.267-5.365-12.267-12.268v-57.502c0-6.9,5.365-12.268,12.267-12.268h13.801h59.804h13.801
		C635.597,547.739,640.964,553.106,640.964,560.006z M602.629,612.143l-9.968-16.869c5.367-3.064,9.201-8.434,9.201-14.566
		c0-9.199-7.667-16.102-16.103-16.102c-9.2,0-16.101,7.668-16.101,16.102c0,6.135,3.834,11.502,9.2,14.566l-9.968,16.869H602.629z
		 M700,569.973c0,63.637-51.369,115.006-115.006,115.006c-46.002,0-85.87-26.834-104.271-65.936
		c-23.001,12.266-47.534,22.232-74.369,29.135C240.745,690.346,72.07,598.342,15.334,440.401l15.334-35.268l36.035,26.834
		c51.369,127.271,190.909,201.643,328.148,166.375c27.602-6.9,52.902-18.402,75.903-32.203
		c1.533-57.502,46.002-104.27,101.972-110.404c8.435-15.334,14.567-32.201,19.935-49.068l50.603,8.434
		c-4.6,16.102-9.967,32.201-16.866,47.535C669.332,478.737,700,520.905,700,569.973z M651.697,560.006
		c0-13.033-10.733-23.002-23.001-23.002h-3.066v-7.666c0-22.234-18.4-40.635-41.401-40.635c-22.234,0-40.636,18.398-40.636,40.635
		v6.898h-3.066c-13.033,0-23.001,10.734-23.001,23.002v57.504c0,13.033,10.733,23,23.001,23h88.171
		c13.034,0,23.001-10.732,23.001-23L651.697,560.006L651.697,560.006z M628.696,292.427c8.434,0,14.566,1.533,19.935,5.367
		l6.9-14.566c-7.667-4.602-15.334-6.135-26.068-6.135c-10.732,0-26.834,1.533-39.868,14.568
		c-6.134,6.133-11.501,15.334-13.801,24.533h-6.9l-4.6,11.5h9.967c-0.767,3.834-0.767,7.668,0,12.27h-4.601l-4.601,11.5h11.5
		c2.302,14.566,9.969,23.768,13.802,26.834c9.967,9.967,24.533,13.801,37.567,13.801c6.9,0,16.867-1.533,26.835-6.898v-18.402
		c-9.199,6.9-18.4,9.201-26.835,9.201c-16.866,0-30.668-9.201-34.501-25.303h34.501l4.602-11.5h-40.636c-0.768-4.6,0-8.434,0-12.268
		h45.235l4.601-11.5h-48.304C598.795,300.86,611.829,292.427,628.696,292.427z"/>
	
		<linearGradient id="SVGID_2_" gradientUnits="userSpaceOnUse" x1="30.7163" y1="-120.9307" x2="30.7163" y2="-148.5635" gradientTransform="matrix(7.667 0 0 7.667 98.0142 1367.2876)">
		<stop  offset="0" style="stop-color:#24C7FB"/>
		<stop  offset="1" style="stop-color:#36E6FF"/>
	</linearGradient>
	<path fill="url(#SVGID_2_)" d="M204.71,368.331h48.302v10.732H204.71V368.331z M204.71,300.86h59.803v47.537H204.71V300.86z
		 M215.443,337.663h37.569v-26.068h-37.569V337.663z M413.253,379.065h48.303v-10.732h-48.303V379.065z M274.479,379.065h48.303
		v-10.732h-48.303V379.065z M494.523,248.726v170.207c0,11.502-9.2,20.701-20.701,20.701H193.209
		c-11.5,0-20.701-9.199-20.701-20.701V248.726c0-11.5,9.2-20.701,20.701-20.701h279.847
		C485.323,228.024,494.523,237.226,494.523,248.726z M483.79,248.726c0-5.367-4.601-9.967-9.968-9.967H193.209
		c-5.367,0-9.967,4.6-9.967,9.967v170.207c0,5.367,4.6,9.969,9.967,9.969h279.847c5.367,0,9.968-4.602,9.968-9.969V248.726H483.79z
		 M343.483,379.065h48.302v-10.732h-48.302V379.065z"/>
</g>
</svg>
