<?xml version="1.0" encoding="utf-8"?>
<!-- Generator: Adobe Illustrator 16.0.0, SVG Export Plug-In . SVG Version: 6.00 Build 0)  -->
<!DOCTYPE svg PUBLIC "-//W3C//DTD SVG 1.1//EN" "http://www.w3.org/Graphics/SVG/1.1/DTD/svg11.dtd">
<svg version="1.1" id="Layer_1" xmlns="http://www.w3.org/2000/svg" xmlns:xlink="http://www.w3.org/1999/xlink" x="0px" y="0px"
	 width="700px" height="498.128px" viewBox="0 0 700 498.128" enable-background="new 0 0 700 498.128" xml:space="preserve">
<linearGradient id="SVGID_1_" gradientUnits="userSpaceOnUse" x1="34.4028" y1="1628.9019" x2="34.4028" y2="1697.0034" gradientTransform="matrix(7.3145 0 0 -7.3145 98.3662 12412.7266)">
	<stop  offset="0" style="stop-color:#24C7FB"/>
	<stop  offset="1" style="stop-color:#36E6FF"/>
</linearGradient>
<path fill="url(#SVGID_1_)" d="M65.094,125.833h245.769V66.56H65.094V125.833z M76.078,76.812H301.38v38.77H76.078V76.812z
	 M70.22,158.013h235.518v10.252H70.22V158.013z M70.22,198.945h235.518v10.252H70.22V198.945z M70.22,240.644h235.518v10.252H70.22
	V240.644z M70.22,281.613h235.518v10.25H70.22V281.613z M70.22,323.312h235.518v10.252H70.22V323.312z M637.834,304.275V42.433
	C637.834,19.039,616.637,0,589.545,0H48.29C21.198,0.001,0,19.039,0,42.433v333.525c0,23.395,21.198,42.432,48.29,42.432h452.035
	c9.52,45.359,50.486,79.738,98.74,79.738c55.574,0,100.936-45.359,100.936-100.936C699.268,355.494,673.676,319.652,637.834,304.275
	z M48.29,397.925c-15.376,0-27.055-9.52-27.055-21.93V42.47c0-11.717,12.448-21.932,27.055-21.932h541.292
	c15.375,0,27.055,9.52,27.055,21.932v256.02c-5.857-0.732-11.715-1.465-18.27-1.465c-6.553,0-12.447,0.732-18.27,1.465V66.56
	H353.295v266.967h167.494c-14.645,17.537-22.662,39.502-22.662,63.629v0.732L48.29,397.925L48.29,397.925z M570.543,284.541
	c-4.393-5.125-9.518-9.518-15.377-12.445c-13.18-6.592-32.18-12.449-43.164-16.109c-3.66-1.465-7.322-2.197-8.053-2.93
	c-3.662-1.465-6.592-5.857-6.592-10.25v-8.787c2.93-2.93,8.055-10.25,10.252-23.395c6.59-2.197,8.055-11.717,8.055-15.377
	c0-0.732,0-1.465,0-2.93c0.732-7.322,1.465-14.645-2.197-18.27c-0.73-0.73-0.73-1.465-0.73-2.195
	c1.465-9.52,1.465-15.377,1.465-19.002c-2.197-22.662-18.271-37.307-43.896-39.502c-2.197,0-4.395,0-5.857,0
	c-26.324,2.928-41.699,21.93-43.896,39.502c-0.73,3.662,0,9.52,1.465,19.002c0,0.73-0.732,2.195-0.732,2.195
	c-2.928,3.662-2.928,10.252-2.195,18.27c0,0.732,0,2.197,0,2.93c0,5.125,1.463,13.18,8.053,15.377
	c2.197,13.912,7.322,20.465,10.254,24.125v8.787c0,4.395-2.932,8.055-6.592,10.252c-0.73,0.732-5.125,1.465-8.787,2.928
	c-10.982,3.662-29.982,9.52-43.162,16.109c-5.859,2.93-10.252,6.59-14.646,10.982V76.812h206.266v207.729H570.543L570.543,284.541z
	 M364.277,300.65c4.395-8.787,10.982-15.377,18.27-19c12.447-5.859,30.717-11.717,41.699-15.377
	c5.857-1.465,8.787-2.93,10.252-3.662c7.322-3.66,12.447-10.982,12.447-19v-8.787c0-2.93-0.732-5.125-2.93-7.322
	c-1.465-1.465-5.857-7.32-8.055-19.002c-0.73-3.66-2.93-6.59-5.857-7.32c-0.732-0.732-1.465-2.93-1.465-6.592
	c0-0.73,0-2.195,0-2.928c0-2.197-0.73-8.787,0-10.252c2.197-2.928,3.66-6.59,2.93-10.25c-0.732-2.93-1.465-12.447-0.732-16.842
	c1.465-13.18,13.912-27.787,34.379-29.984c1.463,0,2.93,0,4.393,0c28.521,2.197,33.646,21.932,34.379,29.984
	c0.73,3.662-0.732,11.717-1.465,16.842c-0.732,3.66,0.73,7.322,2.93,10.25c0.73,1.465,0,8.055,0,10.984c0,1.465,0,2.195,0,2.928
	c0,3.662-1.465,5.859-1.465,6.59c-3.662,1.465-5.857,4.395-6.59,8.055c-2.197,11.717-5.857,16.842-8.057,19.002
	c-1.463,2.195-2.928,4.395-2.928,7.322v8.785c0,8.055,5.125,16.109,12.447,19.002c1.465,0.732,4.393,1.465,9.52,2.93
	c10.982,3.66,29.252,9.52,41.699,16.107c7.322,3.662,13.18,9.52,17.537,18.27v1.465c-13.912,4.395-26.324,11.717-37.309,21.93
	H364.277V300.65L364.277,300.65z M593.938,443.982c-0.732,1.465-2.197,1.465-3.66,1.465l0,0c-1.467,0-2.93-0.732-3.662-2.197
	l-40.234-51.951l8.055-6.59l35.842,46.826l63.631-73.148l8.053,6.59L593.938,443.982z"/>
</svg>
