<?xml version="1.0" encoding="utf-8"?>
<!-- Generator: Adobe Illustrator 16.0.0, SVG Export Plug-In . SVG Version: 6.00 Build 0)  -->
<!DOCTYPE svg PUBLIC "-//W3C//DTD SVG 1.1//EN" "http://www.w3.org/Graphics/SVG/1.1/DTD/svg11.dtd">
<svg version="1.1" id="Layer_1" xmlns="http://www.w3.org/2000/svg" xmlns:xlink="http://www.w3.org/1999/xlink" x="0px" y="0px"
	 width="700px" height="780.084px" viewBox="0 0 700 780.084" enable-background="new 0 0 700 780.084" xml:space="preserve">
<linearGradient id="SVGID_1_" gradientUnits="userSpaceOnUse" x1="25.7104" y1="-47.1489" x2="25.7104" y2="-126.0493" gradientTransform="matrix(9.887 0 0 9.887 95.7987 1246.2451)">
	<stop  offset="0" style="stop-color:#24C7FB"/>
	<stop  offset="1" style="stop-color:#36E6FF"/>
</linearGradient>
<path fill="url(#SVGID_1_)" d="M653.531,24.716C638.7,22.74,497.316,0,350,0C231.356,0,108.757,14.831,46.469,23.729
	C19.774,27.683,0,51.412,0,78.106v311.441c0,7.909,0.989,16.809,1.978,23.729c4.943,40.537,43.503,246.188,312.43,359.887
	c11.864,4.943,23.729,6.922,35.593,6.922c13.842,0,26.695-3.955,35.593-7.91c257.063-107.768,303.531-302.541,312.43-358.896
	c0.989-6.922,1.979-14.83,1.979-23.73V79.096C700,51.412,681.215,28.671,653.531,24.716z M672.316,389.547
	c0,6.92-0.988,12.854-1.979,19.774c-7.909,53.391-51.412,234.32-294.633,337.146c-9.887,3.955-17.797,5.932-25.706,5.932
	c-8.898,0-16.808-1.977-24.718-4.943C71.187,639.687,34.604,446.892,29.661,409.321c-0.989-5.934-1.978-13.844-1.978-19.774V78.106
	c0-12.853,9.887-24.717,22.74-26.695c61.299-8.898,182.91-23.729,299.576-23.729c144.351,0,283.757,21.751,299.576,24.718
	c12.854,1.977,22.739,13.842,22.739,26.695v310.452H672.316z M350,82.062c-95.904,0-190.819,10.876-255.085,19.774l-8.898,1.977
	v280.792c0,4.942,0,9.886,0.989,14.83c5.932,44.49,42.514,196.75,251.13,285.734c2.966,0.988,7.909,1.977,11.864,1.977
	s9.887-0.986,12.854-3.953c207.628-88.982,244.209-240.256,250.142-284.746c0.989-5.934,0.989-9.888,0.989-14.831V104.801
	l-9.889-2.966C540.819,93.925,445.904,82.062,350,82.062z M600.142,383.615c0,4.942,0,7.91-0.988,12.853
	c-5.933,42.516-40.536,188.842-242.231,273.871l-0.988,0.988c-1.978,0.988-3.955,1.977-5.933,1.977s-4.943-0.986-6.921-0.986
	c-201.696-86.02-236.3-231.357-242.232-274.861c-0.989-3.955-0.989-7.909-0.989-12.853V115.677
	C163.136,106.78,256.073,95.903,350,95.903s187.854,10.876,250.142,19.774V383.615L600.142,383.615z M321.328,394.491
	l140.395-174.012c2.968-2.966,5.934-4.944,9.889-2.966c3.954,1.978,5.932,4.943,5.932,7.91v83.051c0,1.979-0.988,3.955-1.978,5.933
	L329.237,499.292c-1.979,1.979-4.943,2.967-6.921,2.967c-2.967,0-4.943-0.988-5.934-2.967l-81.073-84.039
	c-1.977-1.977-2.966-3.955-2.966-6.92v-83.051c0-3.955,1.978-6.921,5.932-7.91c3.955-1.978,6.921-0.988,9.887,1.978L321.328,394.491
	z"/>
</svg>
