<?xml version="1.0" encoding="utf-8"?>
<!-- Generator: Adobe Illustrator 16.0.0, SVG Export Plug-In . SVG Version: 6.00 Build 0)  -->
<!DOCTYPE svg PUBLIC "-//W3C//DTD SVG 1.1//EN" "http://www.w3.org/Graphics/SVG/1.1/DTD/svg11.dtd">
<svg version="1.1" id="Layer_1" xmlns="http://www.w3.org/2000/svg" xmlns:xlink="http://www.w3.org/1999/xlink" x="0px" y="0px"
	 width="700px" height="699.153px" viewBox="0 0 700 699.153" enable-background="new 0 0 700 699.153" xml:space="preserve">
<linearGradient id="SVGID_1_" gradientUnits="userSpaceOnUse" x1="29.8633" y1="-86.5713" x2="29.8633" y2="-169.1714" gradientTransform="matrix(8.4643 0 0 8.4643 97.221 1431.9131)">
	<stop  offset="0" style="stop-color:#24C7FB"/>
	<stop  offset="1" style="stop-color:#36E6FF"/>
</linearGradient>
<path fill="#FFF" d="M349.577,23.7c94.8,0,183.676,40.629,245.465,111.729l-77.871-5.079l-1.692,23.7l105.804,7.618h0.847
	c3.386,0,5.925-0.847,8.465-3.386c2.539-2.54,3.387-5.925,3.387-9.311l-6.771-104.958l-23.7,1.693l5.078,67.714
	C541.717,41.475,448.609,0,349.577,0C156.59,0,0,156.59,0,349.577c0,49.939,10.157,98.186,30.472,143.047l22.007-10.156
	C33.857,440.145,23.7,395.284,23.7,349.577C23.7,170.133,170.133,23.7,349.577,23.7z M609.432,137.122h-2.539l2.539-2.539V137.122z
	 M700,349.577c0,192.986-156.59,349.576-349.577,349.576c-95.646,0-186.215-38.936-251.39-107.496l5.079,76.18l-23.7,1.691
	l-8.464-104.111c0-3.385,0.847-6.771,3.386-9.311c2.54-2.539,5.925-3.387,9.311-3.387l105.804,7.619l-1.693,23.699l-71.1-5.078
	c60.943,61.789,143.894,97.34,231.923,97.34c179.442,0,325.876-146.434,325.876-325.877c0-46.555-9.311-91.414-28.778-132.891
	l22.007-10.156C689.843,252.237,700,300.483,700,349.577z M349.577,156.59c-106.651,0-192.987,86.336-192.987,192.987
	s86.336,192.986,192.987,192.986c106.649,0,192.985-86.336,192.985-192.986S456.228,156.59,349.577,156.59z M483.313,472.309
	l-28.778-28.777l-8.464,8.465l28.777,28.777c-31.316,29.627-72.793,48.246-119.347,49.939v-41.475H343.65v41.475
	c-45.707-1.693-88.029-20.313-119.347-49.939l28.779-28.777l-8.464-8.465l-28.778,28.777c-28.779-31.316-46.554-72.793-47.4-119.346
	h38.936v-11.852h-38.089c1.693-44.861,20.314-85.49,49.939-116.808l26.24,26.239l8.464-8.465l-26.24-26.238
	c31.318-28.779,71.947-46.554,116.808-47.4v36.396h11.004V168.44c44.86,1.693,85.489,19.468,116.808,47.4l-26.239,26.24l8.464,8.463
	l26.239-26.238c29.626,30.472,47.399,71.102,49.939,116.809h-38.09v11.85h38.936C529.867,399.516,512.092,440.991,483.313,472.309z
	 M355.502,347.038l98.188,73.639l-6.771,9.313l-103.266-77.025v-77.871h11.851L355.502,347.038L355.502,347.038z"/>
</svg>
