<?xml version="1.0" encoding="utf-8"?>
<!-- Generator: Adobe Illustrator 18.0.0, SVG Export Plug-In . SVG Version: 6.00 Build 0)  -->
<!DOCTYPE svg PUBLIC "-//W3C//DTD SVG 1.1//EN" "http://www.w3.org/Graphics/SVG/1.1/DTD/svg11.dtd">
<svg version="1.1" id="Layer_1" xmlns="http://www.w3.org/2000/svg" xmlns:xlink="http://www.w3.org/1999/xlink" x="0px" y="0px"
	 viewBox="0 0 67.2 81.5" enable-background="new 0 0 67.2 81.5" xml:space="preserve">
<g>
	<linearGradient id="SVGID_1_" gradientUnits="userSpaceOnUse" x1="27.988" y1="39.126" x2="27.988" y2="15.9743">
		<stop  offset="0" style="stop-color:#24C7FB"/>
		<stop  offset="1" style="stop-color:#36E6FF"/>
	</linearGradient>
	<path fill="url(#SVGID_1_)" d="M40.5,36.3l-0.1-0.2c-0.6-1.2-1.5-2.1-2.6-2.7c-1.5-0.7-3.5-1.4-4.8-1.8c-0.5-0.1-0.8-0.3-0.9-0.3
		c-0.4-0.2-0.6-0.6-0.6-1l0-0.9c0.3-0.3,0.9-1.1,1.1-2.6c0.7-0.3,0.9-1.4,0.9-1.8c0-0.1,0-0.2,0-0.3c0.1-0.9,0.1-1.6-0.2-2.1
		c0-0.1-0.1-0.1-0.1-0.2c0.1-1.1,0.2-1.7,0.1-2.1c-0.2-2.6-2.1-4.2-4.9-4.5c-0.2,0-0.5,0-0.7,0c-3,0.3-4.7,2.5-4.9,4.5
		c0,0.4,0,1.1,0.1,2.1c0,0,0,0.1-0.1,0.2c-0.4,0.5-0.3,1.2-0.3,2.1c0,0.1,0,0.2,0,0.3c0,0.5,0.2,1.5,0.9,1.8
		c0.3,1.5,0.8,2.3,1.1,2.5l0,1c0,0.4-0.3,0.8-0.6,1c-0.1,0.1-0.5,0.2-1,0.3c-1.2,0.4-3.3,1-4.7,1.8c-1.2,0.6-2,1.5-2.7,2.8l-0.1,0.1
		v2.7h25V36.3z M39.1,37.7H16.9v-0.9c0.5-0.9,1.1-1.6,2-2c1.4-0.7,3.3-1.3,4.5-1.7c0.6-0.2,0.9-0.3,1.1-0.4c0.9-0.4,1.4-1.3,1.5-2.2
		l0-1c0-0.3-0.1-0.6-0.3-0.9c-0.2-0.2-0.6-0.8-0.8-2c-0.1-0.4-0.3-0.8-0.7-0.9c0-0.1-0.1-0.3-0.1-0.6c0-0.1,0-0.2,0-0.4
		c0-0.3-0.1-0.9-0.1-1.1c0.3-0.4,0.4-0.8,0.4-1.2c-0.1-0.9-0.1-1.5-0.1-1.8c0.1-1.4,1.5-3,3.7-3.2c0.1,0,0.3,0,0.4,0
		c3,0.2,3.6,2.3,3.6,3.2c0,0.4-0.1,1.2-0.1,1.8c-0.1,0.4,0.1,0.9,0.3,1.2c0.1,0.2,0,0.9,0,1.1c0,0.1,0,0.3,0,0.4
		c0,0.3-0.1,0.5-0.1,0.6c-0.4,0.2-0.6,0.5-0.7,0.9c-0.2,1.2-0.6,1.8-0.8,2c-0.2,0.2-0.3,0.5-0.3,0.9l0,1c0,1,0.6,1.9,1.5,2.2
		c0.1,0.1,0.5,0.2,1.1,0.4c1.2,0.4,3.2,1,4.6,1.7c0.8,0.4,1.4,1,1.9,1.9V37.7z"/>
	<linearGradient id="SVGID_2_" gradientUnits="userSpaceOnUse" x1="33.5977" y1="81.4897" x2="33.5977" y2="-1.004992e-009">
		<stop  offset="0" style="stop-color:#24C7FB"/>
		<stop  offset="1" style="stop-color:#36E6FF"/>
	</linearGradient>
	<path fill="url(#SVGID_2_)" d="M56,54.2V0H0v73.5h41c2.2,4.7,7,7.9,12.5,7.9c7.6,0,13.8-6.2,13.8-13.8C67.2,61,62.4,55.4,56,54.2z
		 M39.7,67.7c0,1,0.1,2,0.3,3H2.8V2.8h50.3V54C45.7,54.1,39.7,60.2,39.7,67.7z M53.4,76.8c-4.4,0-8.1-3.6-8.1-8.1c0-2,0.8-4,2.1-5.5
		l1,1c-1.1,1.2-1.8,2.8-1.8,4.5c0,3.7,3,6.6,6.6,6.6c3.7,0,6.6-3,6.6-6.6c0-2.6-1.5-4.8-3.6-5.9l-0.5,2l-3.8-3.9l5.2-1.8l-0.6,2.3
		c2.8,1.3,4.7,4.1,4.7,7.3C61.5,73.2,57.9,76.8,53.4,76.8z"/>
	<linearGradient id="SVGID_3_" gradientUnits="userSpaceOnUse" x1="27.988" y1="45.4258" x2="27.988" y2="44.0078">
		<stop  offset="0" style="stop-color:#24C7FB"/>
		<stop  offset="1" style="stop-color:#36E6FF"/>
	</linearGradient>
	<rect x="13.3" y="44" fill="url(#SVGID_3_)" width="29.3" height="1.4"/>
	<linearGradient id="SVGID_4_" gradientUnits="userSpaceOnUse" x1="27.988" y1="51.2539" x2="27.988" y2="49.8359">
		<stop  offset="0" style="stop-color:#24C7FB"/>
		<stop  offset="1" style="stop-color:#36E6FF"/>
	</linearGradient>
	<rect x="13.3" y="49.8" fill="url(#SVGID_4_)" width="29.3" height="1.4"/>
	<linearGradient id="SVGID_5_" gradientUnits="userSpaceOnUse" x1="27.988" y1="57.082" x2="27.988" y2="55.6641">
		<stop  offset="0" style="stop-color:#24C7FB"/>
		<stop  offset="1" style="stop-color:#36E6FF"/>
	</linearGradient>
	<rect x="13.3" y="55.7" fill="url(#SVGID_5_)" width="29.3" height="1.4"/>
</g>
</svg>
