<?xml version="1.0" encoding="utf-8"?>
<!-- Generator: Adobe Illustrator 16.0.0, SVG Export Plug-In . SVG Version: 6.00 Build 0)  -->
<!DOCTYPE svg PUBLIC "-//W3C//DTD SVG 1.1//EN" "http://www.w3.org/Graphics/SVG/1.1/DTD/svg11.dtd">
<svg version="1.1" id="Layer_1" xmlns="http://www.w3.org/2000/svg" xmlns:xlink="http://www.w3.org/1999/xlink" x="0px" y="0px"
	 width="700px" height="572.311px" viewBox="0 0 700 572.311" enable-background="new 0 0 700 572.311" xml:space="preserve">
<linearGradient id="SVGID_1_" gradientUnits="userSpaceOnUse" x1="297.6602" y1="80.0386" x2="297.6601" y2="652.3501" gradientTransform="matrix(1 0 0 -1 52.3398 652.3496)">
	<stop  offset="0" style="stop-color:#24C7FB"/>
	<stop  offset="1" style="stop-color:#36E6FF"/>
</linearGradient>
<path fill="#FFF" d="M117.867,189.898h47.802v5.894h-41.253v28.157h40.599v5.239h-40.599v29.467h41.253v5.893h-47.802
	V189.898L117.867,189.898z M290.084,233.116h28.157v18.335c-4.584,3.929-12.441,9.167-22.264,9.167
	c-17.68,0-31.431-13.751-31.431-33.396c0-19.646,13.751-32.741,31.431-32.741c9.822,0,18.335,3.929,23.573,10.477l4.584-3.273
	c-6.548-7.857-15.716-13.096-28.157-13.096c-20.954,0-37.979,15.715-37.979,38.634c0,23.572,17.025,39.288,37.979,38.634
	c12.441,0,22.264-5.238,28.812-12.441v-26.191h-34.705V233.116L290.084,233.116z M235.734,253.415l-47.147-63.517h-6.548v75.304
	h6.548v-64.826l47.147,64.826h6.548v-75.304h-6.548V253.415z M516.651,313.003l21.607,31.432h-7.856l-20.954-31.432h-16.37v31.432
	h-6.549V269.13h28.156c13.098,0,22.92,8.514,22.92,22.265C537.605,305.146,527.783,312.349,516.651,313.003z M514.032,307.11
	c9.821,0,16.37-6.549,16.37-15.717c0-9.167-6.549-16.37-16.37-16.37h-20.954v32.086H514.032z M660.711,555.94
	c3.274,3.273,3.929,7.857,1.965,11.787c-1.31,2.619-4.584,4.584-7.857,4.584c-0.654,0-1.964-0.654-2.619-0.654
	c-2.619-0.656-66.791-20.301-117.212-59.59c-18.335,4.584-36.67,7.203-55.66,7.203c-74.648,0-140.131-37.324-180.074-94.293
	c-24.883,9.82-51.731,15.061-79.888,15.061c-18.99,0-37.325-2.619-55.659-7.203c-50.421,39.289-114.593,58.934-117.212,59.588
	c-0.655,0.656-1.964,0.656-2.62,0.656c-3.274,0-5.893-1.311-7.857-4.584c-1.965-3.93-1.31-9.168,1.964-11.787
	c15.715-13.752,28.812-45.838,37.979-90.363C27.502,344.435,0,284.191,0,220.019C0,98.877,98.877,0,220.019,0
	c74.649,0,140.786,37.325,180.729,94.294c24.229-9.822,51.076-15.061,79.232-15.061C601.123,79.234,700,178.111,700,299.253
	c0,64.172-27.502,124.414-75.959,166.322C632.554,510.103,646.305,542.19,660.711,555.94z M421.702,220.019
	c0-111.319-90.364-201.684-201.684-201.684c-111.319,0-201.684,90.365-201.684,201.684c0,60.897,26.848,117.212,73.339,155.191
	c2.62,2.619,3.929,5.895,3.274,9.168c-5.894,34.051-14.406,60.242-24.883,79.889c24.229-9.822,58.279-25.539,86.436-48.457
	c2.619-1.965,5.893-2.619,8.513-1.965c17.68,5.238,36.669,7.857,55.004,7.857C331.338,421.702,421.702,331.339,421.702,220.019z
	 M629.935,544.81c-10.478-19.646-18.335-46.492-24.883-79.889c-0.655-3.93,0.654-7.203,3.273-9.168
	c46.492-38.635,73.34-95.604,73.34-155.848c0-111.319-90.365-201.684-201.684-201.684c-24.229,0-47.803,4.584-69.411,12.441
	c18.335,32.086,29.467,70.065,29.467,110.01c0,16.692-1.858,32.926-5.365,48.52l-1.784,5.831h0.392
	c-0.553,2.172-1.14,4.33-1.754,6.476v-2.022l-6.539,21.361c-20.126,51.418-59.021,93.295-108.055,117.592
	c36.67,50.422,96.259,83.16,163.051,83.16c18.335,0,37.323-2.617,55.005-7.855c0.653-0.656,1.964-0.656,2.619-0.656
	c1.964,0,3.929,0.656,5.894,1.965C571.656,517.306,605.706,533.677,629.935,544.81z M424.977,344.435h6.549v-35.359h40.599v-5.895
	h-40.599v-21.682c-1.889,6.581-4.07,13.032-6.539,19.338l-0.01,0.029V344.435z M472.778,269.13h-38.087l-0.021,0.063
	c-0.438,1.954-0.903,3.897-1.394,5.831h39.5L472.778,269.13L472.778,269.13z"/>
</svg>
