<?xml version="1.0" encoding="utf-8"?>
<!-- Generator: Adobe Illustrator 16.0.0, SVG Export Plug-In . SVG Version: 6.00 Build 0)  -->
<!DOCTYPE svg PUBLIC "-//W3C//DTD SVG 1.1//EN" "http://www.w3.org/Graphics/SVG/1.1/DTD/svg11.dtd">
<svg version="1.1" id="Layer_1" xmlns="http://www.w3.org/2000/svg" xmlns:xlink="http://www.w3.org/1999/xlink" x="0px" y="0px"
	 width="700px" height="566.011px" viewBox="0 0 700 566.011" enable-background="new 0 0 700 566.011" xml:space="preserve">
<linearGradient id="SVGID_1_" gradientUnits="userSpaceOnUse" x1="30.1792" y1="1645.0425" x2="30.1792" y2="1712.6401" gradientTransform="matrix(8.3732 0 0 -8.3732 97.2978 14340.2813)">
	<stop  offset="0" style="stop-color:#24C7FB"/>
	<stop  offset="1" style="stop-color:#36E6FF"/>
</linearGradient>
<path fill="url(#SVGID_1_)" d="M64.466,282.162h96.278v11.729H64.466V282.162z M201.791,293.89h96.278v-11.729h-96.278V293.89z
	 M339.115,293.89h96.276v-11.729h-96.276V293.89z M572.717,282.162h-95.471v11.729h96.313v-11.729H572.717z M183.356,240.31H88.765
	c-17.592,0-30.969-14.221-30.969-30.971v-66.15c0-17.592,14.22-30.969,30.969-30.969h94.628c17.592,0,30.969,14.221,30.969,30.969
	v66.15C214.361,226.052,200.104,240.31,183.356,240.31z M183.356,123.068H140.66v25.947h26.791v16.748h35.183v-22.611
	C202.633,132.304,194.241,123.068,183.356,123.068z M154.916,190.906v-30.125h-37.675v30.125H154.916z M69.487,143.189V165.8h35.183
	v-16.75h23.456v-25.945H87.921C77.879,123.068,69.487,132.304,69.487,143.189z M88.765,228.582h40.204v-25.947h-23.456v-25.105
	h-35.99v31.813C69.487,219.382,77.879,228.582,88.765,228.582z M202.633,208.498v-31.813H167.45v25.104h-26.79v25.949h42.696
	C194.241,228.582,202.633,219.382,202.633,208.498z M601.193,406.074c-7.551-9.199-19.24-15.064-31.813-15.064
	c-9.198,0-18.435,3.336-25.104,9.199c-17.593,14.219-20.084,39.361-5.863,56.953c7.549,9.199,19.24,15.063,31.812,15.063
	c9.198,0,18.436-3.336,25.104-9.197c8.354-6.707,13.413-16.75,15.063-26.791C611.235,425.351,607.9,414.466,601.193,406.074z
	 M700,450.455c0,63.623-51.932,115.557-115.555,115.557S468.89,514.078,468.89,450.455c0-10.041,1.688-20.084,4.18-29.318H42.696
	C19.241,421.173,0,401.896,0,378.476V42.697C0,19.24,19.241,0,42.696,0h553.477c23.455,0,42.696,19.242,42.696,42.697v305.617
	C674.896,367.591,700,406.074,700,450.455z M483.146,396.875c19.24-36.832,57.76-61.975,102.142-61.975
	c10.042,0,20.084,1.686,29.319,4.178V42.697c0-10.043-8.356-18.436-18.436-18.436H42.696c-10.042,0-18.435,8.355-18.435,18.436
	v335.779c0,10.043,8.356,18.436,18.435,18.436L483.146,396.875L483.146,396.875z M644.733,515.765l-38.52-47.719
	c8.355-8.355,13.413-19.24,15.063-30.969c1.686-14.219-2.528-27.633-10.886-38.518c-10.042-12.57-25.104-19.24-41.011-19.24
	c-11.728,0-23.455,4.178-32.654,11.727c-22.611,18.436-25.946,51.09-8.354,73.703c10.042,12.57,25.104,19.24,41.01,19.24
	c10.042,0,19.241-3.336,27.634-8.355l38.52,47.717L644.733,515.765z"/>
</svg>
