<?xml version="1.0" encoding="utf-8"?>
<!-- Generator: Adobe Illustrator 16.0.0, SVG Export Plug-In . SVG Version: 6.00 Build 0)  -->
<!DOCTYPE svg PUBLIC "-//W3C//DTD SVG 1.1//EN" "http://www.w3.org/Graphics/SVG/1.1/DTD/svg11.dtd">
<svg version="1.1" id="Layer_1" xmlns="http://www.w3.org/2000/svg" xmlns:xlink="http://www.w3.org/1999/xlink" x="0px" y="0px"
	 width="700px" height="696.76px" viewBox="0 0 700 696.76" enable-background="new 0 0 700 696.76" xml:space="preserve">
<linearGradient id="SVGID_1_" gradientUnits="userSpaceOnUse" x1="31.1563" y1="-77.2427" x2="31.1562" y2="-171.2548" gradientTransform="matrix(8.1019 0 0 8.1019 97.578 1387.4453)">
	<stop  offset="0" style="stop-color:#24C7FB"/>
	<stop  offset="1" style="stop-color:#36E6FF"/>
</linearGradient>
<path fill="url(#SVGID_1_)" d="M484.49,181.481v-10.532c0-45.37-17.823-88.31-50.231-120.717C401.852,17.824,358.912,0,312.732,0
	C217.94,0,140.973,76.968,140.973,171.76v9.722c-12.153,4.051-19.444,15.393-17.824,27.546l7.292,66.435
	c1.62,12.963,12.153,22.686,25.116,22.686h3.241l0,0c0.81,2.432,16.204,51.852,29.977,72.106l9.723-5.67
	c-12.963-19.446-29.167-68.867-29.167-68.867l-5.671,1.62c4.861-1.62,8.912-4.051,12.153-8.102
	c4.051-4.861,6.481-12.152,5.671-19.444l-1.62-16.204l-6.481-50.231c-1.621-12.151-11.343-21.063-22.686-22.685v-8.912
	c0-89.12,72.106-161.227,161.227-161.227S473.152,82.639,473.152,171.76v8.912c-12.153,0.81-22.687,9.722-24.307,22.685
	l-6.48,53.474l-1.621,12.151c-0.811,7.292,0.811,14.584,5.672,19.444c4.051,5.672,10.532,8.912,17.824,9.723h3.24
	c12.963,0,23.495-9.723,25.115-22.686l8.103-66.435C502.314,198.496,495.833,186.342,484.49,181.481z M162.847,204.167l8.102,66.436
	c0.81,4.86-1.621,8.911-3.241,10.532c-2.431,3.24-6.481,5.671-9.722,5.671h-1.621c-8.102,0-13.773-5.671-14.583-12.963
	l-8.102-66.435c-0.811-5.672,3.241-12.153,8.912-14.583c0.81,0,1.62-0.81,2.43-0.81c0.811,0,1.621-0.81,2.431-0.81h3.241
	C156.366,192.013,162.037,197.685,162.847,204.167z M481.25,274.653c-0.811,8.102-6.48,12.963-14.583,12.963
	c-0.812,0-0.812,0-1.621,0c-4.86-0.812-8.102-2.432-10.532-5.672c-1.62-2.432-4.051-6.481-3.239-10.532l8.102-66.436
	c0.812-8.102,6.481-12.963,14.583-12.963h1.621c2.431,0,4.051,0.81,5.671,1.621c5.671,3.24,8.912,8.912,8.102,14.583L481.25,274.653
	z M588.194,473.958c-8.912,0-17.824,1.621-26.736,3.24c-6.481-4.861-12.963-8.912-20.255-12.963
	c-34.838-17.014-83.448-33.219-112.615-42.939c-9.723-3.24-19.444-6.48-21.875-7.291c-11.343-4.861-17.824-16.205-18.634-27.547
	v-23.496c0-0.811,0-0.811,0.81-1.619c7.292-8.102,20.255-25.926,25.926-61.575c0-0.81,0.812-1.62,0.812-1.62
	c16.203-5.671,19.444-29.166,19.444-38.889c0-1.62,0-4.051,0.811-7.292c2.431-19.444,3.24-36.458-4.861-46.181
	c-1.619-1.62-3.24-4.861-3.24-7.292c3.24-25.116,4.051-39.699,3.24-49.421c-4.86-57.523-46.99-94.792-111.806-100.463
	c-4.861,0-10.532,0-15.394,0c-67.245,6.481-108.565,57.523-112.616,101.273c-0.81,9.722,0,25.115,3.241,49.421
	c0,3.241-1.62,6.48-3.241,7.292c-8.102,9.722-6.481,26.736-4.861,46.181c0,2.431,0.81,4.86,0.81,7.291
	c0.81,12.153,4.051,33.218,19.444,38.89c0.81,0,0.81,0.81,0.81,1.62c6.481,34.838,19.445,53.472,25.926,61.574
	c0,0,0.81,0.811,0.81,1.619v23.496c0,12.152-7.292,22.686-17.824,27.547c-2.431,0.811-12.963,4.051-23.495,8.102
	c-29.167,8.912-77.778,24.307-111.806,41.318C0.81,504.745,0,610.069,0,614.931v11.342h484.49
	c16.204,41.32,56.714,70.486,103.704,70.486c61.574,0,111.806-50.23,111.806-111.805C700,524.19,649.769,473.958,588.194,473.958z
	 M230.093,296.528c-1.621-8.912-7.292-16.204-15.394-18.636c-1.621-0.81-4.051-8.102-4.861-18.634c0-2.43-0.81-4.86-0.81-8.103
	c-0.81-6.48-2.431-25.115,0-29.166c6.481-7.293,8.912-16.204,8.102-25.116c-2.43-21.875-3.241-36.458-2.43-44.56
	c3.241-34.838,36.458-75.347,91.551-80.208c4.051,0,7.292,0,11.343,0c76.157,5.671,89.12,58.333,91.551,81.019
	c0.812,9.723-1.619,29.977-3.24,44.561c-0.811,8.912,1.621,17.824,8.103,25.116c2.432,4.052,0.811,23.495,0,29.167
	c0,3.241-0.811,5.671-0.811,8.102c-0.812,11.343-3.24,17.824-4.861,18.635c-8.102,3.24-13.771,10.532-15.394,18.634
	c-5.672,30.787-16.203,45.371-21.064,50.231c-2.431,2.431-4.051,5.671-4.861,8.103c-15.394,15.393-34.838,25.115-55.093,25.115
	c-21.064,0-40.509-8.912-55.902-24.307c-0.81-3.24-2.431-6.48-4.861-8.912C246.296,341.898,235.764,327.315,230.093,296.528z
	 M23.496,603.587c2.43-26.736,14.583-91.551,68.055-118.287c32.408-16.203,80.208-31.596,108.565-40.508
	c14.583-4.861,21.875-7.293,25.926-8.912c18.634-8.912,31.597-27.547,31.597-48.611v-15.395
	c16.204,12.154,34.838,19.445,54.282,19.445c19.444,0,38.079-7.291,53.473-19.445v14.584c0,21.064,12.964,39.699,31.598,48.611
	c3.241,1.619,10.533,4.051,24.306,8.102c28.356,9.723,76.158,25.115,109.375,41.32c1.621,0.809,2.432,1.619,4.052,2.43
	c-34.838,18.635-58.334,55.902-58.334,98.033c0,6.48,0.812,12.15,1.621,17.824H23.496V603.587z M589.814,651.388h-14.583v-13.771
	h13.772v13.771H589.814z M589.005,609.259v8.104h-12.153v-8.104c0-29.166,32.407-33.217,32.407-56.713
	c0-12.152-9.722-21.064-24.305-21.064c-12.153,0-21.875,8.104-21.875,8.104l-6.481-9.723c0,0,11.342-10.533,29.978-10.533
	c21.063,0,36.458,13.771,36.458,32.408C621.412,582.522,589.005,584.954,589.005,609.259z"/>
</svg>
