<?xml version="1.0" encoding="utf-8"?>
<!-- Generator: Adobe Illustrator 16.0.0, SVG Export Plug-In . SVG Version: 6.00 Build 0)  -->
<!DOCTYPE svg PUBLIC "-//W3C//DTD SVG 1.1//EN" "http://www.w3.org/Graphics/SVG/1.1/DTD/svg11.dtd">
<svg version="1.1" id="Layer_1" xmlns="http://www.w3.org/2000/svg" xmlns:xlink="http://www.w3.org/1999/xlink" x="0px" y="0px"
	 width="699.356px" height="592.359px" viewBox="0 0 699.356 592.359" enable-background="new 0 0 699.356 592.359"
	 xml:space="preserve">
<linearGradient id="SVGID_1_" gradientUnits="userSpaceOnUse" x1="37.2207" y1="-138.9604" x2="37.2207" y2="-227.5601" gradientTransform="matrix(6.6858 0 0 6.6858 100.8226 1521.4146)">
	<stop  offset="0" style="stop-color:#24C7FB"/>
	<stop  offset="1" style="stop-color:#36E6FF"/>
</linearGradient>
<path fill="#FFF" d="M670.583,288.826H439.924c6.018-20.058,9.359-41.451,9.359-64.184
	c0-40.782-11.365-79.562-30.086-112.321L408.5,96.275C368.385,38.109,300.859,0,224.642,0C100.955,0,0,100.956,0,224.643
	c0,65.521,28.08,127.029,77.555,169.818c-8.691,45.464-22.731,78.224-38.777,92.264c-3.343,2.675-4.011,8.023-2.006,12.034
	c2.006,3.344,4.68,4.681,8.023,4.681c0.669,0,2.006,0,2.674-0.669c2.674-0.668,68.195-20.726,119.675-60.841
	c18.72,4.681,37.44,7.354,56.829,7.354c12.703,0,25.406-1.337,37.44-3.343v117.001c0,16.046,13.372,29.418,29.417,29.418h379.083
	c16.047,0,29.418-13.372,29.418-29.418V318.244C700,302.197,687.297,288.826,670.583,288.826z M168.481,422.541
	c-2.674-0.668-6.017,0-8.691,2.006c-28.749,23.399-63.515,39.445-88.252,49.475c10.697-20.057,19.389-46.8,25.406-81.565
	c0.668-3.344-0.669-6.687-3.343-9.359c-47.469-38.777-74.88-96.275-74.88-158.453c0-113.658,92.264-205.922,205.921-205.922
	c113.658,0,205.923,92.264,205.923,205.922S338.3,430.564,224.642,430.564C205.922,430.564,186.533,427.89,168.481,422.541z
	 M306.208,434.576l17.383-8.022c9.36-4.68,18.052-10.028,26.744-15.377l66.857,45.463L281.47,548.903V441.93
	C289.494,439.925,298.186,437.25,306.208,434.576z M681.28,563.611c0,6.018-4.682,10.697-10.697,10.697H292.168
	c-6.017,0-10.697-4.681-10.697-10.697v-2.675l144.412-98.28l52.818,36.104c0.668,0.669,2.006,0.669,2.674,0.669s2.006,0,2.674-0.669
	l52.818-36.104l144.412,98.28V563.611z M681.28,548.902l-135.723-92.264l135.723-92.264V548.902L681.28,548.902z M681.28,352.341
	L481.375,488.73l-123.018-83.572c33.428-24.736,59.502-58.166,74.881-97.611h237.344c6.018,0,10.697,4.681,10.697,10.697V352.341
	L681.28,352.341z M207.259,301.529h23.4v23.399h-23.4V301.529z M282.808,176.505c0,50.144-54.155,54.154-54.155,93.601v12.703
	h-20.726v-13.371c0-48.138,52.818-54.155,52.818-92.264c0-19.39-16.046-34.767-39.446-34.767c-20.726,0-36.103,12.703-36.103,12.703
	l-10.697-14.709c0,0,18.72-17.383,48.138-17.383C256.733,123.688,282.808,145.081,282.808,176.505z"/>
</svg>
