<?xml version="1.0" encoding="utf-8"?>
<!-- Generator: Adobe Illustrator 16.0.0, SVG Export Plug-In . SVG Version: 6.00 Build 0)  -->
<!DOCTYPE svg PUBLIC "-//W3C//DTD SVG 1.1//EN" "http://www.w3.org/Graphics/SVG/1.1/DTD/svg11.dtd">
<svg version="1.1" id="Layer_1" xmlns="http://www.w3.org/2000/svg" xmlns:xlink="http://www.w3.org/1999/xlink" x="0px" y="0px"
	 width="700px" height="667.984px" viewBox="0 0 700 667.984" enable-background="new 0 0 700 667.984" xml:space="preserve">
<linearGradient id="SVGID_1_" gradientUnits="userSpaceOnUse" x1="17.7886" y1="-131.0405" x2="17.7886" y2="-176.9404" gradientTransform="matrix(14.553 0 0 14.553 91.1219 2575.0161)">
	<stop  offset="0" style="stop-color:#24C7FB"/>
	<stop  offset="1" style="stop-color:#36E6FF"/>
</linearGradient>
<path fill="url(#SVGID_1_)" d="M569.021,406.027c-11.642,0-24.738,1.457-34.927,4.367c-33.472-16.01-74.221-29.107-100.416-37.838
	c-10.188-2.91-18.919-5.822-21.829-7.277c-10.188-4.365-16.009-14.553-16.009-24.74v-23.285c7.276-8.73,20.374-27.648,26.195-61.121
	c17.464-7.275,20.374-30.563,21.83-40.748c0-1.456,0-4.366,0-7.277c2.91-20.373,2.91-37.838-5.821-48.024
	c-1.455-1.455-2.911-2.911-1.455-5.821c2.91-24.74,4.365-40.748,2.91-49.48c-7.276-61.122-50.937-98.96-116.424-104.781
	c-5.821,0-10.188,0-16.009,0c-68.399,7.276-110.604,58.212-114.969,103.326c-1.455,10.188,0,24.74,2.911,49.48
	c0,1.455-1.455,4.365-1.455,5.821c-8.732,10.188-7.276,27.651-5.821,48.024c0,2.912,0,5.821,0,7.276
	c1.456,13.099,4.366,34.929,20.374,40.749c5.821,34.928,18.919,53.846,26.196,62.576v23.285c0,10.189-5.821,20.375-16.008,24.74
	c-2.911,1.455-13.098,4.367-23.285,7.277c-29.106,10.188-78.586,26.193-112.058,42.203C1.455,456.962,0,566.111,0,570.476v14.553
	h446.777c18.919,48.025,66.943,82.953,122.245,82.953c72.766,0,130.978-58.213,130.978-130.979
	C700,464.24,640.333,406.027,569.021,406.027z M221.206,228.482c-1.456-1.457-2.911-8.732-4.366-16.01c0-1.455,0-4.365-1.455-8.73
	c0-5.821-2.911-23.285-1.456-26.195c7.277-8.732,10.187-17.464,8.732-27.651c-1.455-8.731-4.366-32.017-2.911-43.659
	c2.911-33.472,34.927-72.765,88.773-77.131c2.91,0,7.276,0,10.188,0c74.221,5.821,85.863,56.757,88.773,77.131
	c1.455,10.188-1.455,29.106-2.91,43.659c-1.456,10.188,1.455,18.918,8.73,26.195c1.455,4.366,0,21.83,0,27.651
	c0,2.91,0,5.82-1.455,8.73c0,8.73-2.91,14.553-4.365,16.01c-8.731,2.909-14.554,11.641-16.009,20.373
	c-2.91,14.553-7.276,26.195-10.188,33.473c-16.009,24.74-42.204,42.203-66.944,42.203c-21.829,0-43.659-11.643-59.667-29.105
	c-4.366-5.82-13.098-20.375-17.464-46.568C235.759,240.123,228.482,232.847,221.206,228.482z M438.046,537.005
	c0,5.82,0,13.098,1.455,18.918H32.017c2.911-27.65,16.008-88.771,65.489-113.514c32.017-16.008,80.042-32.016,107.692-40.748
	c14.553-4.365,21.83-7.275,26.196-8.73c20.374-8.732,33.472-29.105,33.472-50.938v-17.462
	c14.553,10.187,32.017,16.007,50.936,16.007c17.463,0,36.382-5.82,50.937-17.462v18.917c0,21.83,13.098,42.205,33.472,50.938
	c2.91,1.455,10.188,4.365,24.74,8.73c18.919,5.822,48.023,16.008,74.22,26.195C461.33,449.687,438.046,490.435,438.046,537.005z
	 M567.567,593.761c-1.455,2.91-4.366,5.82-7.276,5.82l0,0c-2.91,0-5.821-2.91-7.276-5.82l-43.658-58.213l16.009-13.098l36.382,46.57
	l66.943-77.131l16.008,13.098L567.567,593.761z"/>
</svg>
