<?xml version="1.0" encoding="utf-8"?>
<!-- Generator: Adobe Illustrator 16.0.0, SVG Export Plug-In . SVG Version: 6.00 Build 0)  -->
<!DOCTYPE svg PUBLIC "-//W3C//DTD SVG 1.1//EN" "http://www.w3.org/Graphics/SVG/1.1/DTD/svg11.dtd">
<svg version="1.1" id="Layer_1" xmlns="http://www.w3.org/2000/svg" xmlns:xlink="http://www.w3.org/1999/xlink" x="0px" y="0px"
	 width="698.418px" height="677.314px" viewBox="0 0 698.418 677.314" enable-background="new 0 0 698.418 677.314"
	 xml:space="preserve">
<linearGradient id="SVGID_1_" gradientUnits="userSpaceOnUse" x1="30.3652" y1="-97.3716" x2="30.3652" y2="-180.9712" gradientTransform="matrix(8.1019 0 0 8.1019 103.1957 1466.2134)">
	<stop  offset="0" style="stop-color:#24C7FB"/>
	<stop  offset="1" style="stop-color:#36E6FF"/>
</linearGradient>
<path fill="#FFF" d="M588.194,425.347c-8.912,0-17.824,1.621-26.736,3.24c-6.481-4.859-12.963-8.91-20.255-12.963
	c-34.838-17.014-83.448-33.217-112.615-42.938c-9.723-3.242-19.444-6.482-21.875-7.293c-4.051-1.619-7.292-4.861-10.532-8.102
	l-3.241-4.053c-3.239-4.859-4.859-10.531-4.859-16.203v-23.495c0-0.811,0-0.811,0.81-1.621c7.292-8.102,20.255-25.926,25.927-61.574
	c0-0.81,0.811-1.621,0.811-1.621c16.203-5.67,19.444-29.166,19.444-38.889c0-1.621,0-4.051,0.811-7.291
	c2.431-19.445,3.24-36.458-4.861-46.181c-1.619-1.621-3.24-4.861-3.24-7.292c3.24-25.116,4.051-39.699,3.24-49.421
	c-4.86-56.713-46.99-93.981-111.806-99.653c-4.861,0-10.532,0-15.394,0C236.576,6.48,195.256,57.522,191.205,101.272
	c-0.81,9.722,0,25.116,3.241,49.421c0,3.241-1.62,6.481-3.241,7.292c-8.102,9.722-6.481,26.736-4.861,46.181
	c0,2.431,0.81,4.861,0.81,7.292c0.81,12.153,4.051,33.219,19.444,38.889c0.81,0,0.81,0.811,0.81,1.621
	c6.481,34.838,19.445,53.472,25.926,61.574c0,0,0.81,0.811,0.81,1.62v23.496c0,12.154-7.292,22.685-17.824,27.546
	c-2.431,0.811-12.963,4.051-23.495,8.104c-29.167,8.912-77.778,24.305-111.806,41.318C0.81,456.134,0,561.458,0,566.319v11.344
	h271.412l-4.051,40.508l46.99,59.145l46.991-59.953l-5.672-38.889h127.2c16.204,41.318,56.713,70.484,103.704,70.484
	c61.574,0,111.806-50.23,111.806-111.805C700,475.579,649.769,425.347,588.194,425.347z M230.093,247.917
	c-1.621-8.912-7.292-16.203-15.394-18.634c-1.621-0.81-4.051-8.103-4.861-18.634c0-2.432-0.81-4.861-0.81-8.102
	c-0.81-6.481-2.431-25.116,0-29.167c6.481-7.292,8.912-16.204,8.102-25.116c-2.43-21.875-3.241-36.458-2.43-44.56
	c3.241-34.838,36.458-75.347,91.551-80.208c4.051,0,7.292,0,11.343,0c76.157,5.671,89.12,58.333,91.551,81.019
	c0.812,9.722-1.619,29.977-3.24,44.561c-0.811,8.912,1.621,17.824,8.103,25.115c2.432,4.051,0.811,23.495,0,29.167
	c0,3.24-0.811,5.671-0.811,8.102c-0.812,11.344-3.24,17.824-4.861,18.635c-8.102,3.24-13.771,10.532-15.394,18.633
	c-5.672,30.788-16.203,45.371-21.064,50.231c-2.431,2.432-4.051,5.672-4.861,8.104c-15.394,15.393-34.838,25.114-55.093,25.114
	c-21.064,0-40.509-8.911-55.902-24.306c-0.81-3.24-2.431-6.48-4.861-8.912C246.296,293.288,235.764,278.704,230.093,247.917z
	 M337.848,374.306h-52.663c-4.051,0-8.102,1.619-11.342,4.051l-24.306-12.963c4.861-8.102,7.292-17.014,7.292-26.736v-15.394
	c16.204,12.152,34.838,19.444,54.283,19.444c19.443,0,38.078-7.292,53.472-19.444v14.583c0,8.912,2.431,17.015,6.481,24.306
	l-22.686,16.203C345.949,375.927,341.898,374.306,337.848,374.306z M343.519,392.94l-4.86,39.699c0,3.24-3.24,4.859-5.671,4.859
	h-42.13c-3.241,0-5.671-2.43-5.671-4.859l-4.861-39.699c0-1.621,0-3.24,1.62-4.861c1.621-1.621,2.431-2.43,4.861-2.43h52.662
	c1.62,0,3.24,0.809,4.861,2.43C345.949,389.7,344.329,390.509,343.519,392.94z M23.496,554.978
	c2.43-26.736,14.583-91.553,68.055-118.287c32.408-16.203,80.208-31.598,108.565-40.51c14.583-4.861,21.875-7.291,25.926-8.912
	c6.481-3.24,12.153-7.291,17.014-12.152l25.926,13.773c0,1.619-0.81,3.24,0,5.672l4.861,39.697
	c0.81,6.48,5.671,12.152,11.342,13.773l-10.532,107.756H23.496V554.978z M315.162,658.681l-35.648-43.75l16.204-166.088h31.598
	L350,613.31L315.162,658.681z M476.389,537.153c0,6.48,0.812,12.152,1.621,17.824H354.051l-14.583-107.756
	c5.671-2.43,9.723-7.291,10.532-13.771l4.861-39.699c0-1.621,0-3.242,0-4.861l22.685-17.014c4.861,6.48,11.343,11.344,19.444,14.582
	c3.241,1.621,10.533,4.053,24.306,8.104c28.356,9.723,76.158,25.115,109.375,41.318c1.621,0.811,2.431,1.621,4.052,2.432
	C500.694,457.755,476.389,494.214,476.389,537.153z M661.111,577.663c0,11.342-9.724,21.064-21.065,21.064H537.152
	c-11.343,0-21.064-9.723-21.064-21.064v-46.182l0,0v-19.443c0-11.344,9.723-21.064,21.064-21.064h20.255v-6.482
	c0-13.771,11.343-25.115,25.116-25.115h12.963c13.771,0,25.114,11.344,25.114,25.115v6.482h19.444
	c11.343,0,21.065,9.723,21.065,21.064L661.111,577.663L661.111,577.663z M609.259,490.972H568.75v-6.48
	c0-7.291,6.481-13.771,13.773-13.771h12.963c7.291,0,13.771,6.48,13.771,13.771L609.259,490.972L609.259,490.972z M648.958,512.038
	v17.824l-3.24,7.291c-2.431,4.051-7.292,7.291-12.963,7.291h-88.311c-5.671,0-11.344-3.24-12.963-7.291l-3.241-7.291v-17.824
	c0-4.861,4.052-9.723,9.723-9.723h26.736h51.852h24.307C644.907,502.315,648.958,506.366,648.958,512.038z M632.755,555.788
	c6.481,0,12.152-2.432,17.014-5.672v26.736c0,4.859-4.051,9.723-9.723,9.723H537.152c-4.86,0-9.723-4.051-9.723-9.723v-26.736
	c4.861,3.24,10.532,5.672,17.015,5.672H632.755z"/>
</svg>
