<?xml version="1.0" encoding="utf-8"?>
<!-- Generator: Adobe Illustrator 16.0.0, SVG Export Plug-In . SVG Version: 6.00 Build 0)  -->
<!DOCTYPE svg PUBLIC "-//W3C//DTD SVG 1.1//EN" "http://www.w3.org/Graphics/SVG/1.1/DTD/svg11.dtd">
<svg version="1.1" id="Layer_1" xmlns="http://www.w3.org/2000/svg" xmlns:xlink="http://www.w3.org/1999/xlink" x="0px" y="0px"
	 width="700px" height="696.518px" viewBox="0 0 700 696.518" enable-background="new 0 0 700 696.518" xml:space="preserve">
<linearGradient id="SVGID_1_" gradientUnits="userSpaceOnUse" x1="29.062" y1="-90.0093" x2="29.062" y2="-170.0088" gradientTransform="matrix(8.7065 0 0 8.7065 96.9749 1480.1812)">
	<stop  offset="0" style="stop-color:#24C7FB"/>
	<stop  offset="1" style="stop-color:#36E6FF"/>
</linearGradient>
<path fill="url(#SVGID_1_)" d="M601.617,458.831c-6.095-4.354-12.189-8.705-19.154-12.189
	c-37.438-18.283-89.677-35.695-121.021-46.143c-11.318-3.484-20.896-6.967-23.508-7.836c-12.188-5.227-19.153-17.414-20.024-29.604
	v-25.25c0-0.87,0-0.87,0.871-1.741c7.836-8.705,21.766-27.859,27.859-66.169c0-0.87,0.871-1.741,0.871-1.741
	c17.413-6.094,20.896-31.342,20.896-41.791c0-1.74,0-4.353,0.87-6.965c2.611-20.896,3.482-39.179-5.225-49.626
	c-1.74-1.741-3.481-5.224-3.481-7.836c3.481-26.99,4.354-42.662,3.481-53.109C457.959,46.144,412.686,6.095,343.034,0
	c-5.226,0-11.318,0-16.543,0c-72.263,6.965-116.667,61.816-121.02,108.831c-0.871,10.448,0,26.99,3.482,53.109
	c0,3.482-1.741,6.965-3.482,7.836c-8.707,10.448-7.836,28.731-5.224,49.626c0,2.612,0.871,5.225,0.871,7.836
	c0.871,13.06,4.353,35.696,20.896,41.791c0,0,0.871,0.87,0.871,1.741c6.965,37.438,20.896,57.463,27.86,66.169
	c0,0,0.871,0.871,0.871,1.741v25.25c0,13.061-7.836,24.377-19.154,29.602c-2.612,0.871-13.931,4.354-25.249,8.707
	c-31.343,9.576-83.582,26.119-120.149,44.402C0.871,490.175,0,603.358,0,608.583v12.188h468.408
	c17.413,44.402,60.944,75.746,111.441,75.746c66.169,0,120.149-53.979,120.149-120.148C700,518.036,657.338,469.28,601.617,458.831z
	 M247.264,266.418c-1.741-9.577-7.836-17.413-16.542-20.025c-1.741-0.871-4.353-8.707-5.224-20.025c0-2.611-0.871-5.224-0.871-8.705
	c-0.871-6.965-2.612-26.99,0-31.344c6.965-7.835,9.577-17.413,8.707-26.99c-2.612-23.507-3.483-39.179-2.612-47.886
	c3.483-37.438,39.179-80.97,98.383-86.194c4.354,0,7.836,0,12.188,0c81.841,6.094,95.771,62.687,98.383,87.064
	c0.87,10.448-1.741,32.214-3.481,47.886c-0.871,9.577,1.74,19.154,8.706,26.99c2.611,4.353,0.871,25.249,0,31.343
	c0,3.482-0.87,6.095-0.87,8.707c-0.871,12.188-3.483,19.153-5.226,20.024c-8.706,3.483-14.801,11.317-16.542,20.024
	c-6.095,33.085-17.413,48.757-22.637,53.98c-2.612,2.612-4.354,6.096-5.224,9.577c-16.543,16.543-37.438,26.99-59.204,26.99
	c-22.637,0-43.533-9.577-60.075-26.119c-0.871-3.482-2.612-6.966-5.224-9.577C264.677,315.174,253.358,299.503,247.264,266.418z
	 M25.249,596.394c2.612-28.73,15.672-98.383,73.135-127.113c34.826-17.412,86.194-33.955,116.667-43.533
	c15.671-5.225,23.507-7.836,27.861-9.576c20.025-9.578,33.955-29.604,33.955-52.238v-16.543
	c17.413,13.061,37.438,20.897,58.333,20.897c20.895,0,40.92-7.836,57.463-20.897v15.67c0,22.639,13.93,42.662,33.955,52.24
	c3.481,1.74,11.317,4.354,26.119,8.705c26.119,8.707,66.169,21.768,99.254,35.697c-52.239,13.061-92.289,60.074-92.289,116.666
	c0,6.965,0.871,13.061,1.741,19.154H25.249V596.394z M619.9,625.126l-39.18-39.18l-39.18,39.18l-8.706-8.707l39.179-39.18
	l-39.179-39.18l8.706-8.707l39.18,39.18l39.18-39.18l8.707,8.707l-39.181,39.18l39.181,39.18L619.9,625.126z"/>
</svg>
