<?xml version="1.0" encoding="utf-8"?>
<!-- Generator: Adobe Illustrator 16.0.0, SVG Export Plug-In . SVG Version: 6.00 Build 0)  -->
<!DOCTYPE svg PUBLIC "-//W3C//DTD SVG 1.1//EN" "http://www.w3.org/Graphics/SVG/1.1/DTD/svg11.dtd">
<svg version="1.1" id="Слой_1" xmlns="http://www.w3.org/2000/svg" xmlns:xlink="http://www.w3.org/1999/xlink" x="0px" y="0px"
	 width="135.35px" height="135.33px" viewBox="0 0 135.35 135.33" enable-background="new 0 0 135.35 135.33" xml:space="preserve">
<linearGradient id="SVGID_1_" gradientUnits="userSpaceOnUse" x1="67.6763" y1="135.3335" x2="67.6763" y2="0">
	<stop  offset="0" style="stop-color:#24C7FB"/>
	<stop  offset="1" style="stop-color:#36E6FF"/>
</linearGradient>
<path fill="url(#SVGID_1_)" d="M125.9,29.53l-1,0.06c0-0.06,0-0.12,0.01-0.18c0.12-0.97,0.17-1.6,0.17-2.05c0-0.12,0-0.23-0.01-0.32
	c-0.12-1.2-0.83-4.03-4.93-4.35c-0.21-0.02-0.41-0.02-0.62,0.01c-2.97,0.3-4.77,2.46-4.95,4.35c-0.01,0.1-0.01,0.22-0.01,0.35
	c0,0.46,0.05,1.12,0.16,2.02c0.01,0.07,0.01,0.12,0.01,0.18c0,0.37-0.15,0.75-0.41,1.07c0,0-0.08,0.12-0.08,0.58
	c0,0.35,0.04,0.73,0.07,1.03c0.02,0.17,0.03,0.31,0.04,0.42c0.04,0.64,0.23,1.04,0.32,1.08c0.39,0.15,0.68,0.5,0.75,0.92
	c0.29,1.64,0.88,2.43,1.12,2.7c0.2,0.22,0.31,0.51,0.31,0.82h-1c0-0.06-0.02-0.11-0.05-0.15c-0.37-0.41-1.03-1.36-1.36-3.19
	c-0.01-0.07-0.06-0.14-0.12-0.16c-0.75-0.28-0.93-1.35-0.97-1.96c-0.01-0.1-0.02-0.23-0.04-0.38c-0.04-0.33-0.08-0.75-0.08-1.14
	c0-0.58,0.1-0.97,0.31-1.22c0.12-0.14,0.18-0.29,0.18-0.43l0-0.06c-0.11-0.93-0.17-1.64-0.17-2.14c0-0.17,0.01-0.32,0.02-0.45
	c0.22-2.28,2.34-4.89,5.85-5.24c0.27-0.03,0.54-0.03,0.8-0.01c3.37,0.27,5.56,2.23,5.85,5.25c0.01,0.12,0.02,0.26,0.02,0.42
	C126.08,27.85,126.03,28.52,125.9,29.53z M30.46,73.49h0.5v35.45h-0.5v0.5H0.5v-0.5H0V72.99h30.46V73.49z M29.96,73.99H1v29.06
	c0.64-0.84,1.4-1.52,2.31-1.97c1.8-0.9,4.36-1.71,5.9-2.2c0.58-0.19,1.09-0.34,1.23-0.41c0.61-0.28,1.01-0.9,1.02-1.57l0.01-1.25
	l1,0l-0.01,1.27c-0.01,1.06-0.64,2.03-1.6,2.47c-0.19,0.09-0.59,0.22-1.35,0.45c-1.51,0.48-4.02,1.27-5.75,2.14
	c-1.13,0.57-2.03,1.51-2.67,2.8v3.66h28.58v-3.81c-0.64-1.22-1.51-2.11-2.59-2.65c-1.75-0.87-4.28-1.7-5.79-2.19
	c-0.72-0.23-1.11-0.36-1.29-0.44c-0.97-0.44-1.61-1.41-1.62-2.47l-0.01-1.22l0.92-0.01l-0.92,0v0c0-0.31,0.11-0.6,0.31-0.82
	c0.24-0.26,0.83-1.05,1.12-2.69c0.08-0.42,0.36-0.77,0.75-0.92c0.09-0.04,0.28-0.44,0.32-1.07c0.01-0.11,0.02-0.25,0.04-0.42
	c0.03-0.31,0.08-0.69,0.08-1.05c0-0.46-0.08-0.57-0.08-0.57c-0.26-0.32-0.4-0.69-0.4-1.06h1c0,0.18,0.1,0.33,0.18,0.43
	C21.9,87.72,22,88.1,22,88.67c0,0.39-0.05,0.82-0.08,1.16c-0.02,0.15-0.03,0.27-0.04,0.37c-0.03,0.48-0.18,1.65-0.97,1.95
	c-0.06,0.02-0.11,0.08-0.12,0.16c-0.33,1.83-1,2.78-1.36,3.18c-0.03,0.04-0.05,0.09-0.05,0.15l0.01,1.22
	c0.01,0.68,0.41,1.29,1.03,1.57c0.14,0.06,0.63,0.22,1.19,0.4c1.54,0.5,4.12,1.34,5.93,2.25c0.96,0.48,1.78,1.2,2.44,2.12V73.99z
	 M21.7,27.36c0-0.16-0.01-0.3-0.02-0.42c-0.29-3.02-2.48-4.99-5.85-5.25c-0.26-0.02-0.53-0.02-0.8,0.01
	c-3.5,0.35-5.63,2.97-5.85,5.24c-0.01,0.13-0.02,0.28-0.02,0.45c0,0.5,0.06,1.2,0.17,2.14l0,0.06c0,0.14-0.06,0.29-0.18,0.43
	c-0.21,0.25-0.31,0.64-0.31,1.22c0,0.38,0.04,0.8,0.08,1.14c0.02,0.15,0.03,0.28,0.04,0.38c0.04,0.61,0.21,1.67,0.97,1.96
	c0.06,0.02,0.11,0.08,0.12,0.16c0.33,1.82,0.99,2.78,1.36,3.19c0.03,0.04,0.05,0.09,0.05,0.15h1c0-0.31-0.11-0.6-0.31-0.82
	c-0.24-0.27-0.82-1.06-1.12-2.7c-0.08-0.42-0.36-0.77-0.75-0.92c-0.09-0.04-0.28-0.44-0.32-1.08c-0.01-0.11-0.02-0.25-0.04-0.42
	c-0.03-0.3-0.07-0.68-0.07-1.03c0-0.46,0.08-0.58,0.08-0.58c0.26-0.32,0.41-0.7,0.41-1.07c0-0.05,0-0.11-0.01-0.18
	c-0.11-0.9-0.16-1.57-0.16-2.02c0-0.13,0-0.24,0.01-0.35c0.18-1.89,1.98-4.05,4.95-4.35c0.21-0.02,0.41-0.02,0.62-0.01
	c4.11,0.32,4.82,3.15,4.93,4.35c0.01,0.09,0.01,0.2,0.01,0.32c0,0.44-0.05,1.08-0.17,2.05c-0.01,0.06-0.01,0.12-0.01,0.18l1-0.06
	C21.64,28.52,21.7,27.85,21.7,27.36z M21.7,84.81c0-0.16-0.01-0.3-0.02-0.42c-0.29-3.02-2.48-4.99-5.85-5.25
	c-0.26-0.02-0.53-0.02-0.8,0.01c-3.5,0.35-5.63,2.97-5.85,5.24c-0.01,0.13-0.02,0.28-0.02,0.45c0,0.5,0.06,1.2,0.17,2.14l0,0.06
	c0,0.14-0.06,0.29-0.18,0.43c-0.21,0.25-0.31,0.64-0.31,1.22c0,0.38,0.04,0.8,0.08,1.14c0.02,0.15,0.03,0.28,0.04,0.38
	c0.04,0.61,0.21,1.67,0.97,1.96c0.06,0.02,0.11,0.08,0.12,0.16c0.33,1.82,0.99,2.78,1.36,3.19c0.03,0.04,0.05,0.09,0.05,0.15h1
	c0-0.31-0.11-0.6-0.31-0.82c-0.24-0.27-0.82-1.06-1.12-2.7c-0.08-0.42-0.36-0.77-0.75-0.92c-0.09-0.04-0.28-0.44-0.32-1.08
	c-0.01-0.11-0.02-0.25-0.04-0.42c-0.03-0.3-0.07-0.68-0.07-1.03c0-0.46,0.08-0.58,0.08-0.58c0.26-0.32,0.41-0.7,0.41-1.07
	c0-0.05,0-0.11-0.01-0.18c-0.11-0.9-0.16-1.57-0.16-2.02c0-0.13,0-0.24,0.01-0.35c0.18-1.89,1.98-4.05,4.95-4.35
	c0.21-0.02,0.41-0.02,0.62-0.01c4.11,0.32,4.82,3.15,4.93,4.35c0.01,0.09,0.01,0.2,0.01,0.32c0,0.44-0.05,1.08-0.17,2.05
	c-0.01,0.06-0.01,0.12-0.01,0.18l1-0.06C21.64,85.96,21.7,85.3,21.7,84.81z M30.46,15.75h0.5V51.2h-0.29v0.3h-0.21v0.2H0.5v-0.2
	H0.09l0-0.3H0V15.25h30.46V15.75z M29.96,16.25H1v29.36c0.64-0.84,1.4-1.52,2.31-1.97c1.8-0.9,4.36-1.71,5.9-2.2
	c0.58-0.19,1.09-0.34,1.23-0.41c0.61-0.28,1.01-0.9,1.02-1.57l0.01-1.25l1,0l-0.01,1.27c-0.01,1.06-0.64,2.03-1.6,2.47
	c-0.19,0.09-0.59,0.22-1.35,0.45C8,42.87,5.48,43.67,3.76,44.53c-1.13,0.57-2.03,1.51-2.67,2.8v3.37h28.58v-3.51
	c-0.64-1.22-1.51-2.11-2.59-2.65c-1.75-0.87-4.28-1.7-5.79-2.19c-0.72-0.23-1.11-0.36-1.29-0.44c-0.97-0.44-1.61-1.41-1.62-2.47
	l-0.01-1.22l0.92-0.01l-0.92,0v0c0-0.31,0.11-0.6,0.31-0.82c0.24-0.26,0.83-1.05,1.12-2.69c0.08-0.42,0.36-0.77,0.75-0.92
	c0.09-0.04,0.28-0.44,0.32-1.07c0.01-0.11,0.02-0.25,0.04-0.42c0.03-0.31,0.08-0.69,0.08-1.05c0-0.46-0.08-0.57-0.08-0.57
	c-0.26-0.32-0.4-0.69-0.4-1.06h1c0,0.18,0.1,0.33,0.18,0.43C21.9,30.27,22,30.65,22,31.23c0,0.39-0.05,0.82-0.08,1.16
	c-0.02,0.15-0.03,0.27-0.04,0.37c-0.03,0.48-0.18,1.65-0.97,1.95c-0.06,0.02-0.11,0.08-0.12,0.16c-0.33,1.83-1,2.78-1.36,3.18
	c-0.03,0.04-0.05,0.09-0.05,0.15l0.01,1.22c0.01,0.68,0.41,1.29,1.03,1.57c0.14,0.06,0.63,0.22,1.19,0.4
	c1.54,0.5,4.12,1.34,5.93,2.25c0.96,0.48,1.78,1.2,2.44,2.12V16.25z M30.46,129.63H0v5.71h1v-4.71h28.96v4.71h1v-5.21h-0.5V129.63z
	 M135.35,15.75V51.2h-0.29v0.3h-0.21v0.2h-29.96v-0.2h-0.41l0-0.3h-0.09V15.25h30.46v0.5H135.35z M134.35,16.25h-28.96v29.36
	c0.64-0.84,1.4-1.52,2.31-1.97c1.8-0.9,4.36-1.71,5.9-2.2c0.58-0.19,1.09-0.34,1.23-0.41c0.61-0.28,1.01-0.9,1.02-1.57l0.01-1.25
	l1,0l-0.01,1.27c-0.01,1.06-0.64,2.03-1.6,2.47c-0.19,0.09-0.59,0.22-1.35,0.45c-1.51,0.48-4.02,1.27-5.75,2.14
	c-1.13,0.57-2.03,1.51-2.67,2.8v3.37h28.58v-3.51c-0.64-1.22-1.51-2.11-2.59-2.65c-1.75-0.87-4.28-1.7-5.79-2.19
	c-0.72-0.23-1.11-0.36-1.29-0.44c-0.97-0.44-1.61-1.41-1.62-2.47l-0.01-1.22l0.92-0.01l-0.92,0v0c0-0.31,0.11-0.6,0.31-0.82
	c0.24-0.26,0.83-1.05,1.12-2.69c0.08-0.42,0.36-0.77,0.75-0.92c0.09-0.04,0.28-0.44,0.32-1.07c0.01-0.11,0.02-0.25,0.04-0.42
	c0.03-0.31,0.08-0.69,0.08-1.05c0-0.46-0.08-0.57-0.08-0.57c-0.26-0.32-0.4-0.69-0.4-1.06h1c0,0.18,0.1,0.33,0.18,0.43
	c0.21,0.25,0.31,0.64,0.31,1.21c0,0.39-0.05,0.82-0.08,1.16c-0.02,0.15-0.03,0.27-0.04,0.37c-0.03,0.48-0.18,1.65-0.97,1.95
	c-0.06,0.02-0.11,0.08-0.12,0.16c-0.33,1.83-1,2.78-1.36,3.18c-0.03,0.04-0.05,0.09-0.05,0.15l0.01,1.22
	c0.01,0.68,0.41,1.29,1.03,1.57c0.14,0.06,0.63,0.22,1.19,0.4c1.54,0.5,4.12,1.34,5.93,2.25c0.96,0.48,1.78,1.2,2.44,2.12V16.25z
	 M82.63,73.49h0.5v35.45h-0.5v0.5H52.67v-0.5h-0.5V72.99h30.46V73.49z M82.13,73.99H53.17v29.19c0.66-0.91,1.46-1.62,2.42-2.1
	c1.8-0.9,4.36-1.71,5.9-2.2c0.58-0.18,1.09-0.34,1.23-0.41c0.61-0.28,1.01-0.9,1.02-1.57l0.01-1.25l1,0l-0.01,1.27
	c-0.01,1.06-0.64,2.03-1.6,2.47c-0.19,0.09-0.59,0.21-1.34,0.45c-1.51,0.48-4.03,1.27-5.75,2.14c-1.13,0.57-2.03,1.51-2.67,2.8v3.66
	h28.58v-3.81c-0.64-1.22-1.51-2.11-2.59-2.65c-1.75-0.87-4.28-1.7-5.79-2.19c-0.72-0.23-1.1-0.36-1.29-0.44
	c-0.97-0.44-1.61-1.41-1.62-2.47l-0.01-1.22l0.92-0.01l-0.92,0v0c0-0.31,0.11-0.6,0.31-0.82c0.24-0.26,0.83-1.05,1.12-2.69
	c0.08-0.42,0.37-0.77,0.75-0.92c0.09-0.04,0.28-0.44,0.32-1.07c0.01-0.11,0.02-0.25,0.04-0.42c0.03-0.31,0.08-0.69,0.08-1.05
	c0-0.46-0.08-0.57-0.08-0.57c-0.26-0.32-0.4-0.69-0.4-1.06h1c0,0.18,0.1,0.33,0.18,0.43c0.21,0.25,0.31,0.64,0.31,1.21
	c0,0.39-0.05,0.82-0.08,1.16c-0.02,0.15-0.03,0.27-0.04,0.37c-0.03,0.48-0.18,1.65-0.97,1.95c-0.06,0.02-0.11,0.08-0.12,0.16
	c-0.33,1.82-1,2.78-1.36,3.18c-0.03,0.04-0.05,0.09-0.05,0.15l0.01,1.22c0.01,0.68,0.41,1.29,1.03,1.57
	c0.14,0.06,0.63,0.22,1.19,0.4c1.54,0.5,4.12,1.34,5.93,2.25c0.92,0.46,1.69,1.14,2.33,2V73.99z M75.31,23.29
	c0,0.48-0.06,1.03-0.11,1.48c-0.03,0.24-0.05,0.45-0.06,0.61c-0.04,0.76-0.24,1.24-0.28,1.3c-0.65,0.24-1.14,0.83-1.26,1.53
	c-0.42,2.29-1.22,3.38-1.55,3.74c-0.34,0.37-0.52,0.86-0.52,1.37v0.01l2-0.04c0.55-0.61,1.54-2.03,2.03-4.74
	c1.3-0.48,1.53-2.3,1.58-3.05c0.01-0.13,0.03-0.31,0.05-0.52c0.05-0.49,0.12-1.11,0.12-1.7c0-0.89-0.16-1.5-0.5-1.92
	c-0.12-0.15-0.19-0.31-0.19-0.44h-2c0,0.61,0.22,1.2,0.62,1.67C75.24,22.61,75.31,22.77,75.31,23.29z M73.96,84.81
	c0-0.16-0.01-0.3-0.02-0.42c-0.29-3.02-2.48-4.99-5.85-5.25c-0.27-0.02-0.53-0.02-0.8,0.01c-3.5,0.35-5.63,2.97-5.85,5.25
	c-0.01,0.13-0.02,0.28-0.02,0.45c0,0.5,0.06,1.2,0.17,2.14l0,0.06c0,0.14-0.06,0.29-0.18,0.43c-0.21,0.25-0.31,0.64-0.31,1.22
	c0,0.38,0.04,0.8,0.08,1.14c0.02,0.15,0.03,0.28,0.04,0.38c0.04,0.61,0.21,1.67,0.97,1.96c0.06,0.02,0.11,0.09,0.12,0.16
	c0.33,1.82,0.99,2.78,1.36,3.19c0.03,0.04,0.05,0.09,0.05,0.15h1c0-0.31-0.11-0.6-0.31-0.82c-0.24-0.27-0.82-1.06-1.12-2.69
	c-0.07-0.42-0.36-0.77-0.75-0.92c-0.09-0.04-0.28-0.44-0.32-1.08c-0.01-0.11-0.02-0.25-0.04-0.42c-0.03-0.3-0.07-0.68-0.07-1.03
	c0-0.46,0.08-0.58,0.08-0.58c0.26-0.32,0.41-0.7,0.41-1.07c0-0.05,0-0.11-0.01-0.17c-0.11-0.91-0.16-1.57-0.16-2.03
	c0-0.13,0-0.25,0.01-0.35c0.18-1.89,1.98-4.05,4.95-4.35c0.2-0.02,0.41-0.02,0.62-0.01c4.11,0.32,4.82,3.15,4.93,4.35
	c0.01,0.09,0.01,0.2,0.01,0.32c0,0.44-0.05,1.08-0.17,2.05c-0.01,0.06-0.01,0.12-0.01,0.18l1-0.06
	C73.91,85.96,73.96,85.3,73.96,84.81z M134.85,129.63h-30.46v5.71h1v-4.71h28.96v4.71h1v-5.21h-0.5V129.63z M134.85,73.49h0.5v35.45
	h-0.5v0.5h-29.96v-0.5h-0.5V72.99h30.46V73.49z M134.35,73.99h-28.96v29.06c0.64-0.84,1.4-1.52,2.31-1.97c1.8-0.9,4.36-1.71,5.9-2.2
	c0.58-0.19,1.09-0.34,1.23-0.41c0.61-0.28,1.01-0.9,1.02-1.57l0.01-1.25l1,0l-0.01,1.27c-0.01,1.06-0.64,2.03-1.6,2.47
	c-0.19,0.09-0.59,0.22-1.35,0.45c-1.51,0.48-4.02,1.27-5.75,2.14c-1.13,0.57-2.03,1.51-2.67,2.8v3.66h28.58v-3.81
	c-0.64-1.22-1.51-2.11-2.59-2.65c-1.75-0.87-4.28-1.7-5.79-2.19c-0.72-0.23-1.11-0.36-1.29-0.44c-0.97-0.44-1.61-1.41-1.62-2.47
	l-0.01-1.22l0.92-0.01l-0.92,0v0c0-0.31,0.11-0.6,0.31-0.82c0.24-0.26,0.83-1.05,1.12-2.69c0.08-0.42,0.36-0.77,0.75-0.92
	c0.09-0.04,0.28-0.44,0.32-1.07c0.01-0.11,0.02-0.25,0.04-0.42c0.03-0.31,0.08-0.69,0.08-1.05c0-0.46-0.08-0.57-0.08-0.57
	c-0.26-0.32-0.4-0.69-0.4-1.06h1c0,0.18,0.1,0.33,0.18,0.43c0.21,0.25,0.31,0.64,0.31,1.21c0,0.39-0.05,0.82-0.08,1.16
	c-0.02,0.15-0.03,0.27-0.04,0.37c-0.03,0.48-0.18,1.65-0.97,1.95c-0.06,0.02-0.11,0.08-0.12,0.16c-0.33,1.83-1,2.78-1.36,3.18
	c-0.03,0.04-0.05,0.09-0.05,0.15l0.01,1.22c0.01,0.68,0.41,1.29,1.03,1.57c0.14,0.06,0.63,0.22,1.19,0.4
	c1.54,0.5,4.12,1.34,5.93,2.25c0.96,0.48,1.78,1.2,2.44,2.12V73.99z M126.08,84.81c0-0.16-0.01-0.3-0.02-0.42
	c-0.29-3.02-2.48-4.99-5.85-5.25c-0.26-0.02-0.53-0.02-0.8,0.01c-3.5,0.35-5.63,2.97-5.85,5.24c-0.01,0.13-0.02,0.28-0.02,0.45
	c0,0.5,0.06,1.2,0.17,2.14l0,0.06c0,0.14-0.06,0.29-0.18,0.43c-0.21,0.25-0.31,0.64-0.31,1.22c0,0.38,0.04,0.8,0.08,1.14
	c0.02,0.15,0.03,0.28,0.04,0.38c0.04,0.61,0.21,1.67,0.97,1.96c0.06,0.02,0.11,0.08,0.12,0.16c0.33,1.82,0.99,2.78,1.36,3.19
	c0.03,0.04,0.05,0.09,0.05,0.15h1c0-0.31-0.11-0.6-0.31-0.82c-0.24-0.27-0.82-1.06-1.12-2.7c-0.08-0.42-0.36-0.77-0.75-0.92
	c-0.09-0.04-0.28-0.44-0.32-1.08c-0.01-0.11-0.02-0.25-0.04-0.42c-0.03-0.3-0.07-0.68-0.07-1.03c0-0.46,0.08-0.58,0.08-0.58
	c0.26-0.32,0.41-0.7,0.41-1.07c0-0.05,0-0.11-0.01-0.18c-0.11-0.9-0.16-1.57-0.16-2.02c0-0.13,0-0.24,0.01-0.35
	c0.18-1.89,1.98-4.05,4.95-4.35c0.21-0.02,0.41-0.02,0.62-0.01c4.11,0.32,4.82,3.15,4.93,4.35c0.01,0.09,0.01,0.2,0.01,0.32
	c0,0.44-0.05,1.08-0.17,2.05c-0.01,0.06-0.01,0.12-0.01,0.18l1-0.06C126.03,85.96,126.08,85.3,126.08,84.81z M61.52,28.23
	c-0.13-0.7-0.61-1.29-1.2-1.5c-0.11-0.11-0.3-0.61-0.35-1.35c-0.01-0.16-0.03-0.38-0.06-0.62c-0.05-0.44-0.1-0.98-0.1-1.45
	c0-0.45,0.05-0.64,0.05-0.66c0,0,0,0,0,0c0.43-0.51,0.65-1.11,0.65-1.72c0-0.09,0-0.18-0.02-0.29c-0.16-1.3-0.23-2.24-0.23-2.88
	c0-0.18,0.01-0.33,0.02-0.47c0.25-2.6,2.75-5.6,6.88-6.02c0.28-0.03,0.56-0.03,0.84-0.01c5.7,0.45,6.69,4.36,6.85,6.02
	c0.01,0.13,0.02,0.27,0.02,0.44c0,0.82-0.14,2.05-0.25,2.92c-0.01,0.1-0.02,0.19-0.02,0.29l2-0.05c0.18-1.47,0.26-2.44,0.26-3.16
	c0-0.24-0.01-0.45-0.03-0.63c-0.44-4.5-3.68-7.43-8.68-7.82c-0.4-0.03-0.8-0.03-1.2,0.01c-5.2,0.52-8.35,4.42-8.67,7.81
	c-0.02,0.19-0.03,0.42-0.03,0.67c0,0.74,0.08,1.73,0.25,3.12l0,0.05c0,0.14-0.07,0.29-0.19,0.44c-0.35,0.42-0.51,1.03-0.51,1.94
	c0,0.58,0.06,1.18,0.12,1.66c0.02,0.21,0.04,0.39,0.05,0.53c0.06,0.94,0.34,2.6,1.57,3.08c0.49,2.69,1.48,4.12,2.03,4.73
	c0,0,0.01,0.01,0.01,0.03h2c0-0.51-0.18-1-0.52-1.37C62.74,31.61,61.93,30.52,61.52,28.23z M82.63,129.63H52.17v5.71h1v-4.71h28.96
	v4.71h1v-5.21h-0.5V129.63z M99.47,47.68c0,7.6-6.18,13.77-13.77,13.77c-5.68,0-10.57-3.46-12.67-8.38H46.06V52.5h-0.88v-0.43h-0.13
	V0h44.17v1h1v33.69C95.6,36.56,99.47,41.67,99.47,47.68z M72.37,51.07c-0.28-1.09-0.44-2.22-0.44-3.39c0-3.19,1.1-6.12,2.93-8.46
	c-0.39-0.13-0.65-0.23-0.81-0.3c-1.5-0.68-2.48-2.17-2.49-3.82l-0.02-1.76l2-0.02l0.02,1.76c0.01,0.87,0.52,1.66,1.31,2.01
	c0.17,0.08,0.79,0.28,1.48,0.51c2.46-2.29,5.75-3.7,9.36-3.7c0.86,0,1.71,0.09,2.53,0.24V2H47.06v41.19
	c0.84-0.95,1.81-1.71,2.92-2.27c2.61-1.3,6.32-2.48,8.54-3.18c0.8-0.25,1.55-0.49,1.74-0.58c0.78-0.36,1.29-1.15,1.3-2.01l0.02-1.81
	l2,0l-0.02,1.83c-0.02,1.63-0.99,3.13-2.47,3.81c-0.29,0.13-0.84,0.31-1.97,0.67c-2.16,0.68-5.78,1.83-8.24,3.06
	c-1.56,0.78-2.8,2.08-3.69,3.85v4.5H72.37z M94.3,43.25l-1.08-0.92l-8.7,10.18l-4.94-6.36l-1.12,0.87l5.47,7.05
	c0.13,0.17,0.33,0.27,0.54,0.27c0,0,0.01,0,0.02,0c0.21,0,0.4-0.09,0.54-0.25L94.3,43.25z"/>
</svg>
