<?xml version="1.0" encoding="utf-8"?>
<!-- Generator: Adobe Illustrator 19.1.0, SVG Export Plug-In . SVG Version: 6.00 Build 0)  -->
<svg version="1.1" id="Layer_1" xmlns="http://www.w3.org/2000/svg" xmlns:xlink="http://www.w3.org/1999/xlink" x="0px" y="0px"
	 width="7917px" height="282px" viewBox="0 0 7917 282" style="enable-background:new 0 0 7917 282;" xml:space="preserve">
<style type="text/css">
	.st0{fill:url(#SVGID_1_);}
</style>
<linearGradient id="SVGID_1_" gradientUnits="userSpaceOnUse" x1="7917" y1="141" x2="1.212265e-08" y2="141">
	<stop  offset="0" style="stop-color:#7CF78A"/>
	<stop  offset="1" style="stop-color:#47ABED"/>
</linearGradient>
<path class="st0" d="M7911,0c-3.061,0-5.581,2.294-5.949,5.255l-453.185,19.492C7451.29,22.035,7448.884,20,7446,20
	c-3.061,0-5.581,2.294-5.949,5.255l-453.184,19.492C6986.29,42.035,6983.884,40,6981,40c-3.017,0-5.506,2.228-5.93,5.127
	l-453.18,9.746C6521.363,52.099,6518.928,50,6516,50c-2.979,0-5.445,2.174-5.913,5.021l-453.196,9.852
	C6056.363,62.098,6053.928,60,6051,60c-2.983,0-5.45,2.179-5.915,5.031l-453.219,19.716C5591.29,82.035,5588.883,80,5586,80
	c-2.988,0-5.458,2.186-5.917,5.044l-453.195,19.807c-0.537-2.764-2.967-4.851-5.888-4.851c-2.978,0-5.442,2.172-5.912,5.016
	l-453.197,9.856c-0.528-2.774-2.963-4.873-5.891-4.873c-3.017,0-5.506,2.228-5.929,5.127l-453.18,9.746
	c-0.528-2.774-2.962-4.873-5.891-4.873c-2.977,0-5.441,2.171-5.912,5.014l-453.197,9.859c-0.528-2.774-2.962-4.873-5.891-4.873
	c-2.988,0-5.458,2.186-5.917,5.045l-453.214,19.711c-0.573-2.717-2.982-4.757-5.869-4.757c-2.979,0-5.444,2.174-5.913,5.02
	l-453.196,9.853c-0.528-2.774-2.963-4.873-5.891-4.873c-3.018,0-5.509,2.231-5.93,5.132l-453.179,9.742
	c-0.527-2.775-2.962-4.874-5.891-4.874c-3.054,0-5.569,2.283-5.946,5.235l-453.147,9.745c-0.485-2.827-2.942-4.98-5.907-4.98
	c-2.981,0-5.447,2.176-5.914,5.025l-453.196,9.848c-0.528-2.774-2.963-4.873-5.891-4.873c-2.979,0-5.444,2.174-5.913,5.02
	l-453.18,9.96c-0.485-2.827-2.942-4.98-5.907-4.98c-3.092,0-5.636,2.34-5.963,5.346l-453.212,29.24c-0.637-2.63-3-4.585-5.825-4.585
	c-3.139,0-5.71,2.411-5.974,5.481L11.802,274.497C11.135,271.912,8.794,270,6,270c-3.314,0-6,2.686-6,6c0,3.314,2.686,6,6,6
	c3.148,0,5.726-2.426,5.975-5.51l453.215-39.015c0.658,2.599,3.006,4.525,5.81,4.525c3.118,0,5.679-2.379,5.971-5.42l453.185-29.238
	c0.61,2.667,2.992,4.658,5.844,4.658c2.979,0,5.444-2.173,5.913-5.02l453.18-9.96c0.485,2.827,2.942,4.98,5.907,4.98
	c3.017,0,5.506-2.228,5.929-5.127l453.165-9.848c0.487,2.824,2.943,4.975,5.906,4.975c2.979,0,5.444-2.173,5.913-5.019
	l453.215-9.747c0.569,2.721,2.981,4.766,5.872,4.766c3.016,0,5.505-2.228,5.929-5.126l453.181-9.742
	c0.53,2.772,2.964,4.868,5.89,4.868c3.017,0,5.506-2.228,5.93-5.128l453.164-9.852c0.485,2.827,2.942,4.98,5.907,4.98
	c3.058,0,5.575-2.289,5.948-5.245l453.15-19.709c0.496,2.814,2.947,4.954,5.903,4.954c3.017,0,5.506-2.228,5.93-5.128l453.163-9.858
	c0.483,2.829,2.94,4.985,5.908,4.985c3.017,0,5.506-2.228,5.93-5.127l453.18-9.746c0.528,2.774,2.963,4.873,5.891,4.873
	c3.017,0,5.506-2.228,5.93-5.128l453.163-9.856c0.484,2.828,2.941,4.983,5.907,4.983c3.024,0,5.519-2.239,5.933-5.149
	l453.164-19.805C5580.592,89.86,5583.043,92,5586,92c3.061,0,5.582-2.294,5.949-5.255l453.146-19.712
	c0.49,2.821,2.944,4.968,5.905,4.968c3.017,0,5.506-2.228,5.93-5.128l453.164-9.851c0.486,2.826,2.942,4.979,5.907,4.979
	c3.017,0,5.506-2.228,5.93-5.127l453.18-9.746c0.528,2.774,2.962,4.873,5.891,4.873c3.061,0,5.581-2.294,5.949-5.255l453.184-19.492
	C7440.71,29.965,7443.116,32,7446,32c3.061,0,5.581-2.294,5.949-5.255l453.184-19.492C7905.71,9.965,7908.117,12,7911,12
	c3.314,0,6-2.686,6-6S7914.314,0,7911,0z M6,280c-2.206,0-4-1.794-4-4s1.794-4,4-4s4,1.794,4,4S8.206,280,6,280z M471,240
	c-2.206,0-4-1.794-4-4s1.794-4,4-4s4,1.794,4,4S473.206,240,471,240z M936,210c-2.206,0-4-1.794-4-4s1.794-4,4-4s4,1.794,4,4
	S938.206,210,936,210z M1401,200c-2.206,0-4-1.794-4-4s1.794-4,4-4s4,1.794,4,4S1403.206,200,1401,200z M1866,190
	c-2.206,0-4-1.794-4-4s1.794-4,4-4s4,1.794,4,4S1868.206,190,1866,190z M2331,180c-2.206,0-4-1.794-4-4s1.794-4,4-4s4,1.794,4,4
	S2333.206,180,2331,180z M2796,170c-2.206,0-4-1.794-4-4s1.794-4,4-4s4,1.794,4,4S2798.206,170,2796,170z M3261,160
	c-2.206,0-4-1.794-4-4s1.794-4,4-4s4,1.794,4,4S3263.206,160,3261,160z M3726,140c-2.206,0-4-1.794-4-4s1.794-4,4-4s4,1.794,4,4
	S3728.206,140,3726,140z M4191,130c-2.206,0-4-1.794-4-4s1.794-4,4-4s4,1.794,4,4S4193.206,130,4191,130z M4656,120
	c-2.206,0-4-1.794-4-4c0-2.206,1.794-4,4-4s4,1.794,4,4C4660,118.206,4658.206,120,4656,120z M5121,110c-2.206,0-4-1.794-4-4
	c0-2.206,1.794-4,4-4s4,1.794,4,4C5125,108.206,5123.206,110,5121,110z M5586,90c-2.206,0-4-1.794-4-4c0-2.206,1.794-4,4-4
	s4,1.794,4,4C5590,88.206,5588.206,90,5586,90z M6051,70c-2.206,0-4-1.794-4-4c0-2.206,1.794-4,4-4s4,1.794,4,4
	C6055,68.206,6053.206,70,6051,70z M6516,60c-2.206,0-4-1.794-4-4c0-2.206,1.794-4,4-4s4,1.794,4,4C6520,58.206,6518.206,60,6516,60
	z M6981,50c-2.206,0-4-1.794-4-4c0-2.206,1.794-4,4-4s4,1.794,4,4C6985,48.206,6983.206,50,6981,50z M7446,30c-2.206,0-4-1.794-4-4
	c0-2.206,1.794-4,4-4s4,1.794,4,4C7450,28.206,7448.206,30,7446,30z M7911,10c-2.206,0-4-1.794-4-4c0-2.206,1.794-4,4-4s4,1.794,4,4
	C7915,8.206,7913.206,10,7911,10z"/>
</svg>
