<?xml version="1.0" standalone="no"?>
<!DOCTYPE svg PUBLIC "-//W3C//DTD SVG 20010904//EN"
 "http://www.w3.org/TR/2001/REC-SVG-20010904/DTD/svg10.dtd">
<svg version="1.0" xmlns="http://www.w3.org/2000/svg"
 width="260.000000pt" height="260.000000pt" viewBox="0 0 260.000000 260.000000"
 preserveAspectRatio="xMidYMid meet">
<metadata>
Created by potrace 1.11, written by Peter Selinger 2001-2013
</metadata>
<g transform="translate(0.000000,260.000000) scale(0.100000,-0.100000)"
fill="#000000" stroke="none">
<path d="M347 2253 l-347 -348 0 -940 c0 -719 3 -944 12 -953 9 -9 234 -12
951 -12 l939 0 348 348 347 347 2 939 c1 699 -1 942 -10 952 -10 12 -159 14
-953 14 l-941 0 -348 -347z m2158 258 c7 -1 10 -287 8 -893 l-2 -893 -126
-124 -125 -124 0 879 c0 536 -4 885 -10 894 -8 13 -119 15 -889 15 l-881 0
125 125 125 125 882 -1 c486 -1 888 -2 893 -3z m-328 -1211 l0 -880 -879 0
-878 0 0 880 0 880 878 0 879 0 0 -880z m-1843 -33 c-1 -468 -2 -857 -3 -864
-1 -11 -193 -210 -231 -240 -13 -10 -15 88 -15 848 l0 859 125 125 c69 69 125
125 125 125 0 0 -1 -384 -1 -853z m1770 -936 c5 0 -47 -56 -115 -124 l-124
-123 -850 2 c-467 1 -854 2 -858 3 -4 0 48 56 115 124 l124 122 849 -1 c468
-1 854 -2 859 -3z"/>
<path d="M686 1914 c-14 -14 -16 -83 -16 -610 0 -391 4 -602 10 -615 10 -18
28 -19 618 -19 460 0 611 3 620 12 9 9 12 159 12 614 0 534 -2 604 -16 618
-14 14 -83 16 -614 16 -531 0 -600 -2 -614 -16z m1154 -73 c4 -1 5 -1062 1
-1082 -1 -7 -1081 -7 -1082 1 -1 7 -1 1062 0 1075 1 7 186 10 539 9 295 -1
539 -2 542 -3z"/>
</g>
</svg>
